<svg width="230" height="230" viewBox="0 0 230 230" fill="none" xmlns="http://www.w3.org/2000/svg">
<path d="M211.638 137.217V161.147C211.638 163.227 210.811 165.222 209.34 166.693C207.869 168.164 205.874 168.99 203.794 168.99H117.987C115.908 168.988 113.915 168.161 112.445 166.691C110.976 165.22 110.15 163.226 110.15 161.147V140.924L99.4629 129.701L203.772 129.379C204.803 129.375 205.826 129.575 206.78 129.967C207.734 130.36 208.601 130.936 209.332 131.665C210.063 132.393 210.643 133.258 211.038 134.211C211.434 135.163 211.638 136.185 211.638 137.217Z" fill="#F5F5F5"/>
<path d="M122.795 143.875L200.663 143.514L200.652 141.121L122.79 141.482L122.795 143.875Z" fill="#E6E6E6"/>
<path d="M122.795 151.746L200.663 151.391L200.652 148.998L122.79 149.354L122.795 151.746Z" fill="#E6E6E6"/>
<path d="M153.588 156.884L122.78 157.035L122.791 159.427L153.6 159.277L153.588 156.884Z" fill="#E6E6E6"/>
<path d="M59.564 0H110.172C110.765 0 111.352 0.116759 111.9 0.343613C112.447 0.570466 112.945 0.902969 113.364 1.32214C113.783 1.74131 114.116 2.23894 114.343 2.78661C114.57 3.33428 114.686 3.92127 114.686 4.51407V29.2907C114.686 30.4879 114.211 31.636 113.364 32.4826C112.518 33.3291 111.37 33.8047 110.172 33.8047H67.2266C66.0294 33.8047 64.8812 33.3291 64.0347 32.4826C63.1881 31.636 62.7125 30.4879 62.7125 29.2907V3.12599L59.564 0Z" fill="#F5F5F5"/>
<path d="M123.145 45.0616V53.9543C123.145 54.5529 123.383 55.127 123.806 55.5503C124.229 55.9736 124.803 56.2114 125.402 56.2114H175.091C175.689 56.2114 176.263 55.9736 176.687 55.5503C177.11 55.127 177.348 54.5529 177.348 53.9543V49.0961L183.052 42.9908L125.408 42.8046C125.111 42.8038 124.817 42.8617 124.542 42.9748C124.268 43.0879 124.018 43.254 123.808 43.4636C123.598 43.6733 123.431 43.9224 123.317 44.1966C123.204 44.4708 123.145 44.7647 123.145 45.0616Z" fill="#F0F0F0"/>
<path d="M89.65 27.3721V43.2447C89.6507 43.9277 89.5168 44.6041 89.256 45.2352C88.9952 45.8664 88.6125 46.4399 88.1298 46.9231C87.6472 47.4063 87.0741 47.7896 86.4432 48.0511C85.8123 48.3126 85.1361 48.4472 84.4531 48.4472H27.5194C26.8365 48.4472 26.1603 48.3126 25.5294 48.0511C24.8985 47.7896 24.3254 47.4063 23.8427 46.9231C23.3601 46.4399 22.9774 45.8664 22.7166 45.2352C22.4557 44.6041 22.3219 43.9277 22.3226 43.2447V29.838L15.2524 22.3897L84.4362 22.1753C85.1201 22.1731 85.7977 22.3059 86.4301 22.566C87.0626 22.8262 87.6375 23.2086 88.1219 23.6914C88.6062 24.1742 88.9905 24.7479 89.2528 25.3795C89.515 26.0111 89.65 26.6883 89.65 27.3721Z" fill="#C3D6F6"/>
<path d="M30.7303 31.7903L82.3712 31.5533L82.3656 29.9678L30.7246 30.2048L30.7303 31.7903Z" fill="#F0F0F0"/>
<path d="M30.7303 37.0153L82.3712 36.7727L82.3656 35.1871L30.7246 35.4241L30.7303 37.0153Z" fill="#F0F0F0"/>
<path d="M51.1489 40.421L30.7173 40.5209L30.725 42.1064L51.1566 42.0066L51.1489 40.421Z" fill="#F0F0F0"/>
<path d="M5.76759 79.7523V103.688C5.76759 104.718 5.9705 105.738 6.36473 106.689C6.75895 107.64 7.33677 108.504 8.06515 109.232C8.79353 109.96 9.6582 110.537 10.6097 110.931C11.5613 111.324 12.5811 111.526 13.6108 111.526H99.4176C100.447 111.526 101.467 111.324 102.419 110.931C103.37 110.537 104.235 109.96 104.963 109.232C105.692 108.504 106.269 107.64 106.664 106.689C107.058 105.738 107.261 104.718 107.261 103.688V83.4652L117.942 72.2421L13.6334 71.8979C12.6005 71.8949 11.5773 72.0959 10.6223 72.4895C9.66743 72.883 8.79963 73.4613 8.06878 74.1911C7.33793 74.9209 6.75842 75.7878 6.36352 76.7422C5.96862 77.6965 5.7661 78.7195 5.76759 79.7523Z" fill="#F0F0F0"/>
<path d="M94.6104 86.4105L16.7427 86.055L16.754 83.6626L94.616 84.0181L94.6104 86.4105Z" fill="#E6E6E6"/>
<path d="M94.6104 94.2876L16.7427 93.9265L16.754 91.5341L94.616 91.8952L94.6104 94.2876Z" fill="#E6E6E6"/>
<path d="M63.8037 99.4103L63.792 101.803L94.6002 101.953L94.6118 99.5609L63.8037 99.4103Z" fill="#E6E6E6"/>
<path d="M174.221 23.3562C176.582 18.107 174.241 11.9375 168.992 9.57619C163.743 7.21491 157.573 9.55601 155.212 14.8052C152.851 20.0544 155.192 26.2239 160.441 28.5852C165.69 30.9465 171.86 28.6053 174.221 23.3562Z" fill="#F5F5F5"/>
<path d="M161.119 16.4538C161.508 16.4199 161.87 16.8544 161.915 17.4243C161.96 17.9942 161.683 18.4851 161.288 18.5189C160.893 18.5528 160.532 18.1127 160.487 17.5428C160.442 16.9729 160.724 16.482 161.119 16.4538Z" fill="#C3D6F6"/>
<path d="M162.033 13.813C161.406 13.8906 160.785 14.017 160.177 14.1911C159.601 14.4542 159.046 14.7617 158.518 15.1108C158.901 14.5612 159.444 14.1422 160.072 13.9102C160.701 13.6781 161.385 13.6442 162.033 13.813Z" fill="#C3D6F6"/>
<path d="M167.743 16.3184C167.343 16.3184 167.004 16.7472 166.982 17.3227C166.959 17.8983 167.258 18.3666 167.659 18.3835C168.059 18.4005 168.392 17.9491 168.415 17.3792C168.437 16.8093 168.138 16.3296 167.743 16.3184Z" fill="#C3D6F6"/>
<path d="M166.717 13.7172C167.355 13.5197 168.037 13.5219 168.674 13.7236C169.31 13.9254 169.87 14.3169 170.277 14.8457C169.738 14.5153 169.171 14.2303 168.584 13.9937C167.97 13.855 167.345 13.7626 166.717 13.7172Z" fill="#C3D6F6"/>
<path d="M169.854 18.9703C169.858 19.1611 169.833 19.3513 169.781 19.5346C169.648 20.036 169.434 20.5124 169.149 20.9452C168.74 21.5967 168.2 22.1559 167.563 22.5872C166.785 23.138 165.867 23.4569 164.915 23.5069C163.963 23.5568 163.017 23.3357 162.186 22.8694C161.506 22.5044 160.908 22.0031 160.431 21.3967C160.112 20.992 159.86 20.5385 159.686 20.0537C159.607 19.8756 159.563 19.6841 159.556 19.4895C159.827 20.1169 160.178 20.7068 160.6 21.2443C161.067 21.8064 161.643 22.2689 162.293 22.6042C163.082 23.0316 163.973 23.2329 164.869 23.1861C165.765 23.1394 166.631 22.8462 167.371 22.339C167.989 21.9381 168.52 21.4183 168.934 20.8098C169.317 20.238 169.626 19.6199 169.854 18.9703Z" fill="#C3D6F6"/>
<path d="M21.5107 136.223H23.006L26.3013 131.833V128.95C26.3013 128.95 28.6317 128.815 28.3608 132.59C28.09 136.364 28.3608 135.411 28.3608 135.411C28.3608 135.411 33.3094 135.411 33.7213 135.84C34.0204 136.139 34.1558 140.845 34.2066 143.395C34.2313 144.022 34.0428 144.639 33.6718 145.145C33.3009 145.652 32.7694 146.017 32.1639 146.183C31.979 146.226 31.7897 146.249 31.5997 146.25C30.426 146.222 24.1345 145.252 24.1345 145.252H21.5107V136.223Z" fill="#F0F0F0"/>
<path d="M17.1938 135.416L18.1192 145.285H20.7035V135.614L17.1938 135.416Z" fill="#F0F0F0"/>
<path d="M228.96 50.4109C228.604 50.0297 228.114 49.8028 227.593 49.7785C227.072 49.7543 226.562 49.9346 226.173 50.2811C225.786 50.5908 225.471 50.9818 225.252 51.4264C225.033 51.8711 224.914 52.3584 224.903 52.8541C224.812 52.3579 224.613 51.8877 224.32 51.4764C224.028 51.0651 223.649 50.7226 223.21 50.4729C222.775 50.1791 222.242 50.0665 221.725 50.1593C221.207 50.252 220.746 50.5426 220.44 50.9695C220.109 51.5552 220.008 52.2433 220.158 52.8992C220.256 53.5611 220.533 54.1835 220.959 54.6992C222.522 56.3582 223.329 56.6233 225.264 57.7462C227.025 56.3807 227.595 56.0534 228.915 54.1745C229.271 53.6073 229.466 52.9538 229.479 52.2842C229.543 51.6172 229.358 50.9503 228.96 50.4109Z" fill="#F0F0F0"/>
<path d="M135.982 202.654L77.254 202.377C75.5744 202.37 73.9126 202.033 72.3635 201.384C70.8144 200.735 69.4084 199.787 68.2257 198.594C67.043 197.402 66.1069 195.988 65.4709 194.433C64.8348 192.879 64.5113 191.214 64.5187 189.535L65.145 42.3025C65.1644 38.9123 66.5282 35.6684 68.9371 33.2828C71.346 30.8972 74.603 29.565 77.9932 29.5785L136.721 29.8493C140.113 29.8657 143.36 31.2283 145.748 33.6374C148.136 36.0466 149.47 39.3053 149.457 42.6975L148.836 189.913C148.819 193.306 147.456 196.555 145.046 198.944C142.636 201.333 139.376 202.667 135.982 202.654Z" fill="#719DE9"/>
<path d="M136.636 34.9163L125.25 34.8655C124.878 34.8714 124.512 34.9505 124.171 35.0985C123.83 35.2464 123.522 35.4602 123.264 35.7276C123.006 35.995 122.803 36.3107 122.668 36.6566C122.532 37.0025 122.466 37.3717 122.474 37.7432V39.8084C122.481 40.1798 122.415 40.5491 122.279 40.895C122.144 41.2409 121.941 41.5566 121.683 41.824C121.425 42.0914 121.117 42.3052 120.776 42.4531C120.436 42.6011 120.069 42.6802 119.697 42.6861L97.4882 42.5845C97.1162 42.5758 96.7496 42.4935 96.4095 42.3425C96.0694 42.1915 95.7626 41.9747 95.5067 41.7046C95.2507 41.4345 95.0507 41.1164 94.9182 40.7687C94.7857 40.421 94.7233 40.0505 94.7346 39.6786V37.6134C94.7458 37.2415 94.6834 36.871 94.5509 36.5233C94.4184 36.1756 94.2184 35.8575 93.9625 35.5874C93.7065 35.3173 93.3997 35.1005 93.0596 34.9495C92.7196 34.7985 92.353 34.7162 91.981 34.7075H87.9748L78.0269 34.6567C76.8502 34.6515 75.684 34.8781 74.5948 35.3236C73.5057 35.7691 72.515 36.4248 71.6793 37.2532C70.8436 38.0816 70.1792 39.0665 69.7241 40.1516C69.269 41.2368 69.0321 42.4009 69.0269 43.5776L68.4175 187.283C68.4085 189.659 69.343 191.941 71.0157 193.629C72.6884 195.316 74.9625 196.271 77.3385 196.283L135.948 196.554C137.125 196.559 138.291 196.332 139.38 195.887C140.469 195.441 141.46 194.786 142.296 193.957C143.131 193.129 143.796 192.144 144.251 191.059C144.706 189.974 144.943 188.81 144.948 187.633L145.557 43.9275C145.563 42.75 145.337 41.5829 144.892 40.4929C144.447 39.4028 143.792 38.411 142.963 37.5743C142.135 36.7375 141.15 36.0721 140.064 35.616C138.979 35.1599 137.814 34.9222 136.636 34.9163Z" fill="white"/>
<path d="M104.423 178.407C104.423 178.651 104.351 178.888 104.216 179.091C104.081 179.293 103.888 179.451 103.664 179.544C103.439 179.637 103.192 179.661 102.953 179.614C102.714 179.566 102.495 179.449 102.323 179.277C102.151 179.105 102.034 178.886 101.987 178.647C101.939 178.409 101.963 178.161 102.057 177.937C102.15 177.712 102.307 177.52 102.51 177.385C102.712 177.249 102.95 177.177 103.193 177.177C103.519 177.179 103.831 177.309 104.061 177.539C104.291 177.77 104.422 178.082 104.423 178.407Z" fill="#455A64"/>
<path d="M109.095 178.407C109.095 178.651 109.023 178.888 108.888 179.091C108.752 179.293 108.56 179.451 108.336 179.544C108.111 179.637 107.863 179.661 107.625 179.614C107.386 179.566 107.167 179.449 106.995 179.277C106.823 179.105 106.706 178.886 106.658 178.647C106.611 178.409 106.635 178.161 106.728 177.937C106.822 177.712 106.979 177.52 107.181 177.385C107.384 177.249 107.622 177.177 107.865 177.177C108.191 177.179 108.503 177.309 108.733 177.539C108.963 177.77 109.093 178.082 109.095 178.407Z" fill="#455A64"/>
<path d="M113.767 178.407C113.767 178.651 113.695 178.888 113.56 179.091C113.425 179.293 113.233 179.451 113.008 179.544C112.783 179.637 112.536 179.661 112.297 179.614C112.059 179.566 111.839 179.449 111.667 179.277C111.495 179.105 111.378 178.886 111.331 178.647C111.283 178.409 111.308 178.161 111.401 177.937C111.494 177.712 111.652 177.52 111.854 177.385C112.056 177.249 112.294 177.177 112.537 177.177C112.863 177.179 113.175 177.309 113.405 177.539C113.636 177.77 113.766 178.082 113.767 178.407Z" fill="#455A64"/>
<path d="M79.9456 75.007C79.9456 75.007 79.9456 74.9054 79.9456 74.6966C79.9887 73.878 80.2778 73.0913 80.7751 72.4396C81.1869 71.8785 81.7318 71.4287 82.3607 71.1305C83.1627 70.774 84.0426 70.6283 84.9168 70.7073H95.5925L140.733 70.7976H141.066L140.835 71.0402L135.051 77.1229L135.091 77.027V87.099C135.131 87.7703 135.082 88.444 134.944 89.1021C134.771 89.7615 134.444 90.3706 133.99 90.8796C133.546 91.3872 132.989 91.7851 132.365 92.0419C131.744 92.2861 131.08 92.3994 130.413 92.3748H111.996L87.3318 92.3241H84.7362C83.9055 92.3877 83.0723 92.2382 82.3155 91.8896C81.6273 91.5569 81.0394 91.0482 80.6113 90.415C80.1832 89.7817 79.9302 89.0465 79.8779 88.284C79.8779 85.4627 79.8779 83.0871 79.8779 81.1179C79.8779 79.1486 79.8779 77.6364 79.9061 76.6038C79.9061 76.0903 79.9061 75.701 79.9061 75.4245C79.9061 75.148 79.9061 75.0239 79.9061 75.0239C79.9061 75.0239 79.9061 75.1593 79.9061 75.4245C79.9061 75.6897 79.9061 76.0903 79.9061 76.6038C79.9061 77.6477 79.9061 79.1712 79.9061 81.1179C79.9061 83.0646 79.9061 85.4909 79.9456 88.2727C79.9997 89.0043 80.2464 89.7086 80.6607 90.3141C81.0749 90.9196 81.6419 91.4048 82.3042 91.7203C83.035 92.0543 83.8396 92.1943 84.6403 92.1266H87.3318L112.024 92.0984H126.604H130.43C131.058 92.1241 131.685 92.0184 132.269 91.788C132.853 91.5475 133.374 91.177 133.793 90.7046C134.214 90.2293 134.515 89.6607 134.673 89.0457C134.806 88.4117 134.854 87.7626 134.814 87.1159V76.9762L134.854 76.9367L140.643 70.854L140.75 71.0966L95.6095 70.9048L88.0258 70.8653H84.9281C84.0735 70.7812 83.2115 70.9151 82.4227 71.2546C81.8038 71.5404 81.265 71.9746 80.8541 72.5186C80.5499 72.9155 80.317 73.3623 80.1657 73.8389C80.0564 74.2206 79.9827 74.6116 79.9456 75.007Z" fill="#455A64"/>
<path d="M128.082 78.6181L85.8926 78.4206L85.8982 77.1228L128.082 77.3203V78.6181Z" fill="#455A64"/>
<path d="M128.082 82.884L85.8926 82.6865L85.8982 81.3887L128.082 81.5862V82.884Z" fill="#455A64"/>
<path d="M111.386 85.658L111.38 86.9558L128.07 87.0374L128.077 85.7396L111.386 85.658Z" fill="#455A64"/>
<path d="M137.302 103.581V116.559C137.302 117.685 136.856 118.765 136.06 119.561C135.264 120.358 134.185 120.806 133.059 120.808H86.5643C85.4374 120.808 84.3567 120.36 83.5599 119.563C82.763 118.766 82.3154 117.686 82.3154 116.559V105.595L76.5317 99.5126L133.037 99.3377C133.596 99.3347 134.15 99.4423 134.667 99.6542C135.185 99.8661 135.655 100.178 136.052 100.573C136.448 100.967 136.763 101.436 136.977 101.952C137.192 102.468 137.302 103.022 137.302 103.581Z" fill="#1A61DB"/>
<path d="M89.1712 107.192L131.361 106.995L131.355 105.697L89.1655 105.895L89.1712 107.192Z" fill="white"/>
<path d="M89.1712 111.458L131.361 111.261L131.355 109.968L89.1655 110.16L89.1712 111.458Z" fill="white"/>
<path d="M105.847 114.24L89.1567 114.322L89.1631 115.619L105.854 115.538L105.847 114.24Z" fill="white"/>
<path d="M111.995 53.9092C112.404 53.7308 112.751 53.435 112.992 53.0594C113.233 52.6838 113.358 52.2451 113.349 51.7989C113.364 51.5092 113.32 51.2195 113.22 50.9474C113.119 50.6753 112.964 50.4266 112.764 50.2162C112.564 50.0059 112.324 49.8384 112.057 49.724C111.791 49.6096 111.504 49.5505 111.214 49.5505C110.924 49.5505 110.637 49.6096 110.37 49.724C110.103 49.8384 109.863 50.0059 109.663 50.2162C109.463 50.4266 109.308 50.6753 109.208 50.9474C109.107 51.2195 109.063 51.5092 109.078 51.7989C109.067 52.2486 109.19 52.6914 109.433 53.0704C109.675 53.4495 110.025 53.7475 110.438 53.9261C107.148 54.4227 107.295 58.0001 107.295 58.0001L115.076 58.0339C115.076 58.0339 115.257 54.4058 111.995 53.9092Z" fill="#1A61DB"/>
<path opacity="0.5" d="M111.995 53.9092C112.404 53.7308 112.751 53.435 112.992 53.0594C113.233 52.6838 113.358 52.2451 113.349 51.7989C113.364 51.5092 113.32 51.2195 113.22 50.9474C113.119 50.6753 112.964 50.4266 112.764 50.2162C112.564 50.0059 112.324 49.8384 112.057 49.724C111.791 49.6096 111.504 49.5505 111.214 49.5505C110.924 49.5505 110.637 49.6096 110.37 49.724C110.103 49.8384 109.863 50.0059 109.663 50.2162C109.463 50.4266 109.308 50.6753 109.208 50.9474C109.107 51.2195 109.063 51.5092 109.078 51.7989C109.067 52.2486 109.19 52.6914 109.433 53.0704C109.675 53.4495 110.025 53.7475 110.438 53.9261C107.148 54.4227 107.295 58.0001 107.295 58.0001L115.076 58.0339C115.076 58.0339 115.257 54.4058 111.995 53.9092Z" fill="white"/>
<path d="M107.724 53.9092C108.131 53.728 108.477 53.4318 108.718 53.0569C108.96 52.6821 109.087 52.2448 109.084 51.7989C109.105 51.505 109.066 51.2099 108.968 50.9319C108.87 50.6539 108.716 50.3991 108.515 50.1833C108.315 49.9675 108.072 49.7954 107.801 49.6777C107.531 49.56 107.24 49.4993 106.945 49.4993C106.65 49.4993 106.359 49.56 106.089 49.6777C105.819 49.7954 105.576 49.9675 105.375 50.1833C105.174 50.3991 105.02 50.6539 104.922 50.9319C104.825 51.2099 104.785 51.505 104.807 51.7989C104.795 52.2486 104.919 52.6914 105.161 53.0705C105.403 53.4495 105.754 53.7475 106.166 53.9262C102.877 54.4227 103.023 58.0001 103.023 58.0001L110.805 58.034C110.805 58.034 110.985 54.4058 107.724 53.9092Z" fill="#1A61DB"/>
<path d="M119.622 59.6144L98.7056 59.5195L98.6938 62.1151L119.611 62.21L119.622 59.6144Z" fill="#1A61DB"/>
<path opacity="0.3" d="M119.622 59.6144L98.7056 59.5195L98.6938 62.1151L119.611 62.21L119.622 59.6144Z" fill="white"/>
<path d="M80.9218 133.131C80.9117 133.03 80.9117 132.928 80.9218 132.826C80.9558 132.522 81.0539 132.227 81.2095 131.963C81.4682 131.525 81.8652 131.186 82.3381 130.998C82.9917 130.82 83.6722 130.761 84.3468 130.823H97.2853L140.852 130.914H141.185L140.936 131.145L135.237 137.262L135.277 137.16V141.251C135.277 141.556 135.277 141.815 135.277 142.154C135.254 142.629 135.088 143.087 134.803 143.468C134.517 143.849 134.124 144.136 133.674 144.292C133.378 144.393 133.067 144.438 132.755 144.428H126.678H113.525L91.2816 144.382H83.6697C83.3432 144.4 83.0158 144.381 82.6936 144.326C82.2392 144.227 81.8247 143.995 81.503 143.659C81.1813 143.324 80.9672 142.9 80.8879 142.441C80.8546 142.163 80.8432 141.881 80.8541 141.601C80.8541 140.523 80.8541 139.541 80.8541 138.655C80.8541 136.889 80.8541 135.518 80.8823 134.57C80.8823 134.113 80.8823 133.763 80.8823 133.509C80.8823 133.255 80.8823 133.148 80.8823 133.148C80.8823 133.148 80.8823 133.272 80.8823 133.509C80.8823 133.746 80.8823 134.113 80.8823 134.57C80.8823 135.518 80.8823 136.889 80.9105 138.655C80.9105 139.541 80.9105 140.523 80.9105 141.601C80.901 141.872 80.9142 142.144 80.95 142.413C81.0242 142.842 81.2252 143.238 81.527 143.551C81.8287 143.863 82.2174 144.078 82.6428 144.168C82.9545 144.215 83.2703 144.23 83.5851 144.213H86.7675H91.2816L113.547 144.179H132.772C133.049 144.19 133.326 144.149 133.59 144.061C134.119 143.875 134.553 143.488 134.797 142.983C134.918 142.732 134.987 142.46 135 142.182C135 141.9 135 141.589 135 141.296V137.149L135.04 137.109L140.75 131.004L140.852 131.247L97.2909 131.06L84.3525 130.976C83.6907 130.903 83.0213 130.953 82.3776 131.122C82.0123 131.267 81.691 131.504 81.4456 131.811C81.2001 132.118 81.039 132.483 80.9782 132.872C80.9639 132.959 80.9451 133.046 80.9218 133.131Z" fill="#455A64"/>
<path d="M129.973 136.551L87.7832 136.359L87.7888 135.061L129.978 135.258L129.973 136.551Z" fill="#455A64"/>
<path d="M112.861 139.343L112.854 140.641L129.974 140.725L129.98 139.427L112.861 139.343Z" fill="#455A64"/>
<path d="M135.818 156.277V165.164C135.818 165.763 135.58 166.337 135.157 166.76C134.734 167.183 134.16 167.421 133.561 167.421H83.8723C83.2737 167.421 82.6997 167.183 82.2764 166.76C81.8531 166.337 81.6153 165.763 81.6153 165.164V160.306L75.9106 154.201L133.561 154.02C134.16 154.02 134.734 154.258 135.157 154.681C135.58 155.104 135.818 155.679 135.818 156.277Z" fill="#1A61DB"/>
<path d="M86.7732 159.696L128.963 159.505L128.957 158.207L86.7676 158.404L86.7732 159.696Z" fill="white"/>
<path d="M86.7732 163.872L128.963 163.674L128.957 162.382L86.7676 162.574L86.7732 163.872Z" fill="white"/>
<path d="M203.823 49.7393C207.478 49.7393 210.442 46.776 210.442 43.1206C210.442 39.4652 207.478 36.5018 203.823 36.5018C200.167 36.5018 197.204 39.4652 197.204 43.1206C197.204 46.776 200.167 49.7393 203.823 49.7393Z" fill="#1A61DB"/>
<path opacity="0.5" d="M203.823 49.7393C207.478 49.7393 210.442 46.776 210.442 43.1206C210.442 39.4652 207.478 36.5018 203.823 36.5018C200.167 36.5018 197.204 39.4652 197.204 43.1206C197.204 46.776 200.167 49.7393 203.823 49.7393Z" fill="white"/>
<path d="M201.628 41.2247C201.876 41.2247 202.102 41.4899 202.124 41.8511C202.147 42.2122 201.961 42.5225 201.707 42.5338C201.453 42.5451 201.233 42.2686 201.21 41.9075C201.188 41.5464 201.374 41.236 201.628 41.2247Z" fill="#719DE9"/>
<path d="M202.243 39.5601C202.243 39.6561 201.679 39.6278 201.114 39.8423C200.55 40.0567 200.093 40.4065 200.025 40.3388C199.958 40.2711 200.302 39.7746 201.002 39.5263C201.701 39.278 202.271 39.4755 202.243 39.5601Z" fill="#719DE9"/>
<path d="M207.039 42.2574C206.966 42.3138 206.61 41.9301 206.04 41.8737C205.471 41.8173 205.042 42.1051 204.985 42.0373C204.929 41.9696 205.03 41.8737 205.217 41.7439C205.474 41.5824 205.778 41.511 206.08 41.5408C206.381 41.5736 206.662 41.709 206.876 41.9245C207.034 42.0938 207.073 42.2292 207.039 42.2574Z" fill="#719DE9"/>
<path d="M207.609 41.1514C207.558 41.2304 207.045 40.9539 206.306 40.9313C205.567 40.9088 205.03 41.1345 204.985 41.0442C205.156 40.8689 205.365 40.737 205.597 40.6594C205.829 40.5819 206.076 40.5609 206.317 40.5984C207.141 40.6266 207.666 41.0893 207.609 41.1514Z" fill="#719DE9"/>
<path d="M207.141 42.9908C207.144 43.4483 206.997 43.8942 206.723 44.2604C206.435 44.7431 206.03 45.1455 205.545 45.4305C205.06 45.7155 204.512 45.8741 203.95 45.8915C203.388 45.9089 202.831 45.7847 202.329 45.5302C201.828 45.2757 201.398 44.8992 201.081 44.4354C200.78 44.0896 200.607 43.6516 200.59 43.194C200.784 43.5882 201.01 43.9657 201.267 44.3225C201.581 44.725 201.986 45.0478 202.449 45.2645C202.912 45.4813 203.419 45.5859 203.929 45.57C204.44 45.554 204.94 45.418 205.388 45.1728C205.836 44.9276 206.22 44.5802 206.509 44.1589C206.747 43.7848 206.958 43.3945 207.141 42.9908Z" fill="#719DE9"/>
<path d="M18.6161 160.199C18.5595 162.039 17.9586 163.821 16.8894 165.32C15.8202 166.818 14.3306 167.966 12.609 168.619C10.8874 169.271 9.01105 169.398 7.21714 168.984C5.42324 168.57 3.79232 167.634 2.53054 166.293C1.26876 164.953 0.43277 163.268 0.128251 161.452C-0.176269 159.637 0.0643523 157.772 0.819695 156.093C1.57504 154.414 2.81119 152.996 4.3719 152.02C5.9326 151.043 7.74779 150.551 9.588 150.606C10.8108 150.643 12.0145 150.92 13.1301 151.422C14.2458 151.924 15.2516 152.641 16.09 153.532C16.9285 154.422 17.5831 155.47 18.0166 156.614C18.45 157.758 18.6538 158.976 18.6161 160.199Z" fill="#1A61DB"/>
<path opacity="0.5" d="M18.6161 160.199C18.5595 162.039 17.9586 163.821 16.8894 165.32C15.8202 166.818 14.3306 167.966 12.609 168.619C10.8874 169.271 9.01105 169.398 7.21714 168.984C5.42324 168.57 3.79232 167.634 2.53054 166.293C1.26876 164.953 0.43277 163.268 0.128251 161.452C-0.176269 159.637 0.0643523 157.772 0.819695 156.093C1.57504 154.414 2.81119 152.996 4.3719 152.02C5.9326 151.043 7.74779 150.551 9.588 150.606C10.8108 150.643 12.0145 150.92 13.1301 151.422C14.2458 151.924 15.2516 152.641 16.09 153.532C16.9285 154.422 17.5831 155.47 18.0166 156.614C18.45 157.758 18.6538 158.976 18.6161 160.199Z" fill="white"/>
<path d="M7.47747 157.355C7.31285 157.14 7.07095 156.998 6.80327 156.959C6.53559 156.92 6.26326 156.987 6.04425 157.146C5.83233 157.289 5.65362 157.476 5.52024 157.694C5.38686 157.912 5.30193 158.156 5.27121 158.41C5.24752 158.151 5.16881 157.901 5.04035 157.675C4.91189 157.449 4.73666 157.253 4.52639 157.101C4.31497 156.932 4.04646 156.85 3.77649 156.873C3.50653 156.896 3.2558 157.022 3.07625 157.225C2.87916 157.51 2.79472 157.858 2.83926 158.201C2.85826 158.546 2.96933 158.879 3.16089 159.166C3.73391 159.883 4.43634 160.486 5.23172 160.944C6.01582 160.529 6.71156 159.966 7.27997 159.285C7.48737 159.01 7.61785 158.684 7.65803 158.342C7.72369 158.002 7.65925 157.65 7.47747 157.355Z" fill="#1A61DB"/>
<path d="M15.6708 157.586C15.5062 157.371 15.2638 157.229 14.9958 157.191C14.7277 157.153 14.4554 157.222 14.2376 157.383C14.0241 157.524 13.8442 157.711 13.7106 157.929C13.5771 158.147 13.4931 158.393 13.4646 158.647C13.4409 158.388 13.3622 158.138 13.2337 157.912C13.1052 157.686 12.93 157.49 12.7197 157.338C12.5089 157.167 12.24 157.085 11.9697 157.108C11.6993 157.131 11.4484 157.258 11.2696 157.462C11.0715 157.746 10.987 158.095 11.0326 158.438C11.0488 158.783 11.1601 159.117 11.3542 159.403C11.9272 160.12 12.6297 160.723 13.4251 161.18C14.2067 160.762 14.9018 160.199 15.4733 159.522C15.6809 159.245 15.8114 158.917 15.8514 158.574C15.9159 158.233 15.8516 157.881 15.6708 157.586Z" fill="#1A61DB"/>
<path d="M12.3304 162.207C12.2388 162.978 11.8589 163.685 11.2672 164.186C10.6755 164.688 9.9158 164.947 9.14094 164.911C8.36608 164.875 7.63349 164.547 7.09046 163.994C6.54743 163.44 6.23424 162.701 6.21387 161.925L12.3304 162.207Z" fill="white"/>
<path d="M183.594 219.689L182.465 213.73L171.772 215.626L173.324 224.558L173.996 224.485C176.981 224.129 189.095 222.279 190.957 221.302C193.062 220.213 183.594 219.689 183.594 219.689Z" fill="#1A61DB"/>
<path d="M191.155 220.71C191.155 220.811 187.205 221.63 182.262 222.538C177.319 223.447 173.324 224.101 173.307 224C173.29 223.898 177.257 223.085 182.194 222.177C187.132 221.268 191.121 220.614 191.155 220.71Z" fill="#719DE9"/>
<path d="M184.006 220.862C183.91 220.828 183.927 220.501 184.102 220.151C184.277 219.801 184.519 219.587 184.604 219.638C184.689 219.689 184.604 219.982 184.429 220.309C184.254 220.637 184.102 220.902 184.006 220.862Z" fill="#719DE9"/>
<path d="M184.762 221.139C184.66 221.139 184.643 220.761 184.762 220.349C184.88 219.937 185.14 219.666 185.23 219.711C185.32 219.756 185.23 220.089 185.112 220.467C184.993 220.845 184.863 221.156 184.762 221.139Z" fill="#719DE9"/>
<path d="M176.484 223.368C176.445 223.407 176.258 223.277 175.976 223.057C175.627 222.766 175.249 222.511 174.848 222.295C174.485 222.096 174.077 221.992 173.663 221.991C173.33 221.991 173.127 222.098 173.099 222.047C173.07 221.996 173.245 221.827 173.629 221.731C174.125 221.632 174.64 221.71 175.085 221.951C175.514 222.182 175.896 222.49 176.213 222.86C176.416 223.119 176.535 223.334 176.484 223.368Z" fill="#719DE9"/>
<path d="M183.819 219.734C183.887 219.807 183.74 220.05 183.458 220.219C183.176 220.388 182.894 220.399 182.86 220.304C182.826 220.208 183.024 220.05 183.272 219.897C183.52 219.745 183.763 219.666 183.819 219.734Z" fill="#719DE9"/>
<path d="M183.56 219.198C183.56 219.299 183.317 219.435 182.956 219.508C182.595 219.581 182.296 219.553 182.285 219.452C182.273 219.35 182.544 219.215 182.883 219.147C183.221 219.079 183.532 219.102 183.56 219.198Z" fill="#719DE9"/>
<path d="M196.459 156.689C193.147 150.003 175.395 124.137 175.395 124.137L165.921 125.13V125.074L155.319 126.236L149.473 126.879L170.638 219.322L185.275 219.057L181.754 201.954C184.175 195.888 198.293 160.391 196.459 156.689ZM181.359 160.678L176.129 174.723L170.204 145.946L181.359 160.678Z" fill="#719DE9"/>
<path d="M169.617 81.4395C169.482 80.4746 170.001 76.4628 170.001 76.4628C170.001 76.4628 173.686 76.1919 174.03 72.5581C174.374 68.9243 174.413 60.5112 174.413 60.5112L167.829 57.024L160.284 62.3619L158.332 67.4403L160.905 73.7487L160.826 75.8364V80.6157L169.617 81.4395Z" fill="#FFBE9D"/>
<path d="M173.922 66.6052C173.92 66.698 173.89 66.788 173.837 66.8639C173.783 66.9397 173.708 66.9979 173.621 67.031C173.535 67.0642 173.44 67.0708 173.35 67.0501C173.259 67.0293 173.177 66.9822 173.113 66.9146C173.049 66.8469 173.007 66.7619 172.992 66.6703C172.977 66.5788 172.989 66.4847 173.028 66.4001C173.066 66.3156 173.129 66.2443 173.208 66.1954C173.286 66.1465 173.378 66.1222 173.471 66.1255C173.532 66.127 173.593 66.1406 173.649 66.1656C173.704 66.1905 173.755 66.2264 173.797 66.271C173.839 66.3156 173.872 66.3681 173.893 66.4255C173.915 66.4829 173.925 66.5439 173.922 66.6052Z" fill="#719DE9"/>
<path d="M173.956 66.1143C173.894 66.1763 173.556 65.8716 173.059 65.8265C172.563 65.7814 172.173 66.0127 172.122 65.945C172.072 65.8773 172.162 65.8039 172.331 65.6967C172.558 65.5599 172.824 65.5005 173.087 65.5274C173.349 65.5495 173.597 65.6565 173.793 65.8321C173.939 65.9732 173.985 66.0917 173.956 66.1143Z" fill="#719DE9"/>
<path d="M168.02 66.0353C168.095 66.09 168.152 66.1656 168.184 66.2526C168.215 66.3396 168.221 66.4341 168.199 66.5241C168.177 66.614 168.129 66.6955 168.061 66.7582C167.992 66.8208 167.907 66.8619 167.816 66.8761C167.724 66.8903 167.63 66.877 167.546 66.838C167.462 66.7989 167.392 66.7359 167.344 66.6567C167.296 66.5776 167.272 66.486 167.276 66.3935C167.28 66.3009 167.311 66.2116 167.366 66.1368C167.402 66.0872 167.448 66.0452 167.5 66.0132C167.553 65.9812 167.611 65.9599 167.672 65.9505C167.733 65.9411 167.795 65.9437 167.854 65.9582C167.914 65.9728 167.971 65.999 168.02 66.0353Z" fill="#719DE9"/>
<path d="M168.387 65.9393C168.325 65.9958 167.992 65.6911 167.49 65.6516C166.988 65.6121 166.604 65.8378 166.553 65.7644C166.502 65.6911 166.593 65.629 166.762 65.5218C166.989 65.3845 167.254 65.3233 167.518 65.3469C167.782 65.3705 168.032 65.4794 168.229 65.6572C168.376 65.7926 168.421 65.9111 168.387 65.9393Z" fill="#719DE9"/>
<path d="M170.063 70.239C170.333 70.1788 170.61 70.1522 170.887 70.16C171.017 70.16 171.141 70.16 171.175 70.0528C171.192 69.9124 171.17 69.77 171.113 69.6409C171.017 69.308 170.915 68.9582 170.802 68.5914C170.509 67.6972 170.283 66.7825 170.125 65.8547C170.251 66.1009 170.349 66.3602 170.418 66.6278C170.576 67.113 170.785 67.7845 170.983 68.535C171.084 68.9017 171.186 69.2572 171.276 69.5901C171.347 69.7579 171.359 69.945 171.31 70.1205C171.29 70.1644 171.259 70.2028 171.221 70.2323C171.182 70.2617 171.138 70.2815 171.09 70.2898C171.017 70.3004 170.943 70.3004 170.87 70.2898C170.6 70.3049 170.329 70.2878 170.063 70.239Z" fill="#719DE9"/>
<path d="M168.393 70.6566C167.89 70.3067 169.764 71.5424 170.791 71.5707C170.599 71.8233 170.326 72.003 170.019 72.0799C169.711 72.1569 169.386 72.1265 169.098 71.9939C168.054 71.503 168.393 70.6566 168.393 70.6566Z" fill="white"/>
<path d="M170.001 76.4627C168.272 76.3354 166.616 75.7167 165.227 74.6797C165.227 74.6797 166.231 77.3881 169.893 77.3543L170.001 76.4627Z" fill="#EB996E"/>
<path d="M161.334 68.4559C161.334 68.4559 161.283 68.4954 161.193 68.5462C161.066 68.6058 160.921 68.6159 160.787 68.5744C160.578 68.4601 160.405 68.2919 160.283 68.0874C160.162 67.883 160.098 67.6497 160.098 67.412C160.073 67.1463 160.108 66.8782 160.2 66.6277C160.223 66.5293 160.27 66.4382 160.337 66.3624C160.404 66.2866 160.489 66.2285 160.584 66.1932C160.644 66.1719 160.71 66.1726 160.77 66.1953C160.83 66.2181 160.88 66.2613 160.911 66.3174C160.956 66.402 160.939 66.4697 160.956 66.4697C160.973 66.4697 161.024 66.4133 160.99 66.2891C160.968 66.2132 160.92 66.1473 160.854 66.1029C160.811 66.0725 160.761 66.0513 160.709 66.0407C160.656 66.03 160.602 66.0301 160.55 66.0409C160.424 66.0736 160.309 66.138 160.215 66.2279C160.121 66.3178 160.052 66.4302 160.014 66.5544C159.898 66.8326 159.852 67.1346 159.878 67.4346C159.882 67.712 159.966 67.9823 160.122 68.212C160.277 68.4417 160.497 68.6207 160.753 68.7267C160.837 68.7463 160.925 68.7463 161.009 68.7268C161.093 68.7072 161.171 68.6686 161.238 68.6139C161.334 68.5123 161.345 68.4615 161.334 68.4559Z" fill="#EB996E"/>
<path d="M175.356 61.1149C175.157 61.1816 174.95 61.2214 174.741 61.2334C175.427 60.8733 175.99 60.3175 176.36 59.6366C176.63 59.1661 176.773 58.633 176.773 58.0905C176.773 57.5479 176.63 57.0149 176.36 56.5444C176.069 56.0894 175.62 55.7574 175.1 55.6117C174.58 55.466 174.024 55.5168 173.539 55.7545C173.726 55.3662 173.765 54.9234 173.65 54.5082C173.535 54.093 173.273 53.7338 172.913 53.4974C172.538 53.2754 172.119 53.1404 171.685 53.1023C171.251 53.0642 170.815 53.1241 170.407 53.2774C169.595 53.5905 168.834 54.0242 168.15 54.5639C168.099 54.272 167.979 53.9966 167.799 53.7609C167.619 53.5253 167.386 53.3362 167.118 53.2097C166.579 52.9595 165.975 52.8826 165.391 52.9896C164.542 53.135 163.758 53.5378 163.146 54.1433C162.533 54.7488 162.121 55.5279 161.966 56.3751C161.699 56.102 161.367 55.902 161.001 55.7944C160.635 55.6869 160.248 55.6753 159.876 55.7609C159.504 55.8465 159.16 56.0263 158.878 56.2831C158.596 56.5399 158.385 56.865 158.264 57.2272C158.267 57.2534 158.267 57.2799 158.264 57.3062C157.926 57.4529 157.642 57.7014 157.452 58.0171C157.291 58.2866 157.192 58.5882 157.162 58.9004C157.132 59.2125 157.171 59.5275 157.277 59.8228C157.493 60.4028 157.888 60.8989 158.405 61.2391C158.604 61.3784 158.779 61.5478 158.925 61.7412C159.036 61.91 159.104 62.1039 159.122 62.3055C159.071 63.5243 158.451 64.6754 158.146 65.8716C157.728 67.5305 158.648 69.7932 159.178 71.4183C159.709 73.0433 159.895 73.6753 160.928 73.8051L161.086 69.4377C159.957 70.3631 158.451 67.1807 159.438 65.9111C160.425 64.6415 161.475 65.076 161.656 65.8773C161.725 66.1852 161.814 66.4885 161.921 66.7857H163.049L162.925 65.8321C162.925 65.8321 162.694 61.5945 164.719 61.3181C165.248 61.2059 165.8 61.3073 166.254 61.6002C166.907 61.863 167.614 61.9618 168.314 61.8879C169.036 61.8879 170.007 61.0641 170.007 60.3475C170.42 60.8297 170.944 61.2051 171.533 61.4418C172.122 61.6785 172.76 61.7696 173.392 61.7074C173.719 61.6732 174.04 61.5954 174.346 61.476C174.727 61.5818 175.132 61.5719 175.508 61.4478C175.895 61.3221 176.234 61.0797 176.479 60.7538C176.659 60.4999 176.693 60.308 176.659 60.2911C176.288 60.6544 175.843 60.9352 175.356 61.1149ZM158.541 60.9795C158.081 60.6598 157.731 60.2069 157.536 59.6817C157.445 59.4271 157.409 59.1558 157.432 58.8861C157.454 58.6165 157.534 58.3548 157.666 58.1187C157.785 57.8923 157.957 57.6985 158.168 57.5544C157.977 58.8353 158.812 60.1331 159.032 61.4704C158.896 61.2885 158.739 61.1237 158.563 60.9795H158.541Z" fill="#1A61DB"/>
<path d="M194.755 66.4133V73.6866C194.755 74.4782 195.069 75.2374 195.629 75.7972C196.189 76.357 196.948 76.6715 197.74 76.6715H210.34V80.8301L212.597 76.852C213.265 76.8036 213.891 76.5036 214.347 76.0127C214.804 75.5217 215.057 74.876 215.057 74.2057V66.4133C215.056 66.0184 214.977 65.6276 214.824 65.2635C214.672 64.8994 214.448 64.5693 214.167 64.2922C213.885 64.0151 213.552 63.7965 213.186 63.6492C212.819 63.5019 212.427 63.4288 212.032 63.434H197.74C196.949 63.434 196.191 63.7477 195.631 64.3062C195.072 64.8648 194.756 65.6226 194.755 66.4133Z" fill="#1A61DB"/>
<path d="M201.611 70.4365C201.611 70.6798 201.538 70.9176 201.403 71.1199C201.268 71.3222 201.076 71.4799 200.851 71.573C200.626 71.6661 200.379 71.6904 200.141 71.643C199.902 71.5955 199.683 71.4783 199.511 71.3063C199.339 71.1343 199.221 70.9151 199.174 70.6765C199.127 70.4379 199.151 70.1905 199.244 69.9658C199.337 69.741 199.495 69.5489 199.697 69.4137C199.899 69.2786 200.137 69.2064 200.38 69.2064C200.707 69.2064 201.02 69.336 201.25 69.5667C201.481 69.7974 201.611 70.1103 201.611 70.4365Z" fill="white"/>
<path d="M206.282 70.4365C206.282 70.6798 206.21 70.9176 206.075 71.1199C205.94 71.3222 205.748 71.4799 205.523 71.573C205.298 71.6661 205.051 71.6904 204.812 71.643C204.574 71.5955 204.355 71.4783 204.183 71.3063C204.011 71.1343 203.893 70.9151 203.846 70.6765C203.798 70.4379 203.823 70.1905 203.916 69.9658C204.009 69.741 204.167 69.5489 204.369 69.4137C204.571 69.2786 204.809 69.2064 205.052 69.2064C205.379 69.2064 205.691 69.336 205.922 69.5667C206.153 69.7974 206.282 70.1103 206.282 70.4365Z" fill="white"/>
<path d="M210.955 70.4365C210.955 70.6798 210.883 70.9176 210.747 71.1199C210.612 71.3222 210.42 71.4799 210.195 71.573C209.971 71.6661 209.723 71.6904 209.485 71.643C209.246 71.5955 209.027 71.4783 208.855 71.3063C208.683 71.1343 208.566 70.9151 208.518 70.6765C208.471 70.4379 208.495 70.1905 208.588 69.9658C208.681 69.741 208.839 69.5489 209.041 69.4137C209.244 69.2786 209.481 69.2064 209.725 69.2064C210.051 69.2064 210.364 69.336 210.595 69.5667C210.825 69.7974 210.955 70.1103 210.955 70.4365Z" fill="white"/>
<path d="M204.697 88.0301C204.443 87.4659 188.418 101.612 185.224 102.097L175.88 89.9204C175.88 89.9204 173.939 86.8452 169.769 81.575C167.083 78.1895 159.663 78.8779 157.711 83.0252C154.399 90.0615 154.286 99.3887 151.724 114.375L149.558 127.088C149.558 127.088 152.757 126.71 152.746 126.738L175.497 124.374L176.061 109.139C180.575 113.698 181.952 114.652 184.293 114.291C190.179 113.377 210.768 94.8577 210.768 94.8577C210.768 94.8577 204.945 88.6057 204.697 88.0301Z" fill="#455A64"/>
<path d="M207.993 97.4475C207.581 97.1974 207.203 96.898 206.864 96.556C205.104 94.9929 203.569 93.1926 202.305 91.2068C202.02 90.8093 201.786 90.377 201.611 89.9203C201.916 90.2864 202.193 90.675 202.44 91.0827C202.959 91.8106 203.699 92.8036 204.584 93.8419C205.47 94.8801 206.328 95.766 206.966 96.398C207.336 96.7188 207.68 97.0699 207.993 97.4475Z" fill="#719DE9"/>
<path d="M184.316 106.921C184.413 105.285 184.701 103.666 185.174 102.097C185.084 103.734 184.796 105.354 184.316 106.921Z" fill="#719DE9"/>
<path d="M186.359 106.419C186.028 105.756 185.787 105.052 185.642 104.326C185.4 103.627 185.254 102.898 185.208 102.159C185.535 102.823 185.776 103.527 185.924 104.252C186.163 104.953 186.309 105.681 186.359 106.419Z" fill="#719DE9"/>
<path opacity="0.2" d="M163.98 93.1534L175.824 115.543L176.089 108.902L163.98 93.1534Z" fill="black"/>
<path d="M163.213 92.0645C163.42 92.2739 163.608 92.5004 163.777 92.7416L165.188 94.6318C166.378 96.2343 168.043 98.4293 169.911 100.839L174.707 106.983L176.146 108.857C176.331 109.079 176.497 109.317 176.642 109.568C176.437 109.371 176.248 109.158 176.078 108.93C175.689 108.456 175.181 107.847 174.566 107.113C173.302 105.567 171.57 103.423 169.702 101.019C167.834 98.6155 166.192 96.3923 165.041 94.7616C164.477 93.9434 164.008 93.2776 163.704 92.8093C163.518 92.5764 163.354 92.3271 163.213 92.0645Z" fill="#719DE9"/>
<path d="M163.585 99.0612C163.489 98.8428 163.419 98.6136 163.377 98.3785C163.264 97.9327 163.117 97.2951 162.942 96.5108L163.117 96.5954L160.787 97.8537L160.629 97.9384L160.578 97.7634C160.493 97.4587 160.403 97.1371 160.307 96.8099L159.901 95.3484L160.11 95.4331L157.813 96.7252L157.672 96.8042V96.6462C157.538 95.95 157.459 95.2444 157.435 94.5359C157.639 95.2153 157.79 95.9095 157.886 96.6124L157.723 96.5334L159.98 95.1848L160.138 95.0889L160.189 95.2694C160.318 95.7378 160.459 96.2287 160.601 96.7309C160.696 97.0581 160.787 97.3798 160.871 97.6845L160.663 97.5998L163.016 96.3754L163.157 96.2964L163.185 96.4544C163.332 97.2387 163.45 97.8876 163.518 98.339C163.571 98.5759 163.593 98.8186 163.585 99.0612Z" fill="#719DE9"/>
<path d="M166.367 86.405C166.142 86.3188 165.93 86.2031 165.735 86.0608C165.346 85.8182 164.799 85.4627 164.133 85.0226L164.313 84.9605C164.076 85.711 163.811 86.5686 163.523 87.4884L163.467 87.6633L163.309 87.573L162.451 87.0708L161.142 86.3034L161.351 86.2188L160.601 88.7467L160.555 88.899L160.431 88.8031C159.852 88.394 159.305 87.9413 158.795 87.4489C159.412 87.7981 160.002 88.1923 160.561 88.6282L160.392 88.6846C160.589 87.9398 160.821 87.0821 161.075 86.1454L161.125 85.9649L161.283 86.0608L162.598 86.8169L163.456 87.3191L163.247 87.3981L164.071 84.8759L164.127 84.7235L164.257 84.8138C164.906 85.2765 165.436 85.6602 165.803 85.9423C166.009 86.0727 166.199 86.2281 166.367 86.405Z" fill="#719DE9"/>
<path d="M174.678 90.7554C174.48 90.6191 174.3 90.4579 174.142 90.2758C173.815 89.9542 173.352 89.4859 172.799 88.9103H172.991C172.596 89.5931 172.145 90.3661 171.665 91.2068L171.575 91.3592L171.44 91.2351L170.712 90.5636L169.583 89.531L169.809 89.4915C169.335 90.3435 168.9 91.1166 168.522 91.788L168.443 91.9291L168.342 91.8106C167.867 91.2797 167.433 90.7138 167.044 90.1178C167.57 90.5926 168.06 91.1056 168.511 91.6526H168.33L169.555 89.3222L169.645 89.1586L169.781 89.2827L170.909 90.3153L171.631 90.9924H171.411L172.777 88.7354L172.861 88.6L172.969 88.7185C173.533 89.2827 173.939 89.8018 174.233 90.1517C174.409 90.3312 174.559 90.5344 174.678 90.7554Z" fill="#C3D6F6"/>
<path d="M196.594 105.003C196.594 105.003 196.402 104.822 196.12 104.467C195.838 104.111 195.438 103.587 194.964 102.943H195.155L193.553 105.054L193.44 105.195L193.327 105.059L192.684 104.298L191.719 103.135H191.945L190.382 105.251L190.286 105.381L190.201 105.251C189.798 104.669 189.438 104.058 189.124 103.423C189.586 103.954 190.007 104.52 190.382 105.116H190.201C190.647 104.489 191.155 103.762 191.713 102.96L191.821 102.814L191.939 102.955L192.915 104.117L193.553 104.879H193.327L194.969 102.802L195.071 102.672L195.161 102.802C195.618 103.462 195.985 104.004 196.239 104.388C196.379 104.579 196.499 104.786 196.594 105.003Z" fill="#719DE9"/>
<path d="M183.024 103.863C182.821 103.747 182.632 103.609 182.46 103.451C182.099 103.169 181.585 102.757 180.97 102.255L181.156 102.21L180.084 104.625L180.017 104.789L179.87 104.681L179.063 104.117L177.839 103.214L178.059 103.152C177.686 104.055 177.348 104.845 177.049 105.584L176.987 105.737L176.874 105.624C176.34 105.16 175.844 104.654 175.39 104.111C175.967 104.521 176.512 104.974 177.02 105.466L176.845 105.505C177.122 104.783 177.444 103.953 177.793 103.051L177.861 102.876L178.008 102.983L179.238 103.874L180.039 104.439L179.819 104.501L180.914 102.086L180.981 101.939L181.1 102.041C181.698 102.571 182.189 103.006 182.528 103.316C182.866 103.626 183.041 103.841 183.024 103.863Z" fill="#C3D6F6"/>
<path d="M202.44 100.675C202.363 100.449 202.314 100.214 202.293 99.9755C202.226 99.5184 202.135 98.847 202.034 98.0796L202.203 98.1755L199.765 99.225L199.602 99.2927L199.568 99.1178C199.512 98.8018 199.449 98.4746 199.387 98.1417C199.292 97.6225 199.201 97.126 199.117 96.6464L199.314 96.7479L196.916 97.8539L196.769 97.916V97.758C196.7 97.0529 196.687 96.3435 196.73 95.6364C196.87 96.332 196.955 97.0376 196.984 97.7467L196.831 97.6508L199.207 96.5222L199.371 96.4376L199.404 96.6238C199.495 97.1034 199.591 97.6 199.686 98.1134C199.749 98.452 199.805 98.7793 199.861 99.0896L199.664 98.9824L202.118 97.9837L202.271 97.9216V98.0796C202.344 98.8752 202.401 99.5297 202.429 99.9868C202.459 100.215 202.462 100.446 202.44 100.675Z" fill="#C3D6F6"/>
<path d="M175.389 94.66C175.205 94.8063 175.004 94.9312 174.791 95.0324C174.396 95.2582 173.821 95.5967 173.098 95.9522L173.132 95.7603L174.977 97.6619L175.102 97.7917L174.949 97.8876L174.103 98.4011L172.805 99.191V98.9653L174.667 100.827L174.78 100.946L174.633 101.008C173.998 101.322 173.34 101.586 172.664 101.798C173.265 101.421 173.893 101.089 174.543 100.805L174.515 100.985L172.608 99.1685L172.472 99.0443L172.63 98.9484L173.928 98.1528L174.774 97.6393V97.8594C174.114 97.1597 173.499 96.4995 172.963 95.924L172.85 95.8055L172.997 95.7378C173.714 95.3879 174.306 95.1002 174.718 94.9139C174.929 94.7998 175.155 94.7144 175.389 94.66Z" fill="#719DE9"/>
<path d="M185.744 106.922C185.559 107.075 185.356 107.206 185.14 107.311C184.745 107.537 184.17 107.875 183.447 108.225L183.476 108.039L185.326 109.94L185.45 110.064L185.298 110.16L184.452 110.679L183.148 111.464L183.176 111.244L185.039 113.106L185.151 113.219L185.005 113.281C184.369 113.593 183.71 113.859 183.035 114.076C183.648 113.7 184.287 113.37 184.948 113.089L184.914 113.269L183.013 111.453L182.877 111.323L183.035 111.227L184.328 110.437L185.18 109.918L185.151 110.143L183.34 108.208L183.227 108.09L183.368 108.022C184.085 107.666 184.677 107.384 185.095 107.192C185.299 107.074 185.517 106.983 185.744 106.922Z" fill="#C3D6F6"/>
<path d="M165.199 106.758C165.104 106.537 165.034 106.306 164.99 106.069C164.877 105.624 164.731 104.986 164.556 104.207L164.731 104.286L162.378 105.556L162.22 105.646L162.175 105.471C162.084 105.161 161.994 104.839 161.904 104.512C161.763 104.01 161.622 103.519 161.492 103.051L161.701 103.135L159.41 104.427L159.269 104.506V104.348C159.139 103.653 159.06 102.95 159.032 102.244C159.237 102.921 159.388 103.613 159.483 104.314L159.319 104.235L161.577 102.887L161.735 102.797L161.785 102.972C161.915 103.44 162.056 103.931 162.203 104.433L162.468 105.392L162.259 105.302L164.612 104.077L164.753 104.004L164.787 104.156C164.934 104.941 165.047 105.59 165.12 106.041C165.175 106.276 165.201 106.517 165.199 106.758Z" fill="#C3D6F6"/>
<path d="M174.599 112.084C174.504 111.864 174.434 111.633 174.391 111.396C174.278 110.95 174.131 110.313 173.956 109.534L174.131 109.613L171.806 110.883L171.648 110.973L171.598 110.798C171.507 110.488 171.417 110.166 171.327 109.844C171.186 109.336 171.05 108.846 170.915 108.377L171.124 108.462L168.833 109.754L168.692 109.833V109.681C168.562 108.984 168.483 108.279 168.455 107.57C168.659 108.248 168.81 108.94 168.906 109.641L168.742 109.568L170.999 108.219L171.157 108.123L171.208 108.304C171.344 108.772 171.479 109.257 171.626 109.76L171.891 110.719L171.688 110.629L174.035 109.404L174.182 109.331L174.21 109.483C174.357 110.267 174.47 110.916 174.543 111.368C174.594 111.603 174.613 111.844 174.599 112.084Z" fill="#719DE9"/>
<path d="M160.803 123.81C160.707 123.591 160.637 123.362 160.594 123.127C160.482 122.681 160.335 122.044 160.16 121.265L160.335 121.344L158.01 122.614L157.852 122.698L157.801 122.523C157.711 122.219 157.621 121.897 157.531 121.57L157.124 120.108L157.327 120.193L155.042 121.508L154.901 121.587V121.429C154.771 120.732 154.692 120.026 154.664 119.318C154.868 119.998 155.019 120.692 155.115 121.395L154.952 121.316L157.209 119.967L157.367 119.871L157.418 120.052C157.553 120.52 157.689 121.011 157.835 121.513L158.1 122.467L157.897 122.382L160.245 121.158L160.391 121.079L160.42 121.237C160.566 122.021 160.679 122.67 160.752 123.121C160.802 123.347 160.82 123.579 160.803 123.81Z" fill="#C3D6F6"/>
<path d="M161.074 111.503C160.86 111.394 160.661 111.257 160.482 111.097C160.115 110.826 159.596 110.42 158.975 109.918L159.161 109.872L158.14 112.321L158.072 112.485L157.926 112.378C157.66 112.197 157.39 112 157.113 111.814L155.883 110.928L156.097 110.866L155.116 113.309L155.054 113.456L154.941 113.348C154.404 112.886 153.9 112.386 153.434 111.853C154.019 112.253 154.572 112.698 155.087 113.185L154.912 113.23C155.178 112.508 155.477 111.672 155.832 110.764L155.894 110.589L156.047 110.696L157.299 111.565L158.106 112.13L157.892 112.186L158.958 109.76L159.026 109.613L159.144 109.714C159.748 110.239 160.245 110.668 160.583 110.978C160.767 111.133 160.932 111.31 161.074 111.503Z" fill="#719DE9"/>
<path d="M165.995 111.836C165.825 112.002 165.636 112.146 165.43 112.265C165.052 112.519 164.499 112.874 163.822 113.298V113.106L165.803 114.872L165.933 114.996L165.786 115.098L164.979 115.662L163.738 116.536V116.316L165.763 118.054L165.882 118.162L165.746 118.235C165.133 118.591 164.494 118.901 163.834 119.16C164.407 118.741 165.011 118.364 165.639 118.032V118.212L163.608 116.52L163.467 116.401L163.619 116.294L164.855 115.414L165.662 114.849V115.075L163.721 113.275L163.602 113.162L163.738 113.083C164.426 112.683 164.996 112.355 165.402 112.135C165.586 112.011 165.786 111.911 165.995 111.836Z" fill="#719DE9"/>
<path d="M171.406 115.684C171.3 115.9 171.167 116.101 171.011 116.282C170.74 116.655 170.339 117.174 169.849 117.806L169.803 117.62L172.264 118.607L172.427 118.669L172.326 118.822L171.761 119.64L170.892 120.887L170.825 120.667L173.279 121.615L173.432 121.677L173.324 121.79C172.873 122.336 172.378 122.845 171.846 123.313C172.244 122.727 172.683 122.171 173.161 121.649L173.206 121.823L170.729 120.938L170.554 120.876L170.661 120.723C170.932 120.323 171.225 119.905 171.519 119.471C171.716 119.194 171.902 118.906 172.083 118.658L172.145 118.872L169.713 117.84L169.566 117.778L169.668 117.654C170.181 117.039 170.605 116.525 170.909 116.198C171.214 115.871 171.406 115.667 171.406 115.684Z" fill="#C3D6F6"/>
<path d="M168.336 124.882C168.336 124.882 168.336 124.944 168.398 125.068C168.46 125.192 168.494 125.39 168.562 125.632C168.697 126.123 168.9 126.851 169.126 127.793C169.352 128.736 169.64 129.887 169.837 131.258C169.972 132.005 169.871 132.776 169.549 133.464C169.192 134.227 168.703 134.92 168.105 135.512V135.417C169.583 142.436 171.654 152.271 173.951 163.15C176.179 173.871 178.171 183.548 179.593 190.573C180.299 194.083 180.857 196.926 181.224 198.896C181.41 199.877 181.546 200.645 181.63 201.153C181.692 201.415 181.722 201.684 181.72 201.954C181.72 201.954 181.675 201.683 181.574 201.164C181.472 200.645 181.309 199.872 181.111 198.907C180.699 196.926 180.112 194.094 179.39 190.601C177.923 183.576 175.909 173.893 173.68 163.201C171.423 152.31 169.38 142.47 167.924 135.45V135.394L167.964 135.354C169.16 134.153 169.967 132.635 169.657 131.269C169.476 129.909 169.2 128.747 168.991 127.805C168.782 126.862 168.601 126.151 168.477 125.638L168.342 125.074C168.332 125.01 168.331 124.946 168.336 124.882Z" fill="#455A64"/>
<path d="M156.453 126.236C156.453 126.236 156.543 126.36 156.628 126.62C156.748 126.985 156.821 127.364 156.842 127.748C156.936 129.037 156.547 130.315 155.751 131.334C154.956 132.352 153.81 133.039 152.537 133.261C152.165 133.33 151.786 133.353 151.408 133.329C151.268 133.331 151.128 133.306 150.997 133.255C150.997 133.199 151.595 133.255 152.514 133.058C153.714 132.794 154.783 132.12 155.539 131.151C156.294 130.183 156.687 128.981 156.65 127.754C156.615 127.244 156.549 126.738 156.453 126.236Z" fill="#455A64"/>
<path d="M165.904 126.84C165.904 126.84 165.904 126.755 166.04 126.682C166.124 126.633 166.218 126.601 166.314 126.589C166.411 126.576 166.51 126.583 166.604 126.608C166.75 126.644 166.882 126.723 166.982 126.835C167.083 126.947 167.148 127.086 167.168 127.235C167.196 127.421 167.16 127.612 167.067 127.776C166.973 127.94 166.828 128.068 166.654 128.14C166.479 128.212 166.286 128.224 166.104 128.173C165.922 128.123 165.762 128.013 165.65 127.861C165.558 127.744 165.5 127.603 165.483 127.454C165.466 127.306 165.491 127.156 165.554 127.02C165.786 126.563 166.158 126.552 166.147 126.586C166.136 126.62 165.876 126.721 165.752 127.094C165.715 127.194 165.706 127.302 165.725 127.407C165.744 127.512 165.79 127.611 165.859 127.692C165.943 127.787 166.053 127.855 166.175 127.888C166.298 127.921 166.427 127.918 166.547 127.878C166.66 127.824 166.754 127.736 166.817 127.628C166.879 127.519 166.907 127.394 166.897 127.269C166.89 127.164 166.851 127.063 166.785 126.981C166.72 126.898 166.631 126.837 166.53 126.806C166.323 126.75 166.104 126.762 165.904 126.84Z" fill="#455A64"/>
<path d="M177.833 128.093C177.511 128.32 177.132 128.451 176.738 128.471C175.79 128.613 174.821 128.405 174.015 127.886C173.208 127.367 172.618 126.572 172.354 125.649C172.218 125.289 172.181 124.9 172.247 124.521C172.298 124.521 172.309 124.961 172.546 125.61C172.845 126.457 173.416 127.182 174.171 127.67C174.925 128.158 175.82 128.382 176.716 128.307C177.404 128.217 177.816 128.047 177.833 128.093Z" fill="#455A64"/>
<path d="M184.028 214.362C183.845 214.413 183.654 214.435 183.464 214.43L181.929 214.514L176.851 214.757L171.773 215.022L170.232 215.084C170.045 215.111 169.855 215.111 169.668 215.084C169.85 215.022 170.04 214.988 170.232 214.983C170.588 214.937 171.112 214.881 171.761 214.825C173.054 214.706 174.848 214.576 176.84 214.475C178.832 214.373 180.62 214.328 181.918 214.322C182.567 214.322 183.092 214.322 183.458 214.322C183.649 214.309 183.841 214.323 184.028 214.362Z" fill="#455A64"/>
<path d="M158.27 132.674C158.349 132.674 162.784 150.973 168.195 173.583C173.606 196.193 177.911 214.548 177.832 214.565C177.753 214.582 173.318 196.272 167.907 173.651C162.496 151.03 158.191 132.691 158.27 132.674Z" fill="#455A64"/>
<path d="M172.709 133.402C172.748 133.439 172.782 133.481 172.811 133.526L173.087 133.893L174.137 135.332L177.94 140.642L183.554 148.541L186.855 153.219C187.984 154.844 189.112 156.666 189.411 158.811C189.71 160.955 189.084 163.026 188.435 164.882C187.786 166.739 187.075 168.544 186.421 170.243C185.1 173.628 183.848 176.686 182.759 179.22C181.67 181.753 180.75 183.79 180.107 185.19L179.345 186.798L179.142 187.21C179.091 187.3 179.069 187.351 179.063 187.345C179.073 187.294 179.09 187.245 179.114 187.199C179.159 187.086 179.221 186.945 179.294 186.77L180 185.145C180.615 183.728 181.506 181.68 182.567 179.141C183.628 176.602 184.863 173.555 186.167 170.147C186.816 168.454 187.487 166.654 188.159 164.786C188.83 162.918 189.417 160.915 189.124 158.85C188.83 156.785 187.719 155.002 186.618 153.383L183.334 148.699L177.771 140.737L174.041 135.371L173.042 133.904C172.935 133.746 172.85 133.622 172.788 133.521C172.726 133.419 172.704 133.402 172.709 133.402Z" fill="#455A64"/>
<path d="M201.385 88.6056L213.985 79.4082L214.606 80.3957L202.085 89.7059L201.385 88.6056Z" fill="#719DE9"/>
<path d="M204.5 88.3235C204.5 88.3235 206.192 83.9223 206.57 82.9856C206.948 82.049 207.592 80.4182 207.834 80.3844C208.077 80.3505 208.963 80.486 207.806 83.2847C206.649 86.0834 209.166 84.3737 209.166 84.3737L211.592 82.6358C211.592 82.6358 213.511 88.3687 212.422 90.0953C211.565 91.3875 210.602 92.6067 209.544 93.7404L204.5 88.3235Z" fill="#FFBE9D"/>
<path d="M44.5887 161.276C44.7524 160.323 44.3913 156.836 44.3913 156.836C44.3913 156.836 40.7349 156.446 40.5148 152.824C40.2947 149.201 40.5148 140.839 40.5148 140.839L47.1731 137.583L54.5084 143.13L53.3799 161.26L44.5887 161.276Z" fill="#B78876"/>
<path d="M41.5249 146.899C41.5249 147.022 41.5736 147.14 41.6604 147.226C41.7472 147.313 41.8649 147.362 41.9876 147.362C42.1103 147.362 42.228 147.313 42.3148 147.226C42.4015 147.14 42.4503 147.022 42.4503 146.899C42.4503 146.838 42.4383 146.778 42.4151 146.722C42.3918 146.666 42.3577 146.615 42.3148 146.572C42.2718 146.529 42.2208 146.495 42.1647 146.472C42.1085 146.448 42.0484 146.437 41.9876 146.437C41.9268 146.437 41.8667 146.448 41.8105 146.472C41.7544 146.495 41.7034 146.529 41.6604 146.572C41.6174 146.615 41.5834 146.666 41.5601 146.722C41.5369 146.778 41.5249 146.838 41.5249 146.899Z" fill="#719DE9"/>
<path d="M40.8475 146.566C40.9039 146.623 41.2481 146.335 41.7446 146.307C42.2412 146.279 42.6192 146.521 42.6757 146.453C42.7321 146.386 42.6362 146.312 42.4725 146.2C42.2522 146.055 41.9908 145.986 41.7277 146.002C41.4645 146.02 41.2137 146.121 41.0111 146.29C40.8644 146.42 40.8136 146.538 40.8475 146.566Z" fill="#719DE9"/>
<path d="M47.3875 147.277C47.643 147.277 47.8502 147.07 47.8502 146.815C47.8502 146.559 47.643 146.352 47.3875 146.352C47.132 146.352 46.9248 146.559 46.9248 146.815C46.9248 147.07 47.132 147.277 47.3875 147.277Z" fill="#719DE9"/>
<path d="M46.2418 146.476C46.3039 146.538 46.6424 146.245 47.1446 146.222C47.6468 146.199 48.0192 146.436 48.07 146.369C48.1208 146.301 48.0361 146.228 47.8725 146.115C47.6518 145.971 47.3907 145.902 47.1277 145.917C46.8639 145.933 46.6124 146.034 46.4111 146.205C46.2587 146.335 46.2136 146.453 46.2418 146.476Z" fill="#719DE9"/>
<path d="M44.5266 150.646C44.2595 150.576 43.9845 150.542 43.7085 150.544C43.5843 150.544 43.4602 150.516 43.432 150.426C43.4164 150.286 43.4419 150.145 43.5053 150.02L43.8439 148.987C44.1672 148.109 44.4219 147.207 44.6056 146.29C44.2264 147.145 43.9077 148.025 43.652 148.925C43.5336 149.286 43.4263 149.636 43.3248 149.963C43.2473 150.127 43.2294 150.312 43.274 150.488C43.2931 150.533 43.3224 150.572 43.3597 150.604C43.3969 150.635 43.441 150.657 43.4884 150.668C43.5595 150.679 43.6317 150.679 43.7028 150.668C43.9773 150.694 44.254 150.687 44.5266 150.646Z" fill="#719DE9"/>
<path d="M46.18 151.12C45.4493 151.582 44.6201 151.867 43.7593 151.949C43.9425 152.203 44.2061 152.387 44.5072 152.472C44.8084 152.557 45.1294 152.538 45.4182 152.418C46.4846 151.972 46.18 151.12 46.18 151.12Z" fill="white"/>
<path d="M44.3916 156.836C46.1146 156.764 47.7809 156.2 49.1934 155.211C49.1934 155.211 48.1044 157.874 44.4706 157.727L44.3916 156.836Z" fill="#A36957"/>
<path d="M59.31 145.816C59.31 145.816 60.7884 154.173 53.7295 155.679L53.9383 145.613L59.31 145.816Z" fill="#719DE9"/>
<path d="M59.079 143.965C58.6385 142.177 57.8144 140.506 56.664 139.067C57.6797 139.49 58.3568 139.914 58.4978 139.778C58.6389 139.643 58.3793 139.389 57.9336 139.011C57.3547 138.537 56.6926 138.176 55.9812 137.944L55.6483 137.854C56.1141 137.669 56.5395 137.395 56.901 137.047C57.3338 136.642 57.6331 136.114 57.7591 135.535C57.885 134.955 57.8318 134.351 57.6063 133.803C57.3515 133.336 56.964 132.956 56.4929 132.71C56.0218 132.464 55.4883 132.363 54.9599 132.42C54.435 132.494 53.9348 132.691 53.4996 132.994C53.0645 133.297 52.7065 133.697 52.4546 134.164C52.333 134.387 52.2329 134.621 52.1556 134.864C52.1727 134.463 52.2142 134.063 52.2797 133.667C52.5054 132.274 53.0245 131.23 52.9399 131.185C52.4047 131.893 52.0713 132.734 51.975 133.617C51.975 133.752 51.9412 133.882 51.9242 134.011C51.8134 133.651 51.6777 133.298 51.518 132.956C51.1738 132.228 50.8465 131.828 50.7506 131.89C50.5531 131.986 51.1963 133.515 51.4615 135.58C50.8268 135.369 50.1661 135.246 49.4979 135.213C48.2678 135.213 46.2252 134.649 43.3362 136.968C42.3581 137.593 41.5125 138.404 40.8478 139.355C39.8931 140.752 39.355 142.392 39.2961 144.084C39.2787 144.591 39.3108 145.1 39.392 145.601C39.4093 145.787 39.4569 145.968 39.5331 146.137C39.5895 146.137 39.4259 145.353 39.5331 144.095C39.5966 143.162 39.804 142.244 40.1481 141.375C39.7183 142.88 39.8138 144.486 40.419 145.929L46.8797 144.919C46.4622 143.502 46.7669 141.257 46.9644 140.156C48.0929 145.432 52.6352 147.966 52.6352 147.966L59.4345 146.899C59.3386 146.284 59.2257 144.518 59.079 143.965Z" fill="#719DE9"/>
<path d="M74.7202 224.778C74.929 224.88 91.5972 228.164 90.9822 225.907C90.3671 223.65 74.8669 220.106 74.8669 220.106L74.7202 224.778Z" fill="#1A61DB"/>
<path d="M82.2979 223.305C82.3769 223.305 82.4954 223.689 82.4897 224.191C82.4841 224.694 82.3656 225.088 82.2866 225.077C82.2076 225.066 82.1907 224.671 82.1963 224.191C82.2019 223.712 82.2189 223.311 82.2979 223.305Z" fill="#719DE9"/>
<path d="M81.4121 223.001C81.4855 223.001 81.6322 223.446 81.5758 224.033C81.5193 224.62 81.3105 225.049 81.2372 225.021C81.1638 224.993 81.2372 224.552 81.2823 224.005C81.3275 223.458 81.3275 223.012 81.4121 223.001Z" fill="#719DE9"/>
<path d="M80.3342 222.91C80.4132 222.91 80.5261 223.351 80.5374 223.915C80.5486 224.479 80.4527 224.93 80.3737 224.925C80.2947 224.919 80.2552 224.473 80.2439 223.92C80.2327 223.367 80.2552 222.916 80.3342 222.91Z" fill="#719DE9"/>
<path d="M78.3031 221.28C78.3905 221.275 78.4782 221.285 78.5626 221.308C78.7319 221.308 78.9802 221.387 79.2962 221.46C79.9338 221.596 80.8535 221.816 81.9764 222.126C83.0993 222.436 84.4309 222.826 85.8867 223.322C86.6146 223.571 87.3876 223.825 88.1437 224.157C88.9634 224.488 89.7165 224.964 90.3669 225.562C90.4684 225.644 90.5511 225.746 90.6095 225.862C90.6453 225.944 90.6508 226.036 90.625 226.122C90.5991 226.207 90.5437 226.281 90.4685 226.33C90.2512 226.443 90.0076 226.495 89.7632 226.482C89.3287 226.516 88.8998 226.533 88.4823 226.544C87.6415 226.544 86.829 226.544 86.056 226.482C84.5156 226.386 83.1388 226.194 81.9877 226.014C80.8366 225.833 79.9112 225.653 79.2736 225.523L78.54 225.371C78.4523 225.359 78.3667 225.334 78.2861 225.297C78.6234 225.308 78.9592 225.346 79.2905 225.41L82.0159 225.805C83.1444 225.963 84.5438 226.132 86.0729 226.217C86.8403 226.257 87.6415 226.279 88.4766 226.257C88.8886 226.257 89.3174 226.228 89.7406 226.194C89.9346 226.206 90.1284 226.169 90.3048 226.087C90.3556 226.048 90.3613 226.025 90.3443 225.974C90.2973 225.898 90.2382 225.829 90.1694 225.771C89.5426 225.198 88.8184 224.741 88.0309 224.423C87.2748 224.095 86.5074 223.858 85.7738 223.576C84.3237 223.074 83.0033 222.657 81.8917 222.324C80.7802 221.991 79.8661 221.759 79.2397 221.568C78.9216 221.492 78.6087 221.396 78.3031 221.28Z" fill="#719DE9"/>
<path d="M87.1563 223.757C87.2353 223.785 87.0716 224.417 87.1563 225.196C87.2409 225.974 87.4553 226.578 87.3763 226.618C87.0759 226.208 86.8978 225.722 86.8628 225.216C86.8278 224.709 86.9374 224.203 87.1788 223.757H87.1563Z" fill="#719DE9"/>
<path d="M19.6203 221.477C19.3889 221.477 2.56838 223.796 3.87181 225.687C5.17525 227.577 20.9971 225.918 20.9971 225.918L19.6203 221.477Z" fill="#1A61DB"/>
<path d="M12.9056 225.342C12.8379 225.376 12.5952 225.038 12.4373 224.564C12.2793 224.09 12.2849 223.683 12.3413 223.683C12.3978 223.683 12.5614 224.039 12.7137 224.496C12.8661 224.953 12.9789 225.303 12.9056 225.342Z" fill="#719DE9"/>
<path d="M13.8482 225.337C13.7805 225.376 13.4927 224.987 13.3517 224.417C13.2106 223.847 13.2727 223.368 13.3517 223.368C13.4307 223.368 13.504 223.813 13.6395 224.344C13.7749 224.874 13.9216 225.297 13.8482 225.337Z" fill="#719DE9"/>
<path d="M14.892 225.072C14.8187 225.105 14.5704 224.716 14.3729 224.186C14.1754 223.655 14.119 223.198 14.198 223.176C14.277 223.153 14.4576 223.571 14.6494 224.084C14.8413 224.598 14.9654 225.038 14.892 225.072Z" fill="#719DE9"/>
<path d="M17.3633 225.941C17.2821 225.972 17.1965 225.991 17.1094 225.997L16.3646 226.093C15.7157 226.172 14.779 226.262 13.6167 226.336C12.4543 226.409 11.0662 226.471 9.5258 226.482C8.75276 226.482 7.94587 226.482 7.09948 226.432C6.21764 226.393 5.35074 226.19 4.54339 225.833C4.41947 225.79 4.30607 225.72 4.21048 225.63C4.15456 225.562 4.12402 225.476 4.12402 225.388C4.12402 225.299 4.15456 225.214 4.21048 225.145C4.37658 224.965 4.58949 224.834 4.82552 224.767C5.22614 224.592 5.62112 224.44 6.01611 224.287C6.80607 224 7.58474 223.763 8.32957 223.554C9.81921 223.142 11.1847 222.877 12.3302 222.674C13.4756 222.47 14.4123 222.335 15.0555 222.25L15.8004 222.154C15.8863 222.141 15.9739 222.141 16.0599 222.154C15.7371 222.254 15.4069 222.327 15.0725 222.375L12.3697 222.888C11.2411 223.119 9.87564 223.407 8.41985 223.825C7.68067 224.039 6.91328 224.276 6.16281 224.569C5.77348 224.722 5.37849 224.874 4.98351 225.043C4.79948 225.096 4.63104 225.193 4.49261 225.326C4.45875 225.382 4.45875 225.399 4.49261 225.444C4.56321 225.503 4.64339 225.548 4.7296 225.579C5.50663 225.915 6.33843 226.107 7.18412 226.144C8.00794 226.211 8.82047 226.206 9.58786 226.211C11.1226 226.211 12.5051 226.178 13.6675 226.132C14.8298 226.087 15.7665 226.02 16.4154 225.98C16.7302 225.946 17.0468 225.933 17.3633 225.941Z" fill="#719DE9"/>
<path d="M8.17155 226.505C8.08126 226.505 8.03613 225.856 7.72014 225.139C7.40416 224.423 6.9866 223.926 7.04867 223.87C7.11074 223.813 7.66371 224.237 7.99098 224.998C8.24238 225.459 8.30704 225.998 8.17155 226.505Z" fill="#719DE9"/>
<path d="M71.7747 201.057H63.2149L31.6164 201.875L22.5883 200.707C21.1833 200.397 20.2579 200.267 19.9589 200.363C18.7462 200.868 17.6835 201.676 16.8724 202.71C13.4304 206.818 15.5971 213.149 20.777 214.559L25.6409 215.88L14.999 219.299L18.5934 229.501C18.5934 229.501 34.4829 226.065 49.8928 222.436L74.5509 229.106L78.1057 217.657L73.9246 216.297C76.5484 215.496 78.2073 214.864 78.4386 214.48C79.9903 212.077 82.7383 200.899 71.7352 201.068" fill="#455A64"/>
<path opacity="0.2" d="M73.789 216.337L55.4619 223.926L49.9209 222.425L73.789 216.337Z" fill="black"/>
<path opacity="0.2" d="M25.7197 201.914L49.1816 208.635L67.0517 202.541L25.7197 201.914Z" fill="black"/>
<path d="M22.3795 228.762C22.0799 228.298 21.8285 227.804 21.6291 227.289C21.2115 226.358 20.6698 225.032 20.1394 223.588C19.609 222.143 19.1746 220.766 18.8981 219.796C18.7195 219.273 18.5929 218.735 18.52 218.188C18.7499 218.687 18.9386 219.204 19.0843 219.734C19.4115 220.699 19.8686 222.03 20.399 223.486C20.9294 224.942 21.4429 226.257 21.8096 227.204C22.039 227.708 22.2295 228.229 22.3795 228.762Z" fill="#719DE9"/>
<path d="M78.9408 204.86C78.8951 204.887 78.8457 204.908 78.7941 204.922L78.354 205.086L76.6612 205.684L70.4036 207.811C65.0939 209.583 57.7473 211.981 49.605 214.537C41.4628 217.093 34.0597 219.322 28.6936 220.902L22.3288 222.741L20.5965 223.221L20.1394 223.339C20.0882 223.356 20.0351 223.365 19.9814 223.368L20.1338 223.311L20.5796 223.164L22.2723 222.628L28.609 220.699C33.9638 219.074 41.3499 216.811 49.4865 214.255C57.6231 211.699 64.9811 209.334 70.302 207.613L76.6104 205.577L78.3314 205.012L78.7772 204.877C78.8306 204.863 78.8858 204.858 78.9408 204.86Z" fill="#719DE9"/>
<path d="M61.8549 204.448C61.7411 204.513 61.6199 204.564 61.4938 204.6L60.4443 204.984C59.5302 205.311 58.1872 205.774 56.5509 206.332C53.2556 207.461 48.6908 208.951 43.6407 210.57C38.5905 212.19 33.9975 213.617 30.6627 214.621C28.9699 215.124 27.6439 215.519 26.7129 215.784L25.6352 216.083C25.5094 216.12 25.3812 216.148 25.2515 216.168C25.3678 216.106 25.4909 216.059 25.6182 216.026L26.679 215.677L30.6288 214.424L43.5729 210.294L56.5058 206.135L60.4274 204.877L61.4994 204.544C61.6142 204.499 61.7334 204.467 61.8549 204.448Z" fill="#719DE9"/>
<path d="M49.0632 208.595C49.0632 208.674 43.7986 207.241 37.3492 205.396C30.8997 203.551 25.6972 202.01 25.7198 201.914C25.7424 201.818 30.9843 203.269 37.4282 205.114C43.872 206.959 49.0857 208.516 49.0632 208.595Z" fill="#719DE9"/>
<path d="M74.6859 216.879C74.1077 218.783 73.4335 220.657 72.6659 222.493C71.4753 225.562 70.4484 228.023 70.375 227.994C70.9518 226.091 71.6261 224.219 72.395 222.386C73.5856 219.316 74.6126 216.85 74.6859 216.879Z" fill="#719DE9"/>
<path d="M72.4854 221.607C70.9289 221.338 69.3896 220.978 67.8754 220.529C66.344 220.167 64.8365 219.711 63.3613 219.164C64.918 219.431 66.4574 219.791 67.9713 220.241C69.5027 220.603 71.0102 221.059 72.4854 221.607Z" fill="#719DE9"/>
<path d="M37.3891 212.252C37.0935 212.216 36.8011 212.157 36.5145 212.077L34.1559 211.512C32.1697 211.005 29.4218 210.316 26.4256 209.413C23.8572 208.659 21.3409 207.737 18.8927 206.654C17.9617 206.225 17.1999 205.853 16.7147 205.576C16.4447 205.449 16.1876 205.296 15.9473 205.119C16.2288 205.216 16.5024 205.335 16.7654 205.475C17.2846 205.718 18.035 206.039 18.9773 206.462C21.4391 207.485 23.9536 208.376 26.5102 209.131C29.5008 210.034 32.2374 210.751 34.2123 211.309L36.5427 211.981C36.8332 212.042 37.1167 212.133 37.3891 212.252Z" fill="#719DE9"/>
<path d="M54.7339 160.774H54.0398L53.9383 158.371L44.4079 158.935C44.4079 158.935 44.5039 160.063 44.4982 160.848C38.6299 161.412 29.2238 164.425 28.998 177.634L36.5253 177.809C35.8876 183.869 35.961 187.486 35.346 189.76C34.2964 193.518 30.973 201.452 31.6388 201.852C32.3046 202.253 63.1921 202.823 64.6648 202.022C66.1376 201.22 63.4573 190.866 62.7859 188.056C62.3627 186.262 62.2724 182.154 62.2611 178.977L70.9055 178.588C70.9055 178.588 71.5319 160.724 54.7339 160.774Z" fill="#1A61DB"/>
<path d="M53.9892 160.678C53.5338 160.813 53.064 160.892 52.5898 160.915C51.7152 161.017 50.5077 161.113 49.1704 161.141C47.8331 161.169 46.6256 161.141 45.751 161.062C45.2755 161.054 44.8024 160.994 44.3403 160.881C44.8104 160.826 45.2847 160.816 45.7566 160.853C46.6312 160.853 47.8331 160.853 49.1422 160.853C50.4513 160.853 51.6757 160.763 52.5277 160.718C53.0125 160.658 53.5019 160.645 53.9892 160.678Z" fill="#719DE9"/>
<path d="M46.1404 158.856C46.225 158.856 46.2871 159.319 46.2871 159.888C46.2871 160.458 46.225 160.927 46.1404 160.927C46.0557 160.927 45.9937 160.464 45.9937 159.888C45.9937 159.313 46.0331 158.856 46.1404 158.856Z" fill="#719DE9"/>
<path d="M48.6628 158.675C48.7418 158.675 48.8208 159.183 48.8377 159.804C48.8893 160.184 48.8507 160.57 48.7249 160.932C48.6402 160.932 48.5612 160.424 48.5443 159.804C48.4909 159.424 48.5316 159.036 48.6628 158.675Z" fill="#719DE9"/>
<path d="M51.292 158.585C51.371 158.585 51.4838 159.082 51.4951 159.713C51.5064 160.345 51.4217 160.842 51.3371 160.842C51.214 160.479 51.1678 160.095 51.2017 159.713C51.2186 159.104 51.2186 158.591 51.292 158.585Z" fill="#719DE9"/>
<path d="M53.1991 158.495C53.2837 158.495 53.3401 158.991 53.4191 159.595C53.4981 160.199 53.5602 160.695 53.4812 160.724C53.4022 160.752 53.2047 160.266 53.1313 159.634C53.058 159.003 53.1201 158.489 53.1991 158.495Z" fill="#719DE9"/>
<path d="M37.7163 177.668C37.5644 176.736 37.5077 175.791 37.547 174.847C37.4872 173.905 37.5288 172.959 37.6711 172.026C37.8202 172.958 37.8769 173.903 37.8404 174.847C37.893 175.789 37.8514 176.734 37.7163 177.668Z" fill="#719DE9"/>
<path d="M61.9398 178.61C61.7112 177.609 61.5752 176.589 61.5335 175.563C61.3974 174.544 61.3615 173.514 61.4263 172.488C61.7885 174.508 61.9604 176.558 61.9398 178.61Z" fill="#719DE9"/>
<path d="M37.7161 177.668C37.2859 177.725 36.8511 177.738 36.4183 177.708H33.3092H30.1945C29.7636 177.739 29.3306 177.725 28.9023 177.668C29.3227 177.56 29.7549 177.505 30.1889 177.505C30.9845 177.443 32.0904 177.397 33.3092 177.403C34.528 177.409 35.634 177.448 36.4296 177.51C36.8631 177.512 37.295 177.565 37.7161 177.668Z" fill="#719DE9"/>
<path d="M70.8886 178.61C69.3605 178.759 67.8244 178.808 66.2899 178.757C64.7536 178.808 63.2155 178.759 61.6855 178.61C63.2157 178.465 64.7536 178.416 66.2899 178.464C67.8244 178.416 69.3603 178.465 70.8886 178.61Z" fill="#719DE9"/>
<path d="M70.5108 178.684C70.5108 178.684 72.7678 199.748 66.3127 201.818C59.8576 203.889 47.1279 194.082 47.1279 194.082L50.7956 186.657C50.7956 186.657 59.2595 192.536 61.0877 191.21C62.9159 189.884 61.9623 178.684 61.9623 178.684H70.5108Z" fill="#B78876"/>
<path d="M29.1053 177.668C29.1053 177.668 26.8088 198.518 33.2583 200.594C39.7077 202.671 52.4431 192.853 52.4431 192.853L48.7697 185.427C48.7697 185.427 40.2551 190.872 38.489 189.495C37.4676 188.694 37.4394 177.776 37.4394 177.776C34.4376 177.646 31.6558 177.516 29.1053 177.668Z" fill="#B78876"/>
<path d="M66.4932 182.013L62.2104 203.003C62.2104 203.003 35.8934 202.8 35.6226 202.721C35.3517 202.642 32.8013 182.013 32.8013 182.013H66.4932Z" fill="#719DE9"/>
<path d="M47.5906 192.649C47.5691 192.965 47.6431 193.281 47.8031 193.554C47.9632 193.828 48.2017 194.047 48.4879 194.183C48.774 194.319 49.0945 194.366 49.4077 194.318C49.7209 194.27 50.0123 194.128 50.2441 193.912C50.4759 193.696 50.6374 193.415 50.7075 193.106C50.7777 192.797 50.7533 192.474 50.6375 192.179C50.5218 191.884 50.32 191.631 50.0583 191.452C49.7967 191.273 49.4874 191.177 49.1705 191.177C48.7662 191.164 48.3735 191.312 48.0776 191.588C47.7818 191.864 47.6067 192.245 47.5906 192.649Z" fill="white"/>
<path d="M53.1201 146.594C53.3584 146.447 53.6295 146.361 53.9092 146.344C54.1889 146.328 54.4684 146.381 54.7226 146.499C55.0472 146.76 55.2608 147.135 55.3207 147.548C55.3964 147.882 55.3924 148.229 55.3091 148.562C55.2258 148.894 55.0654 149.202 54.8411 149.461C54.6071 149.711 54.2942 149.872 53.9551 149.919C53.616 149.965 53.2713 149.893 52.979 149.715" fill="#B78876"/>
<path d="M53.7975 149.139C53.7975 149.094 53.9781 149.066 54.1868 148.908C54.3246 148.819 54.436 148.694 54.5094 148.547C54.5829 148.4 54.6157 148.237 54.6044 148.073C54.5883 147.911 54.5304 147.756 54.4364 147.624C54.3425 147.491 54.2156 147.385 54.0683 147.317C53.8313 147.204 53.6508 147.21 53.6451 147.164C53.6395 147.119 53.8257 147.035 54.1417 147.114C54.348 147.175 54.5313 147.296 54.6679 147.463C54.8046 147.629 54.8883 147.832 54.9084 148.047C54.9284 148.261 54.8838 148.476 54.7804 148.665C54.6769 148.854 54.5193 149.007 54.3279 149.105C54.0006 149.23 53.7975 149.201 53.7975 149.139Z" fill="#A36957"/>
</svg>
