<svg height="512" viewBox="0 0 512 512" width="512" xmlns="http://www.w3.org/2000/svg"><g id="flat"><path d="m202.386 384.283a51.758 51.758 0 0 1 -9.377 6.028 88.659 88.659 0 0 0 -48.928 83.079l.624 14.61h222.595l.624-14.61a88.659 88.659 0 0 0 -48.928-83.079 51.762 51.762 0 0 1 -11.873-8.178" fill="#009cf7"/><path d="m164 192h12a0 0 0 0 1 0 0v40a0 0 0 0 1 0 0h-12a20 20 0 0 1 -20-20 20 20 0 0 1 20-20z" fill="#f6bb92"/><path d="m356 192h12a0 0 0 0 1 0 0v40a0 0 0 0 1 0 0h-12a20 20 0 0 1 -20-20 20 20 0 0 1 20-20z" fill="#f6bb92" transform="matrix(-1 0 0 -1 704 424)"/><g fill="#fdc9a6"><path d="m256 120-80 16v160l49.522 32h30.478 30.478l49.522-32v-160z"/><path d="m307.118 382.133a51.783 51.783 0 0 1 -16.749-38.133v-16h-68.738v16a51.784 51.784 0 0 1 -19.245 40.283l53.468 72.554z"/><path d="m307.12 382.13-6.41 9.34a68.12 68.12 0 0 1 -32.99 8.51h-19a68.306 68.306 0 0 1 -43.71-15.82l-1.24-1.04a51.748 51.748 0 0 0 17.86-39.12v-16h68.74v16a51.757 51.757 0 0 0 16.75 38.13z"/></g><path d="m307.12 382.13-6.41 9.34a68.12 68.12 0 0 1 -32.99 8.51h-19a68.306 68.306 0 0 1 -43.71-15.82l-1.24-1.04a51.748 51.748 0 0 0 17.86-39.12v-16h68.74v16a51.757 51.757 0 0 0 16.75 38.13z" fill="#f6bb92"/><circle cx="297.891" cy="206.667" fill="#5b3719" r="10"/><path d="m172.109 488v-32a8 8 0 0 1 16 0v32z" fill="#007af6"/><path d="m324.109 488v-32a8 8 0 0 1 16 0v32z" fill="#007af6"/><circle cx="217.18" cy="206.667" fill="#5b3719" r="10"/><path d="m312 184h-32a8 8 0 0 1 0-16h32a8 8 0 0 1 0 16z" fill="#5b3719"/><path d="m232 184h-32a8 8 0 0 1 0-16h32a8 8 0 0 1 0 16z" fill="#5b3719"/><path d="m216 360a226.708 226.708 0 0 0 34.993 88.489l5.007 7.511-40-24-16 8-3.2-22.4a67.882 67.882 0 0 1 19.2-57.6z" fill="#a6deff"/><path d="m296 360a226.708 226.708 0 0 1 -34.993 88.489l-5.007 7.511 40-24 16 8 3.2-22.4a67.882 67.882 0 0 0 -19.2-57.6z" fill="#a6deff"/><path d="m176 264v56a68.281 68.281 0 0 0 24.57 52.457l4.438 3.7a68.286 68.286 0 0 0 43.714 15.827h18.994a68.288 68.288 0 0 0 48.284-20 68.286 68.286 0 0 0 20-48.284v-59.7z" fill="#a3612d"/><path d="m360.577 264a135.561 135.561 0 0 1 -60.622-14.311l-12.321-6.16a33.419 33.419 0 0 0 -14.948-3.529l6.932 4.305a3.24 3.24 0 0 1 -.938 5.9l-21.377 5.24a3.248 3.248 0 0 1 -1.644-.027l-20.023-5.6a3.24 3.24 0 0 1 -1.106-5.686l5.36-4.132a33.415 33.415 0 0 0 -14.947 3.529l-12.322 6.16a135.553 135.553 0 0 1 -60.621 14.311l3.954 7.908a43.583 43.583 0 0 0 38.981 24.092 43.579 43.579 0 0 0 23.976-7.188l37.377-24.622 37.378 24.623a43.589 43.589 0 0 0 23.976 7.187 43.584 43.584 0 0 0 38.981-24.092z" fill="#8f5528"/><path d="m237.876 264a18.74 18.74 0 0 1 -3.032-.248 18.463 18.463 0 0 1 -10.071-31.276l7.456-7.456v-20.582a8 8 0 0 1 16 0v23.9a8 8 0 0 1 -2.343 5.656l-9.8 9.8a2.463 2.463 0 0 0 3.206 3.723l2.183-1.614a8 8 0 0 1 9.821.244 7.688 7.688 0 0 0 9.605.068l.173-.138a8 8 0 0 1 9.734-.174l2.182 1.613a2.463 2.463 0 0 0 3.21-3.716l-9.8-9.8a8 8 0 0 1 -2.342-5.656v-23.9a8 8 0 0 1 16 0v20.586l7.456 7.457a18.466 18.466 0 0 1 -21.758 29.343 23.905 23.905 0 0 1 -19.222 0 18.21 18.21 0 0 1 -8.658 2.17z" fill="#5b3719"/><path d="m256 320a27.134 27.134 0 0 1 -19.313-8l-2.343-2.343a8 8 0 0 1 11.312-11.314l2.344 2.343a11.313 11.313 0 0 0 16 0l2.344-2.343a8 8 0 1 1 11.312 11.314l-2.343 2.343a27.134 27.134 0 0 1 -19.313 8z" fill="#5b3719"/><g fill="#7a4922"><path d="m200 312a8 8 0 0 0 -8 8v8a8 8 0 0 0 16 0v-8a8 8 0 0 0 -8-8z"/><path d="m224 312a8 8 0 0 0 -8 8v16a8 8 0 0 0 16 0v-16a8 8 0 0 0 -8-8z"/><path d="m256 336a8 8 0 0 0 -16 0v8a8 8 0 0 0 16 0z"/><path d="m264 352a8 8 0 0 0 -8 8v8a8 8 0 0 0 16 0v-8a8 8 0 0 0 -8-8z"/><path d="m224 352a8 8 0 0 0 -8 8v8a8 8 0 0 0 16 0v-8a8 8 0 0 0 -8-8z"/><path d="m304 312a8 8 0 0 0 -16 0v8a8 8 0 0 0 16 0z"/><path d="m312 320a8 8 0 0 0 -8 8v16a8 8 0 0 0 16 0v-16a8 8 0 0 0 -8-8z"/><path d="m288 336a8 8 0 0 0 -8 8v8a8 8 0 0 0 16 0v-8a8 8 0 0 0 -8-8z"/></g><path d="m229.348 128 4.521 3.391a103.052 103.052 0 0 0 61.831 20.609q1.4 0 2.8-.038c43.447-1.177 79.775-33.509 87.367-76.3l3.481-19.662-9.467 7.1a84.5 84.5 0 0 1 -50.7 16.9 84.492 84.492 0 0 1 -23.213-3.251l-11.986-3.425a57.684 57.684 0 0 0 -56.634 14.676z" fill="#8f5528"/><path d="m224.734 141.024a88.531 88.531 0 0 1 -30.362 30.362l-21.024 12.614-4.961-39.686a50.1 50.1 0 0 1 14.287-41.64 50.1 50.1 0 0 1 35.426-14.674h19.248v7.482a88.52 88.52 0 0 1 -12.614 45.542z" fill="#8f5528"/><path d="m308.109 472h-24a8 8 0 1 1 0-16h24a8 8 0 0 1 0 16z" fill="#007af6"/><path d="m296 135.976a43.812 43.812 0 0 1 -19.578-4.6 8 8 0 0 1 7.156-14.311 27.91 27.91 0 0 0 24.844 0 8 8 0 0 1 7.156 14.311 43.812 43.812 0 0 1 -19.578 4.6z" fill="#7a4922"/><path d="m192.087 152a8 8 0 0 1 -7.971-7.418 43.987 43.987 0 0 1 14.917-36.2 8 8 0 0 1 10.506 12.068 27.906 27.906 0 0 0 -9.465 22.971 8 8 0 0 1 -7.4 8.561q-.294.018-.587.018z" fill="#7a4922"/><path d="m296 111.976a43.812 43.812 0 0 1 -19.578-4.6 8 8 0 0 1 7.156-14.311 27.91 27.91 0 0 0 24.844 0 8 8 0 0 1 7.156 14.311 43.812 43.812 0 0 1 -19.578 4.6z" fill="#7a4922"/></g></svg>