<svg height="512" viewBox="0 0 512 512" width="512" xmlns="http://www.w3.org/2000/svg"><g id="flat"><path d="m397 288-10.889-24.5a215.319 215.319 0 0 1 -18.228-99.4l2.253-40.553a74.815 74.815 0 0 0 -44.315-72.517 74.812 74.812 0 0 0 -50.938-3.57l-29.883 8.54-29.883-8.538a74.812 74.812 0 0 0 -50.938 3.57 74.815 74.815 0 0 0 -44.315 72.517l2.253 40.553a215.319 215.319 0 0 1 -18.228 99.4l-10.889 24.498a378.405 378.405 0 0 0 136.386 64.656 68.566 68.566 0 0 0 31.228 0 378.405 378.405 0 0 0 136.386-64.656z" fill="#a3612d"/><g fill="#faa6b2"><path d="m344.218 445.2a103.939 103.939 0 0 0 -47.175-69.547 53.222 53.222 0 0 1 -9.26-7.367 49.144 49.144 0 0 1 -79.566 0 53.222 53.222 0 0 1 -9.26 7.367 103.939 103.939 0 0 0 -47.175 69.547l-7.782 42.8h208z"/><path d="m208.25 488h-16.5l-7.51-30.06a8 8 0 0 1 15.52-3.88z"/><path d="m308.1 457.03-4.04 30.97h-16.15l4.33-33.03a8 8 0 1 1 15.86 2.06z"/></g><path d="m287.783 368.285a53.262 53.262 0 0 1 -15.783-37.817v-10.468h-48v10.468a53.262 53.262 0 0 1 -15.783 37.817 49.144 49.144 0 0 0 79.566 0z" fill="#fdc9a6"/><path d="m272.49 337.65a72.9 72.9 0 0 1 -29.88 6.13l-7.59-.06a73.261 73.261 0 0 1 -12.41-1.16 53.433 53.433 0 0 0 1.39-12.09v-10.47h48v10.47a51.856 51.856 0 0 0 .49 7.18z" fill="#f6bb92"/><path d="m320 195.343h13.708a21.669 21.669 0 0 1 22.255 21.757l-.017 3.756a21.669 21.669 0 0 1 -21.494 21.574l-14.452.034z" fill="#f6bb92"/><path d="m168 195.343h-11.625a21.668 21.668 0 0 0 -22.254 21.757l.016 3.756a21.669 21.669 0 0 0 21.494 21.574l12.369.035z" fill="#f6bb92"/><path d="m150.658 168.761 9.64 53.023a34.146 34.146 0 0 1 -.261 13.518l-1.44 6.488a72.009 72.009 0 0 0 19.274 66.418l6 6.022a73.014 73.014 0 0 0 51.149 21.49l7.591.061a73.013 73.013 0 0 0 54.444-23.713l2.666-2.912a107.393 107.393 0 0 0 28.172-71.715l.17-69.441h-.653a92.127 92.127 0 0 1 -74.966-38.579l-12.444-17.421-21.09 24.6a92.128 92.128 0 0 1 -68.252 32.156z" fill="#fdc9a6"/><g fill="#7a4922"><circle cx="203.217" cy="224.341" r="13"/><circle cx="278.92" cy="226.153" r="13"/><path d="m239.305 266.105c-.076 0-.151 0-.227 0l-7.734-.215a16.87 16.87 0 0 1 -14.237-25.127l4.137-7.364a8 8 0 0 1 13.949 7.838l-4.137 7.365a.861.861 0 0 0 -.045.758.87.87 0 0 0 .778.536l7.734.215a8 8 0 0 1 -.218 16z"/><path d="m240.687 291h-4.687a8 8 0 0 1 0-16h4.687a19.185 19.185 0 0 0 13.656-5.657 8 8 0 0 1 11.314 11.314 35.08 35.08 0 0 1 -24.97 10.343z"/><path d="m263.411 203.308a8 8 0 0 1 -5.051-14.208 31.458 31.458 0 0 1 35.809-2.611l1.725 1.027a8 8 0 1 1 -8.186 13.747l-1.724-1.026a15.4 15.4 0 0 0 -17.532 1.279 7.97 7.97 0 0 1 -5.041 1.792z"/><path d="m183.212 203.267a8 8 0 0 1 -5.051-14.208 31.456 31.456 0 0 1 35.809-2.611l1.724 1.027a8 8 0 1 1 -8.185 13.747l-1.724-1.026a15.4 15.4 0 0 0 -17.532 1.278 7.965 7.965 0 0 1 -5.041 1.793z"/></g><path d="m208.25 488h-16.5l-7.51-30.06a8 8 0 0 1 15.52-3.88z" fill="#ec9da8"/><path d="m308.1 457.03-4.04 30.97h-16.15l4.33-33.03a8 8 0 1 1 15.86 2.06z" fill="#ec9da8"/></g></svg>