<svg height="512" viewBox="0 0 512 512" width="512" xmlns="http://www.w3.org/2000/svg"><g id="flat"><path d="m173 264h-17a20 20 0 0 1 -20-20 20 20 0 0 1 20-20h17z" fill="#e6af89"/><path d="m340 224h16a20 20 0 0 1 20 20 20 20 0 0 1 -20 20h-16z" fill="#e6af89"/><path d="m306.181 397.241a51.773 51.773 0 0 1 -15.812-37.241v-16h-68.738v16a51.77 51.77 0 0 1 -15.725 37.158l50.094 58.842z" fill="#f6bb92"/><g fill="#91a666"><path d="m318.991 406.311a51.713 51.713 0 0 1 -12.81-9.07l-50.181 58.759-50.094-58.842a51.687 51.687 0 0 1 -12.9 9.153c-31.258 15.629-50.418 40.163-48.928 75.079l.624 6.61h222.598l.624-6.61c1.486-34.916-17.675-59.45-48.933-75.079z"/><path d="m192 464v24h-16v-24a8 8 0 0 1 16 0z"/><path d="m336 464v24h-16v-24a8 8 0 0 1 16 0z"/></g><path d="m296.17 383.83-8.17 8.17h-64l-8.18-8.18a51.692 51.692 0 0 0 5.81-23.82v-16h68.74v16a51.818 51.818 0 0 0 5.8 23.83z" fill="#e6af89"/><circle cx="304" cy="56" fill="#8f5528" r="32"/><path d="m369.765 133.293a102.334 102.334 0 0 0 -72.265-66.918 171.113 171.113 0 0 0 -83 0 102.334 102.334 0 0 0 -72.263 66.918 102.337 102.337 0 0 0 7.626 82.059 63.473 63.473 0 0 0 55.485 32.648h101.3a63.474 63.474 0 0 0 55.486-32.648 102.341 102.341 0 0 0 7.631-82.059z" fill="#a3612d"/><path d="m264 61.45v76.49a101.079 101.079 0 0 1 -8-17.94 101.079 101.079 0 0 1 -8 17.94v-76.49c2.67-.13 5.33-.19 8-.19s5.33.06 8 .19z" fill="#a3612d"/><path d="m192 464v24h-16v-24a8 8 0 0 1 16 0z" fill="#768753"/><path d="m336 464v24h-16v-24a8 8 0 0 1 16 0z" fill="#768753"/><path d="m256 120a101.19 101.19 0 0 1 -64 64 35.1 35.1 0 0 0 -24 33.3v110.7l56 56h64l56-56v-110.7a35.1 35.1 0 0 0 -24-33.3 101.19 101.19 0 0 1 -64-64z" fill="#f6bb92"/><circle cx="302" cy="234" fill="#7a4922" r="10"/><circle cx="206" cy="234" fill="#7a4922" r="10"/><path d="m344 280-24 16-24-16h-80l-24 16-24-8v40l56 56h64l56-56z" fill="#a3612d"/><path d="m272 288h-32a8 8 0 0 1 -8-8v-40a8 8 0 0 1 16 0v32h16v-8a8 8 0 0 1 16 0v16a8 8 0 0 1 -8 8z" fill="#7a4922"/><path d="m240 304h32v6.111a16 16 0 0 1 -8.845 14.311 15.993 15.993 0 0 1 -14.31 0 16 16 0 0 1 -8.845-14.311z" fill="#cb2527"/><path d="m269.4 318.83a15.925 15.925 0 0 1 -6.24 5.59 16.012 16.012 0 0 1 -14.32 0 15.925 15.925 0 0 1 -6.24-5.59 35.7 35.7 0 0 1 26.8 0z" fill="#cb2527"/><g fill="#8f5528"><path d="m216 328a8 8 0 0 1 -8-8v-8a8 8 0 0 1 16 0v8a8 8 0 0 1 -8 8z"/><path d="m200 352a8 8 0 0 1 -8-8v-8a8 8 0 0 1 16 0v8a8 8 0 0 1 -8 8z"/><path d="m232 360a8 8 0 0 1 -8-8v-8a8 8 0 0 1 16 0v8a8 8 0 0 1 -8 8z"/><path d="m256 376a8 8 0 0 1 -8-8v-8a8 8 0 0 1 16 0v8a8 8 0 0 1 -8 8z"/><path d="m280 360a8 8 0 0 1 -8-8v-8a8 8 0 0 1 16 0v8a8 8 0 0 1 -8 8z"/><path d="m296 336a8 8 0 0 1 -8-8v-8a8 8 0 0 1 16 0v8a8 8 0 0 1 -8 8z"/><path d="m320 336a8 8 0 0 1 -8-8v-8a8 8 0 0 1 16 0v8a8 8 0 0 1 -8 8z"/><path d="m181.019 160a8 8 0 0 1 -3.324-15.281l3.227-1.471a66.052 66.052 0 0 0 30.978-29.338 8 8 0 0 1 14.178 7.416 82.133 82.133 0 0 1 -38.515 36.483l-3.228 1.47a7.964 7.964 0 0 1 -3.316.721z"/><path d="m330 160a7.96 7.96 0 0 1 -3.313-.723l-3.227-1.47a82.127 82.127 0 0 1 -38.516-36.483 8 8 0 0 1 14.178-7.416 66.04 66.04 0 0 0 30.976 29.34l3.225 1.471a8 8 0 0 1 -3.323 15.281z"/><path d="m264 61.45v76.49a101.079 101.079 0 0 1 -8-17.94 101.079 101.079 0 0 1 -8 17.94v-76.49c2.67-.13 5.33-.19 8-.19s5.33.06 8 .19z"/></g><path d="m269.4 318.83a15.925 15.925 0 0 1 -6.24 5.59 16.012 16.012 0 0 1 -14.32 0 15.925 15.925 0 0 1 -6.24-5.59 35.7 35.7 0 0 1 26.8 0z" fill="#b22122"/></g></svg>