<svg height="512" viewBox="0 0 512 512" width="512" xmlns="http://www.w3.org/2000/svg"><g id="flat"><path d="m319.157 390.311c-.848-.425-1.677-.876-2.494-1.343l-15.485 6.786a126.259 126.259 0 0 1 -89.652-2.981l-12.745-5.726a51.951 51.951 0 0 1 -5.605 3.264 88.657 88.657 0 0 0 -48.928 83.079l.623 14.61h222.591l.624-14.61a88.658 88.658 0 0 0 -48.929-83.079z" fill="#02a437"/><path d="m316.66 388.97-68.96 64.7-48.92-66.62z" fill="#eae9e4"/><path d="m301.178 395.754 15.485-6.786a51.772 51.772 0 0 1 -26.127-44.968v-16h-68.736v16a51.777 51.777 0 0 1 -23.017 43.047l12.745 5.726a126.259 126.259 0 0 0 89.65 2.981z" fill="#fdc9a6"/><g fill="#f6bb92"><path d="m290.54 328v14.42l-5.36 4.55a19.974 19.974 0 0 1 -12.94 4.75h-33.21a19.97 19.97 0 0 1 -13.09-4.88l-4.14-3.59v-15.25z"/><path d="m290.54 328v14.42l-5.36 4.55a19.974 19.974 0 0 1 -12.94 4.75h-33.21a19.97 19.97 0 0 1 -13.09-4.88l-4.14-3.59v-15.25z"/><path d="m339.791 208h3.956a27.187 27.187 0 0 1 27.186 27.3 27.187 27.187 0 0 1 -22.743 26.708l-12.023 1.992z"/></g><path d="m252.286 81.89-12.494 2.083a96 96 0 0 0 -80.206 93.171 19.678 19.678 0 0 0 .2 3.029l13.368 95.614a58 58 0 0 0 19.464 35.807l33.32 28.865a20 20 0 0 0 13.1 4.883h33.21a20 20 0 0 0 12.941-4.751l33.884-28.756a58.007 58.007 0 0 0 19.987-36.753l12.336-95a19.755 19.755 0 0 0 .173-2.835 96 96 0 0 0 -80.207-93.269l-12.5-2.083a20.045 20.045 0 0 0 -6.576-.005z" fill="#fdc9a6"/><circle cx="291.574" cy="222.667" fill="#7a4922" r="10"/><path d="m176.167 488v-32a8 8 0 0 1 16 0v32z" fill="#029532"/><path d="m320.167 488v-32a8 8 0 0 1 16 0v32z" fill="#029532"/><g fill="#7a4922"><circle cx="213.457" cy="222.667" r="10"/><path d="m304.01 203a8.208 8.208 0 0 1 -1.009-.063l-23.834-3a8 8 0 0 1 2-15.876l23.833 3a8 8 0 0 1 -.99 15.939z"/><path d="m200.156 203a8 8 0 0 1 -.982-15.939l24-3a8 8 0 0 1 1.985 15.876l-24 3a8.112 8.112 0 0 1 -1.003.063z"/><path d="m256.035 288.027a58.337 58.337 0 0 1 -30.189-8.432l-.152-.091a8 8 0 1 1 8.257-13.705l.157.1a42.3 42.3 0 0 0 43.9-.031 8 8 0 0 1 8.289 13.686 58.361 58.361 0 0 1 -30.262 8.473z"/></g><path d="m268.08 488h-36.88l-45.49-59.03 5.92-22.36-29.28-10.15a77.258 77.258 0 0 1 45.87-49.14l13.58-5.26v1.94a51.792 51.792 0 0 1 -23.02 43.05l48.92 66.62z" fill="#029532"/><path d="m301.28 438.26 6.14 20.9-39.34 28.84h-36.88a11.505 11.505 0 0 1 .52-3.5 100.63 100.63 0 0 1 26.58-42.66l58.36-52.87a51.764 51.764 0 0 1 -26.12-44.97v-2.29a99.665 99.665 0 0 1 73.23 66.43l.21.62z" fill="#029532"/><path d="m360.528 101.321-.187-.468a77.89 77.89 0 0 0 -27.126-34.269c-3.638-2.607-7.508-5.776-11.326-9.127a76.132 76.132 0 0 0 -65.138-17.607l-.63.126c-.458-.241-4.466-2.351-10.04-5.294a94.2 94.2 0 0 0 -82.616-2.543l-1.144.512a91.914 91.914 0 0 0 -53.877 74.843l-8.534 86.433a63.353 63.353 0 0 0 23.7 60.444l.008.006a46.673 46.673 0 0 0 54.548 1.845l.722-.482a51.61 51.61 0 0 0 22.015-52.891l-2.731-13.9a43.478 43.478 0 0 1 6.992-33.239 43.476 43.476 0 0 1 35.671-18.62h23.165l-.007-.089h33.236a20 20 0 0 1 19.115 14.118l7.656 24.881 14 8 6 48 9.337-16.825a132.9 132.9 0 0 0 7.191-113.854z" fill="#8f5528"/><path d="m256 256.021a30.6 30.6 0 0 1 -18.942-6.572 8 8 0 0 1 9.884-12.582 14.62 14.62 0 0 0 18.116 0 8 8 0 0 1 9.884 12.582 30.6 30.6 0 0 1 -18.942 6.572z" fill="#7a4922"/></g></svg>