<svg height="512" viewBox="0 0 512 512" width="512" xmlns="http://www.w3.org/2000/svg"><g id="flat"><path d="m292.854 368.021.342-.171a51.715 51.715 0 0 1 -5.825-23.85v-16h-64v16a51.71 51.71 0 0 1 -5.719 23.641l3.515 1.272a108.446 108.446 0 0 0 71.687-.892z" fill="#fdc9a6"/><path d="m287.37 328v16.12a41.869 41.869 0 0 1 -23.37 7.12h-16.93a41.945 41.945 0 0 1 -23.7-7.33v-15.91z" fill="#f6bb92"/><path d="m315.993 390.311a51.745 51.745 0 0 1 -22.8-22.461l-.342.171a108.446 108.446 0 0 1 -71.687.892l-3.515-1.272a51.752 51.752 0 0 1 -22.9 22.67 88.658 88.658 0 0 0 -48.929 83.079l.624 14.61h217.856l.624-14.61a88.657 88.657 0 0 0 -48.931-83.079z" fill="#6699ce"/><path d="m290.15 402.84a7.916 7.916 0 0 1 -4.14 1.16 8.011 8.011 0 0 1 -6.85-3.85l-15.16-24.95v20.8a8 8 0 0 1 -16 0v-21.1l-15.14 25.22a8 8 0 0 1 -13.72-8.24l12.09-20.12a108.424 108.424 0 0 0 49.36-.08l12.25 20.17a8 8 0 0 1 -2.69 10.99z" fill="#6699ce"/><path d="m339 258 11.879-4.293a25.04 25.04 0 0 0 17.121-23.754v-21.953l-27.509 6.985z" fill="#f6bb92"/><path d="m175 259-13.879-5.293a25.04 25.04 0 0 1 -17.121-23.754v-21.953l28.907 9z" fill="#f6bb92"/><path d="m246.354 82.851-6.729 1.122a96 96 0 0 0 -80.217 94.694l14.41 103.066a41.994 41.994 0 0 0 14.1 25.929l31.657 27.425a42 42 0 0 0 27.5 10.255h16.925a42 42 0 0 0 27.177-9.977l32.442-27.534a42 42 0 0 0 14.473-26.613l13.317-102.551a96 96 0 0 0 -80.219-94.694l-6.729-1.122a55.073 55.073 0 0 0 -18.107 0z" fill="#fdc9a6"/><circle cx="291.408" cy="206.667" fill="#5b3719" r="12"/><path d="m174.408 488v-32a8 8 0 0 1 16 0v32z" fill="#5b89b9"/><path d="m326.408 488v-32a8 8 0 0 1 16 0v32z" fill="#5b89b9"/><g fill="#5b3719"><circle cx="213.29" cy="206.667" r="12"/><path d="m312 194.667a7.984 7.984 0 0 1 -6.048-2.759 16.928 16.928 0 0 0 -13.743-5.854l-11.806.6a8 8 0 0 1 -.814-15.979l11.805-.6a32.855 32.855 0 0 1 26.646 11.35 8 8 0 0 1 -6.04 13.242z"/><path d="m192 194.667a8 8 0 0 1 -5.657-13.657 35.082 35.082 0 0 1 24.97-10.343h12.687a8 8 0 0 1 0 16h-12.687a19.184 19.184 0 0 0 -13.656 5.656 7.975 7.975 0 0 1 -5.657 2.344z"/><path d="m247.2 282.667h-7.2a8 8 0 1 1 0-16h7.2a20.186 20.186 0 0 0 17.768-10.584 8 8 0 1 1 14.07 7.617 36.17 36.17 0 0 1 -31.838 18.967z"/><path d="m247.994 258.668a7.971 7.971 0 0 1 -3.572-.846l-16-8a8 8 0 0 1 0-14.312l1.689-.844a17.79 17.79 0 0 0 9.887-16 8 8 0 0 1 16 0 33.722 33.722 0 0 1 -8.7 22.707l4.274 2.137a8 8 0 0 1 -3.584 15.157z"/><path d="m296 266.667a8 8 0 0 1 -8-8 11.24 11.24 0 0 0 -3.314-8l-2.343-2.344a8 8 0 1 1 11.314-11.313l2.343 2.344a27.131 27.131 0 0 1 8 19.313 8 8 0 0 1 -8 8z"/></g><g fill="#5b89b9"><path d="m196.7 442.423a8 8 0 0 1 -6.648-12.438l7.928-11.893a8 8 0 0 1 13.313 8.875l-7.929 11.893a7.992 7.992 0 0 1 -6.664 3.563z"/><path d="m229.416 452.326a8.006 8.006 0 0 1 -7.487-10.817l5.964-15.866a8 8 0 0 1 14.976 5.63l-5.964 15.866a8 8 0 0 1 -7.489 5.187z"/><path d="m280.985 451.344a8 8 0 0 1 -7.064-4.236l-7.928-14.857a8 8 0 1 1 14.115-7.532l7.928 14.857a8 8 0 0 1 -7.051 11.768z"/><path d="m315.646 440.458a7.987 7.987 0 0 1 -6.363-3.143l-9.839-12.874a8 8 0 1 1 12.713-9.715l9.843 12.874a8 8 0 0 1 -6.35 12.857z"/></g><path d="m256 106.667a73.152 73.152 0 0 0 51.082 39.016l4.918.984 3.661 14.645a38.9 38.9 0 0 0 20.339 25.355v1.372a54.628 54.628 0 0 0 16 38.628l1.981-.4a66.211 66.211 0 0 0 25.626-11.17l.854-.614a66.216 66.216 0 0 0 27.539-53.745 66.217 66.217 0 0 0 -13.243-39.729l-10.757-14.342a55.5 55.5 0 0 0 -37.947-52.649l-10.053-3.351a54.626 54.626 0 0 0 -38.627-16h-9.373a53.331 53.331 0 0 0 -64 0h-9.373a54.626 54.626 0 0 0 -38.627 16l-10.053 3.351a55.5 55.5 0 0 0 -37.947 52.649l-10.757 14.342a66.217 66.217 0 0 0 -13.243 39.729 66.216 66.216 0 0 0 27.539 53.746l.854.614a66.211 66.211 0 0 0 25.626 11.17l1.981.4a54.628 54.628 0 0 0 16-38.628v-1.372a38.9 38.9 0 0 0 20.339-25.355l3.661-14.646 4.918-.984a73.152 73.152 0 0 0 51.082-39.016" fill="#7a4922"/><path d="m290.15 402.84a7.916 7.916 0 0 1 -4.14 1.16 8.011 8.011 0 0 1 -6.85-3.85l-15.16-24.95v20.8a8 8 0 0 1 -16 0v-21.1l-15.14 25.22a8 8 0 0 1 -13.72-8.24l12.09-20.12a108.424 108.424 0 0 0 49.36-.08l12.25 20.17a8 8 0 0 1 -2.69 10.99z" fill="#5b89b9"/></g></svg>