<svg height="512" viewBox="0 0 512 512" width="512" xmlns="http://www.w3.org/2000/svg"><g id="flat"><path d="m316.622 374.311a51.776 51.776 0 0 1 -28.622-46.311v-16h-64v16a51.776 51.776 0 0 1 -28.622 46.311l.34 56.968 121.12 1.553z" fill="#fdc9a6"/><path d="m316.622 374.311a88.657 88.657 0 0 1 48.928 83.079l-.624 30.61h-217.852l-.624-30.61a88.657 88.657 0 0 1 48.928-83.079l11.1 16.42c23.7 35.069 75.343 35.069 99.046 0z" fill="#007af6"/><path d="m288 312v10.36a81.782 81.782 0 0 1 -44.84 13.39h-.67a81.846 81.846 0 0 1 -18.78-2.34 51.029 51.029 0 0 0 .29-5.41v-16z" fill="#f6bb92"/><path d="m328.536 187.343h9a21.669 21.669 0 0 1 22.255 21.757l-.017 3.756a21.669 21.669 0 0 1 -21.494 21.574l-9.368.035z" fill="#f6bb92"/><path d="m154.486 160.761 9.32 51.262a43.043 43.043 0 0 1 -.328 17.027 80.877 80.877 0 0 0 21.647 74.6 81.88 81.88 0 0 0 57.362 24.1 81.883 81.883 0 0 0 61.058-26.593 107.393 107.393 0 0 0 28.172-71.715l.174-93.442h-179.891z" fill="#fdc9a6"/><g fill="#5b3719"><circle cx="207.045" cy="216.341" r="13"/><circle cx="282.748" cy="218.153" r="13"/><path d="m243.133 267.105h-.227l-7.734-.215a16.87 16.87 0 0 1 -14.237-25.126l4.137-7.364a8 8 0 0 1 13.949 7.837l-4.137 7.364a.87.87 0 0 0 .733 1.295l7.735.215a8 8 0 0 1 -.219 16z"/></g><path d="m267.12 273.67-.29 9.44a17.612 17.612 0 0 1 -14.34 16.76 17.732 17.732 0 0 1 -3.23.3 17.546 17.546 0 0 1 -11.94-4.69 17.358 17.358 0 0 1 -3.44-4.36l-6.22-11.21a67.286 67.286 0 0 0 39.32-6.18z" fill="#b22122"/><path d="m264.02 292.12a17.543 17.543 0 0 1 -11.53 7.75 17.732 17.732 0 0 1 -3.23.3 17.546 17.546 0 0 1 -11.94-4.69 30.026 30.026 0 0 1 26.19-3.53z" fill="#cb2527"/><path d="m329.63 382.28-.43 1.52a76.127 76.127 0 0 1 -146.4 0l-.43-1.52a88.771 88.771 0 0 1 13.01-7.97 51.634 51.634 0 0 0 13.53-9.78l2.23 11.17a45.75 45.75 0 0 0 89.72 0l2.23-11.17a51.634 51.634 0 0 0 13.53 9.78 88.771 88.771 0 0 1 13.01 7.97z" fill="#eae9e4"/><path d="m184 488v-32a8 8 0 0 1 16 0v32z" fill="#005dbb"/><path d="m312 488v-32a8 8 0 0 1 16 0v32z" fill="#005dbb"/><path d="m183.994 208a8 8 0 0 1 -7.149-11.581l.845-1.689a33.7 33.7 0 0 1 30.31-18.73 8 8 0 0 1 0 16 17.791 17.791 0 0 0 -16 9.889l-.845 1.69a8 8 0 0 1 -7.161 4.421z" fill="#5b3719"/><path d="m304.006 208a8 8 0 0 1 -7.161-4.423l-.845-1.687a17.79 17.79 0 0 0 -16-9.89 8 8 0 0 1 0-16 33.7 33.7 0 0 1 30.311 18.733l.844 1.688a8 8 0 0 1 -7.149 11.579z" fill="#5b3719"/><path d="m167.745 25.317a69 69 0 0 0 -52.86 40.1 69 69 0 0 0 2.9 62.052 68.253 68.253 0 0 0 67.2 34.277l17.6-2.011a41.358 41.358 0 0 0 40.565 18.665l18.416-2.578 6.1 4.574a41.357 41.357 0 0 0 34.055 7.227l24.195-5.545 7.15 27.706a75.677 75.677 0 0 0 21.494-81.365l-2.938-8.54-.3-11.283a61.937 61.937 0 0 0 -33.292-53.3 61.946 61.946 0 0 0 -37.276-6.4l-25.444 3.59-6.325-5.095a104.938 104.938 0 0 0 -81.24-22.074z" fill="#7a4922"/></g></svg>