<svg width="128" height="128" viewBox="0 0 128 128" fill="none" xmlns="http://www.w3.org/2000/svg">
<circle cx="64" cy="64" r="64" fill="#009CE4" fill-opacity="0.1"/>
<g clip-path="url(#clip0)">
<path d="M76.0853 87.2453L28.4166 102.144C27.4121 101.342 26.7686 100.103 26.7686 98.7156V60.1177C26.7686 60.1177 26.7686 59.3309 27.321 58.2167C27.3731 58.1107 27.4307 58.0028 27.494 57.8931H103.271C103.334 58.0028 103.392 58.1107 103.444 58.2167L76.0853 87.2453Z" fill="#009CE4"/>
<path d="M103.443 58.2174L91.8966 74.153L65.3812 80.5008L53.6653 69.8585L39.8741 65.5668L27.3208 58.2172C27.6813 57.486 28.3381 56.5733 29.3929 55.6373L35.1367 50.7026L57.3011 31.6575C61.9475 27.664 68.8167 27.664 73.465 31.6575L86.0352 42.4588L101.371 55.6373C102.21 56.3865 102.966 57.2453 103.443 58.2174Z" fill="#938493"/>
<path d="M103.443 58.2179L91.8964 74.1535L65.381 80.5013L62.9834 79.097L94.4611 60.6676L97.5627 58.852C98.1927 58.4833 98.3625 57.6452 97.9183 57.066C97.5699 56.6116 97.1269 56.128 96.5741 55.638L81.2379 42.4595L68.6677 31.6582C66.9918 30.2204 65.0276 29.2997 62.9853 28.896C66.6105 28.1836 70.4924 29.1044 73.4648 31.6582L86.035 42.4595L101.371 55.638C102.209 56.3871 102.966 57.2458 103.443 58.2179Z" fill="#7B6C79"/>
<path d="M86.0352 42.4577V68.4073L65.383 80.4995L53.6656 69.8576L39.8745 65.5659L35.1367 62.7918V50.7015L57.3011 31.6564C61.9475 27.6629 68.8167 27.6629 73.465 31.6564L86.0352 42.4577Z" fill="#7B6C79"/>
<path d="M90.7726 80.5023H65.3824L39.8745 65.567V20.4546C39.8745 19.0832 40.9863 17.9714 42.3577 17.9714H88.2896C89.6611 17.9714 90.7728 19.0832 90.7728 20.4546V80.5023H90.7726Z" fill="#F5FCFF"/>
<path d="M88.2896 17.9714H83.5522C84.9237 17.9714 86.0354 19.0832 86.0354 20.4546V80.5023H90.7728V20.4546C90.7728 19.0832 89.661 17.9714 88.2896 17.9714Z" fill="#E0F5FE"/>
<path d="M103.996 60.1184V98.7163C103.996 100.104 103.352 101.343 102.348 102.144C101.595 102.751 100.641 103.112 99.6007 103.112H31.1638C30.124 103.112 29.1698 102.751 28.4165 102.144L65.3813 80.5008L99.2585 60.6671L103.444 58.2174C103.996 59.3316 103.996 60.1184 103.996 60.1184Z" fill="#B3DAFE"/>
<path d="M103.996 60.1184V98.7163C103.996 100.104 103.353 101.343 102.348 102.144C101.595 102.751 100.641 103.112 99.6008 103.112H94.8633C95.9031 103.112 96.8573 102.751 97.6106 102.144C98.615 101.343 99.2586 100.104 99.2586 98.7163V60.6671L103.444 58.2174C103.996 59.3316 103.996 60.1184 103.996 60.1184Z" fill="#8AC9FE"/>
<path d="M57.3001 27.4154H47.5845C46.8139 27.4154 46.1895 26.7908 46.1895 26.0204C46.1895 25.25 46.8139 24.6254 47.5845 24.6254H57.3001C58.0707 24.6254 58.6951 25.25 58.6951 26.0204C58.6951 26.7908 58.0707 27.4154 57.3001 27.4154Z" fill="#26A6FE"/>
<path d="M63.1639 27.4154H53.4483C52.6776 27.4154 52.0532 26.7908 52.0532 26.0204C52.0532 25.25 52.6776 24.6254 53.4483 24.6254H63.1639C63.9345 24.6254 64.5589 25.25 64.5589 26.0204C64.5589 26.7908 63.9345 27.4154 63.1639 27.4154Z" fill="#26A6FE"/>
<path d="M69.9432 27.4154H60.2276C59.4569 27.4154 58.8325 26.7908 58.8325 26.0204C58.8325 25.25 59.4569 24.6254 60.2276 24.6254H69.9432C70.7138 24.6254 71.3382 25.25 71.3382 26.0204C71.3382 26.7908 70.7138 27.4154 69.9432 27.4154Z" fill="#26A6FE"/>
<path d="M77.3387 27.4154H67.6231C66.8524 27.4154 66.228 26.7908 66.228 26.0204C66.228 25.25 66.8524 24.6254 67.6231 24.6254H77.3387C78.1093 24.6254 78.7337 25.25 78.7337 26.0204C78.7337 26.7908 78.1093 27.4154 77.3387 27.4154Z" fill="#26A6FE"/>
<path d="M83.5018 27.4154H73.7862C73.0155 27.4154 72.3911 26.7908 72.3911 26.0204C72.3911 25.25 73.0155 24.6254 73.7862 24.6254H83.5018C84.2724 24.6254 84.8968 25.25 84.8968 26.0204C84.8968 26.7908 84.2724 27.4154 83.5018 27.4154Z" fill="#26A6FE"/>
<path d="M57.3001 33.9979H47.5845C46.8139 33.9979 46.1895 33.3732 46.1895 32.6028C46.1895 31.8324 46.8139 31.2078 47.5845 31.2078H57.3001C58.0707 31.2078 58.6951 31.8324 58.6951 32.6028C58.6951 33.3732 58.0707 33.9979 57.3001 33.9979Z" fill="#60B7FF"/>
<path d="M63.1639 33.9979H53.4483C52.6776 33.9979 52.0532 33.3732 52.0532 32.6028C52.0532 31.8324 52.6776 31.2078 53.4483 31.2078H63.1639C63.9345 31.2078 64.5589 31.8324 64.5589 32.6028C64.5589 33.3732 63.9345 33.9979 63.1639 33.9979Z" fill="#60B7FF"/>
<path d="M69.9432 33.9979H60.2276C59.4569 33.9979 58.8325 33.3732 58.8325 32.6028C58.8325 31.8324 59.4569 31.2078 60.2276 31.2078H69.9432C70.7138 31.2078 71.3382 31.8324 71.3382 32.6028C71.3382 33.3732 70.7138 33.9979 69.9432 33.9979Z" fill="#60B7FF"/>
<path d="M77.3387 33.9979H67.6231C66.8524 33.9979 66.228 33.3732 66.228 32.6028C66.228 31.8324 66.8524 31.2078 67.6231 31.2078H77.3387C78.1093 31.2078 78.7337 31.8324 78.7337 32.6028C78.7337 33.3732 78.1093 33.9979 77.3387 33.9979Z" fill="#60B7FF"/>
<path d="M83.5018 33.9979H73.7862C73.0155 33.9979 72.3911 33.3732 72.3911 32.6028C72.3911 31.8324 73.0155 31.2078 73.7862 31.2078H83.5018C84.2724 31.2078 84.8968 31.8324 84.8968 32.6028C84.8968 33.3732 84.2724 33.9979 83.5018 33.9979Z" fill="#60B7FF"/>
<path d="M57.3001 40.5805H47.5845C46.8139 40.5805 46.1895 39.9559 46.1895 39.1854C46.1895 38.415 46.8139 37.7904 47.5845 37.7904H57.3001C58.0707 37.7904 58.6951 38.415 58.6951 39.1854C58.6951 39.9559 58.0707 40.5805 57.3001 40.5805Z" fill="#60B7FF"/>
<path d="M63.1639 40.5805H53.4483C52.6776 40.5805 52.0532 39.9559 52.0532 39.1854C52.0532 38.415 52.6776 37.7904 53.4483 37.7904H63.1639C63.9345 37.7904 64.5589 38.415 64.5589 39.1854C64.5589 39.9559 63.9345 40.5805 63.1639 40.5805Z" fill="#60B7FF"/>
<path d="M69.9432 40.5805H60.2276C59.4569 40.5805 58.8325 39.9559 58.8325 39.1854C58.8325 38.415 59.4569 37.7904 60.2276 37.7904H69.9432C70.7138 37.7904 71.3382 38.415 71.3382 39.1854C71.3382 39.9559 70.7138 40.5805 69.9432 40.5805Z" fill="#60B7FF"/>
<path d="M77.3387 40.5805H67.6231C66.8524 40.5805 66.228 39.9559 66.228 39.1854C66.228 38.415 66.8524 37.7904 67.6231 37.7904H77.3387C78.1093 37.7904 78.7337 38.415 78.7337 39.1854C78.7337 39.9559 78.1093 40.5805 77.3387 40.5805Z" fill="#60B7FF"/>
<path d="M83.5018 40.5805H73.7862C73.0155 40.5805 72.3911 39.9559 72.3911 39.1854C72.3911 38.415 73.0155 37.7904 73.7862 37.7904H83.5018C84.2724 37.7904 84.8968 38.415 84.8968 39.1854C84.8968 39.9559 84.2724 40.5805 83.5018 40.5805Z" fill="#60B7FF"/>
<path d="M57.3001 47.1608H47.5845C46.8139 47.1608 46.1895 46.5362 46.1895 45.7658C46.1895 44.9953 46.8139 44.3707 47.5845 44.3707H57.3001C58.0707 44.3707 58.6951 44.9953 58.6951 45.7658C58.6951 46.5362 58.0707 47.1608 57.3001 47.1608Z" fill="#60B7FF"/>
<path d="M63.1639 47.1608H53.4483C52.6776 47.1608 52.0532 46.5362 52.0532 45.7658C52.0532 44.9953 52.6776 44.3707 53.4483 44.3707H63.1639C63.9345 44.3707 64.5589 44.9953 64.5589 45.7658C64.5589 46.5362 63.9345 47.1608 63.1639 47.1608Z" fill="#60B7FF"/>
<path d="M69.9432 47.1608H60.2276C59.4569 47.1608 58.8325 46.5362 58.8325 45.7658C58.8325 44.9953 59.4569 44.3707 60.2276 44.3707H69.9432C70.7138 44.3707 71.3382 44.9953 71.3382 45.7658C71.3382 46.5362 70.7138 47.1608 69.9432 47.1608Z" fill="#60B7FF"/>
<path d="M77.3387 47.1608H67.6231C66.8524 47.1608 66.228 46.5362 66.228 45.7658C66.228 44.9953 66.8524 44.3707 67.6231 44.3707H77.3387C78.1093 44.3707 78.7337 44.9953 78.7337 45.7658C78.7337 46.5362 78.1093 47.1608 77.3387 47.1608Z" fill="#60B7FF"/>
<path d="M83.5018 47.1608H73.7862C73.0155 47.1608 72.3911 46.5362 72.3911 45.7658C72.3911 44.9953 73.0155 44.3707 73.7862 44.3707H83.5018C84.2724 44.3707 84.8968 44.9953 84.8968 45.7658C84.8968 46.5362 84.2724 47.1608 83.5018 47.1608Z" fill="#60B7FF"/>
<path d="M83.5356 53.3495H47.5845C46.8139 53.3495 46.1895 52.7249 46.1895 51.9545C46.1895 51.1841 46.8139 50.5594 47.5845 50.5594H83.5356C84.3062 50.5594 84.9306 51.1841 84.9306 51.9545C84.9306 52.7249 84.3062 53.3495 83.5356 53.3495Z" fill="#009CE4"/>
<path d="M83.5356 59.6579H47.5845C46.8139 59.6579 46.1895 59.0333 46.1895 58.2628C46.1895 57.4924 46.8139 56.8678 47.5845 56.8678H83.5356C84.3062 56.8678 84.9306 57.4924 84.9306 58.2628C84.9306 59.0333 84.3062 59.6579 83.5356 59.6579Z" fill="#009CE4"/>
<path d="M78.4248 65.9684H52.6699C51.8993 65.9684 51.2749 65.3438 51.2749 64.5734C51.2749 63.8029 51.8993 63.1783 52.6699 63.1783H78.4248C79.1954 63.1783 79.8198 63.8029 79.8198 64.5734C79.8198 65.3438 79.1952 65.9684 78.4248 65.9684Z" fill="#009CE4"/>
</g>
<defs>
<clipPath id="clip0">
<rect width="92.4445" height="92.4445" fill="white" transform="translate(23.7036 10.6661)"/>
</clipPath>
</defs>
</svg>
