<svg height="512" viewBox="0 0 512 512" width="512" xmlns="http://www.w3.org/2000/svg"><g id="flat"><path d="m256 56-2.583-5.167a48.543 48.543 0 0 0 -43.417-26.833 48.541 48.541 0 0 0 -45.619 31.953l-48.3 132.813q-4.081 11.234-8.936 22.158l-3.076 6.92a112.478 112.478 0 0 0 6.991 104.629 112.475 112.475 0 0 0 95.791 53.527h98.3a112.475 112.475 0 0 0 95.791-53.527 112.478 112.478 0 0 0 6.991-104.629l-.225-.506a344.05 344.05 0 0 1 -13.459-35.419l-39.485-124.1a48.542 48.542 0 0 0 -46.258-33.819h-6.506a48.543 48.543 0 0 0 -43.417 26.833z" fill="#4a4b46"/><path d="m292.011 360a51.729 51.729 0 0 1 -2.533-16v-24h-68.738v24a51.728 51.728 0 0 1 -2.532 16l1.027.87a55.535 55.535 0 0 0 72.776-.87z" fill="#fdc9a6"/><path d="m289.48 320v15.9a17.327 17.327 0 0 1 -1.91.1h-63.14a18.119 18.119 0 0 1 -3.69-.38v-15.62z" fill="#f6bb92"/><path d="m333.472 283.034-32.072 38.489a18 18 0 0 1 -13.831 6.477h-63.138a18 18 0 0 1 -13.828-6.477l-32.053-38.464a10.994 10.994 0 0 1 -2.55-7.042v-13.163a11.288 11.288 0 0 1 1.841-6.178 11.475 11.475 0 0 1 3.791-3.582 35.6 35.6 0 0 0 15.209-43.144 141.809 141.809 0 0 1 -7.6-69.844l.742-5.2a28.746 28.746 0 0 1 15.6-21.644 28.744 28.744 0 0 1 33.179 5.384l17.238 17.245v.109l.055-.055.054.055v-.109l17.242-17.242a28.744 28.744 0 0 1 33.179-5.384 28.744 28.744 0 0 1 15.6 21.644l.742 5.2a141.8 141.8 0 0 1 -7.6 69.844 35.6 35.6 0 0 0 15.218 43.147 11.415 11.415 0 0 1 3.771 3.563 11.221 11.221 0 0 1 1.83 6.2l-.07 13.183a11 11 0 0 1 -2.549 6.988z" fill="#fdc9a6"/><path d="m319.11 168h-32a8 8 0 0 0 0 16h32a7.821 7.821 0 0 0 3.28-.71 136.085 136.085 0 0 0 1.59-13.63 7.957 7.957 0 0 0 -4.87-1.66zm-96 0h-32a7.886 7.886 0 0 0 -3.04.6 138.31 138.31 0 0 0 1.75 15.3 9.1 9.1 0 0 0 1.29.1h32a8 8 0 0 0 0-16z" fill="#fdc9a6"/><path d="m218.208 360a51.779 51.779 0 0 1 -26.089 30.311 88.655 88.655 0 0 0 -48.928 83.079l.623 14.61h222.591l.623-14.61a88.655 88.655 0 0 0 -48.928-83.079 51.779 51.779 0 0 1 -26.089-30.311 55.535 55.535 0 0 1 -72.776.87z" fill="#6699ce"/><path d="m219.23 360.87a55.3 55.3 0 0 0 35.26 13.14l-15.49 30.99a44.792 44.792 0 0 1 -37.31-19.97l-.4-.59a51.829 51.829 0 0 0 16.92-24.44z" fill="#6699ce"/><path d="m308.78 384.32-.47.71a44.792 44.792 0 0 1 -37.31 19.97l-15.49-30.98a55.386 55.386 0 0 0 36.5-14.02 51.854 51.854 0 0 0 9.9 17.66 50.921 50.921 0 0 0 6.87 6.66z" fill="#6699ce"/><circle cx="293.109" cy="206.667" fill="#6a6c65" r="10"/><path d="m175.109 488v-32a8 8 0 0 1 16 0v32z" fill="#5b89b9"/><path d="m319.109 488v-32a8 8 0 0 1 16 0v32z" fill="#5b89b9"/><g fill="#6a6c65"><circle cx="212.399" cy="206.667" r="10"/><path d="m247.109 256h-1.351a17.053 17.053 0 0 1 -15.253-24.68l5.872-11.743a26.024 26.024 0 0 0 2.732-11.577 8 8 0 0 1 16 0 42.111 42.111 0 0 1 -4.421 18.733l-5.873 11.744a1.053 1.053 0 0 0 .943 1.523h1.351a8 8 0 1 1 0 16z"/><path d="m323.98 169.66a136.085 136.085 0 0 1 -1.59 13.63 7.821 7.821 0 0 1 -3.28.71h-32a8 8 0 0 1 0-16h32a7.957 7.957 0 0 1 4.87 1.66z"/><path d="m231.11 176a8 8 0 0 1 -8 8h-32a9.1 9.1 0 0 1 -1.29-.1 138.31 138.31 0 0 1 -1.75-15.3 7.886 7.886 0 0 1 3.04-.6h32a8 8 0 0 1 8 8z"/><path d="m251.8 280h-20.691a8 8 0 0 1 0-16h20.691a19.183 19.183 0 0 0 13.656-5.657 8 8 0 1 1 11.315 11.314 35.082 35.082 0 0 1 -24.971 10.343z"/><path d="m263.109 304h-16a8 8 0 0 1 0-16h16a8 8 0 0 1 0 16z"/></g><g fill="#5b89b9"><path d="m254.49 374.01-15.49 30.99a44.792 44.792 0 0 1 -37.31-19.97l-.4-.59a51.829 51.829 0 0 0 16.92-24.44l1.02.87a55.3 55.3 0 0 0 35.26 13.14z"/><path d="m308.78 384.32-.47.71a44.792 44.792 0 0 1 -37.31 19.97l-15.49-30.98a55.386 55.386 0 0 0 36.5-14.02 51.854 51.854 0 0 0 9.9 17.66 50.921 50.921 0 0 0 6.87 6.66z"/><circle cx="256" cy="440" r="10"/><circle cx="256" cy="474" r="10"/></g></g></svg>