<svg width="21" height="22" viewBox="0 0 21 22" fill="none" xmlns="http://www.w3.org/2000/svg">
<path d="M14.5 6.99938V11.9994C14.5 12.795 14.8161 13.5581 15.3787 14.1207C15.9413 14.6833 16.7044 14.9994 17.5 14.9994C18.2957 14.9994 19.0587 14.6833 19.6213 14.1207C20.1839 13.5581 20.5 12.795 20.5 11.9994V10.9994C20.4999 8.74241 19.7362 6.55186 18.3333 4.78391C16.9303 3.01596 14.9706 1.7746 12.7726 1.26168C10.5747 0.748749 8.26794 0.994421 6.22736 1.95875C4.18677 2.92307 2.53241 4.54933 1.53327 6.5731C0.534127 8.59687 0.248975 10.8991 0.724177 13.1055C1.19938 15.3119 2.40699 17.2926 4.15064 18.7256C5.89429 20.1587 8.07144 20.9597 10.3281 20.9985C12.5847 21.0373 14.7881 20.3116 16.58 18.9394M14.5 10.9994C14.5 13.2085 12.7092 14.9994 10.5 14.9994C8.29087 14.9994 6.50001 13.2085 6.50001 10.9994C6.50001 8.79024 8.29087 6.99938 10.5 6.99938C12.7092 6.99938 14.5 8.79024 14.5 10.9994Z" stroke="#454545" stroke-linecap="round" stroke-linejoin="round"/>
</svg>
