<svg height="512" viewBox="0 0 512 512" width="512" xmlns="http://www.w3.org/2000/svg"><g id="flat"><path d="m354.861 129.732 1.082 10.5a55.148 55.148 0 0 1 4 58.02l4.333 4.648a36.471 36.471 0 0 1 3.667 45.1l2.512 10.048a39.962 39.962 0 0 1 -10.507 37.952l-1.681 5.043a39.962 39.962 0 0 1 -25.275 25.276l-5.044 1.681-4.136 6.2a39.964 39.964 0 0 1 -33.252 17.8h-69.172a39.964 39.964 0 0 1 -33.252-17.8l-4.136-6.2-5.043-1.681a39.964 39.964 0 0 1 -25.276-25.276l-1.681-5.043a39.964 39.964 0 0 1 -10.512-37.952l2.512-10.048a36.471 36.471 0 0 1 3.667-45.1l4.333-4.647a55.146 55.146 0 0 1 4.006-58.02l1.081-10.5z" fill="#8f5528"/><path d="m240 416h32a32 32 0 0 0 32-32v-.962a58.993 58.993 0 0 1 -16.052-40.438v-30.6h-64v30.6a58.994 58.994 0 0 1 -15.948 40.328v1.072a32 32 0 0 0 32 32z" fill="#fdc9a6"/><path d="m287.95 312v28.61l-10.21 7.29a21.963 21.963 0 0 1 -12.79 4.1h-17.9a21.963 21.963 0 0 1 -12.79-4.1l-10.31-7.37v-28.53z" fill="#f6bb92"/><path d="m316.593 393.187a58.946 58.946 0 0 1 -12.593-10.149v.962a32 32 0 0 1 -32 32h-32a32 32 0 0 1 -32-32v-1.072a58.952 58.952 0 0 1 -12.7 10.259 105.776 105.776 0 0 0 -51.356 90.7v4.113h224v-4.11a105.775 105.775 0 0 0 -51.351-90.703z" fill="#ea2b2d"/><path d="m328 170.253h4a28 28 0 0 1 28 28 28 28 0 0 1 -28 28h-4a0 0 0 0 1 0 0v-56a0 0 0 0 1 0 0z" fill="#f6bb92"/><path d="m152 170.253h4a28 28 0 0 1 28 28 28 28 0 0 1 -28 28h-4a0 0 0 0 1 0 0v-56a0 0 0 0 1 0 0z" fill="#f6bb92" transform="matrix(-1 0 0 -1 336 396.505)"/><path d="m345.526 122.253 8.932-26.8a28 28 0 0 0 -12.044-32.795l-44.625-27.058a80 80 0 0 0 -83.413.27l-43.466 26.746a28 28 0 0 0 -11.889 32.7l8.979 26.937" fill="#5b89b9"/><path d="m256 106.253-80 64 7.347 117.553a22 22 0 0 0 9.17 16.53l41.746 29.819a22 22 0 0 0 12.787 4.1h17.9a22 22 0 0 0 12.787-4.1l41.746-29.819a22 22 0 0 0 9.17-16.53l7.347-117.553z" fill="#fdc9a6"/><path d="m280 306.25a8 8 0 0 1 -8 8h-8v24h-16v-24h-8a8 8 0 0 1 0-16h32a8 8 0 0 1 8 8z" fill="#fdc9a6"/><g fill="#7a4922"><circle cx="212.948" cy="207.253" r="13"/><circle cx="292.948" cy="207.253" r="13"/><path d="m216 274.252a8 8 0 0 1 -5.657-13.656l16-16a8 8 0 0 1 11.314 11.313l-16 16a7.976 7.976 0 0 1 -5.657 2.343z"/><path d="m288 274.252a7.976 7.976 0 0 1 -5.657-2.343l-16-16a8 8 0 1 1 11.314-11.309l16 16a8 8 0 0 1 -5.657 13.652z"/><path d="m264 290.252h-24a8 8 0 1 1 0-16h24a8 8 0 0 1 0 16z"/><path d="m256 266.252a25.3 25.3 0 0 1 -24-33.3l8.411-25.232a8 8 0 1 1 15.178 5.059l-8.41 25.232a9.3 9.3 0 0 0 8.821 12.241 8 8 0 0 1 0 16z"/><path d="m280 306.25a8 8 0 0 1 -8 8h-8v24h-16v-24h-8a8 8 0 0 1 0-16h32a8 8 0 0 1 8 8z"/><path d="m304 186.252h-24a8 8 0 0 1 0-16h24a8 8 0 0 1 0 16z"/><path d="m224 186.252h-24a8 8 0 0 1 0-16h24a8 8 0 0 1 0 16z"/></g><path d="m256 440-16 24h-32l16 24h64l16-24h-32z" fill="#ee9d0d"/><path d="m168 488v-24a8 8 0 0 1 16 0v24z" fill="#cb2527"/><path d="m328 488v-24a8 8 0 0 1 16 0v24z" fill="#cb2527"/><circle cx="256" cy="72" fill="#dcdbd6" r="24"/><path d="m209.324 94.976-48.9 30.094a10 10 0 0 0 -3.334 13.662l9.405 15.674a32.64 32.64 0 0 0 27.988 15.847 32.64 32.64 0 0 0 23.08-9.56 54.362 54.362 0 0 1 76.88 0 32.64 32.64 0 0 0 23.08 9.56 32.64 32.64 0 0 0 27.988-15.847l9.405-15.674a10 10 0 0 0 -3.334-13.662l-48.9-30.094a89.06 89.06 0 0 0 -93.358 0z" fill="#6699ce"/></g></svg>