<svg height="512" viewBox="0 0 512 512" width="512" xmlns="http://www.w3.org/2000/svg"><g id="flat"><path d="m319.5 453.6 8.436-69.092a88.56 88.56 0 0 0 -16.936-11.06 51.7 51.7 0 0 1 -15-11.323v15.228a40 40 0 0 1 -80 0v-15.2a51.708 51.708 0 0 1 -14.978 11.3 88.521 88.521 0 0 0 -24.931 18.568l17.689 61.579a52.14 52.14 0 0 0 4.492 33.541h116.738a52.134 52.134 0 0 0 4.49-33.541z" fill="#f1746a"/><path d="m319.5 453.6a51.7 51.7 0 0 1 .97 8h-127.65a51.678 51.678 0 0 1 .96-8l-2.3-8h129z" fill="#f16465"/><path d="m324.09 416-1.95 16h-134.57l-4.59-16h62.75a39.739 39.739 0 0 0 20.54 0z" fill="#f16465"/><path d="m193.78 453.6-17.689-61.58a88.64 88.64 0 0 0 -24 64.512l.623 30.609h45.555a52.14 52.14 0 0 1 -4.489-33.541z" fill="#fdc9a6"/><path d="m327.938 384.5-8.438 69.1a52.134 52.134 0 0 1 -4.492 33.541h44.3l.623-30.609a88.658 88.658 0 0 0 -31.993-72.032z" fill="#fdc9a6"/><path d="m256 40.29a73.178 73.178 0 0 1 91.094 16.87l7.711 9.113a123.994 123.994 0 0 1 28.455 94.864l-1.591 13.253a75.881 75.881 0 0 0 9.951 47.535l2.29 3.89a75.871 75.871 0 0 1 -14.252 94.552 75.871 75.871 0 0 1 -51.128 19.815h-145.06a75.871 75.871 0 0 1 -51.128-19.815 75.871 75.871 0 0 1 -14.252-94.552l2.29-3.89a75.881 75.881 0 0 0 9.951-47.535l-1.591-13.253a123.994 123.994 0 0 1 28.46-94.864l7.711-9.113a73.178 73.178 0 0 1 91.089-16.87z" fill="#f3be5f"/><path d="m235.42 411.652a40 40 0 0 0 60.58-34.3v-15.227a51.765 51.765 0 0 1 -13.619-34.988v-16h-52.738v16a51.764 51.764 0 0 1 -13.643 35.015v15.2a40 40 0 0 0 19.42 34.3z" fill="#fdc9a6"/><path d="m282.38 311.14v11.2c-.65.31-1.31.59-1.97.86a64.094 64.094 0 0 1 -48.77-.04c-.67-.28-1.34-.57-2-.87v-11.15z" fill="#f6bb92"/><path d="m264 36.51v75.49a8 8 0 0 1 -16 0v-75.49a70.127 70.127 0 0 1 8 3.78 70.127 70.127 0 0 1 8-3.78z" fill="#ffc864"/><path d="m165.886 176.563 11.133 60.288a121.478 121.478 0 0 0 33.871 64.149 64.122 64.122 0 0 0 45.179 18.618 64.123 64.123 0 0 0 45.041-18.481l.1-.1a121.478 121.478 0 0 0 33.9-63.182l12.168-62.308a34 34 0 0 0 -14.589-34.86 135.906 135.906 0 0 0 -152.089 1.313l-.545.375a34 34 0 0 0 -14.169 34.188z" fill="#fdc9a6"/><g fill="#c59a4d"><circle cx="291.42" cy="197" r="13"/><path d="m254.226 263.6a75.4 75.4 0 0 1 -23.715-3.774 8 8 0 1 1 5-15.2c13.108 4.313 26.845 3.987 42-1a8 8 0 1 1 5 15.2 90.3 90.3 0 0 1 -28.285 4.774z"/><path d="m256 232a7.976 7.976 0 0 1 -5.657-2.343l-8-8a8 8 0 0 1 0-11.314 19.185 19.185 0 0 0 5.657-13.656v-4.687a8 8 0 0 1 16 0v4.687a35.075 35.075 0 0 1 -5.326 18.673l2.983 2.983a8 8 0 0 1 -5.657 13.657z"/><path d="m312 176a7.978 7.978 0 0 1 -5.657-2.343 19.187 19.187 0 0 0 -13.656-5.657h-4.687a8 8 0 0 1 0-16h4.687a35.085 35.085 0 0 1 24.97 10.343 8 8 0 0 1 -5.657 13.657z"/><circle cx="220.58" cy="197" r="13"/><path d="m200 176a8 8 0 0 1 -5.657-13.657 35.085 35.085 0 0 1 24.97-10.343h4.687a8 8 0 0 1 0 16h-4.687a19.187 19.187 0 0 0 -13.656 5.657 7.976 7.976 0 0 1 -5.657 2.343z"/></g><g fill="#ffc864"><path d="m224 80a76.189 76.189 0 0 0 -33.89 8l-1.689.845a8 8 0 1 0 7.158 14.31l1.687-.844a60.1 60.1 0 0 1 26.734-6.311 8 8 0 0 0 0-16z"/><path d="m224 48a76.189 76.189 0 0 0 -33.89 8l-1.689.845a8 8 0 1 0 7.158 14.31l1.687-.844a60.1 60.1 0 0 1 26.734-6.311 8 8 0 0 0 0-16z"/><path d="m323.579 88.845-1.691-.845a76.174 76.174 0 0 0 -33.888-8 8 8 0 0 0 0 16 60.087 60.087 0 0 1 26.732 6.311l1.689.844a8 8 0 0 0 7.158-14.31z"/><path d="m288 64a60.087 60.087 0 0 1 26.732 6.311l1.689.844a8 8 0 0 0 7.158-14.31l-1.691-.845a76.174 76.174 0 0 0 -33.888-8 8 8 0 0 0 0 16z"/></g></g></svg>