<svg height="512" viewBox="0 0 512 512" width="512" xmlns="http://www.w3.org/2000/svg"><g id="flat"><path d="m312.5 372.02-.5 3.98a296.377 296.377 0 0 1 -36.07 105.12l-3.93 6.88h-32l-3.93-6.88a296.377 296.377 0 0 1 -36.07-105.12l-.52-4.01a51.791 51.791 0 0 0 24.48-43.99v-16h64v16a51.742 51.742 0 0 0 24.54 44.02z" fill="#fdc9a6"/><path d="m305.858 367.154a51.781 51.781 0 0 1 -17.895-39.154v-16h-64v16a51.78 51.78 0 0 1 -16.606 38l48.625 18z" fill="#fdc9a6"/><g fill="#027226"><path d="m207.357 366a51.744 51.744 0 0 1 -12.015 8.31 88.655 88.655 0 0 0 -48.928 83.079l.623 30.61h217.853l.623-30.61a88.655 88.655 0 0 0 -48.928-83.079 51.773 51.773 0 0 1 -10.727-7.157l-49.405 17.319z"/><path d="m184 456v32h-16v-32a8 8 0 0 1 16 0z"/><path d="m344 456v32h-16v-32a8 8 0 0 1 16 0z"/></g><path d="m312.5 372.02-.5 3.98a296.377 296.377 0 0 1 -36.07 105.12l-3.93 6.88h-32l-3.93-6.88a296.377 296.377 0 0 1 -36.07-105.12l-.52-4.01a51.4 51.4 0 0 0 12.41-10.77l3.783 4.462a51.856 51.856 0 0 0 80.148-1.275l3.359-4.227a51.584 51.584 0 0 0 13.32 11.84z" fill="#fd9226"/><path d="m346.745 187.343h6a21.669 21.669 0 0 1 22.255 21.757l-.017 3.756a21.669 21.669 0 0 1 -21.494 21.574l-9.369.035z" fill="#f6bb92"/><path d="m165.255 187.343h-7a21.669 21.669 0 0 0 -22.255 21.757l.017 3.756a21.669 21.669 0 0 0 21.494 21.574l12.369.035z" fill="#f6bb92"/><path d="m303.68 255.68a53.535 53.535 0 0 0 -37.855-15.68h-19.65a53.535 53.535 0 0 0 -37.855 15.68 19.036 19.036 0 0 1 -19.482 4.6l-15.98-5.575a161.022 161.022 0 0 0 41.2 57.351 63.124 63.124 0 0 0 83.876 0 161.026 161.026 0 0 0 41.271-57.506l-16.046 5.73a19.037 19.037 0 0 1 -19.479-4.6z" fill="#7a4922"/><path d="m352 176a96 96 0 0 0 -96-96 96 96 0 0 0 -96 96v15.667a161.02 161.02 0 0 0 12.858 63.033l15.98 5.575a19.036 19.036 0 0 0 19.482-4.6 53.535 53.535 0 0 1 37.855-15.675h19.65a53.535 53.535 0 0 1 37.855 15.68 19.037 19.037 0 0 0 19.483 4.6l16.046-5.73a161.007 161.007 0 0 0 12.791-62.883z" fill="#fdc9a6"/><circle cx="297" cy="189" fill="#7a4922" r="13"/><path d="m246.368 290.814c-.712 0-1.422-.01-2.136-.029a8 8 0 0 1 .448-15.994 58.935 58.935 0 0 0 33.783-9.434l.113-.073a8 8 0 0 1 8.694 13.432l-.126.081a74.982 74.982 0 0 1 -40.776 12.017z" fill="#5b3719"/><path d="m184 456v32h-16v-32a8 8 0 0 1 16 0z" fill="#026a23"/><path d="m344 456v32h-16v-32a8 8 0 0 1 16 0z" fill="#026a23"/><path d="m319.292 179.611a7.985 7.985 0 0 1 -6.366-3.148l-1.146-1.5a17.79 17.79 0 0 0 -17.567-6.713 8 8 0 1 1 -3-15.717 33.707 33.707 0 0 1 33.287 12.721l1.147 1.5a8 8 0 0 1 -6.354 12.853z" fill="#7a4922"/><g fill="#5b3719"><path d="m210.858 290.536a8 8 0 0 1 -6.818-12.172l5.134-8.4a8 8 0 1 1 13.652 8.343l-5.134 8.4a7.994 7.994 0 0 1 -6.834 3.829z"/><path d="m239.992 264.4a8 8 0 0 1 -6.818-12.173l5.134-8.4a8 8 0 1 1 13.652 8.342l-5.134 8.4a7.994 7.994 0 0 1 -6.834 3.831z"/><path d="m224.212 319.526a8 8 0 0 1 -7.433-10.956l4.134-10.4a8 8 0 0 1 14.869 5.909l-4.134 10.4a8 8 0 0 1 -7.436 5.047z"/><path d="m309.4 295.454a8 8 0 0 1 -7.029-4.167l-5.135-9.4a8 8 0 0 1 14.043-7.669l5.135 9.4a8 8 0 0 1 -7.014 11.836z"/><path d="m291.723 313.475a8 8 0 0 1 -7.327-4.781l-4.135-9.4a8 8 0 1 1 14.646-6.441l4.135 9.4a8 8 0 0 1 -7.319 11.223z"/><path d="m276.138 265.4a8 8 0 0 1 -7.327-4.782l-4.134-9.4a8 8 0 0 1 14.646-6.44l4.134 9.4a8 8 0 0 1 -7.319 11.222z"/><path d="m259.294 320a8 8 0 0 1 -8-7.886l-.134-9.4a8 8 0 0 1 7.885-8.113h.116a8 8 0 0 1 8 7.886l.134 9.4a8 8 0 0 1 -7.885 8.113z"/></g><path d="m267.193 227.98a25.735 25.735 0 0 1 -10.895-2.418 19.252 19.252 0 0 1 -22.468-30.706 20.926 20.926 0 0 0 6.17-14.9v-3.956a8 8 0 0 1 16 0v3.96a36.823 36.823 0 0 1 -10.856 26.21 3.247 3.247 0 0 0 4.346 4.814l1.458-1.188a8 8 0 0 1 10.1 0 9.72 9.72 0 0 0 11.286.709l3.427-2.139a8 8 0 1 1 8.47 13.573l-3.426 2.139a25.69 25.69 0 0 1 -13.612 3.902z" fill="#7a4922"/><circle cx="209.286" cy="189" fill="#7a4922" r="13"/><path d="m186.994 179.611a8 8 0 0 1 -6.352-12.856l1.146-1.5a33.7 33.7 0 0 1 33.283-12.723 8 8 0 1 1 -3 15.717 17.794 17.794 0 0 0 -17.568 6.715l-1.147 1.5a7.988 7.988 0 0 1 -6.362 3.147z" fill="#7a4922"/><path d="m214 358 2 2a95.841 95.841 0 0 0 37.466 23.155l2.534.845-19.46 19.46a15.5 15.5 0 0 1 -10.96 4.54 15.5 15.5 0 0 1 -13.864-8.568l-12.845-25.832z" fill="#eae9e4"/><path d="m297.8 358.331-1.8 1.669a95.841 95.841 0 0 1 -37.466 23.155l-2.534.845 19.46 19.46a15.5 15.5 0 0 0 10.96 4.54 15.5 15.5 0 0 0 13.864-8.568l12.822-26.491z" fill="#eae9e4"/></g></svg>