<svg height="512" viewBox="0 0 512 512" width="512" xmlns="http://www.w3.org/2000/svg"><g id="flat"><path d="m440 472-.83-9.129a218.744 218.744 0 0 0 -63.17-134.871l-13.225-9.4-219.442 2.4-7.333 7a218.744 218.744 0 0 0 -63.17 134.871l-.83 9.129z" fill="#cb2527"/><path d="m157.461 357.365v80.184l50.539 34.451 109.828-.309 45.972-77.976-9.622-41.695z" fill="#ee9d0d"/><path d="m168 376 2.782 19.475a135.191 135.191 0 0 0 28.267 65.336l8.951 11.189h-48l-24-48-24 8 1.249-3.746a424.923 424.923 0 0 1 38.751-84.254z" fill="#eae9e4"/><path d="m344 376a135.2 135.2 0 0 1 -39.6 95.6l-.4.4h48l24-48 24 8-1.249-3.746a424.923 424.923 0 0 0 -38.751-84.254z" fill="#eae9e4"/><path d="m392 472v-16a8 8 0 0 1 16 0v16z" fill="#b22122"/><path d="m104 472v-16a8 8 0 0 1 16 0v16z" fill="#b22122"/><path d="m347.178 171.884 18.4 4.542a24.318 24.318 0 0 1 18.422 23.591 24.316 24.316 0 0 1 -10.828 20.233l-13.172 8.781z" fill="#f6bb92"/><path d="m161.143 172.852-14.724 3.574a24.318 24.318 0 0 0 -18.419 23.591 24.316 24.316 0 0 0 10.828 20.233l13.172 8.781z" fill="#f6bb92"/><path d="m180.75 243.544a28.981 28.981 0 0 0 21.9-1.462l24.701-12.082h57.3l24.7 12.086a28.979 28.979 0 0 0 39.643-15.267l8.553-21.384-5.147-22.641a19.343 19.343 0 0 1 -.468-3.57 92.734 92.734 0 0 0 -11.607-41.606 96.468 96.468 0 0 0 -60.925-46.738 96.47 96.47 0 0 0 -46.792 0 96.468 96.468 0 0 0 -60.93 46.738 92.734 92.734 0 0 0 -11.607 41.606 19.343 19.343 0 0 1 -.468 3.57l-5.144 22.637 8.553 21.384a28.98 28.98 0 0 0 17.738 16.729z" fill="#fdc9a6"/><path d="m374.238 278.879-16.693-73.448-8.553 21.384a28.979 28.979 0 0 1 -39.643 15.267l-24.7-12.082h-57.3l-24.7 12.086a28.979 28.979 0 0 1 -39.643-15.267l-8.553-21.384-16.693 73.448a116.363 116.363 0 0 0 48.923 122.609 116.366 116.366 0 0 0 64.547 19.543h9.536a116.366 116.366 0 0 0 64.547-19.543 116.363 116.363 0 0 0 48.925-122.613z" fill="#7a4922"/><path d="m236.667 243.751a18.4 18.4 0 0 1 -13.025-31.412l2.7-2.7a8 8 0 1 1 11.314 11.314l-2.7 2.7a2.393 2.393 0 0 0 -.449 2.765 2.4 2.4 0 0 0 3.214 1.072l6.7-3.35a8 8 0 0 1 9.235 1.5 3.317 3.317 0 0 0 4.686 0 8 8 0 0 1 9.235-1.5l6.7 3.35a2.4 2.4 0 0 0 3.214-1.071 2.392 2.392 0 0 0 -.448-2.766l-2.7-2.7a8 8 0 1 1 11.314-11.314l2.7 2.7a18.4 18.4 0 0 1 -21.233 29.461l-2.473-1.237a19.408 19.408 0 0 1 -17.3 0l-2.473 1.237a18.314 18.314 0 0 1 -8.211 1.951z" fill="#5b3719"/><path d="m240 277.031a8 8 0 0 1 0-16 60.087 60.087 0 0 0 26.733-6.31l1.688-.845a8 8 0 0 1 7.158 14.31l-1.689.845a76.169 76.169 0 0 1 -33.89 8z" fill="#fdc9a6"/><g fill="#5b3719"><path d="m160 317.031a8 8 0 0 1 -8-8 82.874 82.874 0 0 1 7.188-33.87l1.5-3.379a8 8 0 0 1 14.622 6.5l-1.5 3.379a66.965 66.965 0 0 0 -5.81 27.37 8 8 0 0 1 -8 8z"/><path d="m185.2 350.862a8 8 0 0 1 -7.69-5.812 64.015 64.015 0 0 1 2.421-41.861l.32-.772a8 8 0 0 1 14.78 6.129l-.32.77a47.952 47.952 0 0 0 -1.811 31.354 8 8 0 0 1 -7.7 10.192z"/><path d="m219.151 395.692a7.964 7.964 0 0 1 -4.206-1.2l-.139-.086a46.451 46.451 0 0 1 -20.984-30.152 8 8 0 1 1 15.681-3.176 30.393 30.393 0 0 0 13.73 19.727l.141.086a8 8 0 0 1 -4.223 14.8z"/><path d="m221.025 334.26a8 8 0 0 1 -7.586-5.466 43.537 43.537 0 0 1 .63-29.294l.461-1.2a8 8 0 1 1 14.943 5.718l-.461 1.2a27.5 27.5 0 0 0 -.4 18.5 8.007 8.007 0 0 1 -7.589 10.538z"/><path d="m243.132 379.978a7.993 7.993 0 0 1 -6.762-3.714 43.537 43.537 0 0 1 -6.436-28.586l.157-1.28a8 8 0 1 1 15.88 1.956l-.158 1.28a27.5 27.5 0 0 0 4.066 18.055 8 8 0 0 1 -6.747 12.289z"/><path d="m352 317.031a8 8 0 0 1 -8-8 66.973 66.973 0 0 0 -5.809-27.372l-1.5-3.378a8 8 0 0 1 14.622-6.5l1.5 3.379a82.874 82.874 0 0 1 7.187 33.871 8 8 0 0 1 -8 8z"/><path d="m327.8 348.862a8 8 0 0 1 -7.7-10.192 47.953 47.953 0 0 0 -1.814-31.356l-.319-.768a8 8 0 0 1 14.78-6.129l.319.77a64.016 64.016 0 0 1 2.422 41.863 8 8 0 0 1 -7.688 5.812z"/><path d="m299 397.531a8 8 0 0 1 -5.7-13.609l.114-.116a30.4 30.4 0 0 0 8.686-22.416 8 8 0 1 1 15.988-.612 46.453 46.453 0 0 1 -13.279 34.251l-.109.111a7.979 7.979 0 0 1 -5.7 2.391z"/><path d="m275.6 380.076a8 8 0 0 1 -7.112-11.652l.049-.095a32.262 32.262 0 0 0 2.876-21.043 8 8 0 1 1 15.677-3.194 48.31 48.31 0 0 1 -4.313 31.53l-.052.1a8 8 0 0 1 -7.125 4.354z"/><path d="m291.975 336.26a8.007 8.007 0 0 1 -7.589-10.538 27.5 27.5 0 0 0 -.4-18.5l-.461-1.2a8 8 0 1 1 14.945-5.722l.461 1.2a43.537 43.537 0 0 1 .63 29.294 8 8 0 0 1 -7.586 5.466z"/></g><path d="m354.53 173.442-19.094-6.365a32.048 32.048 0 0 0 -31.436-26.046h-8a32.051 32.051 0 0 0 -30.174 21.359 44.192 44.192 0 0 0 -19.652 0 32.051 32.051 0 0 0 -30.174-21.359h-8a32.048 32.048 0 0 0 -31.436 26.046l-19.094 6.365a8 8 0 1 0 5.06 15.179l15.25-5.084a32.049 32.049 0 0 0 30.22 21.494h8a32.046 32.046 0 0 0 31.5-26.43 28 28 0 0 1 16.99 0 32.046 32.046 0 0 0 31.5 26.43h8a32.049 32.049 0 0 0 30.22-21.494l15.25 5.084a8 8 0 0 0 5.06-15.179zm-138.53 15.589h-8a16 16 0 0 1 0-32h8a16 16 0 0 1 0 32zm88 0h-8a16 16 0 0 1 0-32h8a16 16 0 0 1 0 32z" fill="#6a6c65"/><path d="m243 134h26a8 8 0 0 0 0-16h-26a8 8 0 0 0 0 16z" fill="#f6bb92"/></g></svg>