<svg width="267" height="277" viewBox="0 0 267 277" fill="none" xmlns="http://www.w3.org/2000/svg">
<path d="M82.9784 261.384C122.601 282.087 186.851 282.087 226.474 261.384C266.096 240.682 266.096 207.125 226.474 186.423C186.851 165.721 122.601 165.728 82.9784 186.423C43.3555 207.118 43.3555 240.653 82.9784 261.384Z" fill="#F5F5F5"/>
<path d="M109.556 177.198C109.372 176.948 109.475 160.184 103.791 155.2C98.1076 150.216 93.094 154.17 96.3849 160.14C98.5935 164.079 104.697 171.051 104.704 177.728L109.556 177.198Z" fill="#1A61DB"/>
<path opacity="0.6" d="M109.556 177.198C109.372 176.948 109.475 160.184 103.791 155.2C98.1076 150.216 93.094 154.17 96.3849 160.14C98.5935 164.079 104.697 171.051 104.704 177.728L109.556 177.198Z" fill="white"/>
<path d="M107.561 177.588C107.486 177.589 107.413 177.561 107.357 177.511C107.301 177.46 107.266 177.391 107.259 177.316C105.551 161.245 99.1164 155.487 99.0502 155.428C98.9896 155.376 98.9525 155.301 98.947 155.221C98.9415 155.141 98.968 155.062 99.0207 155.001C99.0734 154.941 99.148 154.904 99.2281 154.898C99.3082 154.893 99.3872 154.919 99.4477 154.972C99.7201 155.208 106.133 160.913 107.863 177.25C107.871 177.331 107.847 177.412 107.796 177.475C107.745 177.538 107.671 177.579 107.59 177.588H107.561Z" fill="white"/>
<path d="M108.459 194.941C106.376 185.481 103.401 179.989 91.6292 173.93C80.7848 168.342 71.457 162.437 82.3014 160.295C91.3053 158.513 108.636 172.811 109.254 185.326L108.459 194.941Z" fill="#1A61DB"/>
<path d="M107.303 183.051C107.241 183.052 107.181 183.035 107.129 183.001C107.078 182.966 107.038 182.917 107.016 182.86C103.46 173.377 92.1001 164.204 82.257 162.827C82.1774 162.815 82.1059 162.771 82.0578 162.707C82.0097 162.642 81.9887 162.561 81.9993 162.481C82.0047 162.442 82.018 162.403 82.0384 162.369C82.0588 162.334 82.0859 162.304 82.1181 162.28C82.1503 162.256 82.187 162.239 82.226 162.229C82.2651 162.219 82.3056 162.218 82.3453 162.224C92.402 163.63 103.96 172.98 107.59 182.646C107.616 182.722 107.612 182.806 107.577 182.879C107.543 182.952 107.481 183.008 107.406 183.036L107.303 183.051Z" fill="white"/>
<path d="M195.118 209.29C194.809 209.702 194.758 210.652 194.441 211.94C194.121 212.888 194.048 213.901 194.228 214.885C194.968 216.12 196.141 217.036 197.518 217.454C199.212 217.984 201.295 217.543 203.312 216.335C205.33 215.128 206.854 213.663 209.732 212.846C212.611 212.029 214.039 211.373 215.401 210.269C216.999 208.988 219.126 205.454 216.078 204.637C213.03 203.82 206.397 206.706 200.368 206.971L195.118 209.29Z" fill="#263238"/>
<path d="M195.119 205.52V210.041C195.301 210.55 195.623 210.998 196.047 211.334C196.471 211.67 196.981 211.88 197.519 211.94C198.015 212.02 198.523 211.966 198.991 211.786C199.723 211.504 200.358 211.016 200.818 210.381C201.278 209.746 201.544 208.991 201.583 208.208L201.759 205.52H195.119Z" fill="#FFA8A7"/>
<path d="M203.747 177.603C203.784 183.221 202.171 207.501 202.171 207.501C202.171 207.501 199.874 210.409 194.883 207.501L193.182 180.401L203.747 177.603Z" fill="#1A61DB"/>
<path opacity="0.5" d="M203.747 177.603C203.784 183.221 202.171 207.501 202.171 207.501C202.171 207.501 199.874 210.409 194.883 207.501L193.182 180.401L203.747 177.603Z" fill="black"/>
<path d="M189.17 228.564C189.803 223.874 194.669 215.054 203.025 211.329C211.381 207.604 221.49 208.657 223.411 210.276C225.333 211.896 225.833 215.283 221.814 216.372C217.794 217.462 214.636 219.317 217.124 221.415C219.612 223.513 220.385 226.407 216.314 227.195C212.243 227.982 207.435 225.082 206.302 227.673C205.168 230.265 207.561 232.252 203.025 233.187C198.49 234.122 192.917 230.618 189.774 235.786L189.17 228.564Z" fill="#1A61DB"/>
<path d="M189.442 232.112C189.403 232.119 189.363 232.119 189.324 232.112C189.288 232.097 189.254 232.075 189.226 232.046C189.198 232.018 189.176 231.984 189.161 231.947C189.145 231.91 189.138 231.871 189.138 231.831C189.139 231.791 189.147 231.752 189.163 231.715C195.361 216.991 213.281 210.365 219.531 210.762C219.612 210.768 219.687 210.805 219.741 210.866C219.795 210.926 219.822 211.005 219.818 211.086C219.817 211.126 219.807 211.166 219.789 211.202C219.772 211.239 219.747 211.271 219.717 211.298C219.687 211.325 219.652 211.345 219.613 211.358C219.575 211.371 219.535 211.376 219.494 211.373C214.532 211.071 196.179 216.659 189.722 231.95C189.696 232.001 189.655 232.043 189.606 232.072C189.556 232.101 189.499 232.115 189.442 232.112Z" fill="white"/>
<path d="M213.98 223.101C213.939 223.108 213.897 223.108 213.855 223.101C213.774 223.057 205.359 219.332 197.585 221.077C197.546 221.086 197.506 221.088 197.466 221.082C197.427 221.076 197.389 221.061 197.356 221.04C197.322 221.019 197.293 220.991 197.27 220.958C197.248 220.925 197.232 220.888 197.224 220.848C197.215 220.81 197.214 220.77 197.221 220.731C197.228 220.692 197.242 220.654 197.264 220.621C197.306 220.553 197.374 220.505 197.452 220.488C205.426 218.699 214.025 222.505 214.106 222.542C214.172 222.568 214.226 222.617 214.259 222.68C214.293 222.743 214.303 222.816 214.288 222.885C214.273 222.955 214.234 223.017 214.178 223.06C214.121 223.104 214.051 223.126 213.98 223.123V223.101Z" fill="white"/>
<path d="M144.85 154.921L118.516 170.123L181.064 206.235L200.817 194.831L207.399 191.032L144.85 154.921Z" fill="#1A61DB"/>
<path d="M207.399 191.032V194.838L187.646 206.242L187.639 202.436L207.399 191.032Z" fill="#1A61DB"/>
<path opacity="0.2" d="M207.399 191.032V194.838L187.646 206.242L187.639 202.436L207.399 191.032Z" fill="black"/>
<path d="M147.669 173.93C147.669 173.93 170.735 166.965 174.74 165.868C178.745 164.771 186.446 162.923 188.691 163.932C190.937 164.94 192.078 166.104 192.284 169.35C192.328 169.961 192.284 172.928 192.284 172.928C192.284 172.928 181.138 176.374 172.009 176.374C162.88 176.374 147.669 173.93 147.669 173.93Z" fill="#1A61DB"/>
<path opacity="0.6" d="M147.669 173.93C147.669 173.93 170.735 166.965 174.74 165.868C178.745 164.771 186.446 162.923 188.691 163.932C190.937 164.94 192.078 166.104 192.284 169.35C192.328 169.961 192.284 172.928 192.284 172.928C192.284 172.928 181.138 176.374 172.009 176.374C162.88 176.374 147.669 173.93 147.669 173.93Z" fill="black"/>
<path d="M167.385 134.734L165.854 143.001L157.373 143.98L158.595 132.569L167.385 134.734Z" fill="#FFA8A7"/>
<path d="M175.292 128.13C175.292 128.13 176.404 131.538 176.065 131.752C175.456 131.881 174.83 131.916 174.21 131.855L175.292 128.13Z" fill="#F28F8F"/>
<path d="M173.084 117.197C174.556 118.736 175.933 121.305 175.292 127.821C174.622 134.962 172.487 136.869 171.611 137.281C170.264 137.907 165.722 136.817 164.205 135.72C162.35 134.351 158.845 130.935 157.932 126.731C156.858 121.784 158.234 116.159 161.849 115.018C166.973 113.406 171.876 115.894 173.084 117.197Z" fill="#FFA8A7"/>
<path d="M176.448 120.709C175.579 122.343 173.945 126.414 169.299 127.563C169.299 127.563 169.042 124.795 166.745 124.765C164.448 124.736 163.667 127.57 164.808 129.543C165.95 131.516 167.385 131.067 167.385 131.067C167.385 131.067 167.15 134.962 164.345 136.353C164.345 136.353 160.965 137.892 157.888 135.926C156.504 135.043 154.899 131.207 154.074 128.13C152.322 121.622 152.639 116.638 156.776 115.614C157.645 112.883 159.051 112.007 161.65 111.837C167.26 111.462 170.882 115.614 175.542 115.614C177.972 115.614 177.435 118.846 176.448 120.709Z" fill="#263238"/>
<path d="M156.887 116.085L154.075 114.878C154.154 114.694 154.268 114.527 154.411 114.387C154.554 114.247 154.724 114.136 154.91 114.062C155.096 113.987 155.295 113.95 155.495 113.953C155.695 113.955 155.893 113.997 156.077 114.075C156.261 114.154 156.428 114.269 156.568 114.412C156.708 114.555 156.819 114.725 156.893 114.911C156.968 115.096 157.005 115.295 157.003 115.496C157 115.696 156.958 115.894 156.88 116.078L156.887 116.085Z" fill="#263238"/>
<path d="M147.729 171.154C147.729 175.571 147.309 180.195 149.157 183.441C151.005 186.688 159.376 193.373 168.799 191.783C174.954 190.745 194.854 183.162 194.854 183.162C194.854 183.162 203.688 179.915 203.747 177.603C203.806 174.187 203.571 169.387 195.848 169.593C188.81 169.777 167.923 173.201 167.923 173.201L147.729 171.154Z" fill="#1A61DB"/>
<path opacity="0.5" d="M147.729 171.154C147.729 175.571 147.309 180.195 149.157 183.441C151.005 186.688 159.376 193.373 168.799 191.783C174.954 190.745 194.854 183.162 194.854 183.162C194.854 183.162 203.688 179.915 203.747 177.603C203.806 174.187 203.571 169.387 195.848 169.593C188.81 169.777 167.923 173.201 167.923 173.201L147.729 171.154Z" fill="black"/>
<path d="M149.37 142.515C150.106 140.204 153.051 137.686 155.996 138.231C161.393 139.232 167.297 140.984 168.858 141.441C168.858 141.441 168.121 153.338 174.254 156.901L175.057 172.045C175.057 172.045 173.547 175.056 171.221 176.543C168.696 178.141 165.191 180.548 158.853 180.018C156.66 179.845 154.528 179.21 152.598 178.154C150.668 177.099 148.983 175.646 147.655 173.893C147.655 173.893 147.728 159.581 147.971 153.176C148.192 147.772 148.847 144.106 149.37 142.515Z" fill="#1A61DB"/>
<path opacity="0.2" d="M149.37 142.515C150.106 140.204 153.051 137.686 155.996 138.231C161.393 139.232 167.297 140.984 168.858 141.441C168.858 141.441 168.121 153.338 174.254 156.901L175.057 172.045C175.057 172.045 173.547 175.056 171.221 176.543C168.696 178.141 165.191 180.548 158.853 180.018C156.66 179.845 154.528 179.21 152.598 178.154C150.668 177.099 148.983 175.646 147.655 173.893C147.655 173.893 147.728 159.581 147.971 153.176C148.192 147.772 148.847 144.106 149.37 142.515Z" fill="black"/>
<path d="M174.424 159.868C174.424 159.868 171.236 156.562 170.117 152.727C170.117 152.727 170.117 158.337 174.49 161.37L174.424 159.868Z" fill="#1A61DB"/>
<path opacity="0.4" d="M174.424 159.868C174.424 159.868 171.236 156.562 170.117 152.727C170.117 152.727 170.117 158.337 174.49 161.37L174.424 159.868Z" fill="black"/>
<path d="M195.384 149.001L198.807 144.083C198.807 144.083 199.624 142.898 199.926 142.405C200.228 141.912 200.434 140.263 199.425 139.843C197.6 139.107 193.801 137.288 192.689 137.281C192.233 137.281 190.326 140.476 187.057 144.783C185.099 147.36 182.397 150.938 182.397 151.254C182.397 151.571 181.698 151.895 184.539 153.345C186.576 154.345 188.685 155.192 190.849 155.878L195.384 149.001Z" fill="#1A61DB"/>
<path opacity="0.6" d="M195.384 149.001L198.807 144.083C198.807 144.083 199.624 142.898 199.926 142.405C200.228 141.912 200.434 140.263 199.425 139.843C197.6 139.107 193.801 137.288 192.689 137.281C192.233 137.281 190.326 140.476 187.057 144.783C185.099 147.36 182.397 150.938 182.397 151.254C182.397 151.571 181.698 151.895 184.539 153.345C186.576 154.345 188.685 155.192 190.849 155.878L195.384 149.001Z" fill="black"/>
<path d="M197.563 143.664C195.465 146.682 190.989 154.147 190.856 154.354C190.723 154.56 184.23 151.755 182.485 150.997C182.442 151.077 182.412 151.164 182.397 151.254C182.397 151.563 181.698 151.895 184.539 153.345C186.576 154.345 188.685 155.192 190.849 155.878L195.384 149.001L198.807 144.083C198.807 144.083 199.624 142.898 199.926 142.405C200.228 141.912 200.434 140.263 199.425 139.843C199.624 139.946 199.654 140.645 197.563 143.664Z" fill="#263238"/>
<path d="M192.026 138.849L198.505 141.477L191.275 152.528L184.819 149.76L192.026 138.849Z" fill="#1A61DB"/>
<path opacity="0.8" d="M192.026 138.849L198.505 141.477L191.275 152.528L184.819 149.76L192.026 138.849Z" fill="white"/>
<path d="M168.873 141.441C172.2 142.442 174.232 142.626 177.913 148.287C181.594 153.949 189.656 165.176 190.429 166.531C191.541 168.408 192.019 170.639 191.062 172.369C190.164 173.974 187.558 173.274 183.906 170.064C180.372 166.965 173.378 158.204 173.378 158.204C171.074 152.863 169.557 147.217 168.873 141.441Z" fill="#FFA8A7"/>
<path d="M190.274 173.201C191.96 172.715 194.5 166.45 196.444 159.345C198.388 152.241 199.389 150.658 199.389 148.42C199.389 146.182 199.286 143.325 199.286 143.325L195.958 148.118C195.824 147.178 195.541 146.266 195.119 145.416C194.692 144.54 193.889 143.855 193.234 144.378C192.881 144.658 193.808 145.85 193.609 148.552C193.551 149.629 193.617 150.708 193.808 151.77L187.609 166.774L190.274 173.201Z" fill="#FFA8A7"/>
<path d="M168.873 141.441C170.524 141.791 172.137 142.304 173.687 142.972C175.184 143.561 176.457 144.607 177.324 145.961C179.901 150.238 183.582 156.327 183.582 156.327C183.582 156.327 184.215 161.627 177.773 163.483L174.343 159.802C172.941 158.303 171.79 156.587 170.934 154.722C169.484 151.512 167.827 146.447 168.873 141.441Z" fill="#1A61DB"/>
<path opacity="0.2" d="M168.873 141.441C170.524 141.791 172.137 142.304 173.687 142.972C175.184 143.561 176.457 144.607 177.324 145.961C179.901 150.238 183.582 156.327 183.582 156.327C183.582 156.327 184.215 161.627 177.773 163.483L174.343 159.802C172.941 158.303 171.79 156.587 170.934 154.722C169.484 151.512 167.827 146.447 168.873 141.441Z" fill="black"/>
<path d="M177.553 71.1691L108.857 31.5093C107.127 30.5081 105.691 31.1265 105.404 32.8713C105.564 31.7755 105.955 30.7261 106.55 29.7921C107.145 28.8582 107.931 28.0609 108.857 27.4528L111.713 25.7963C112.8 25.2446 114.002 24.9572 115.221 24.9572C116.44 24.9572 117.642 25.2446 118.729 25.7963L187.433 65.456C188.466 66.1076 189.32 67.009 189.914 68.077L180.034 73.7826C179.445 72.7127 178.59 71.8125 177.553 71.1691Z" fill="#37474F"/>
<path d="M190.937 234.498C190.872 235.715 190.519 236.9 189.909 237.956C189.299 239.011 188.448 239.907 187.425 240.572L184.569 242.243C183.579 242.739 182.495 243.021 181.389 243.069C180.282 243.117 179.178 242.931 178.149 242.522C179.805 243.148 181.094 242.213 181.094 240.211V77.2428C181.05 76.0229 180.695 74.8344 180.063 73.79L189.943 68.0844C190.572 69.1323 190.924 70.323 190.966 71.5445L190.937 234.498Z" fill="#263238"/>
<path d="M177.552 71.1691L108.856 31.5093C106.92 30.3903 105.352 31.2958 105.352 33.5339V196.487C105.418 197.704 105.77 198.887 106.379 199.942C106.988 200.998 107.837 201.895 108.856 202.561L177.552 242.243C179.496 243.354 181.057 242.449 181.057 240.211V77.2428C180.992 76.026 180.641 74.8416 180.032 73.7862C179.423 72.7307 178.574 71.834 177.552 71.1691ZM177.766 217.108C177.766 218.456 176.831 219 175.66 218.323L110.748 180.843C110.129 180.441 109.614 179.898 109.246 179.258C108.879 178.618 108.669 177.899 108.636 177.162V56.6215C108.636 55.2742 109.578 54.7294 110.748 55.4068L113.333 56.8792L175.66 92.8726C176.279 93.2741 176.793 93.8177 177.159 94.4579C177.525 95.0982 177.733 95.8167 177.766 96.5537V217.108Z" fill="#455A64"/>
<path d="M143.201 57.5197C143.562 57.7523 143.862 58.0671 144.077 58.4383C144.292 58.8094 144.416 59.2264 144.438 59.6547C144.438 60.4425 143.886 60.7664 143.201 60.391C142.843 60.1567 142.545 59.8413 142.331 59.4704C142.118 59.0994 141.994 58.6834 141.972 58.2559C141.972 57.4535 142.524 57.1222 143.201 57.5197Z" fill="#263238"/>
<path d="M143.201 205.373C144.615 206.302 145.791 207.55 146.634 209.017C147.477 210.483 147.963 212.128 148.053 213.818C148.053 216.924 145.844 218.191 143.179 216.63C141.761 215.705 140.581 214.459 139.734 212.993C138.888 211.528 138.398 209.883 138.305 208.193C138.327 205.079 140.514 203.82 143.201 205.373Z" fill="#263238"/>
<path d="M154.863 70.0647C155.581 70.5324 156.18 71.1627 156.609 71.9045C157.039 72.6463 157.288 73.4788 157.336 74.3347C157.336 75.9102 156.225 76.5434 154.863 75.763C154.145 75.2937 153.547 74.662 153.119 73.9189C152.69 73.1757 152.443 72.3422 152.396 71.4856C152.396 69.9101 153.501 69.277 154.863 70.0647Z" fill="#263238"/>
<path d="M148.826 69.5273C148.826 70.5801 148.045 70.9998 147.074 70.4182L130.833 61.0388C130.327 60.7226 129.904 60.2907 129.598 59.7786C129.292 59.2666 129.112 58.6892 129.073 58.094C129.073 57.0412 129.861 56.6215 130.833 57.2032L147.074 66.5825C147.579 66.8987 148.001 67.3307 148.306 67.8429C148.611 68.3551 148.789 68.9325 148.826 69.5273Z" fill="#263238"/>
<path d="M118.516 59.8903L110.741 55.4068C109.578 54.7295 108.636 55.2742 108.636 56.6215V177.198C108.67 177.935 108.879 178.653 109.245 179.293C109.611 179.933 110.124 180.477 110.741 180.879L118.516 185.37V59.8903Z" fill="#263238"/>
<g opacity="0.15">
<path opacity="0.15" d="M177.766 96.5316V204.335L113.333 167.149V56.8939L175.661 92.8873C176.275 93.2853 176.785 93.823 177.151 94.4564C177.517 95.0899 177.728 95.801 177.766 96.5316Z" fill="white"/>
</g>
<path d="M113.738 57.6007L175.462 93.2408C176.011 93.6059 176.468 94.0929 176.797 94.6637C177.127 95.2346 177.32 95.8739 177.361 96.5317V203.636L113.738 166.906V57.6007ZM113.333 56.8645V167.149L177.766 204.343V96.5317C177.734 95.7947 177.526 95.0762 177.16 94.4359C176.793 93.7957 176.28 93.2521 175.661 92.8506L113.333 56.8572V56.8645Z" fill="white"/>
<path d="M177.773 217.108V208.141L118.515 173.929L109.254 179.267C109.602 179.909 110.109 180.452 110.726 180.842L175.653 218.323C176.823 219 177.773 218.456 177.773 217.108Z" fill="#37474F"/>
<path d="M177.774 211.94L158.021 223.344V219.545L177.774 208.141V211.94Z" fill="#1A61DB"/>
<path opacity="0.2" d="M177.774 211.94L158.021 223.344V219.545L177.774 208.141V211.94Z" fill="black"/>
<path d="M95.4722 183.434L158.021 219.545V223.344L95.4722 187.233V183.434Z" fill="#1A61DB"/>
<path opacity="0.2" d="M95.4722 183.434L158.021 219.545V223.344L95.4722 187.233V183.434Z" fill="black"/>
<path d="M118.516 170.123L95.4722 183.434L158.021 219.545L177.773 208.141V204.335L118.516 170.123Z" fill="#1A61DB"/>
<path d="M118.516 170.123L95.4722 183.434L158.021 219.545L177.773 208.141V204.335L118.516 170.123Z" fill="#1A61DB"/>
<path d="M119.09 140.056C117.131 140.056 115.637 140.174 112.022 145.416C108.959 149.833 98.9396 163.689 98.3433 164.344C97.7469 164.999 102.864 167.333 102.864 167.333L116.395 153.735L119.09 140.056Z" fill="#FFA8A7"/>
<path d="M100.375 163.225C100.375 163.225 101.45 162.651 104.167 162.673C105.853 162.673 106.906 162.791 107.112 162.246C107.384 161.429 108.047 159.927 108.393 159.934V163.932L100.375 163.225Z" fill="#F28F8F"/>
<path d="M95.6196 223.153C91.0919 229.131 87.558 230.515 86.3212 231.81C85.0844 233.106 85.7985 235.661 88.8243 236.228C91.8502 236.795 95.1263 236.103 97.0773 234.152C99.0282 232.201 100.376 229.661 102.363 228.262C104.351 226.863 105.374 226.466 105.676 224.787C105.978 223.108 104.461 218.117 104.461 218.117L95.6196 223.153Z" fill="#263238"/>
<path d="M97.7911 214.038C98.2108 216.21 98.6819 218.11 97.2022 220.723C96.7218 221.563 96.1933 222.374 95.6193 223.153C92.9763 226.709 90.8266 229.484 90.4658 229.97C90.1051 230.456 92.3284 232.002 94.8831 230.942C97.4377 229.882 99.639 226.098 101.303 223.815C102.039 222.799 102.775 221.879 103.35 221.165C104.127 220.215 104.531 219.013 104.483 217.786L104.343 214.318L97.7911 214.038Z" fill="#FFA8A7"/>
<path d="M106.641 231.649C102.113 237.634 98.5791 239.011 97.3422 240.314C96.1054 241.617 96.8269 244.157 99.8453 244.731C102.864 245.305 106.147 244.599 108.098 242.655C110.049 240.711 111.397 238.157 113.392 236.765C115.387 235.374 116.403 234.962 116.697 233.283C116.992 231.604 115.49 226.613 115.49 226.613L106.641 231.649Z" fill="#263238"/>
<path d="M108.812 222.534C109.239 224.706 109.703 226.606 108.223 229.219C107.746 230.061 107.218 230.872 106.64 231.649C103.997 235.204 101.848 237.98 101.487 238.466C101.126 238.952 103.349 240.505 105.904 239.445C108.459 238.385 110.66 234.601 112.324 232.319C113.06 231.303 113.796 230.375 114.371 229.668C115.148 228.715 115.551 227.511 115.504 226.282L115.372 222.814L108.812 222.534Z" fill="#FFA8A7"/>
<path d="M138.334 169.358C141.802 176.484 140.432 183.544 131.06 188.168C125.826 190.752 115.696 195.317 115.696 195.317C115.696 195.317 117.168 199.366 117.22 206.19C117.271 212.198 115.674 225.266 115.674 225.266C115.674 225.266 111.757 227.084 108.952 225.266C108.952 225.266 107.708 217.167 106.743 209.003C105.573 198.747 104.586 192.718 105.109 190.509C105.573 188.558 109.651 185.702 112.766 183.515L101.899 188.624C101.899 188.624 104.233 191.849 104.785 197.658C105.455 204.681 104.608 216.755 104.608 216.755C103.569 217.263 102.436 217.55 101.281 217.598C100.125 217.646 98.9719 217.455 97.8941 217.035C97.8941 217.035 90.2449 187.255 91.3934 183.125C93.0425 177.198 115.615 168.172 116.763 165.846L138.334 169.358Z" fill="#1A61DB"/>
<path opacity="0.2" d="M138.334 169.358C141.802 176.484 140.432 183.544 131.06 188.168C125.826 190.752 115.696 195.317 115.696 195.317C115.696 195.317 117.168 199.366 117.22 206.19C117.271 212.198 115.674 225.266 115.674 225.266C115.674 225.266 111.757 227.084 108.952 225.266C108.952 225.266 107.708 217.167 106.743 209.003C105.573 198.747 104.586 192.718 105.109 190.509C105.573 188.558 109.651 185.702 112.766 183.515L101.899 188.624C101.899 188.624 104.233 191.849 104.785 197.658C105.455 204.681 104.608 216.755 104.608 216.755C103.569 217.263 102.436 217.55 101.281 217.598C100.125 217.646 98.9719 217.455 97.8941 217.035C97.8941 217.035 90.2449 187.255 91.3934 183.125C93.0425 177.198 115.615 168.172 116.763 165.846L138.334 169.358Z" fill="black"/>
<path d="M130.634 140.071C137.701 140.734 138.828 139.6 140.941 145.328L134.462 161.841L138.335 169.358C137.422 170.72 126.629 176.521 117.146 169.601C115.482 163.544 114.155 157.399 113.171 151.195C112.435 145.975 117.058 140.218 119.348 139.99C120.173 139.892 121.004 139.845 121.836 139.85L130.634 140.071Z" fill="#1A61DB"/>
<path opacity="0.6" d="M130.634 140.071C137.701 140.734 138.828 139.6 140.941 145.328L134.462 161.841L138.335 169.358C137.422 170.72 126.629 176.521 117.146 169.601C115.482 163.544 114.155 157.399 113.171 151.195C112.435 145.975 117.058 140.218 119.348 139.99C120.173 139.892 121.004 139.845 121.836 139.85L130.634 140.071Z" fill="white"/>
<path d="M105.992 163.21C107.465 163.255 107.406 162.312 107.774 161.392C108.208 160.31 108.606 159.345 108.606 159.345L109.578 162.85L110.91 169.343C110.91 169.343 107.001 169.291 104.13 169.343C101.259 169.395 97.9971 168.437 97.6658 166.398C97.4597 165.132 98.402 163.358 101.347 163.078C102.897 163.003 104.45 163.047 105.992 163.21Z" fill="#FFA8A7"/>
<path d="M108.761 154.921C107.288 155.436 107.671 157.902 108.29 160.663C108.908 163.424 109.931 168.062 110.248 169.284C110.564 170.506 110.984 171.264 112.81 171.264C114.636 171.264 117.61 171.463 118.898 171.264C120.187 171.066 120.371 169.925 120.106 167.326C119.795 164.359 119.333 161.41 118.722 158.491C118.206 156.025 117.89 154.714 116.358 154.714C114.577 154.692 110.307 154.383 108.761 154.921Z" fill="#263238"/>
<path d="M108.665 162.378C108.813 163.026 110.138 163.564 111.345 163.615C113.093 163.684 114.842 163.565 116.565 163.262C117.794 162.931 118.575 165.051 117.389 166.987C116.204 168.923 113.524 169.512 110.255 169.336C109.274 168.369 108.624 167.117 108.4 165.758C108.301 164.624 108.391 163.482 108.665 162.378Z" fill="#FFA8A7"/>
<path d="M134.491 161.841C134.491 161.841 133.755 163.063 131.465 163.063C133.49 161.686 135.249 158.962 136.899 155.701L134.491 161.841Z" fill="#1A61DB"/>
<path opacity="0.1" d="M134.491 161.841C134.491 161.841 133.755 163.063 131.465 163.063C133.49 161.686 135.249 158.962 136.899 155.701L134.491 161.841Z" fill="white"/>
<path d="M137.694 140.815C141.596 141.551 143.223 145.232 143.34 152.447C143.458 159.662 142.531 183.574 142.45 184.634C142.366 185.447 142.5 186.267 142.838 187.011C143.175 187.755 143.704 188.395 144.371 188.867C147.154 190.855 150.511 192.453 152.153 193.564C154.317 195.037 152.153 197.437 149.495 197.599C147.007 197.753 143.024 195.596 142.008 194.75C142.511 195.418 142.902 196.164 143.164 196.958C143.598 198.652 143.164 199.646 142.383 199.292C141.942 199.093 141.404 198.423 139.88 196.561C137.237 193.314 136.67 191.856 136.641 187.822C136.641 185.091 136.413 171.007 136.192 165.647C136.052 162.364 136.081 155.23 136.14 150.798C136.199 146.366 136.877 141.441 137.694 140.815Z" fill="#FFA8A7"/>
<path d="M113.509 126.657C113.509 126.657 111.028 122.697 112.773 118.89C114.518 115.084 121.652 110.115 129.787 113.649C137.517 117.013 136.833 125.906 136.862 129.934C136.914 133.747 113.509 126.657 113.509 126.657Z" fill="#263238"/>
<path d="M115.777 118.655C116.903 116.446 124.059 112.92 130.862 116.372C137.664 119.825 136.877 129.124 136.877 135.514V147.293C136.877 148.972 132.938 151.284 129.154 149.944L129.426 132.738C129.426 132.738 130.486 122.233 127.218 119.715C123.949 117.197 115.777 118.655 115.777 118.655Z" fill="#263238"/>
<path d="M129.426 127.894C129.868 128.159 130.501 127.305 131.046 126.731C131.591 126.157 133.38 125.384 134.263 127.254C135.147 129.124 133.115 131.708 131.907 132.547C131.57 132.841 131.147 133.02 130.702 133.058C130.256 133.097 129.809 132.992 129.426 132.761L129.308 140.02C129.308 140.02 127.519 143.951 123.235 144.533C118.95 145.114 119.826 141.588 121.232 139.843V137.185C120.161 137.414 119.06 137.469 117.971 137.347C117.411 137.2 116.071 135.588 115.21 133.784C114.246 131.752 112.633 128.152 114.069 122.063C115.608 115.526 122.631 115.327 126.827 117.963C131.024 120.598 129.426 127.894 129.426 127.894Z" fill="#FFA8A7"/>
<path d="M121.24 137.185C121.24 137.185 125.215 136.383 126.599 135.646C127.418 135.223 128.088 134.56 128.521 133.747C128.309 134.549 127.939 135.3 127.431 135.956C126.415 137.251 121.24 138.209 121.24 138.209V137.185Z" fill="#F28F8F"/>
<path d="M121.284 127.725C121.29 127.883 121.342 128.035 121.434 128.163C121.526 128.291 121.654 128.39 121.801 128.446C121.948 128.502 122.109 128.513 122.263 128.478C122.417 128.443 122.557 128.364 122.666 128.25C122.775 128.136 122.848 127.992 122.876 127.837C122.904 127.682 122.885 127.522 122.822 127.377C122.76 127.232 122.656 127.109 122.524 127.023C122.391 126.937 122.237 126.892 122.079 126.893C121.972 126.895 121.867 126.918 121.769 126.961C121.671 127.004 121.582 127.066 121.508 127.143C121.434 127.22 121.376 127.312 121.338 127.412C121.299 127.511 121.281 127.618 121.284 127.725Z" fill="#263238"/>
<path d="M122.13 124.714L123.831 125.656C123.951 125.423 123.977 125.152 123.903 124.899C123.829 124.647 123.661 124.433 123.433 124.302C123.321 124.241 123.198 124.203 123.071 124.191C122.944 124.179 122.816 124.193 122.694 124.231C122.573 124.269 122.46 124.332 122.363 124.415C122.266 124.498 122.187 124.6 122.13 124.714Z" fill="#263238"/>
<path d="M130.84 112.117L131.304 114.929C131.685 114.863 132.025 114.648 132.25 114.333C132.474 114.017 132.566 113.626 132.504 113.244C132.471 113.059 132.402 112.883 132.3 112.726C132.198 112.568 132.065 112.433 131.91 112.328C131.755 112.223 131.58 112.15 131.396 112.114C131.213 112.078 131.023 112.079 130.84 112.117Z" fill="#263238"/>
<path d="M134.241 113.509L131.635 114.642C131.795 114.992 132.087 115.264 132.446 115.402C132.805 115.539 133.203 115.531 133.556 115.379C133.726 115.303 133.879 115.195 134.006 115.059C134.133 114.923 134.232 114.763 134.296 114.589C134.359 114.414 134.388 114.229 134.378 114.043C134.369 113.858 134.322 113.676 134.241 113.509Z" fill="#263238"/>
<path d="M121.829 132.643L120.01 133.327C120.049 133.45 120.112 133.564 120.196 133.661C120.281 133.759 120.384 133.838 120.499 133.894C120.615 133.951 120.741 133.983 120.869 133.99C120.998 133.996 121.126 133.976 121.247 133.931C121.491 133.832 121.688 133.643 121.796 133.403C121.904 133.163 121.916 132.891 121.829 132.643Z" fill="#F28F8F"/>
<path d="M114.187 125.384L115.74 124.184C115.666 124.079 115.572 123.99 115.463 123.923C115.355 123.856 115.233 123.811 115.107 123.792C114.98 123.773 114.851 123.779 114.727 123.811C114.603 123.843 114.487 123.9 114.385 123.978C114.178 124.142 114.042 124.379 114.005 124.641C113.968 124.903 114.033 125.169 114.187 125.384Z" fill="#263238"/>
<path d="M114.665 127.497C114.672 127.652 114.725 127.802 114.817 127.928C114.908 128.054 115.035 128.15 115.181 128.205C115.326 128.259 115.485 128.27 115.637 128.235C115.788 128.2 115.927 128.122 116.034 128.009C116.142 127.897 116.214 127.755 116.242 127.602C116.27 127.449 116.252 127.291 116.191 127.148C116.13 127.005 116.028 126.883 115.898 126.797C115.768 126.711 115.616 126.665 115.46 126.665C115.245 126.671 115.04 126.761 114.891 126.917C114.743 127.073 114.661 127.281 114.665 127.497Z" fill="#263238"/>
<path d="M117.978 127.136L118.626 131.884L116.005 131.516L117.978 127.136Z" fill="#F28F8F"/>
<path d="M115.74 117.948C115.74 117.948 119.34 125.656 130.067 124.574C130.067 124.574 131.304 119.2 127.071 117.123C122.837 115.047 117.772 114.929 115.74 117.948Z" fill="#263238"/>
<path d="M126.82 123.609C128.079 123.771 128.447 125.693 128.138 127.291C127.829 128.888 129.346 129.021 130.531 127.291C131.293 125.965 131.725 124.475 131.79 122.947L126.82 123.609Z" fill="#263238"/>
<path d="M112.795 183.537C112.795 183.537 119.333 179.12 121.24 178.244C121.24 178.244 117.558 177.508 115.777 175.093C116.076 176.236 116.602 177.307 117.323 178.244L101.929 188.646L112.795 183.537Z" fill="#1A61DB"/>
<path opacity="0.4" d="M112.795 183.537C112.795 183.537 119.333 179.12 121.24 178.244C121.24 178.244 117.558 177.508 115.777 175.093C116.076 176.236 116.602 177.307 117.323 178.244L101.929 188.646L112.795 183.537Z" fill="black"/>
<path d="M264.551 117.595L219.377 91.518C218.213 90.8481 217.271 91.3855 217.271 92.7328V156.29C217.306 157.026 217.515 157.744 217.881 158.384C218.247 159.024 218.759 159.568 219.377 159.971L264.551 186.048C265.714 186.718 266.656 186.173 266.656 184.833V121.239C266.616 120.509 266.405 119.798 266.039 119.165C265.673 118.532 265.163 117.994 264.551 117.595Z" fill="#C3D6F6"/>
<path d="M206.213 144.731L220.562 153.021V141.617L206.522 143.237C205.19 143.392 205.05 144.062 206.213 144.731Z" fill="#C3D6F6"/>
<path d="M225.612 104.615L258.315 123.499C258.82 123.815 259.242 124.247 259.547 124.76C259.852 125.272 260.03 125.849 260.067 126.444C260.067 127.489 259.286 127.916 258.315 127.327L225.612 108.451C225.108 108.134 224.686 107.702 224.381 107.19C224.077 106.678 223.898 106.101 223.86 105.506C223.882 104.453 224.618 104.056 225.612 104.615Z" fill="#F0F0F0"/>
<path d="M225.597 116.012L258.3 134.896C258.806 135.212 259.229 135.644 259.535 136.156C259.841 136.668 260.021 137.245 260.059 137.84C260.059 138.886 259.272 139.313 258.3 138.724L225.597 119.847C225.094 119.529 224.673 119.096 224.369 118.585C224.064 118.073 223.885 117.497 223.845 116.903C223.882 115.85 224.618 115.452 225.597 116.012Z" fill="#F0F0F0"/>
<path d="M225.612 127.394L258.315 146.278C258.815 146.59 259.234 147.016 259.539 147.522C259.843 148.027 260.024 148.597 260.067 149.186C260.067 150.238 259.286 150.658 258.315 150.076L225.612 131.222C225.112 130.909 224.692 130.483 224.388 129.978C224.083 129.473 223.902 128.902 223.86 128.314C223.882 127.261 224.618 126.864 225.612 127.394Z" fill="#F0F0F0"/>
<path d="M225.612 138.827L258.315 157.704C258.819 158.021 259.241 158.453 259.545 158.965C259.85 159.477 260.029 160.054 260.067 160.648C260.067 161.701 259.286 162.121 258.315 161.539L225.612 142.655C225.107 142.339 224.684 141.907 224.38 141.395C224.075 140.883 223.897 140.305 223.86 139.71C223.882 138.665 224.618 138.267 225.612 138.827Z" fill="#F0F0F0"/>
<path d="M225.612 150.216L258.315 169.1C258.82 169.416 259.242 169.848 259.547 170.361C259.852 170.873 260.03 171.45 260.067 172.045C260.067 173.09 259.286 173.517 258.315 172.928L225.612 154.052C225.108 153.735 224.686 153.303 224.381 152.791C224.077 152.279 223.898 151.702 223.86 151.107C223.882 150.069 224.618 149.671 225.612 150.216Z" fill="#F0F0F0"/>
<path d="M220.562 41.4114V70.7568C220.598 71.4928 220.808 72.2097 221.174 72.8494C221.54 73.489 222.051 74.0333 222.667 74.4379L257.961 94.8089C259.124 95.4862 260.067 94.9414 260.067 93.5941V64.2192C260.032 63.4829 259.823 62.7653 259.457 62.1253C259.091 61.4854 258.578 60.9415 257.961 60.5382L222.667 40.1672C221.511 39.5267 220.562 40.0641 220.562 41.4114Z" fill="#F0F0F0"/>
<path d="M210.166 54.5086L223.882 56.0915V67.4954L209.57 55.9811C209.413 55.8782 209.297 55.7242 209.241 55.5454C209.186 55.3665 209.193 55.1738 209.264 55.0001C209.334 54.8264 209.463 54.6825 209.627 54.5929C209.792 54.5033 209.982 54.4735 210.166 54.5086Z" fill="#F0F0F0"/>
<path d="M260.067 56.0841C261.505 57.0209 262.702 58.2839 263.561 59.7704C264.419 61.2568 264.914 62.9248 265.007 64.6389C265.007 67.7898 262.798 69.0561 260.067 67.488C258.628 66.5496 257.432 65.2852 256.573 63.7976C255.715 62.3099 255.219 60.6409 255.127 58.9259C255.127 55.7896 257.343 54.5086 260.067 56.0841Z" fill="#1A61DB"/>
<path opacity="0.7" d="M260.067 56.0841C261.505 57.0209 262.702 58.2839 263.561 59.7704C264.419 61.2568 264.914 62.9248 265.007 64.6389C265.007 67.7898 262.798 69.0561 260.067 67.488C258.628 66.5496 257.432 65.2852 256.573 63.7976C255.715 62.3099 255.219 60.6409 255.127 58.9259C255.127 55.7896 257.343 54.5086 260.067 56.0841Z" fill="white"/>
<path d="M228.903 49.7748L251.726 62.953C252.23 63.2705 252.651 63.7029 252.956 64.2148C253.26 64.7267 253.439 65.3034 253.478 65.8978C253.478 66.9432 252.69 67.3702 251.726 66.7813L228.903 53.6031C228.399 53.2856 227.978 52.8531 227.673 52.3413C227.368 51.8294 227.189 51.2526 227.151 50.6582C227.151 49.6128 227.939 49.2153 228.903 49.7748Z" fill="#E6E6E6"/>
<path d="M228.903 58.9996L251.726 72.1778C252.23 72.4953 252.651 72.9277 252.956 73.4396C253.26 73.9515 253.439 74.5283 253.478 75.1227C253.478 76.1681 252.69 76.5951 251.726 76.0061L228.903 62.8279C228.399 62.5104 227.978 62.078 227.673 61.5661C227.368 61.0542 227.189 60.4775 227.151 59.8831C227.151 58.8377 227.939 58.4401 228.903 58.9996Z" fill="#E6E6E6"/>
<path d="M228.903 68.2244L251.726 81.4026C252.23 81.7201 252.651 82.1525 252.956 82.6644C253.26 83.1762 253.439 83.753 253.478 84.3474C253.478 85.3928 252.69 85.8198 251.726 85.2309L228.903 72.0527C228.399 71.7352 227.978 71.3027 227.673 70.7909C227.368 70.279 227.189 69.7022 227.151 69.1078C227.151 68.0624 227.939 67.6648 228.903 68.2244Z" fill="#E6E6E6"/>
<path d="M80.196 79.5398L35.0294 53.4631C33.8662 52.7932 32.9238 53.338 32.9238 54.6779V118.265C32.958 119.001 33.1668 119.719 33.5329 120.359C33.8989 120.999 34.4119 121.543 35.0294 121.946L80.196 148.007C81.3592 148.677 82.3016 148.133 82.3016 146.793V83.2208C82.2674 82.4843 82.0586 81.7665 81.6925 81.1265C81.3265 80.4865 80.8135 79.9426 80.196 79.5398Z" fill="#C3D6F6"/>
<path d="M41.2571 66.5973L73.9596 85.4738C74.4654 85.79 74.8886 86.2219 75.1946 86.734C75.5005 87.246 75.6803 87.8234 75.7192 88.4186C75.7192 89.4714 74.9314 89.891 73.9596 89.3094L41.2571 70.4256C40.7531 70.1081 40.3316 69.6757 40.027 69.1638C39.7224 68.6519 39.5435 68.0751 39.5049 67.4807C39.5049 66.4353 40.2926 66.0378 41.2571 66.5973Z" fill="#F0F0F0"/>
<path d="M41.2502 77.9938L73.9528 96.8703C74.4567 97.1878 74.8783 97.6202 75.1828 98.1321C75.4874 98.6439 75.6663 99.2207 75.705 99.8151C75.705 100.868 74.9172 101.288 73.9528 100.699L41.2502 81.8221C40.745 81.5059 40.3225 81.0738 40.0178 80.5617C39.7131 80.0495 39.5349 79.4721 39.498 78.8772C39.498 77.8318 40.2784 77.4342 41.2502 77.9938Z" fill="#F0F0F0"/>
<path d="M41.2571 89.3977L73.9596 108.252C74.4654 108.568 74.8886 109 75.1946 109.512C75.5005 110.024 75.6803 110.602 75.7192 111.197C75.7192 112.242 74.9314 112.669 73.9596 112.08L41.2571 93.204C40.7539 92.8856 40.333 92.4529 40.0285 91.9412C39.7241 91.4295 39.5447 90.8532 39.5049 90.2591C39.5049 89.2358 40.2926 88.8382 41.2571 89.3977Z" fill="#F0F0F0"/>
<path d="M41.2571 100.802L73.9596 119.686C74.4609 119.998 74.8816 120.424 75.1873 120.929C75.493 121.434 75.6752 122.005 75.7192 122.594C75.7192 123.646 74.9314 124.066 73.9596 123.484L41.2571 104.571C40.7579 104.257 40.3393 103.831 40.035 103.325C39.7307 102.82 39.5491 102.251 39.5049 101.663C39.5049 100.64 40.2926 100.242 41.2571 100.802Z" fill="#F0F0F0"/>
<path d="M41.2571 112.213L73.9596 131.075C74.4654 131.391 74.8886 131.823 75.1946 132.335C75.5005 132.847 75.6803 133.424 75.7192 134.02C75.7192 135.065 74.9314 135.492 73.9596 134.903L41.2571 116.027C40.7531 115.709 40.3316 115.277 40.027 114.765C39.7224 114.253 39.5435 113.676 39.5049 113.082C39.5049 112.051 40.2926 111.653 41.2571 112.213Z" fill="#F0F0F0"/>
<path d="M79.0103 139.71L91.8572 147.124C92.018 147.214 92.2049 147.246 92.3864 147.214C92.5678 147.182 92.7328 147.089 92.8537 146.95C92.9746 146.811 93.044 146.635 93.0502 146.45C93.0564 146.266 92.9991 146.086 92.8879 145.939L79.0103 128.307V139.71Z" fill="#C3D6F6"/>
<path d="M0 138.348V167.694C0.0347945 168.43 0.243787 169.148 0.609816 169.788C0.975845 170.428 1.48847 170.972 2.10557 171.375L37.3996 191.746C38.5628 192.416 39.5051 191.878 39.5051 190.531V161.156C39.4703 160.42 39.2614 159.702 38.8953 159.062C38.5293 158.422 38.0167 157.879 37.3996 157.475L2.10557 137.134C0.942352 136.456 0 137.001 0 138.348Z" fill="#F0F0F0"/>
<path d="M50.3344 182.897L36.2139 168.224V179.665L49.4657 184.266C49.6458 184.351 49.8507 184.367 50.0419 184.312C50.2331 184.256 50.3975 184.133 50.5042 183.965C50.6109 183.797 50.6525 183.595 50.6212 183.399C50.5899 183.202 50.488 183.023 50.3344 182.897Z" fill="#F0F0F0"/>
<path d="M39.5049 153.021C40.9432 153.958 42.1402 155.221 42.9986 156.707C43.8569 158.194 44.3525 159.862 44.4449 161.576C44.4449 164.72 42.2363 165.993 39.5049 164.425C38.0674 163.487 36.8711 162.224 36.0128 160.738C35.1546 159.252 34.6585 157.584 34.5649 155.87C34.5649 152.719 36.7809 151.446 39.5049 153.021Z" fill="#1A61DB"/>
<path opacity="0.7" d="M39.5049 153.021C40.9432 153.958 42.1402 155.221 42.9986 156.707C43.8569 158.194 44.3525 159.862 44.4449 161.576C44.4449 164.72 42.2363 165.993 39.5049 164.425C38.0674 163.487 36.8711 162.224 36.0128 160.738C35.1546 159.252 34.6585 157.584 34.5649 155.87C34.5649 152.719 36.7809 151.446 39.5049 153.021Z" fill="white"/>
<path d="M8.3411 146.712L31.1637 159.89C31.6676 160.207 32.0892 160.64 32.3937 161.152C32.6983 161.664 32.8772 162.24 32.9159 162.835C32.9159 163.88 32.1281 164.307 31.1563 163.718L8.33373 150.54C7.82854 150.224 7.40605 149.792 7.10132 149.28C6.79658 148.768 6.61839 148.19 6.58154 147.595C6.58891 146.535 7.3693 146.152 8.3411 146.712Z" fill="#E6E6E6"/>
<path d="M8.3411 155.937L31.1637 169.115C31.6676 169.432 32.0892 169.865 32.3937 170.377C32.6983 170.888 32.8772 171.465 32.9159 172.06C32.9159 173.105 32.1281 173.532 31.1563 172.943L8.33373 159.765C7.82854 159.449 7.40605 159.017 7.10132 158.504C6.79658 157.992 6.61839 157.415 6.58154 156.82C6.58891 155.775 7.3693 155.37 8.3411 155.937Z" fill="#E6E6E6"/>
<path d="M8.3411 165.161L31.1637 178.34C31.6676 178.657 32.0892 179.089 32.3937 179.601C32.6983 180.113 32.8772 180.69 32.9159 181.284C32.9159 182.33 32.1281 182.757 31.1563 182.168L8.33373 168.99C7.82854 168.674 7.40605 168.241 7.10132 167.729C6.79658 167.217 6.61839 166.64 6.58154 166.045C6.58891 164.999 7.3693 164.602 8.3411 165.161Z" fill="#E6E6E6"/>
<path d="M26.3345 1.50136V30.8468C26.3687 31.5833 26.5774 32.3011 26.9435 32.9411C27.3096 33.5811 27.8225 34.125 28.44 34.5278L63.7341 54.9062C64.8973 55.5761 65.8396 55.0314 65.8396 53.6841V24.3239C65.8054 23.5874 65.5967 22.8696 65.2306 22.2296C64.8645 21.5896 64.3516 21.0457 63.7341 20.6429L28.44 0.286612C27.3136 -0.383341 26.3345 0.161457 26.3345 1.50136Z" fill="#F0F0F0"/>
<path d="M76.6396 46.0569L62.519 31.3768V42.7808L75.7709 47.3821C75.9438 47.4495 76.1347 47.4554 76.3116 47.3989C76.4884 47.3424 76.6404 47.2268 76.7422 47.0715C76.844 46.9163 76.8894 46.7307 76.8707 46.546C76.852 46.3613 76.7704 46.1886 76.6396 46.0569Z" fill="#F0F0F0"/>
<path d="M65.8391 16.1741C67.2719 17.1142 68.4631 18.3786 69.3163 19.8649C70.1694 21.3512 70.6604 23.0175 70.7496 24.7289C70.7496 27.8799 68.541 29.1462 65.8096 27.578C64.3721 26.6403 63.1758 25.3771 62.3175 23.8909C61.4593 22.4046 60.9632 20.737 60.8696 19.0232C60.8991 15.8796 63.1151 14.5986 65.8391 16.1741Z" fill="#1A61DB"/>
<path opacity="0.7" d="M65.8391 16.1741C67.2719 17.1142 68.4631 18.3786 69.3163 19.8649C70.1694 21.3512 70.6604 23.0175 70.7496 24.7289C70.7496 27.8799 68.541 29.1462 65.8096 27.578C64.3721 26.6403 63.1758 25.3771 62.3175 23.8909C61.4593 22.4046 60.9632 20.737 60.8696 19.0232C60.8991 15.8796 63.1151 14.5986 65.8391 16.1741Z" fill="white"/>
<path d="M34.676 9.86474L57.4986 23.0429C58.0025 23.3604 58.4241 23.7929 58.7287 24.3047C59.0332 24.8166 59.2122 25.3934 59.2508 25.9878C59.2508 27.0332 58.463 27.4602 57.4986 26.8712L34.676 13.693C34.1708 13.3769 33.7483 12.9448 33.4436 12.4326C33.1389 11.9205 32.9607 11.343 32.9238 10.7482C32.9238 9.70277 33.7042 9.30522 34.676 9.86474Z" fill="#E6E6E6"/>
<path d="M34.676 19.0895L57.4986 32.2677C58.0025 32.5852 58.4241 33.0176 58.7287 33.5295C59.0332 34.0414 59.2122 34.6181 59.2508 35.2125C59.2508 36.2579 58.463 36.6849 57.4986 36.096L34.676 22.9178C34.1708 22.6016 33.7483 22.1695 33.4436 21.6574C33.1389 21.1452 32.9607 20.5677 32.9238 19.9729C32.9238 18.9275 33.7042 18.53 34.676 19.0895Z" fill="#E6E6E6"/>
<path d="M34.676 28.3142L57.4986 41.4924C58.0025 41.8099 58.4241 42.2423 58.7287 42.7542C59.0332 43.2661 59.2122 43.8429 59.2508 44.4373C59.2508 45.4827 58.463 45.9097 57.4986 45.3207L34.676 32.1425C34.1708 31.8263 33.7483 31.3943 33.4436 30.8821C33.1389 30.3699 32.9607 29.7925 32.9238 29.1977C32.9238 28.1522 33.7042 27.7547 34.676 28.3142Z" fill="#E6E6E6"/>
</svg>
