<svg height="512" viewBox="0 0 512 512" width="512" xmlns="http://www.w3.org/2000/svg"><g id="flat"><path d="m192 368-3.5-1.426a107.944 107.944 0 0 0 -52.92 75.976l-7.58 45.45h256l-7.575-45.45a107.944 107.944 0 0 0 -52.92-75.976z" fill="#dcdbd6"/><path d="m248.66 409.74-16.66 24.71v53.55h-16v-56a8.008 8.008 0 0 1 1.37-4.47l18.02-26.73a8 8 0 0 1 13.27 8.94z" fill="#dcdbd6"/><path d="m248.66 409.74-16.66 24.71v53.55h-16v-56a8.008 8.008 0 0 1 1.37-4.47l18.02-26.73a8 8 0 0 1 13.27 8.94z" fill="#bbbab6"/><path d="m390.8 110.8-6.8-6.8a47.266 47.266 0 0 0 -29.711-43.885l-10.289-4.115a54.626 54.626 0 0 0 -38.627-16h-9.373a54.626 54.626 0 0 0 -38.627-16h-2.746a54.626 54.626 0 0 0 -38.627 16h-9.373a54.626 54.626 0 0 0 -38.627 16l-10.289 4.115a47.266 47.266 0 0 0 -29.711 43.885l-6.8 6.8a47.263 47.263 0 0 0 -13.2 41.192l4 24.008-1.51 6.038a47.267 47.267 0 0 0 12.433 44.885l5.077 5.077a55.962 55.962 0 0 0 39.871 40.5l28.686 7.649c30.006 8 88.88 8 118.886 0l28.686-7.649a55.962 55.962 0 0 0 39.871-40.5l5.077-5.077a47.267 47.267 0 0 0 12.433-44.885l-1.51-6.038 4-24.008a47.263 47.263 0 0 0 -13.2-41.192z" fill="#a3612d"/><path d="m160 216a24 24 0 0 1 -24-24 24 24 0 0 1 24-24h8z" fill="#f6bb92"/><path d="m352 168a24 24 0 0 1 24 24 24 24 0 0 1 -24 24l-8-48z" fill="#f6bb92"/><path d="m323.505 366.574a56.123 56.123 0 0 1 -18.855-17.6l-7.144-10.717a5.073 5.073 0 0 0 -4.22-2.258h-74.572a5.073 5.073 0 0 0 -4.22 2.258l-7.144 10.717a56.126 56.126 0 0 1 -14.05 14.526 5.047 5.047 0 0 0 -.725 7.513l16.877 18.358a63.233 63.233 0 0 0 93.1 0z" fill="#fdc9a6"/><path d="m307.58 352.98a96.075 96.075 0 0 1 -103.16 0q1.545-1.935 2.93-4l8.65-12.98h80l8.65 12.98q1.38 2.07 2.93 4z" fill="#f6bb92"/><path d="m256 352a96 96 0 0 1 -96-96v-68.775a146.027 146.027 0 0 1 32-91.225l19.42 11.652a86.649 86.649 0 0 0 44.58 12.348 86.649 86.649 0 0 0 44.58-12.348l19.42-11.652a146.027 146.027 0 0 1 32 91.225v68.775a96 96 0 0 1 -96 96z" fill="#fdc9a6"/><circle cx="294.109" cy="206.667" fill="#7a4922" r="10"/><path d="m176.109 488v-32a8 8 0 0 1 16 0v32z" fill="#bbbab6"/><path d="m320.109 488v-32a8 8 0 0 1 16 0v32z" fill="#bbbab6"/><g fill="#7a4922"><circle cx="213.399" cy="206.667" r="10"/><path d="m256 256h-9.242a17.053 17.053 0 0 1 -15.253-24.68l5.871-11.742a26.006 26.006 0 0 0 2.733-11.578 8 8 0 1 1 16 0 42.093 42.093 0 0 1 -4.422 18.733l-5.871 11.743a1.053 1.053 0 0 0 .942 1.524h9.242a8 8 0 0 1 16 0 16.019 16.019 0 0 1 -16 16z"/><path d="m312 184h-23.891a8 8 0 0 1 0-16h23.891a8 8 0 0 1 0 16z"/><path d="m224.109 184h-24.109a8 8 0 0 1 0-16h24.109a8 8 0 1 1 0 16z"/><path d="m252.8 280h-20.8a8 8 0 0 1 0-16h20.8a19.187 19.187 0 0 0 13.657-5.657 8 8 0 1 1 11.313 11.314 35.08 35.08 0 0 1 -24.97 10.343z"/></g><path d="m256 328a41.537 41.537 0 0 1 -35.292-19.845 8 8 0 1 1 13.673-8.31 25.3 25.3 0 0 0 43.238 0 8 8 0 1 1 13.673 8.31 41.537 41.537 0 0 1 -35.292 19.845z" fill="#f6bb92"/><path d="m192 352 9.6 12.8a48 48 0 0 0 38.4 19.2v24a70.647 70.647 0 0 1 -60.58-34.3l-3.42-5.7z" fill="#eae9e4"/><path d="m320 352-9.6 12.8a48 48 0 0 1 -38.4 19.2v24a70.647 70.647 0 0 0 60.58-34.3l3.42-5.7z" fill="#eae9e4"/><circle cx="256" cy="454" fill="#bbbab6" r="10"/></g></svg>