<svg width="172" height="157" viewBox="0 0 172 157" fill="none" xmlns="http://www.w3.org/2000/svg">
<rect x="58.614" width="32.42" height="30.6517" rx="1.29755" fill="#00B87C"/>
<rect x="43.0889" y="34.2361" width="32.42" height="30.6517" rx="1.29755" fill="#FEA162"/>
<rect x="95.6714" y="14.5964" width="32.42" height="30.6517" rx="1.29755" fill="#1A61DB"/>
<rect x="84.8662" y="49.626" width="32.42" height="30.6517" rx="1.29755" fill="#DC1AA3"/>
<path d="M33.0083 106.283C33.0083 106.717 32.9328 107.161 32.7817 107.614C32.6494 108.049 32.4511 108.455 32.1867 108.833L11.9 137.619H32.4417V144.278H0.991667V140.963C0.991667 140.566 1.05778 140.179 1.19 139.801C1.32222 139.404 1.51111 139.045 1.75667 138.724L22.1 109.824H2.43667V103.166H33.0083V106.283ZM69.0045 137.478C70.3834 137.478 71.6206 137.251 72.7162 136.798C73.8117 136.325 74.7373 135.664 75.4928 134.814C76.2484 133.964 76.8245 132.935 77.2212 131.726C77.6178 130.517 77.8162 129.157 77.8162 127.646V103.166H86.3162V127.646C86.3162 130.139 85.9101 132.434 85.0978 134.531C84.3045 136.609 83.1617 138.403 81.6695 139.914C80.1773 141.425 78.364 142.606 76.2295 143.456C74.0951 144.306 71.6867 144.731 69.0045 144.731C66.3223 144.731 63.9045 144.306 61.7512 143.456C59.6167 142.606 57.8034 141.425 56.3112 139.914C54.819 138.403 53.6667 136.609 52.8545 134.531C52.0612 132.434 51.6645 130.139 51.6645 127.646V103.166H60.1645V127.646C60.1645 129.157 60.3628 130.517 60.7595 131.726C61.1562 132.935 61.7323 133.964 62.4878 134.814C63.2434 135.664 64.169 136.325 65.2645 136.798C66.3601 137.251 67.6067 137.478 69.0045 137.478ZM120.708 122.631C122.087 122.631 123.277 122.461 124.278 122.121C125.28 121.762 126.101 121.28 126.743 120.676C127.386 120.053 127.858 119.325 128.16 118.494C128.462 117.663 128.613 116.757 128.613 115.774C128.613 113.829 127.962 112.318 126.658 111.241C125.374 110.164 123.41 109.626 120.765 109.626H116.345V122.631H120.708ZM140.627 144.278H132.948C131.513 144.278 130.474 143.73 129.832 142.634L122.012 130.026C121.691 129.535 121.332 129.176 120.935 128.949C120.557 128.723 119.991 128.609 119.235 128.609H116.345V144.278H107.845V103.166H120.765C123.636 103.166 126.092 103.468 128.132 104.073C130.172 104.658 131.843 105.48 133.147 106.538C134.45 107.595 135.404 108.861 136.008 110.334C136.613 111.789 136.915 113.394 136.915 115.151C136.915 116.511 136.717 117.805 136.32 119.033C135.942 120.242 135.385 121.347 134.648 122.348C133.912 123.349 133.005 124.237 131.928 125.011C130.852 125.785 129.624 126.409 128.245 126.881C128.793 127.183 129.303 127.552 129.775 127.986C130.247 128.402 130.672 128.902 131.05 129.488L140.627 144.278ZM166.649 144.278H158.092V103.166H166.649V144.278Z" fill="#393939"/>
</svg>
