<svg width="268" height="268" viewBox="0 0 268 268" fill="none" xmlns="http://www.w3.org/2000/svg">
<path d="M268 204.966H0V205.1H268V204.966Z" fill="#EBEBEB"/>
<path d="M241.146 213.59H223.394V213.724H241.146V213.59Z" fill="#EBEBEB"/>
<path d="M177.534 215.049H172.876V215.183H177.534V215.049Z" fill="#EBEBEB"/>
<path d="M222.858 208.617H212.572V208.751H222.858V208.617Z" fill="#EBEBEB"/>
<path d="M51.2685 209.517H28.1187V209.651H51.2685V209.517Z" fill="#EBEBEB"/>
<path d="M59.4373 209.517H56.0444V209.651H59.4373V209.517Z" fill="#EBEBEB"/>
<path d="M120.681 211.779H70.4683V211.913H120.681V211.779Z" fill="#EBEBEB"/>
<path d="M127.032 181.061H23.5357C22.7249 181.059 21.9478 180.736 21.375 180.162C20.8022 179.589 20.4805 178.811 20.4805 178V32.5137C20.4875 31.7076 20.8124 30.9368 21.3844 30.3688C21.9564 29.8008 22.7295 29.4814 23.5357 29.48H127.032C127.844 29.48 128.622 29.8024 129.196 30.3764C129.77 30.9504 130.092 31.7288 130.092 32.5405V178C130.092 178.812 129.77 179.59 129.196 180.164C128.622 180.738 127.844 181.061 127.032 181.061ZM23.5357 29.5872C22.7604 29.5886 22.0174 29.8976 21.4697 30.4462C20.9221 30.9949 20.6145 31.7385 20.6145 32.5137V178C20.6145 178.775 20.9221 179.519 21.4697 180.068C22.0174 180.616 22.7604 180.925 23.5357 180.927H127.032C127.808 180.925 128.551 180.617 129.1 180.068C129.648 179.52 129.957 178.776 129.958 178V32.5137C129.957 31.738 129.648 30.9944 129.1 30.4459C128.551 29.8974 127.808 29.5886 127.032 29.5872H23.5357Z" fill="#EBEBEB"/>
<path d="M242.974 181.061H139.473C138.661 181.059 137.884 180.736 137.31 180.163C136.736 179.589 136.414 178.811 136.412 178V32.5137C136.421 31.7071 136.747 30.9363 137.319 30.3685C137.892 29.8006 138.666 29.4813 139.473 29.48H242.974C243.78 29.4828 244.551 29.8028 245.122 30.3707C245.693 30.9385 246.017 31.7085 246.024 32.5137V178C246.024 178.81 245.703 179.587 245.131 180.161C244.56 180.734 243.784 181.058 242.974 181.061ZM139.473 29.5872C138.697 29.5886 137.953 29.8974 137.405 30.4459C136.856 30.9944 136.548 31.738 136.546 32.5137V178C136.548 178.776 136.856 179.52 137.405 180.068C137.953 180.617 138.697 180.925 139.473 180.927H242.974C243.75 180.925 244.494 180.617 245.042 180.068C245.591 179.52 245.899 178.776 245.901 178V32.5137C245.899 31.738 245.591 30.9944 245.042 30.4459C244.494 29.8974 243.75 29.5886 242.974 29.5872H139.473Z" fill="#EBEBEB"/>
<path d="M202.753 171.332V178.943L205.969 181.28H190.961L195.753 179.501V171.863L202.753 171.332Z" fill="#E0E0E0"/>
<path d="M162.269 181.061V205.036H229.269V181.061H162.269ZM163.475 182.615H215.917V190.452H163.48L163.475 182.615Z" fill="#E0E0E0"/>
<path d="M162.269 181.061V205.036H217.53V181.061H162.269ZM163.475 182.615H215.917V190.452H163.48L163.475 182.615Z" fill="#EBEBEB"/>
<path d="M163.474 190.451H174.28V182.615H163.474V190.451Z" fill="#E0E0E0"/>
<path d="M202.544 190.451H215.917V186.533H202.544V190.451Z" fill="#E0E0E0"/>
<path d="M191.491 190.451H201.557V188.125H191.491V190.451Z" fill="#E0E0E0"/>
<path d="M179.576 190.451H189.166V185.692H179.576V190.451Z" fill="#E0E0E0"/>
<path d="M206.413 192.156L206.698 193.094H210.546L210.835 192.156H215.917V202.56H199.049V192.156H206.413Z" fill="#E0E0E0"/>
<path d="M186.367 192.156L186.657 193.094H190.505L190.795 192.156H198.154V202.56H181.286V192.156H186.367Z" fill="#E0E0E0"/>
<path d="M170.887 192.156L171.171 193.094H175.02L175.309 192.156H180.39V202.56H163.522V192.156H170.887Z" fill="#E0E0E0"/>
<path d="M172.067 175.883H221.91C222.955 175.883 223.802 175.036 223.802 173.991V145.374C223.802 144.329 222.955 143.482 221.91 143.482H172.067C171.022 143.482 170.175 144.329 170.175 145.374V173.991C170.175 175.036 171.022 175.883 172.067 175.883Z" fill="#E0E0E0"/>
<path d="M170.807 175.883H220.649C221.694 175.883 222.542 175.036 222.542 173.991V145.374C222.542 144.329 221.694 143.482 220.649 143.482H170.807C169.762 143.482 168.915 144.329 168.915 145.374V173.991C168.915 175.036 169.762 175.883 170.807 175.883Z" fill="#E6E6E6"/>
<path d="M220.966 174.307V145.052H170.491V174.307H220.966Z" fill="#F0F0F0"/>
<path d="M102.451 57.6953H38.8652V123.398H102.451V57.6953Z" fill="#EBEBEB"/>
<path d="M104.676 57.6953H41.0898V123.398H104.676V57.6953Z" fill="#F0F0F0"/>
<path d="M102.992 59.2549H42.6924V121.876H102.992V59.2549Z" fill="#E0E0E0"/>
<path d="M101.486 59.2549H42.6924V121.876H101.486V59.2549Z" fill="#F5F5F5"/>
<path d="M72.6972 59.2549H71.502V121.876H72.6972V59.2549Z" fill="#EBEBEB"/>
<path d="M79.5479 59.2549L96.3032 121.87H97.9112L81.1559 59.2549H79.5479Z" fill="white"/>
<path d="M73.2069 58.2899H72.1831V123.076H73.2069V58.2899Z" fill="#F0F0F0"/>
<path d="M85.626 59.2549L101.486 118.515V85.9423L94.3467 59.2549H85.626Z" fill="white"/>
<path d="M42.6924 64.936V70.9446L56.3229 121.87H57.9309L42.6924 64.936Z" fill="white"/>
<path d="M42.6924 77.0714V109.644L45.962 121.87H54.6773L42.6924 77.0714Z" fill="white"/>
<path d="M214.159 61.4418H175.658V108.288H214.159V61.4418Z" fill="#E6E6E6"/>
<path d="M205.347 96.6837L185.118 76.7981L207.003 73.1854L205.347 96.6837Z" fill="#E0E0E0"/>
<path d="M185.606 91.9725L184.604 76.7233L199.837 80.4645L200.941 92.1279L185.606 91.9725Z" fill="#F0F0F0"/>
<path d="M209.88 74.8594C212.281 72.4585 212.281 68.5659 209.88 66.165C207.479 63.7641 203.587 63.7641 201.186 66.165C198.785 68.5659 198.785 72.4585 201.186 74.8594C203.587 77.2604 207.479 77.2604 209.88 74.8594Z" fill="#FAFAFA"/>
<path d="M187.6 97.4069C187.601 96.816 187.427 96.238 187.099 95.7462C186.771 95.2544 186.305 94.8709 185.759 94.6443C185.214 94.4177 184.613 94.3581 184.033 94.4731C183.454 94.5881 182.921 94.8726 182.503 95.2905C182.085 95.7083 181.801 96.2408 181.686 96.8204C181.571 97.4 181.631 98.0008 181.857 98.5465C182.084 99.0923 182.467 99.5585 182.959 99.8861C183.451 100.214 184.029 100.388 184.62 100.387C185.41 100.386 186.167 100.071 186.725 99.5126C187.284 98.954 187.598 98.1968 187.6 97.4069Z" fill="#E0E0E0"/>
<path d="M185.322 102.65L193.93 97.4076L186.694 91.4419L185.322 102.65Z" fill="#F5F5F5"/>
<path d="M195.496 104.809H197.189V67.402H195.496V104.809Z" fill="#E0E0E0"/>
<path d="M179.271 103.153H181.463V67.4019H179.271V103.153Z" fill="#EBEBEB"/>
<path d="M199.097 103.325H210.289V92.1334H199.097V103.325Z" fill="#EBEBEB"/>
<path d="M71.2341 181.473L64.1482 161.052C64.1482 161.052 73.9677 168.336 73.9141 160.264C73.8605 152.192 69.4331 158.463 67.9055 155.477C66.3779 152.492 72.2632 152.524 70.1943 148C68.1253 143.476 62.2561 150.428 61.2163 146.419C60.1764 142.41 58.5363 140.373 54.2483 140.732C54.2483 140.732 51.9381 146.006 54.7843 149.817C57.6304 153.628 47.7573 150.568 48.7757 154.4C49.7941 158.232 53.0637 161.577 54.5163 158.881C55.9688 156.185 57.7966 161.352 55.3256 162.687C52.8547 164.021 58.5416 169.789 59.8119 166.76C60.6848 164.749 61.7625 162.832 63.0279 161.041L69.5618 182.894L71.2341 181.473Z" fill="#EBEBEB"/>
<path d="M78.54 181.656L86.5264 168.593C86.5264 168.593 78.6258 172.152 79.8908 166.573C81.1557 160.993 83.2622 165.999 84.7737 164.166C86.2852 162.333 82.2009 161.486 84.3181 158.645C86.4353 155.804 89.4476 161.523 90.7501 158.908C92.0526 156.292 93.5212 155.129 96.4317 156.024C96.4317 156.024 97.2357 160.023 94.6951 162.231C92.1544 164.439 99.4333 163.839 98.163 166.315C96.8927 168.792 94.1108 170.635 93.5159 168.55C92.9209 166.465 90.868 169.767 92.3796 171.059C93.8911 172.351 89.0671 175.486 88.6597 173.203C88.3592 171.679 87.903 170.19 87.2983 168.759L79.478 182.894L78.54 181.656Z" fill="#E6E6E6"/>
<path d="M73.1586 181.779L76.8141 160.741C76.8141 160.741 68.3935 169.408 67.1661 161.523C65.9386 153.639 71.245 159.052 72.2634 155.895C73.2818 152.738 67.5413 153.714 68.8384 148.97C70.1355 144.226 76.9695 150.074 77.3447 146.001C77.7199 141.927 79.0063 139.676 83.2407 139.349C83.2407 139.349 86.3334 144.119 84.1733 148.289C82.0133 152.459 91.1414 147.909 90.7662 151.806C90.391 155.702 87.727 159.486 85.8886 157.085C84.0501 154.684 83.0799 160.022 85.701 160.923C88.322 161.823 83.6802 168.363 81.9758 165.613C80.8054 163.791 79.4492 162.095 77.9289 160.553L75.0399 182.894L73.1586 181.779Z" fill="#F5F5F5"/>
<path d="M68.6078 205.433H81.1609C81.5845 205.434 81.9924 205.273 82.3012 204.983C82.6101 204.693 82.7965 204.296 82.8225 203.873L84.1518 182.24C84.1657 182.014 84.1331 181.787 84.0562 181.574C83.9793 181.361 83.8596 181.166 83.7045 181.001C83.5493 180.835 83.3621 180.704 83.1542 180.614C82.9463 180.524 82.7221 180.477 82.4955 180.477H67.2731C67.0465 180.477 66.8224 180.524 66.6145 180.614C66.4066 180.704 66.2193 180.835 66.0642 181.001C65.9091 181.166 65.7894 181.361 65.7124 181.574C65.6355 181.787 65.603 182.014 65.6169 182.24L66.9462 203.9C66.9786 204.318 67.1679 204.708 67.4761 204.992C67.7842 205.277 68.1885 205.434 68.6078 205.433Z" fill="#EBEBEB"/>
<path d="M65.7938 182.894H84.1518C84.56 182.894 84.9539 182.744 85.2584 182.472C85.5629 182.2 85.7566 181.825 85.8027 181.42C85.8308 181.186 85.809 180.95 85.7388 180.726C85.6686 180.501 85.5517 180.294 85.3957 180.119C85.2396 179.943 85.0481 179.802 84.8337 179.706C84.6193 179.609 84.3869 179.56 84.1518 179.56H65.7938C65.5598 179.56 65.3284 179.609 65.1148 179.705C64.9012 179.801 64.7103 179.94 64.5544 180.115C64.3986 180.29 64.2813 180.495 64.2104 180.718C64.1395 180.941 64.1165 181.177 64.1429 181.409C64.1866 181.817 64.3793 182.194 64.684 182.468C64.9887 182.742 65.384 182.894 65.7938 182.894Z" fill="#F5F5F5"/>
<path d="M134 229.172C191.396 229.172 237.925 226.456 237.925 223.105C237.925 219.754 191.396 217.037 134 217.037C76.6035 217.037 30.0747 219.754 30.0747 223.105C30.0747 226.456 76.6035 229.172 134 229.172Z" fill="#F5F5F5"/>
<path d="M190.993 64.1214V214.989C190.993 215.302 190.931 215.611 190.81 215.899C190.69 216.187 190.513 216.448 190.29 216.667C190.068 216.886 189.804 217.058 189.514 217.174C189.224 217.29 188.914 217.347 188.602 217.342H107.538C107.255 217.347 106.974 217.294 106.712 217.188C106.45 217.082 106.212 216.924 106.012 216.724C105.812 216.524 105.654 216.286 105.548 216.024C105.442 215.762 105.389 215.481 105.394 215.198V63.9285C105.384 63.6781 105.423 63.4282 105.51 63.1932C105.597 62.9581 105.729 62.7425 105.899 62.5588C106.07 62.375 106.275 62.2267 106.502 62.1223C106.73 62.0179 106.976 61.9596 107.227 61.9506H126.496C126.793 61.9565 127.082 62.0509 127.326 62.2218C127.569 62.3927 127.756 62.6323 127.863 62.9101L128.747 65.0541C128.856 65.3306 129.044 65.5686 129.289 65.7375C129.533 65.9065 129.822 65.9989 130.119 66.0028H166.358C166.653 66.0005 166.94 65.9106 167.184 65.7445C167.427 65.5784 167.616 65.3437 167.725 65.0701L168.609 62.8886C168.716 62.6103 168.903 62.3699 169.146 62.1981C169.389 62.0263 169.678 61.9308 169.976 61.9238H188.918C189.484 61.942 190.02 62.1833 190.409 62.595C190.797 63.0068 191.007 63.5555 190.993 64.1214Z" fill="#263238"/>
<path d="M190.999 72.0166H105.405V206.644H190.999V72.0166Z" fill="#1A61DB"/>
<path opacity="0.7" d="M190.999 72.0166H105.405V206.644H190.999V72.0166Z" fill="white"/>
<path opacity="0.6" d="M115.513 68.4414H116.623V66.9674H115.513V68.4414Z" fill="white"/>
<path opacity="0.6" d="M113.707 68.4415H114.816V66.4744H113.707V68.4415Z" fill="white"/>
<path opacity="0.6" d="M111.901 68.4415H113.01V65.9813H111.901V68.4415Z" fill="white"/>
<path opacity="0.6" d="M110.095 68.4415H111.204V65.4882H110.095V68.4415Z" fill="white"/>
<path opacity="0.6" d="M181.077 66.4259H180.423V67.8999H181.077V66.4259Z" fill="white"/>
<path opacity="0.6" d="M181.527 68.4415H186.758V65.8848H181.527V68.4415Z" fill="white"/>
<path d="M143.964 85.3848H172.131C172.215 85.3928 172.299 85.3831 172.379 85.3564C172.459 85.3297 172.533 85.2865 172.595 85.2298C172.658 85.173 172.707 85.1038 172.741 85.0267C172.776 84.9496 172.793 84.8662 172.793 84.7818C172.793 84.6975 172.776 84.6141 172.741 84.5369C172.707 84.4598 172.658 84.3906 172.595 84.3339C172.533 84.2771 172.459 84.234 172.379 84.2073C172.299 84.1806 172.215 84.1709 172.131 84.1788H143.964C143.814 84.193 143.674 84.2627 143.573 84.3742C143.471 84.4857 143.415 84.631 143.415 84.7818C143.415 84.9326 143.471 85.078 143.573 85.1895C143.674 85.301 143.814 85.3707 143.964 85.3848Z" fill="#263238"/>
<path d="M178.541 87.62H143.809C143.746 87.6131 143.684 87.6195 143.624 87.6386C143.564 87.6577 143.51 87.6891 143.463 87.7308C143.416 87.7725 143.379 87.8236 143.354 87.8807C143.328 87.9378 143.315 87.9997 143.315 88.0622C143.315 88.1247 143.328 88.1866 143.354 88.2437C143.379 88.3008 143.416 88.3518 143.463 88.3936C143.51 88.4353 143.564 88.4667 143.624 88.4858C143.684 88.5049 143.746 88.5113 143.809 88.5044H178.541C178.65 88.4924 178.751 88.4406 178.824 88.359C178.897 88.2774 178.938 88.1717 178.938 88.0622C178.938 87.9526 178.897 87.8469 178.824 87.7654C178.751 87.6838 178.65 87.632 178.541 87.62Z" fill="#263238"/>
<path d="M168.352 90.1549H143.809C143.746 90.148 143.684 90.1544 143.624 90.1735C143.564 90.1926 143.51 90.224 143.463 90.2657C143.416 90.3075 143.379 90.3585 143.354 90.4156C143.328 90.4727 143.315 90.5346 143.315 90.5971C143.315 90.6596 143.328 90.7215 143.354 90.7786C143.379 90.8357 143.416 90.8867 143.463 90.9285C143.51 90.9702 143.564 91.0016 143.624 91.0207C143.684 91.0398 143.746 91.0462 143.809 91.0393H168.352C168.461 91.0273 168.562 90.9755 168.635 90.8939C168.708 90.8123 168.748 90.7066 168.748 90.5971C168.748 90.4876 168.708 90.3819 168.635 90.3003C168.562 90.2187 168.461 90.1669 168.352 90.1549Z" fill="#263238"/>
<path d="M189.974 106.557H106.422V190.109H189.974V106.557Z" fill="#1A61DB"/>
<path d="M187.283 199.145L184.93 197.114L182.572 199.145V193.56H187.283V199.145Z" fill="#1A61DB"/>
<path d="M178.782 193.56H175.234C175.001 193.56 174.777 193.653 174.612 193.818C174.448 193.982 174.355 194.206 174.355 194.439V196.862C174.355 197.095 174.448 197.319 174.612 197.483C174.777 197.648 175.001 197.741 175.234 197.741H176.44V199.145L177.357 197.741H178.782C178.898 197.742 179.013 197.719 179.12 197.675C179.227 197.631 179.324 197.567 179.405 197.485C179.487 197.403 179.552 197.306 179.596 197.199C179.64 197.092 179.662 196.977 179.661 196.862V194.439C179.662 194.323 179.64 194.209 179.596 194.102C179.552 193.995 179.487 193.898 179.405 193.816C179.324 193.734 179.227 193.669 179.12 193.626C179.013 193.582 178.898 193.559 178.782 193.56Z" fill="#1A61DB"/>
<path d="M171.67 194.225C171.016 193.153 169.751 193.555 169.097 194.385C168.448 193.549 167.189 193.126 166.519 194.198C165.399 195.999 167.682 197.687 168.765 198.352L169.07 198.539L169.381 198.352C170.448 197.703 172.774 196.042 171.67 194.225Z" fill="#1A61DB"/>
<g opacity="0.3">
<path opacity="0.7" d="M172.914 113.589H176.076L174.495 117.69L172.914 113.589Z" fill="white"/>
<path opacity="0.7" d="M183.103 134L184.062 137.012L179.678 136.744L183.103 134Z" fill="white"/>
<path opacity="0.3" d="M181.87 120.782L180.369 124.465L184.93 126.057V123.076L181.87 120.782Z" fill="white"/>
<path opacity="0.3" d="M122.728 112.603H125.049L122.728 115.642V112.603Z" fill="white"/>
<path opacity="0.3" d="M114.002 127.584L116.628 126.984L117.363 129.24L114.334 130.296L114.002 127.584Z" fill="white"/>
<path opacity="0.3" d="M140.577 115.642C141.142 115.642 141.601 115.184 141.601 114.618C141.601 114.053 141.142 113.595 140.577 113.595C140.012 113.595 139.553 114.053 139.553 114.618C139.553 115.184 140.012 115.642 140.577 115.642Z" fill="white"/>
<path opacity="0.3" d="M125.66 183.264C125.66 183.666 125.541 184.059 125.317 184.393C125.094 184.727 124.776 184.987 124.405 185.141C124.033 185.295 123.625 185.334 123.23 185.256C122.836 185.177 122.474 184.983 122.19 184.698C121.906 184.414 121.713 184.051 121.636 183.657C121.558 183.262 121.599 182.854 121.753 182.483C121.908 182.111 122.169 181.795 122.504 181.572C122.839 181.349 123.232 181.231 123.634 181.232C123.9 181.232 124.164 181.285 124.411 181.387C124.657 181.489 124.88 181.639 125.069 181.828C125.257 182.016 125.406 182.24 125.507 182.487C125.609 182.733 125.661 182.997 125.66 183.264Z" fill="white"/>
<path opacity="0.3" d="M115.878 165.614L116.628 166.884L113 168.438L112.174 167.591L115.878 165.614Z" fill="white"/>
<path opacity="0.3" d="M139.553 186.41L138.846 184.615H141.606L139.553 186.41Z" fill="white"/>
<path opacity="0.3" d="M168.877 184.614L169.092 182.615L172.876 183.612V186.533L168.877 184.614Z" fill="white"/>
<path opacity="0.3" d="M177.009 174.307H180.391L178.703 176.306L177.009 174.307Z" fill="white"/>
<path opacity="0.3" d="M182.572 153.735L181.87 157.98L182.647 158.688L183.376 153.735H182.572Z" fill="white"/>
<path opacity="0.3" d="M110.003 141.3L113 143.476L110.856 145.052L110.003 141.3Z" fill="white"/>
<path opacity="0.3" d="M123.296 124.073C123.483 124.073 123.634 123.922 123.634 123.736C123.634 123.549 123.483 123.398 123.296 123.398C123.11 123.398 122.958 123.549 122.958 123.736C122.958 123.922 123.11 124.073 123.296 124.073Z" fill="white"/>
<path opacity="0.3" d="M166.691 120.048C166.951 120.048 167.163 119.837 167.163 119.576C167.163 119.316 166.951 119.104 166.691 119.104C166.43 119.104 166.219 119.316 166.219 119.576C166.219 119.837 166.43 120.048 166.691 120.048Z" fill="white"/>
<path opacity="0.3" d="M154.031 184.228C154.031 184.329 153.991 184.426 153.919 184.498C153.848 184.569 153.751 184.609 153.65 184.609C153.549 184.609 153.452 184.569 153.381 184.498C153.31 184.426 153.27 184.329 153.27 184.228C153.27 184.128 153.31 184.031 153.381 183.959C153.452 183.888 153.549 183.848 153.65 183.848C153.751 183.848 153.848 183.888 153.919 183.959C153.991 184.031 154.031 184.128 154.031 184.228Z" fill="white"/>
<path opacity="0.3" d="M158.496 110.764L162.269 110.196V112.035L158.496 112.603V110.764Z" fill="white"/>
<path opacity="0.3" d="M183.377 112.603H184.615L183.993 114.12L183.377 112.603Z" fill="white"/>
<path opacity="0.3" d="M112.174 114.618H114.002L113.086 115.642L112.174 114.618Z" fill="white"/>
<path opacity="0.3" d="M181.463 186.41L181.286 182.894L183.992 183.848L181.463 186.41Z" fill="white"/>
<path opacity="0.3" d="M184.062 166.176L182.647 165.045V166.176L184.062 167.028V166.176Z" fill="white"/>
<path opacity="0.3" d="M111.499 154.867L113.086 156.212L112.293 157.413L110.191 155.73L111.499 154.867Z" fill="white"/>
<path opacity="0.3" d="M110.191 123.398H112.174L110.003 124.073L110.191 123.398Z" fill="white"/>
</g>
<path d="M144.757 120.187L148.343 116.815L151.891 120.219L156.201 117.845L158.795 122.025L163.56 120.803L165.029 125.493H169.949L170.212 130.403L174.977 131.625L174.001 136.449L178.316 138.818L176.178 143.246L179.763 146.612L176.59 150.369L179.227 154.523L175.218 157.375L176.74 162.048L172.152 163.812L172.463 168.722L167.575 169.29L166.658 174.125L161.781 173.455L159.69 177.909L155.134 176.049L151.999 179.844L148.048 176.912L144.071 179.806L140.973 175.984L136.401 177.796L134.353 173.326L129.476 173.942L128.602 169.102L123.719 168.486L124.078 163.581L119.506 161.775L121.071 157.112L117.089 154.223L119.769 150.096L116.628 146.306L120.251 142.978L118.156 138.523L122.492 136.197L121.564 131.368L126.34 130.194L126.646 125.284L131.566 125.332L133.083 120.653L137.837 121.924L140.469 117.77L144.757 120.187Z" fill="#1A61DB"/>
<path opacity="0.4" d="M177.126 151.441L180.3 147.689L176.714 144.323L178.858 139.896L174.543 137.527L175.518 132.703L170.753 131.481L170.491 126.571H165.57L164.102 121.881L159.337 123.103L156.742 118.922L152.454 121.297L148.906 117.893L145.32 121.264L141.032 118.847L138.4 123.006L133.646 121.731L132.129 126.41L127.209 126.362L126.903 131.272L122.127 132.445L123.055 137.269L118.718 139.596L120.814 144.05L117.164 147.4L120.305 151.189L117.625 155.316L121.608 158.205L120.042 162.869L124.614 164.675L124.255 169.579L129.138 170.196L130.007 175.02L134.89 174.403L136.937 178.874L141.509 177.062L144.607 180.884L148.584 177.989L152.535 180.921L155.67 177.126L160.226 178.986L162.317 174.532L167.189 175.202L168.111 170.378L172.999 169.81L172.683 164.9L177.276 163.137L175.754 158.457L179.764 155.611L177.126 151.441ZM176.14 154.904L172.597 157.423L173.943 161.555L169.885 163.11L170.164 167.446L165.844 167.95L165.034 172.238L160.746 171.648L158.897 175.583L154.877 173.942L152.106 177.287L148.617 174.698L145.106 177.255L142.372 173.878L138.331 175.486L136.524 171.536L132.21 172.072L131.443 167.784L127.155 167.248L127.477 162.917L123.435 161.309L124.818 157.192L121.302 154.641L123.671 150.996L120.895 147.652L124.111 144.709L122.208 140.753L126.04 138.7L125.22 134.412L129.444 133.378L129.712 129.042L134.053 129.085L135.393 124.952L139.59 126.078L141.917 122.406L145.706 124.55L148.868 121.57L152.004 124.577L155.81 122.481L158.104 126.174L162.311 125.102L163.608 129.251H167.955L168.186 133.592L172.394 134.664L171.536 138.92L175.342 141.011L173.455 144.923L176.623 147.898L173.819 151.216L176.14 154.904Z" fill="black"/>
<path opacity="0.4" d="M144.757 120.187L148.343 116.815L151.891 120.219L156.201 117.845L158.795 122.025L163.56 120.803L165.029 125.493H169.949L170.212 130.403L174.977 131.625L174.001 136.449L178.316 138.818L176.178 143.246L179.763 146.612L176.59 150.369L179.227 154.523L175.218 157.375L176.74 162.048L172.152 163.812L172.463 168.722L167.575 169.29L166.658 174.125L161.781 173.455L159.69 177.909L155.134 176.049L151.999 179.844L148.048 176.912L144.071 179.806L140.973 175.984L136.401 177.796L134.353 173.326L129.476 173.942L128.602 169.102L123.719 168.486L124.078 163.581L119.506 161.775L121.071 157.112L117.089 154.223L119.769 150.096L116.628 146.306L120.251 142.978L118.156 138.523L122.492 136.197L121.564 131.368L126.34 130.194L126.646 125.284L131.566 125.332L133.083 120.653L137.837 121.924L140.469 117.77L144.757 120.187Z" fill="black"/>
<path d="M176.59 150.369L179.763 146.617L176.178 143.251L178.322 138.824L174.007 136.455L174.982 131.631L170.217 130.409L169.955 125.499H165.034L163.565 120.809L158.8 122.031L156.206 117.85L151.918 120.225L148.37 116.821L144.784 120.192L140.496 117.775L137.864 121.934L133.11 120.659L131.593 125.338L126.673 125.29L126.367 130.2L121.591 131.373L122.519 136.197L118.182 138.524L120.278 142.978L116.628 146.328L119.769 150.117L117.089 154.245L121.071 157.134L119.506 161.797L124.078 163.603L123.719 168.508L128.602 169.124L129.47 173.948L134.353 173.332L136.401 177.802L140.973 175.99L144.071 179.812L148.048 176.917L151.999 179.849L155.134 176.054L159.69 177.914L161.781 173.46L166.653 174.13L167.575 169.306L172.463 168.738L172.147 163.828L176.74 162.065L175.218 157.386L179.227 154.539L176.59 150.369ZM175.604 153.832L172.061 156.351L173.406 160.484L169.349 162.038L169.628 166.374L165.307 166.878L164.498 171.166L160.21 170.576L158.361 174.511L154.341 172.871L151.57 176.215L148.08 173.626L144.57 176.183L141.836 172.806L137.795 174.414L135.988 170.464L131.673 171L130.907 166.712L126.619 166.176L126.941 161.845L122.899 160.237L124.282 156.121L120.766 153.569L123.135 149.924L120.358 146.58L123.574 143.637L121.672 139.681L125.504 137.629L124.684 133.341L128.908 132.306L129.176 127.97L133.517 128.013L134.857 123.88L139.054 125.006L141.38 121.334L145.17 123.478L148.332 120.498L151.468 123.505L155.274 121.409L157.568 125.102L161.775 124.03L163.072 128.179H167.419L167.65 132.52L171.857 133.592L171 137.848L174.805 139.939L172.919 143.852L176.086 146.826L173.283 150.144L175.604 153.832Z" fill="#1A61DB"/>
<path opacity="0.6" d="M176.59 150.369L179.763 146.617L176.178 143.251L178.322 138.824L174.007 136.455L174.982 131.631L170.217 130.409L169.955 125.499H165.034L163.565 120.809L158.8 122.031L156.206 117.85L151.918 120.225L148.37 116.821L144.784 120.192L140.496 117.775L137.864 121.934L133.11 120.659L131.593 125.338L126.673 125.29L126.367 130.2L121.591 131.373L122.519 136.197L118.182 138.524L120.278 142.978L116.628 146.328L119.769 150.117L117.089 154.245L121.071 157.134L119.506 161.797L124.078 163.603L123.719 168.508L128.602 169.124L129.47 173.948L134.353 173.332L136.401 177.802L140.973 175.99L144.071 179.812L148.048 176.917L151.999 179.849L155.134 176.054L159.69 177.914L161.781 173.46L166.653 174.13L167.575 169.306L172.463 168.738L172.147 163.828L176.74 162.065L175.218 157.386L179.227 154.539L176.59 150.369ZM175.604 153.832L172.061 156.351L173.406 160.484L169.349 162.038L169.628 166.374L165.307 166.878L164.498 171.166L160.21 170.576L158.361 174.511L154.341 172.871L151.57 176.215L148.08 173.626L144.57 176.183L141.836 172.806L137.795 174.414L135.988 170.464L131.673 171L130.907 166.712L126.619 166.176L126.941 161.845L122.899 160.237L124.282 156.121L120.766 153.569L123.135 149.924L120.358 146.58L123.574 143.637L121.672 139.681L125.504 137.629L124.684 133.341L128.908 132.306L129.176 127.97L133.517 128.013L134.857 123.88L139.054 125.006L141.38 121.334L145.17 123.478L148.332 120.498L151.468 123.505L155.274 121.409L157.568 125.102L161.775 124.03L163.072 128.179H167.419L167.65 132.52L171.857 133.592L171 137.848L174.805 139.939L172.919 143.852L176.086 146.826L173.283 150.144L175.604 153.832Z" fill="white"/>
<path opacity="0.4" d="M132.446 146.762C132.446 146.762 135.179 146.29 136.525 146.762C137.87 147.234 143.562 156.946 143.562 156.946C143.562 156.946 154.604 141.756 163.432 135.115C163.432 135.115 151.977 145.374 145.336 162.595C145.336 162.595 143.101 163.582 141.52 161.818C141.065 161.282 135.935 152.54 134.943 152.213C134.166 151.951 131.658 152.079 131.658 152.079L132.446 146.762Z" fill="black"/>
<path d="M131.91 146.226C131.91 146.226 134.643 145.754 135.988 146.226C137.334 146.698 143.026 156.41 143.026 156.41C143.026 156.41 154.068 141.22 162.896 134.579C162.896 134.579 151.441 144.838 144.8 162.06C144.8 162.06 142.565 163.046 140.984 161.282C140.528 160.746 135.399 152.004 134.407 151.677C133.63 151.415 131.122 151.543 131.122 151.543L131.91 146.226Z" fill="white"/>
<path d="M136.032 90.1283C136.043 92.3255 135.489 94.4887 134.424 96.4103L134.188 96.8123C133.422 98.0833 132.441 99.2114 131.288 100.146L131.224 100.2C130.133 101.079 128.905 101.774 127.59 102.258C126.168 102.779 124.665 103.044 123.152 103.041C122.67 103.043 122.188 103.017 121.71 102.96C120.906 102.875 120.113 102.711 119.341 102.472C117.46 101.894 115.74 100.889 114.313 99.5351C112.753 98.0674 111.582 96.2348 110.905 94.2022C110.229 92.1696 110.069 90.0008 110.439 87.8908C110.809 85.7809 111.697 83.796 113.025 82.1147C114.352 80.4334 116.077 79.1084 118.043 78.259C120.01 77.4096 122.157 77.0623 124.291 77.2485C126.425 77.4346 128.479 78.1483 130.269 79.3254C132.058 80.5025 133.527 82.106 134.544 83.9917C135.56 85.8774 136.092 87.9862 136.091 90.1283H136.032Z" fill="#1A61DB"/>
<path d="M134.403 96.4104L134.167 96.8124C131.212 96.7662 128.263 97.0995 125.393 97.804L124.433 98.0398L123.779 98.2114C122.959 98.4311 122.171 98.6616 121.501 98.8814L121.196 98.9832L120.976 99.0529C120.177 99.3209 119.497 99.5621 118.977 99.7604C118.199 100.055 117.755 100.248 117.755 100.248C117.5 99.9204 117.268 99.5767 117.058 99.219L117.026 99.1601C115.862 97.209 113.81 92.7281 114.774 86.2961C115.846 79.1405 121.78 79.5961 123.886 79.9927C124.138 80.0344 124.387 80.0917 124.631 80.1642C124.631 80.1642 131.272 81.7293 131.519 85.8673C131.554 86.4211 131.622 86.9724 131.723 87.5182C132.347 90.5567 133.244 93.5328 134.403 96.4104Z" fill="#263238"/>
<path d="M127.568 102.258C126.147 102.779 124.644 103.044 123.13 103.041C122.648 103.044 122.167 103.017 121.688 102.96C120.885 102.875 120.091 102.712 119.319 102.473L118.906 99.1013L118.708 97.4933L127.547 98.7475V99.5033L127.573 101.722V102.258H127.568Z" fill="#1A61DB"/>
<path d="M131.203 100.2C130.112 101.079 128.884 101.775 127.569 102.258C126.147 102.779 124.645 103.044 123.131 103.041C122.649 103.044 122.167 103.017 121.689 102.96C120.885 102.875 120.092 102.712 119.32 102.473C117.44 101.895 115.719 100.889 114.292 99.5353C114.699 99.471 115.112 99.4228 115.525 99.3692H115.627C116.114 99.3156 116.602 99.2673 117.09 99.2298C117.669 99.1816 118.242 99.1441 118.821 99.1226H118.923L119.631 99.0958H120.472H121.458C122.53 99.0958 123.617 99.1351 124.717 99.2137L125.827 99.3049L126.411 99.3638L127.258 99.4925L127.445 99.5193H127.574L128.571 99.6908C128.726 99.7176 128.882 99.7551 129.037 99.7765L129.332 99.8355L129.648 99.8945L130.184 100.002L130.56 100.077L131.203 100.2Z" fill="#263238"/>
<path d="M125.307 102.376C121.624 101.749 120.574 100.119 120.574 100.119C122.15 98.758 121.962 96.6408 121.646 95.2954C121.544 94.8756 121.408 94.4651 121.238 94.068L125.66 95.0864C125.532 95.7014 125.448 96.3247 125.408 96.9517C125.375 97.4155 125.398 97.8818 125.478 98.3399C125.725 99.6799 126.486 99.7335 126.486 99.7335C127.188 101.261 125.307 102.376 125.307 102.376Z" fill="#E4897B"/>
<path opacity="0.2" d="M125.392 96.9834C125.358 97.4473 125.381 97.9135 125.461 98.3717C123.703 98.0608 122.417 96.5921 121.629 95.3272C121.528 94.9074 121.391 94.4968 121.222 94.0997L125.644 95.1181C125.515 95.7331 125.431 96.3565 125.392 96.9834Z" fill="black"/>
<path d="M124.792 82.4475C128.978 82.6297 130.232 84.9292 130.35 89.2547C130.506 94.6576 129.144 98.4363 123.961 97.0642C116.918 95.1936 117.84 82.1473 124.792 82.4475Z" fill="#E4897B"/>
<path d="M127.654 88.9006C127.963 89.5411 128.348 90.1421 128.801 90.6909C128.67 90.8578 128.496 90.9859 128.298 91.0615C128.099 91.137 127.884 91.1571 127.675 91.1197L127.654 88.9006Z" fill="#DE5753"/>
<path d="M123.35 86.2962C123.303 86.2965 123.257 86.2793 123.221 86.248C123.203 86.2304 123.188 86.2092 123.178 86.1857C123.167 86.1622 123.162 86.1369 123.162 86.1113C123.162 86.0857 123.167 86.0603 123.178 86.0368C123.188 86.0133 123.203 85.9921 123.221 85.9746C123.486 85.7207 123.807 85.5327 124.158 85.4256C124.509 85.3186 124.88 85.2955 125.242 85.3582C125.267 85.3627 125.291 85.3721 125.312 85.3859C125.334 85.3997 125.352 85.4175 125.366 85.4385C125.381 85.4594 125.391 85.4829 125.396 85.5078C125.402 85.5327 125.402 85.5583 125.397 85.5833C125.393 85.6083 125.383 85.6322 125.37 85.6536C125.356 85.675 125.338 85.6934 125.317 85.7078C125.296 85.7223 125.273 85.7324 125.248 85.7378C125.223 85.7431 125.197 85.7434 125.172 85.7388C124.876 85.6918 124.573 85.7117 124.286 85.797C123.998 85.8824 123.733 86.0309 123.511 86.2319C123.491 86.2544 123.466 86.2719 123.438 86.2831C123.41 86.2943 123.38 86.2988 123.35 86.2962Z" fill="#263238"/>
<path d="M129.894 86.1244C129.854 86.1234 129.815 86.1103 129.782 86.0869C129.58 85.9158 129.342 85.7918 129.086 85.7241C128.831 85.6564 128.563 85.6467 128.303 85.6956C128.278 85.704 128.253 85.7074 128.227 85.7057C128.201 85.7041 128.176 85.6973 128.153 85.6858C128.13 85.6743 128.11 85.6584 128.093 85.6389C128.077 85.6194 128.064 85.5968 128.056 85.5723C128.041 85.5233 128.045 85.4701 128.068 85.4241C128.091 85.3781 128.131 85.3429 128.179 85.3258C128.498 85.2561 128.828 85.26 129.145 85.3371C129.461 85.4142 129.756 85.5625 130.007 85.7707C130.048 85.8017 130.076 85.8476 130.084 85.8986C130.092 85.9497 130.08 86.0019 130.05 86.044C130.032 86.0681 130.008 86.0879 129.981 86.1018C129.954 86.1157 129.925 86.1234 129.894 86.1244Z" fill="#263238"/>
<path d="M119.914 89.308C119.914 89.308 122.021 85.9526 121.838 83.2833C121.838 83.2833 130.28 80.2496 130.329 88.6862C130.329 88.6862 131.46 81.2465 124.272 80.7695C117.084 80.2924 116.661 90.8249 120.241 94.1213C120.241 94.1213 118.612 91.4037 119.914 89.308Z" fill="#263238"/>
<path d="M120.562 90.2194C120.542 89.7341 120.33 89.2766 119.974 88.9464C119.617 88.6162 119.145 88.44 118.66 88.456C117.352 88.5417 116.623 91.1788 119.823 91.956C120.278 92.0686 120.557 91.6559 120.562 90.2194Z" fill="#E4897B"/>
<path d="M127.755 92.3531C127.47 92.7776 127.216 93.2218 126.994 93.6824L126.732 93.6074C125.563 93.2429 125.124 92.6908 125.022 92.187C124.97 91.9383 124.979 91.6809 125.049 91.4366C125.083 91.2973 125.137 91.1637 125.209 91.0399C125.831 91.5833 126.562 91.9872 127.353 92.2245C127.6 92.3102 127.755 92.3531 127.755 92.3531Z" fill="#263238"/>
<path d="M127.359 92.2245L127.123 92.6104C126.051 92.2674 125.29 91.8814 125.049 91.4366C125.083 91.2973 125.137 91.1637 125.21 91.0399C125.833 91.584 126.566 91.9879 127.359 92.2245Z" fill="white"/>
<path d="M126.732 93.6069C125.563 93.2424 125.124 92.6904 125.022 92.1865C125.466 92.3313 125.879 92.5546 126.244 92.8458C126.485 93.0399 126.656 93.307 126.732 93.6069Z" fill="#DE5753"/>
<path d="M124.696 82.7585C124.696 82.7585 122.712 89.5764 118.381 89.303C114.051 89.0297 121.115 80.593 121.115 80.593C121.115 80.593 128.303 78.2293 131.637 82.1367C134.971 86.0442 130.329 88.6866 130.329 88.6866C130.329 88.6866 130.822 83.3642 124.696 82.7585Z" fill="#263238"/>
<path d="M121.479 88.6326C121.452 88.6322 121.426 88.6239 121.404 88.6086C121.382 88.5933 121.365 88.5718 121.356 88.5468C121.343 88.5148 121.343 88.479 121.356 88.4471C121.369 88.4151 121.394 88.3894 121.425 88.3753C124.802 86.9281 124.539 82.3238 124.539 82.2756C124.538 82.2409 124.55 82.207 124.573 82.181C124.596 82.1551 124.628 82.139 124.663 82.1362C124.698 82.1347 124.732 82.1465 124.759 82.1694C124.786 82.1923 124.803 82.2245 124.807 82.2595C124.807 82.3078 125.081 87.0835 121.532 88.6219L121.479 88.6326Z" fill="#263238"/>
<path d="M125.188 88.6653C125.225 88.9869 125.081 89.271 124.866 89.2978C124.652 89.3246 124.443 89.078 124.405 88.7618C124.368 88.4455 124.513 88.1561 124.727 88.1293C124.941 88.1025 125.15 88.3383 125.188 88.6653Z" fill="#263238"/>
<path d="M124.637 88.1505L125.312 87.7914C125.312 87.7914 125.028 88.44 124.637 88.1505Z" fill="#263238"/>
<path d="M129.203 88.1181C129.24 88.4397 129.095 88.7238 128.881 88.7506C128.667 88.7774 128.458 88.5362 128.42 88.2146C128.382 87.893 128.527 87.6089 128.742 87.5821C128.956 87.5553 129.176 87.7965 129.203 88.1181Z" fill="#263238"/>
<path d="M128.64 87.6035L129.31 87.2444C129.31 87.2444 129.047 87.9037 128.64 87.6035Z" fill="#263238"/>
<path d="M131.267 100.146L131.202 100.2C130.111 101.079 128.884 101.775 127.568 102.258V101.878V101.711L126.866 100.291L127.225 99.4441L127.531 98.7366L127.842 99.4119L131.267 100.146Z" fill="#1A61DB"/>
<path opacity="0.6" d="M131.267 100.146L131.202 100.2C130.111 101.079 128.884 101.775 127.568 102.258V101.878V101.711L126.866 100.291L127.225 99.4441L127.531 98.7366L127.842 99.4119L131.267 100.146Z" fill="white"/>
<path d="M123.211 100.184L121.748 102.022L121.673 102.965C120.869 102.88 120.076 102.717 119.304 102.478C117.423 101.9 115.703 100.894 114.276 99.5403L115.493 99.3688H115.594L118.173 99.0043L118.709 97.4982L121.335 99.0633L123.227 100.194L123.211 100.184Z" fill="#1A61DB"/>
<path opacity="0.6" d="M123.206 100.184L121.748 102.022L121.673 102.966C120.869 102.88 120.076 102.717 119.304 102.478C117.423 101.9 115.703 100.895 114.276 99.5408L115.594 99.3586L118.173 98.9994L118.709 97.4933L121.335 99.0584L123.206 100.184Z" fill="white"/>
<path d="M136.916 101.052C136.916 101.746 136.71 102.425 136.324 103.002C135.939 103.58 135.39 104.03 134.749 104.295C134.107 104.561 133.401 104.631 132.72 104.495C132.039 104.36 131.414 104.025 130.923 103.534C130.432 103.043 130.097 102.418 129.962 101.737C129.827 101.056 129.896 100.35 130.162 99.7082C130.428 99.0667 130.877 98.5183 131.455 98.1326C132.032 97.7468 132.711 97.5409 133.405 97.5409C134.336 97.5409 135.229 97.9108 135.888 98.5692C136.546 99.2276 136.916 100.121 136.916 101.052Z" fill="white"/>
<path d="M136.401 101.052C136.401 101.644 136.225 102.224 135.896 102.716C135.567 103.209 135.099 103.593 134.552 103.82C134.004 104.047 133.402 104.106 132.82 103.99C132.239 103.875 131.705 103.589 131.286 103.17C130.867 102.751 130.582 102.218 130.466 101.636C130.351 101.055 130.41 100.453 130.637 99.9052C130.864 99.3577 131.248 98.8897 131.74 98.5605C132.233 98.2313 132.812 98.0555 133.405 98.0555C134.2 98.0555 134.962 98.3712 135.524 98.9331C136.086 99.495 136.401 100.257 136.401 101.052Z" fill="#263238"/>
<path d="M133.287 102.611L131.69 101.202L132.044 100.8L133.201 101.818L134.724 99.7278L135.158 100.044L133.287 102.611Z" fill="white"/>
<path d="M208.011 208.262C208.011 208.262 204.886 201.45 208.456 194.734C212.025 188.018 213.055 186.437 210.782 185.059C208.509 183.681 207.464 190.419 207.464 190.419C207.464 190.419 205.545 185.772 207.132 180.916C208.718 176.06 209.705 168.143 207.544 167.291C205.384 166.438 207.132 177.164 205.256 180.819C204.3 178.254 203.684 175.574 203.423 172.849C203.16 168.947 203.567 162.713 201.858 161.116C200.148 159.519 199.06 160.623 200.737 169.236C201.746 174.382 202.302 179.607 202.399 184.85C202.399 184.85 198.695 173.551 196.208 173.224C193.721 172.897 193.726 176.553 195.854 179.726C197.982 182.899 202.088 188.586 202.763 191.518C202.763 191.518 198.695 183.017 195.034 185.622C191.373 188.227 198.218 193.362 201.268 195.222C204.318 197.081 206.44 208.707 206.44 208.707L208.011 208.262Z" fill="#1A61DB"/>
<path opacity="0.2" d="M208.011 208.262C208.011 208.262 204.886 201.45 208.456 194.734C212.025 188.018 213.055 186.437 210.782 185.059C208.509 183.681 207.464 190.419 207.464 190.419C207.464 190.419 205.545 185.772 207.132 180.916C208.718 176.06 209.705 168.143 207.544 167.291C205.384 166.438 207.132 177.164 205.256 180.819C204.3 178.254 203.684 175.574 203.423 172.849C203.16 168.947 203.567 162.713 201.858 161.116C200.148 159.519 199.06 160.623 200.737 169.236C201.746 174.382 202.302 179.607 202.399 184.85C202.399 184.85 198.695 173.551 196.208 173.224C193.721 172.897 193.726 176.553 195.854 179.726C197.982 182.899 202.088 188.586 202.763 191.518C202.763 191.518 198.695 183.017 195.034 185.622C191.373 188.227 198.218 193.362 201.268 195.222C204.318 197.081 206.44 208.707 206.44 208.707L208.011 208.262Z" fill="black"/>
<path d="M205.545 211.061C205.545 211.061 208.585 204.2 204.934 197.538C201.284 190.875 200.234 189.31 202.496 187.89C204.758 186.469 205.878 193.212 205.878 193.212C205.878 193.212 207.738 188.538 206.098 183.703C204.457 178.869 203.369 170.968 205.519 170.089C207.668 169.21 206.055 179.957 207.968 183.58C208.894 181.001 209.479 178.313 209.71 175.583C209.919 171.676 209.442 165.453 211.131 163.828C212.819 162.204 213.923 163.292 212.347 171.933C211.401 177.102 210.908 182.345 210.873 187.6C210.873 187.6 214.443 176.248 216.925 175.883C219.406 175.519 219.449 179.174 217.359 182.379C215.268 185.585 211.227 191.331 210.589 194.263C210.589 194.263 214.556 185.687 218.243 188.254C221.931 190.821 215.156 196.042 212.128 197.94C209.099 199.837 207.121 211.506 207.121 211.506L205.545 211.061Z" fill="#1A61DB"/>
<path d="M219.567 206.167H194.45L196.482 224.144H217.536L219.567 206.167Z" fill="#263238"/>
<path d="M53.1443 211.956L68.6079 210.439V191.411H74.729V210.429L90.2355 211.956C90.9785 212.028 91.6681 212.375 92.1696 212.928C92.6711 213.481 92.9485 214.201 92.9477 214.947V217.268H50.4321V214.936C50.434 214.192 50.7126 213.474 51.2138 212.924C51.715 212.373 52.4031 212.028 53.1443 211.956Z" fill="#263238"/>
<path opacity="0.1" d="M53.1443 211.956L68.6079 210.439V191.411H74.729V210.429L90.2355 211.956C90.9785 212.028 91.6681 212.375 92.1696 212.928C92.6711 213.481 92.9485 214.201 92.9477 214.947V217.268H50.4321V214.936C50.434 214.192 50.7126 213.474 51.2138 212.924C51.715 212.373 52.4031 212.028 53.1443 211.956Z" fill="white"/>
<path d="M91.9467 224.089C94.1294 223.735 95.6117 221.678 95.2573 219.495C94.903 217.313 92.8464 215.83 90.6636 216.185C88.4809 216.539 86.9986 218.596 87.353 220.778C87.7073 222.961 89.7639 224.443 91.9467 224.089Z" fill="#263238"/>
<path d="M56.0181 220.794C56.3724 218.611 54.8902 216.555 52.7074 216.2C50.5247 215.846 48.468 217.328 48.1137 219.511C47.7594 221.694 49.2416 223.75 51.4244 224.105C53.6071 224.459 55.6638 222.977 56.0181 220.794Z" fill="#263238"/>
<path d="M73.55 196.08H69.7498C69.1626 196.08 68.5996 195.847 68.1844 195.432C67.7693 195.017 67.5361 194.453 67.5361 193.866V176.752H75.7637V193.866C75.7637 194.453 75.5304 195.017 75.1153 195.432C74.7002 195.847 74.1371 196.08 73.55 196.08Z" fill="#263238"/>
<path opacity="0.2" d="M73.55 196.08H69.7498C69.1626 196.08 68.5996 195.847 68.1844 195.432C67.7693 195.017 67.5361 194.453 67.5361 193.866V176.752H75.7637V193.866C75.7637 194.453 75.5304 195.017 75.1153 195.432C74.7002 195.847 74.1371 196.08 73.55 196.08Z" fill="white"/>
<path d="M50.2767 143.187C50.2767 143.187 54.8595 171.815 63.9072 176.746H54.7094C54.7094 176.746 45.6242 166.991 42.8799 143.187H50.2767Z" fill="#263238"/>
<path opacity="0.1" d="M50.2767 143.187C50.2767 143.187 54.8595 171.815 63.9072 176.746H54.7094C54.7094 176.746 45.6242 166.991 42.8799 143.187H50.2767Z" fill="white"/>
<path d="M54.2586 172.699H90.1277C90.8385 172.699 91.5202 172.981 92.0228 173.484C92.5254 173.987 92.8077 174.668 92.8077 175.379V178.965H51.5786V175.379C51.5786 174.668 51.861 173.987 52.3636 173.484C52.8662 172.981 53.5478 172.699 54.2586 172.699Z" fill="#1A61DB"/>
<path d="M93.4454 175.829H50.9353C50.3403 175.829 49.8579 176.312 49.8579 176.907V177.882C49.8579 178.477 50.3403 178.96 50.9353 178.96H93.4454C94.0404 178.96 94.5228 178.477 94.5228 177.882V176.907C94.5228 176.312 94.0404 175.829 93.4454 175.829Z" fill="#263238"/>
<path opacity="0.6" d="M93.4454 175.829H50.9353C50.3403 175.829 49.8579 176.312 49.8579 176.907V177.882C49.8579 178.477 50.3403 178.96 50.9353 178.96H93.4454C94.0404 178.96 94.5228 178.477 94.5228 177.882V176.907C94.5228 176.312 94.0404 175.829 93.4454 175.829Z" fill="white"/>
<path d="M41.7649 149.008H56.5049C60.7929 149.008 63.6283 145.546 62.7654 141.274L61.6398 135.571C60.7822 131.283 56.5853 127.842 52.2705 127.842H37.5198C33.2318 127.842 30.3963 131.304 31.2593 135.571L32.401 141.274C33.2318 145.546 37.4501 149.008 41.7649 149.008Z" fill="#1A61DB"/>
<path d="M55.6426 120.782H65.0333L65.8963 126.384L57.5454 127.841L55.6426 120.782Z" fill="#1A61DB"/>
<path d="M118 198.593L114.628 199.912L112.205 195.34L110.002 191.186L113.738 188.945L115.995 194.048L118 198.593Z" fill="#E4897B"/>
<path opacity="0.2" d="M115.995 194.048L112.205 195.34L110.002 191.186L113.738 188.945L115.995 194.048Z" fill="black"/>
<path d="M115.299 191.556L110.711 194.032C110.711 194.032 93.3818 163.566 90.7179 163.818C88.054 164.07 62.7763 180.166 55.0686 174.2C47.3609 168.234 54.8595 150.343 54.8595 150.343C54.8595 150.343 69.9211 144.618 71.6524 148.118C72.4118 149.536 73.0883 150.996 73.6785 152.492C74.0162 153.564 74.2735 154.513 74.2735 154.513C74.7612 154.314 90.5089 147.856 97.5412 151.297C104.691 154.85 115.299 191.556 115.299 191.556Z" fill="#1A61DB"/>
<path opacity="0.3" d="M115.299 191.556L110.711 194.032C110.711 194.032 93.3818 163.566 90.7179 163.818C88.054 164.07 62.7763 180.166 55.0686 174.2C47.3609 168.234 54.8595 150.343 54.8595 150.343C54.8595 150.343 69.9211 144.618 71.6524 148.118C72.4118 149.536 73.0883 150.996 73.6785 152.492C74.0162 153.564 74.2735 154.513 74.2735 154.513C74.7612 154.314 90.5089 147.856 97.5412 151.297C104.691 154.85 115.299 191.556 115.299 191.556Z" fill="white"/>
<path d="M90.3856 216.399L86.789 215.987L86.7729 210.916L86.7676 206.258L91.1145 206.055L90.7286 211.533L90.3856 216.399Z" fill="#E4897B"/>
<path opacity="0.2" d="M90.7179 211.645L86.7622 211.013V206.312L91.1092 206.082L90.7179 211.645Z" fill="black"/>
<path d="M108.47 192.504L115.18 189.144L115.877 191.984L110.796 194.606L108.47 192.504Z" fill="#263238"/>
<path d="M67 174.265C67 174.265 68.1042 174.141 85.0525 171C85.0525 171 85.4384 192.681 86.2424 208.837L91.463 209.008C91.463 209.008 98.967 173.139 98.0719 167.736C97.1768 162.333 90.7448 161.588 90.7448 161.588C90.7448 161.588 79.537 170.271 67 174.265Z" fill="#1A61DB"/>
<path opacity="0.4" d="M67 174.265C67 174.265 68.1042 174.141 85.0525 171C85.0525 171 85.4384 192.681 86.2424 208.837L91.463 209.008C91.463 209.008 98.967 173.139 98.0719 167.736C97.1768 162.333 90.7448 161.588 90.7448 161.588C90.7448 161.588 79.537 170.271 67 174.265Z" fill="white"/>
<path opacity="0.3" d="M67 174.265C67 174.265 68.1042 174.141 85.0525 171C85.0525 171 85.4384 192.681 86.2424 208.837L91.463 209.008C91.463 209.008 98.967 173.139 98.0719 167.736C97.1768 162.333 90.7448 161.588 90.7448 161.588C90.7448 161.588 79.537 170.271 67 174.265Z" fill="black"/>
<path d="M85.2612 207.394L92.3793 207.228L91.4092 210.16L85.6311 210.214L85.2612 207.394Z" fill="#263238"/>
<path opacity="0.3" d="M74.2729 154.529L65.0322 157.82C65.0322 157.82 69.8938 154.192 73.6779 152.509C74.0156 153.602 74.2729 154.529 74.2729 154.529Z" fill="black"/>
<path d="M54.2644 149.072L54.1304 151.816L71.4485 148.145L71.0465 145.116L54.2644 149.072Z" fill="#263238"/>
<path opacity="0.2" d="M54.2644 149.072L54.1304 151.816L71.4485 148.145L71.0465 145.116L54.2644 149.072Z" fill="black"/>
<path d="M59.5274 147.394L58.6631 147.554L59.4775 151.944L60.3418 151.784L59.5274 147.394Z" fill="#1A61DB"/>
<path d="M67.0842 146.279L63.3037 147.131L63.9495 149.996L67.7299 149.144L67.0842 146.279Z" fill="white"/>
<path d="M70.0455 144.803L69.1812 144.964L69.9948 149.354L70.8591 149.193L70.0455 144.803Z" fill="#1A61DB"/>
<path opacity="0.3" d="M59.5274 147.394L58.6631 147.554L59.4775 151.944L60.3418 151.784L59.5274 147.394Z" fill="white"/>
<path opacity="0.3" d="M70.0455 144.803L69.1812 144.964L69.9948 149.354L70.8591 149.193L70.0455 144.803Z" fill="white"/>
<path d="M124.7 204.57C124.136 204.397 123.546 204.33 122.958 204.372C122.958 204.372 120.787 203.466 118.134 199.135L115.888 199.43C115.51 199.487 115.158 199.659 114.881 199.923C114.604 200.186 114.415 200.529 114.339 200.904C114.32 201.008 114.32 201.115 114.339 201.22C114.433 201.764 114.564 202.301 114.73 202.828C115.306 204.568 115.986 206.272 116.767 207.931L117.137 207.781L115.984 204.527C115.598 203.423 116.944 204.356 117.657 205.428C118.37 206.5 119.377 207.534 121.778 206.628C124.571 205.54 125.675 204.961 124.7 204.57Z" fill="#1A61DB"/>
<path d="M117.588 197.988C117.588 197.988 121.195 203.46 122.948 204.371C122.948 204.371 120.965 205.979 118.317 203.396C114.897 200.089 114.329 201.22 114.329 201.22C114.298 200.572 114.329 199.922 114.42 199.279C114.704 198.025 117.588 197.988 117.588 197.988Z" fill="#E4897B"/>
<path d="M95.7667 222.778C95.259 222.479 94.7016 222.274 94.1212 222.172C94.1212 222.172 92.2238 220.773 90.6962 215.949L88.445 215.703C88.0622 215.667 87.6778 215.751 87.3447 215.943C87.0117 216.135 86.7463 216.426 86.585 216.775C86.537 216.871 86.5044 216.974 86.4886 217.08C86.4537 217.626 86.4537 218.174 86.4886 218.72C86.6369 220.546 86.8947 222.361 87.2604 224.155L87.6517 224.096L87.3033 220.666C87.1907 219.498 88.2788 220.725 88.7183 221.936C89.1579 223.148 89.8868 224.391 92.4328 224.08C95.4076 223.689 96.619 223.389 95.7667 222.778Z" fill="#1A61DB"/>
<path d="M90.4122 214.695C90.4122 214.695 92.6206 220.87 94.1214 222.172C94.1214 222.172 91.8166 223.244 89.8334 220.13C87.2927 216.099 86.4673 217.069 86.4673 217.069C86.5882 216.433 86.7676 215.808 87.0033 215.204C87.6036 214.046 90.4122 214.695 90.4122 214.695Z" fill="#E4897B"/>
<path d="M63.9287 101.84C63.9287 101.84 55.4653 97.729 52.6727 106.584C49.8802 115.438 53.4607 121.549 53.4607 121.549C53.4607 121.549 63.2534 119.04 71.497 120.793C71.497 120.793 69.7175 113.246 70.1463 108.915C70.5751 104.584 63.9287 101.84 63.9287 101.84Z" fill="#263238"/>
<path d="M70.5322 121.881C72.3921 121.962 80.1802 132.43 80.1802 132.43L83.0746 128.678C83.0746 128.678 87.5341 137.345 85.3258 141.472C83.1175 145.599 71.4863 134.322 71.4863 134.322L70.5322 121.881Z" fill="#1A61DB"/>
<path opacity="0.6" d="M70.5269 121.881L71.288 130.248L71.4809 134.327C71.4809 134.327 73.3945 136.182 75.8118 138.111C79.3655 140.947 84.0072 143.938 85.3204 141.483C87.5288 137.361 83.0639 128.688 83.0639 128.688L80.1749 132.44V132.408C79.7246 131.765 72.3278 121.962 70.5269 121.881Z" fill="white"/>
<path opacity="0.2" d="M71.2876 130.248L71.4806 134.327C71.4806 134.327 73.3941 136.182 75.8114 138.111C76.0419 133.212 71.4806 126.078 71.4806 126.078L71.2876 130.248Z" fill="black"/>
<path opacity="0.2" d="M80.1851 132.429L79.767 133.228L80.9784 137.945C80.9784 137.945 77.6338 134.9 79.767 131.92L80.1851 132.429Z" fill="black"/>
<path d="M71.5074 131.219C71.5074 131.347 71.5074 131.481 71.5074 131.615C71.5074 132.194 71.5074 132.805 71.4699 133.454C71.4699 133.507 71.4699 133.561 71.4699 133.62C71.4699 133.968 71.4699 134.327 71.4699 134.692C71.4699 134.756 71.4699 134.815 71.4699 134.879C71.4699 135.415 71.4324 135.951 71.4109 136.487C71.4109 136.562 71.4109 136.637 71.4109 136.713C71.4109 137.441 71.352 138.208 71.3144 139.017C71.2287 140.834 71.1268 142.85 70.9982 145.085L70.757 145.144L54.3822 149.024H54.3179C54.3179 149.024 54.9772 140.266 53.8462 135.308C53.838 135.265 53.8273 135.222 53.814 135.18C53.814 135.105 53.7819 135.029 53.7604 134.954C53.739 134.879 53.6854 134.676 53.6532 134.531C53.6211 134.386 53.5782 134.242 53.5353 134.091C53.3906 133.555 53.2352 133.02 53.069 132.43C52.9618 132.044 52.8439 131.647 52.7206 131.24L52.6563 131.036C52.5116 130.554 52.3561 130.055 52.1953 129.541C52.1471 129.391 52.1042 129.246 52.056 129.091C51.8201 128.356 51.5682 127.579 51.2948 126.764C50.9947 125.846 50.6659 124.872 50.3086 123.843C52.1865 123.244 54.1002 122.765 56.0384 122.407L56.8692 122.257L57.7483 122.112C59.2169 121.876 60.7016 121.71 62.1864 121.603C62.7831 121.56 63.3781 121.528 63.9712 121.506C64.3304 121.506 64.7002 121.506 65.0432 121.506H65.1933L66.2653 121.538H66.7638H67.08H67.4231L67.9591 121.571H68.3664L69.1008 121.619L69.3902 121.646H69.6475H69.8833H70.0763L70.5426 121.688C70.5426 121.688 70.5426 121.688 70.5855 121.688L70.623 121.726C70.6588 121.769 70.6894 121.815 70.7141 121.865C70.8788 122.214 70.996 122.584 71.0625 122.964C71.0625 123.071 71.1054 123.189 71.1322 123.318C71.159 123.447 71.1965 123.72 71.234 123.956C71.2716 124.192 71.2823 124.299 71.3037 124.492C71.3252 124.685 71.3412 124.84 71.3573 125.028C71.5159 127.087 71.566 129.154 71.5074 131.219Z" fill="#263238"/>
<path d="M62.615 125.054C58.7129 124.555 57.5444 122.883 57.5444 122.883C59.1524 121.382 58.8469 119.169 58.4396 117.786C58.317 117.347 58.1555 116.92 57.9572 116.51L62.6525 117.389C62.5433 118.041 62.4824 118.701 62.4703 119.362C62.4526 119.85 62.4977 120.338 62.6043 120.814C62.9205 122.219 63.7191 122.24 63.7191 122.24C64.5446 123.778 62.615 125.054 62.615 125.054Z" fill="#E4897B"/>
<path opacity="0.2" d="M62.4706 119.362C62.453 119.85 62.498 120.338 62.6046 120.814C60.7394 120.573 59.3297 119.078 58.4399 117.786C58.3173 117.347 58.1559 116.92 57.9575 116.51L62.6529 117.389C62.5437 118.041 62.4828 118.701 62.4706 119.362Z" fill="black"/>
<path d="M63.7192 104.22C68.0394 105.099 68.9559 107.698 68.3663 112.212C67.6267 117.856 65.5899 121.554 60.4282 119.265C53.428 116.156 56.5475 102.756 63.7192 104.22Z" fill="#E4897B"/>
<path d="M65.6223 111.402C65.8375 112.118 66.1381 112.806 66.5175 113.45C66.3539 113.601 66.152 113.705 65.9336 113.749C65.7153 113.794 65.489 113.777 65.2793 113.702L65.6223 111.402Z" fill="#DE5753"/>
<path d="M61.6403 107.983C61.6118 107.982 61.5836 107.976 61.5577 107.964C61.5318 107.952 61.5088 107.935 61.4903 107.913C61.4716 107.895 61.4567 107.874 61.4466 107.851C61.4364 107.827 61.4312 107.802 61.4312 107.776C61.4312 107.751 61.4364 107.725 61.4466 107.702C61.4567 107.678 61.4716 107.657 61.4903 107.639C61.806 107.42 62.169 107.278 62.5499 107.225C62.9307 107.172 63.3187 107.209 63.6825 107.334C63.7064 107.342 63.7285 107.355 63.7473 107.372C63.7662 107.389 63.7816 107.41 63.7925 107.433C63.8035 107.456 63.8098 107.481 63.8112 107.506C63.8125 107.531 63.8089 107.557 63.8004 107.581C63.792 107.604 63.7789 107.626 63.7619 107.645C63.745 107.664 63.7245 107.68 63.7016 107.691C63.6787 107.702 63.6538 107.708 63.6285 107.709C63.6031 107.711 63.5778 107.707 63.5539 107.698C63.252 107.602 62.9325 107.573 62.6183 107.615C62.3041 107.657 62.003 107.768 61.7368 107.94C61.7087 107.962 61.6756 107.977 61.6403 107.983Z" fill="#263238"/>
<path d="M68.4421 108.878C68.3914 108.877 68.3433 108.856 68.3081 108.819C68.1239 108.608 67.8953 108.44 67.6387 108.326C67.3821 108.213 67.1037 108.158 66.8234 108.165C66.7983 108.17 66.7726 108.169 66.7478 108.163C66.7229 108.158 66.6995 108.147 66.6789 108.132C66.6584 108.117 66.6411 108.098 66.6281 108.076C66.6152 108.054 66.6069 108.03 66.6036 108.004C66.5991 107.979 66.5996 107.954 66.6053 107.929C66.611 107.904 66.6217 107.88 66.6368 107.86C66.6518 107.839 66.6709 107.822 66.6929 107.809C66.7148 107.796 66.7392 107.788 66.7644 107.785C67.1053 107.764 67.4464 107.822 67.7613 107.954C68.0763 108.086 68.3569 108.288 68.5815 108.546C68.5995 108.564 68.6137 108.585 68.6235 108.608C68.6332 108.632 68.6382 108.657 68.6382 108.682C68.6382 108.708 68.6332 108.733 68.6235 108.756C68.6137 108.78 68.5995 108.801 68.5815 108.819C68.5443 108.856 68.4944 108.877 68.4421 108.878Z" fill="#263238"/>
<path d="M57.5181 110.534C57.5181 110.534 60.2624 107.398 60.5143 104.595C60.5143 104.595 69.7817 102.848 68.4364 111.622C68.4364 111.622 70.843 104.075 63.4569 102.392C56.0709 100.709 53.884 111.574 57.0571 115.588C57.0571 115.588 55.8136 112.501 57.5181 110.534Z" fill="#263238"/>
<path d="M58.0378 111.59C58.0677 111.338 58.0478 111.083 57.9791 110.839C57.9105 110.595 57.7944 110.367 57.6377 110.168C57.4809 109.969 57.2864 109.803 57.0654 109.679C56.8443 109.555 56.601 109.476 56.3494 109.446C54.9826 109.317 53.7819 111.933 56.9765 113.273C57.4375 113.466 57.8019 113.053 58.0378 111.59Z" fill="#E4897B"/>
<path d="M65.1564 114.999C64.7891 115.394 64.4506 115.815 64.1433 116.259L63.8861 116.13C62.7283 115.562 62.3799 114.919 62.3424 114.377C62.333 114.11 62.3862 113.843 62.4978 113.6C62.5567 113.462 62.6343 113.332 62.7283 113.214C63.2833 113.891 63.9781 114.439 64.7651 114.822C65.0063 114.929 65.1564 114.999 65.1564 114.999Z" fill="#263238"/>
<path d="M64.7648 114.801L64.4593 115.165C63.3873 114.629 62.6744 114.093 62.4976 113.6C62.5565 113.462 62.634 113.332 62.728 113.214C63.2853 113.883 63.9799 114.424 64.7648 114.801Z" fill="white"/>
<path d="M63.886 116.13C62.7282 115.562 62.3798 114.919 62.3423 114.377C62.7814 114.598 63.1758 114.897 63.5054 115.262C63.7211 115.503 63.8544 115.808 63.886 116.13Z" fill="#DE5753"/>
<path d="M63.5637 104.52C63.5637 104.52 60.3477 111.274 55.9203 110.271C51.493 109.269 60.2083 101.695 60.2083 101.695C60.2083 101.695 68.0715 100.414 70.8801 105.056C73.6887 109.698 68.4359 111.649 68.4359 111.649C68.4359 111.649 69.8295 106.171 63.5637 104.52Z" fill="#263238"/>
<path d="M59.2761 110.089C59.2466 110.088 59.2183 110.078 59.1952 110.059C59.1721 110.041 59.1554 110.016 59.1475 109.988C59.1427 109.971 59.1414 109.953 59.1437 109.935C59.146 109.918 59.1519 109.901 59.1609 109.886C59.1699 109.871 59.182 109.858 59.1963 109.848C59.2105 109.838 59.2268 109.83 59.2439 109.827C62.9959 108.878 63.4891 104.049 63.4944 104C63.4985 103.966 63.5158 103.934 63.5429 103.912C63.5699 103.89 63.6044 103.879 63.6391 103.882C63.6568 103.883 63.6742 103.887 63.6901 103.895C63.706 103.903 63.72 103.914 63.7312 103.928C63.7424 103.942 63.7505 103.958 63.755 103.975C63.7594 103.992 63.7601 104.01 63.7571 104.027C63.7571 104.075 63.2211 109.092 59.3083 110.084L59.2761 110.089Z" fill="#263238"/>
<path d="M63.0979 110.743C63.0979 111.086 62.8889 111.354 62.6638 111.349C62.4386 111.344 62.2564 111.054 62.2725 110.711C62.2886 110.368 62.4815 110.095 62.712 110.106C62.9425 110.116 63.114 110.416 63.0979 110.743Z" fill="#263238"/>
<path d="M62.6152 110.116L63.371 109.853C63.371 109.853 62.9744 110.469 62.6152 110.116Z" fill="#263238"/>
<path d="M67.3645 110.839C67.3645 111.183 67.1501 111.456 66.925 111.445C66.6998 111.434 66.5229 111.15 66.5337 110.807C66.5444 110.464 66.7427 110.196 66.9732 110.207C67.2037 110.218 67.3752 110.496 67.3645 110.839Z" fill="#263238"/>
<path d="M66.876 110.218L67.6317 109.955C67.6317 109.955 67.2351 110.566 66.876 110.218Z" fill="#263238"/>
<path d="M73.3674 128.791C73.3596 128.848 73.3644 128.906 73.3814 128.962C73.3985 129.017 73.4275 129.068 73.4663 129.111C73.5051 129.154 73.5528 129.187 73.6061 129.21C73.6594 129.232 73.717 129.243 73.7748 129.241H78.2558C78.3796 129.236 78.498 129.189 78.5909 129.107C78.6837 129.025 78.7452 128.913 78.765 128.791L79.7619 119.947C79.7751 119.885 79.7748 119.82 79.7612 119.758C79.7475 119.696 79.7207 119.638 79.6826 119.587C79.6446 119.537 79.5961 119.495 79.5404 119.464C79.4847 119.434 79.4232 119.415 79.3599 119.411H74.879C74.7449 119.427 74.6206 119.489 74.5277 119.587C74.4347 119.685 74.3788 119.812 74.3698 119.947L73.3674 128.791Z" fill="#263238"/>
<path opacity="0.5" d="M74.8684 119.888L73.85 128.817C73.8374 128.87 73.8371 128.924 73.8493 128.976C73.8614 129.028 73.8857 129.077 73.9201 129.118C73.9545 129.16 73.9981 129.192 74.0474 129.213C74.0966 129.235 74.1502 129.244 74.2038 129.241H78.004C78.2613 129.241 78.7276 129.101 78.7544 128.85L79.7728 119.888C79.7728 119.636 79.3655 119.432 79.1082 119.432H75.308C75.1904 119.437 75.0793 119.488 74.9976 119.572C74.9159 119.657 74.8697 119.77 74.8684 119.888Z" fill="white"/>
<path d="M82.7583 129.53L80.4214 125.563C80.4398 124.701 80.3733 123.839 80.2231 122.99C80.0194 122.497 77.7307 121.382 77.2804 121.554C76.8302 121.725 76.6694 125.81 77.0767 126.378C77.4841 126.946 78.9152 127.541 78.9152 127.541L78.8187 128.318L80.1855 132.445L82.7583 129.53Z" fill="#E4897B"/>
<path d="M83.6963 129.079L82.9245 128.302L79.2422 132.429L79.7675 134.064L83.6963 129.079Z" fill="#1A61DB"/>
<path d="M65.0327 120.782L64.5664 122.498L65.5151 123.891L67.6163 143.487L73.3675 142.64C72.9709 127.37 72.8315 127.289 70.6125 121.795L65.4615 121.436L65.0327 120.782Z" fill="#1A61DB"/>
<path opacity="0.6" d="M65.0327 120.782L64.5664 122.498L65.5151 123.891L67.6163 143.487L73.3675 142.64C72.9709 127.37 72.8315 127.289 70.6125 121.795L65.4615 121.436L65.0327 120.782Z" fill="white"/>
<path d="M55.6425 120.782L60.7506 122.926L59.4964 125.07L60.7345 145.133L52.9947 147.4C52.9947 147.4 47.3774 132.66 50.2557 123.913L55.3263 122.449L55.6425 120.782Z" fill="#1A61DB"/>
<path opacity="0.6" d="M60.5355 141.938L60.7339 145.117L57.282 146.124L52.994 147.379C51.4097 143.019 50.3027 138.501 49.6923 133.904C49.2796 130.414 49.2903 126.818 50.2551 123.891L55.3256 122.428L55.6419 120.782L60.7499 122.926L59.4957 125.07L59.9888 133.035L60.5355 141.938Z" fill="white"/>
<path opacity="0.2" d="M65.0649 135.672C65.0649 135.672 63.1406 138.476 60.5357 141.938C59.528 143.278 58.3917 144.715 57.2821 146.124L52.9941 147.379C51.4099 143.019 50.3028 138.501 49.6924 133.904C51.7935 131.797 54.3663 129.246 54.3663 129.246C54.3663 129.246 55.5455 132.891 55.0256 136.058L59.9889 133.019L61.5326 132.076L65.0649 135.672Z" fill="black"/>
<path d="M60.873 133.41L66.1848 129.24C66.4925 128.338 66.8706 127.462 67.3158 126.619C67.6374 126.228 72.2952 124.513 72.6758 124.475C73.0563 124.438 72.6758 128.292 72.0915 128.945C71.5073 129.599 67.7607 130.897 67.7607 130.897L62.2077 136.144L60.873 133.41Z" fill="#E4897B"/>
<path d="M50.2552 123.891C47.1356 125.456 45.7474 143.069 51.1664 146.108C56.5853 149.148 64.6736 135.388 64.6736 135.388L61.5272 132.049C61.5272 132.049 54.9344 137.57 54.1412 137.061C53.3479 136.552 54.2484 131.165 54.2484 131.165C54.2484 131.165 55.1756 129.557 53.2246 126.968C51.2736 124.379 50.2552 123.891 50.2552 123.891Z" fill="#1A61DB"/>
<path opacity="0.6" d="M50.2552 123.891C47.1356 125.456 45.7474 143.069 51.1664 146.108C56.5853 149.148 64.6736 135.388 64.6736 135.388L61.5272 132.049C61.5272 132.049 54.9344 137.57 54.1412 137.061C53.3479 136.552 54.2484 131.165 54.2484 131.165C54.2484 131.165 55.1756 129.557 53.2246 126.968C51.2736 124.379 50.2552 123.891 50.2552 123.891Z" fill="white"/>
<path d="M64.7322 136.632L65.6756 136.064L62.1433 130.886L60.8462 131.61L64.7322 136.632Z" fill="#1A61DB"/>
</svg>
