<svg height="512" viewBox="0 0 512 512" width="512" xmlns="http://www.w3.org/2000/svg"><g id="flat"><path d="m322.671 381.329-12.371 12.371a76.135 76.135 0 0 1 -53.837 22.3 76.134 76.134 0 0 1 -54.938-23.425l-11.359-11.837a88.662 88.662 0 0 0 -38.085 76.652l.624 30.61h206.595l.624-30.61a88.662 88.662 0 0 0 -37.253-76.061z" fill="#a6deff"/><path d="m256.463 416a76.135 76.135 0 0 0 53.837-22.3l12.371-12.371a88.7 88.7 0 0 0 -11.68-7.018 51.776 51.776 0 0 1 -28.622-46.311v-16h-52.738v16a51.776 51.776 0 0 1 -28.622 46.311 88.882 88.882 0 0 0 -10.843 6.427l11.359 11.837a76.134 76.134 0 0 0 54.938 23.425z" fill="#a3612d"/><path d="m282.47 331.03c-1.21.47-2.43.91-3.67 1.32a71.96 71.96 0 0 1 -49.26-1.46c.06-.96.09-1.92.09-2.89v-16h52.74v16c0 1.02.03 2.03.1 3.03z" fill="#7a4922"/><path d="m368 160a100.541 100.541 0 0 0 -13.015-89.45l-3.592-5.132a62.434 62.434 0 0 0 -63.393-25.418l-20.544 6.135 75.581 113.6z" fill="#fd9226"/><path d="m189.462 488a60.463 60.463 0 0 1 -3.539-35.11l4.492-22.459a8 8 0 1 1 15.689 3.138l-4.492 22.459a44.351 44.351 0 0 0 3.8 28.394 7.973 7.973 0 0 1 .846 3.578z" fill="#92d1f7"/><path d="m307 488a7.973 7.973 0 0 1 .846-3.578 44.344 44.344 0 0 0 3.8-28.394l-4.492-22.459a8 8 0 0 1 15.69-3.138l4.491 22.459a60.464 60.464 0 0 1 -3.535 35.11z" fill="#92d1f7"/><path d="m240.218 66.63a96 96 0 0 0 -80.218 94.694l5.518 76.213a94 94 0 0 0 37.019 68.163l10.186 7.711a72 72 0 0 0 43.455 14.589 72 72 0 0 0 42.959-14.221l10.445-7.767a94 94 0 0 0 37.729-69.575l4.689-75.113a96 96 0 0 0 -80.218-94.694 96.028 96.028 0 0 0 -31.564 0z" fill="#a3612d"/><g fill="#7a4922"><circle cx="291.408" cy="211" r="13"/><circle cx="213.29" cy="211" r="13"/><path d="m280 192a8 8 0 0 1 -2.529-15.591l13.266-4.423a26.161 26.161 0 0 1 26.92 6.355 8 8 0 1 1 -11.312 11.314 10.259 10.259 0 0 0 -10.548-2.49l-13.266 4.422a7.992 7.992 0 0 1 -2.531.413z"/><path d="m224 192a7.988 7.988 0 0 1 -2.531-.413l-13.269-4.42a10.252 10.252 0 0 0 -10.547 2.49 8 8 0 1 1 -11.312-11.314 26.168 26.168 0 0 1 26.919-6.355l13.267 4.423a8 8 0 0 1 -2.527 15.589z"/><path d="m256 275.979a84.637 84.637 0 0 1 -26.5-4.28 8 8 0 0 1 5-15.2 68.289 68.289 0 0 0 43 0 8 8 0 0 1 5 15.2 84.637 84.637 0 0 1 -26.5 4.28z"/><path d="m264 248h-16a8 8 0 0 1 -8-8v-24a8 8 0 0 1 16 0v16h8a8 8 0 0 1 0 16z"/></g><path d="m354.98 70.55-3.59-5.13a62.422 62.422 0 0 0 -63.39-25.42l-4.92 1.471a61.216 61.216 0 0 0 -34.4-17.089 61.255 61.255 0 0 0 -32.224 4.1l-21.337 8.89a120.265 120.265 0 0 0 -71.679 87.428l-.613 3.068a107.6 107.6 0 0 1 -9.272 27.023l-8.355 16.709a112.7 112.7 0 0 0 0 100.807l6.361 12.723a31.31 31.31 0 0 1 -2.543 32.228c-2.355 3.29-4.922 6.873-7.523 10.5a64.644 64.644 0 0 0 -6.441 64.02l.351.788a63.057 63.057 0 0 0 57.8 37.447 44.067 44.067 0 0 0 43.6-38.6 104.347 104.347 0 0 0 -5.838-49.582l-4.085-10.894a99.576 99.576 0 0 1 -3.367-59.117l2.185-8.742a124.651 124.651 0 0 0 2.018-50.79c-1.387-8.3-2.968-17.744-4.514-26.958a89.639 89.639 0 0 1 22.759-75.8l.8-.867a87.047 87.047 0 0 1 82.033-26l1.268.271a72.586 72.586 0 0 1 38.01 21.182c16.375 17.561 18.423 37.418 23.907 55.617l16.019.167a100.506 100.506 0 0 0 -13.02-89.45z" fill="#fd9226"/><path d="m348.371 152.284 3.209-.184a27.187 27.187 0 0 1 27.187 27.3 27.188 27.188 0 0 1 -22.744 26.709l-7.359 1.223z" fill="#7a4922"/></g></svg>