<svg height="512" viewBox="0 0 512 512" width="512" xmlns="http://www.w3.org/2000/svg"><g id="flat"><circle cx="336" cy="80" fill="#a86e09" r="40"/><path d="m318.968 432h-125.936a74 74 0 0 1 -73.7-80.7l3.566-39.219a658.991 658.991 0 0 0 .607-112.214l-.026-.326a132.94 132.94 0 0 1 132.521-143.541 132.94 132.94 0 0 1 132.517 143.541l-.026.326a658.991 658.991 0 0 0 .607 112.214l3.566 39.219a74 74 0 0 1 -73.696 80.7z" fill="#c7830b"/><path d="m290.177 376.152 8.011-11.486a51.772 51.772 0 0 1 -15.223-36.666v-16h-52.738v16a51.77 51.77 0 0 1 -15.935 37.357l7.531 10.795a42 42 0 0 0 68.354 0z" fill="#fdc9a6"/><path d="m286.22 346.07a77.459 77.459 0 0 1 -29.78 5.93h-.81a74.859 74.859 0 0 1 -28.74-5.73 51.428 51.428 0 0 0 3.34-18.27v-16h52.73v16a51.7 51.7 0 0 0 3.26 18.07z" fill="#f6bb92"/><path d="m311.586 374.311a51.718 51.718 0 0 1 -13.4-9.645l-8.011 11.486a42 42 0 0 1 -68.354 0l-7.531-10.795a51.7 51.7 0 0 1 -12.687 8.954 88.655 88.655 0 0 0 -48.928 83.079l.625 30.61h206.591l.623-30.61a88.655 88.655 0 0 0 -48.928-83.079z" fill="#f9e38e"/><path d="m320.09 454.46a52.127 52.127 0 0 1 -4.5 33.54h-116.73a52.127 52.127 0 0 1 -4.5-33.54l-7.75-70.67a88.8 88.8 0 0 1 14.99-9.48 51.428 51.428 0 0 0 12.69-8.95l2.62 3.76 7.09 70.88h64l7.09-70.88 3.1-4.45a51.681 51.681 0 0 0 13.4 9.64 88.313 88.313 0 0 1 14.45 9.06z" fill="#b5cf7f"/><path d="m320.085 454.459 40.429.931-.623 32.61h-47.891l8.09-33.54" fill="#fdc9a6"/><path d="m176.6 208v55.656a78.127 78.127 0 0 0 22.862 55.223l3.139 3.141a74.979 74.979 0 0 0 53.033 21.98h.805a77.364 77.364 0 0 0 54.794-22.637l2.492-2.493a78.081 78.081 0 0 0 22.875-55.214v-.866a39.455 39.455 0 0 0 -6.433-21.581 29.092 29.092 0 0 0 -23.472-13.063 51.227 51.227 0 0 1 -12.857-2.012 51.234 51.234 0 0 1 -36.444-42.055l-6.5-46.126-1.412 2.091a221.73 221.73 0 0 1 -72.882 67.956z" fill="#fdc9a6"/><g fill="#a86e09"><circle cx="292.016" cy="240" r="13"/><circle cx="221.175" cy="240" r="13"/><path d="m200.6 224a8 8 0 0 1 -5.658-13.657 35.084 35.084 0 0 1 24.967-10.343h4.691a8 8 0 0 1 0 16h-4.687a19.183 19.183 0 0 0 -13.656 5.657 7.976 7.976 0 0 1 -5.657 2.343z"/></g><path d="m144.6 208h8a24 24 0 0 1 24 24 24 24 0 0 1 -24 24h-8a0 0 0 0 1 0 0v-48a0 0 0 0 1 0 0z" fill="#f6bb92" transform="matrix(-1 0 0 -1 321.191 464)"/><path d="m200 454.459-47.404.541.704 33h54.7z" fill="#fdc9a6"/><path d="m259.9 276.038a8 8 0 0 1 -2.092-.279l-12.342-3.336a8 8 0 0 1 -5.9-8.1l1.113-23.348a8 8 0 1 1 15.982.761l-.806 16.923 6.132 1.658a8 8 0 0 1 -2.083 15.725z" fill="#a86e09"/><path d="m254.775 298.537a46.046 46.046 0 0 1 -19.5-4.351 8 8 0 0 1 6.768-14.5 29.929 29.929 0 0 0 26.178-.354l1.327-.664a8 8 0 1 1 7.156 14.31l-1.328.665a46.021 46.021 0 0 1 -20.601 4.894z" fill="#a86e09"/><path d="m320.09 454.46a52.127 52.127 0 0 1 -4.5 33.54h-116.73a52.127 52.127 0 0 1 -4.5-33.54l-7.75-70.67a88.8 88.8 0 0 1 14.99-9.48 51.428 51.428 0 0 0 12.69-8.95l2.62 3.76 7.09 70.88h64l7.09-70.88 3.1-4.45a51.681 51.681 0 0 0 13.4 9.64 88.313 88.313 0 0 1 14.45 9.06z" fill="#6699ce"/></g></svg>