<svg height="512" viewBox="0 0 512 512" width="512" xmlns="http://www.w3.org/2000/svg"><g id="flat"><path d="m256 457.324 14.059-14.059a115.883 115.883 0 0 0 33.626-73.4 51.776 51.776 0 0 1 -21.316-41.865v-16h-50.369v16a51.778 51.778 0 0 1 -23.552 43.4 115.876 115.876 0 0 0 33.493 71.862z" fill="#fdc9a6"/><path d="m282.42 330.26c-.73.27-1.47.52-2.21.77a71.932 71.932 0 0 1 -48.25-1.07c.03-.65.04-1.3.04-1.96v-16h50.37v16c0 .76.02 1.51.05 2.26z" fill="#f6bb92"/><g fill="#d5515e"><path d="m323.45 488h-124.55l-43.68-46.68a88.684 88.684 0 0 1 48.16-67.01 51.624 51.624 0 0 0 5.07-2.91 115.926 115.926 0 0 0 33.49 71.87l14.06 14.05 14.06-14.05a115.879 115.879 0 0 0 33.62-73.41 51.442 51.442 0 0 0 7.31 4.45 88.684 88.684 0 0 1 48.16 67.01z"/><path d="m209.19 425.32v16a8 8 0 0 1 -1.29 4.36l-2.56 3.95a41.3 41.3 0 0 0 -4.56 35.83 8.033 8.033 0 0 1 .41 2.54h-16.37a57.194 57.194 0 0 1 7.1-47.09l1.27-1.96v-13.63a8 8 0 0 1 16 0z"/><path d="m334.81 488h-16.38a8.048 8.048 0 0 1 .42-2.54 41.366 41.366 0 0 0 -4.56-35.83l-2.57-3.95a8 8 0 0 1 -1.29-4.36v-16a8 8 0 0 1 16 0v13.63l1.28 1.96a57.251 57.251 0 0 1 7.1 47.09z"/></g><path d="m349.625 150.776h3.955a27.187 27.187 0 0 1 27.187 27.3 27.189 27.189 0 0 1 -22.744 26.709l-12.023 1.991" fill="none" stroke="#000" stroke-linecap="round" stroke-linejoin="round" stroke-width="16"/><path d="m149.842 64.176 17.084 172.037a94 94 0 0 0 37.019 68.159l10.186 7.711a71.994 71.994 0 0 0 43.454 14.593 72 72 0 0 0 42.959-14.221l10.445-7.767a94 94 0 0 0 37.728-69.575l2.194-171.113z" fill="#fdc9a6"/><g fill="#7a4922"><circle cx="293.408" cy="178.776" r="12"/><circle cx="215.29" cy="178.776" r="12"/><path d="m256 262.613a30.532 30.532 0 0 1 -21.656-8.956 8 8 0 1 1 11.312-11.314 14.646 14.646 0 0 0 20.688 0 8 8 0 1 1 11.312 11.314 30.532 30.532 0 0 1 -21.656 8.956z"/></g><path d="m267.367 69.75 16.241 35.4a98.589 98.589 0 0 0 46.889 47.74l1.218.585a26.876 26.876 0 0 1 14.178 32.476q-.294.916-.592 1.844a109.011 109.011 0 0 0 1.061 69.753l.287.809a94.531 94.531 0 0 1 1.321 59.5c-5.205 16.912-10.671 34.749-10.671 34.749h61.583l7.86-47.879a95.181 95.181 0 0 0 -2.951-43.415l-3.583-11.642a71.567 71.567 0 0 1 .128-42.5 107.322 107.322 0 0 0 -15.836-95.64l-1.154-1.574a83.589 83.589 0 0 1 -15.456-38.443 48.262 48.262 0 0 0 -27.183-37.273 48.268 48.268 0 0 0 -32.977-3.048l-39.32 10.376z" fill="#ee9d0d"/><path d="m273.631 76.689-35.785-8.2a54.457 54.457 0 0 0 -59.758 27 54.456 54.456 0 0 0 -4.381 41.775l8.989 29.961a100.666 100.666 0 0 1 .372 56.581 100.671 100.671 0 0 0 0 55.31l1.864 6.525a100.664 100.664 0 0 1 2.5 44.2l-4.269 25.616h-64l3.267-16.336a77.7 77.7 0 0 0 -4.774-45.846l-1.376-3.21a77.707 77.707 0 0 1 0-61.216 77.7 77.7 0 0 0 3.293-51.955l-12.525-43.837a77.7 77.7 0 0 1 17.222-73.618 108.255 108.255 0 0 1 120.963-27.427l24.556 10.009z" fill="#ee9d0d"/><path d="m200 160a8 8 0 0 1 -5.657-13.657 35.08 35.08 0 0 1 24.97-10.343h4.687a8 8 0 0 1 0 16h-4.687a19.185 19.185 0 0 0 -13.656 5.657 7.974 7.974 0 0 1 -5.657 2.343z" fill="#7a4922"/><path d="m312 160a7.974 7.974 0 0 1 -5.657-2.343 19.185 19.185 0 0 0 -13.656-5.657h-4.687a8 8 0 0 1 0-16h4.687a35.08 35.08 0 0 1 24.97 10.343 8 8 0 0 1 -5.657 13.657z" fill="#7a4922"/><path d="m248 232a7.974 7.974 0 0 1 -5.657-2.343l-8-8a8 8 0 0 1 0-11.314 19.187 19.187 0 0 0 5.657-13.656v-4.687a8 8 0 0 1 16 0v4.687a35.077 35.077 0 0 1 -5.326 18.673l2.983 2.983a8 8 0 0 1 -5.657 13.657z" fill="#7a4922"/><path d="m192 441.32v46.68h-36.93l-.62-30.61c-.05-1.27-.08-2.54-.08-3.8a89.263 89.263 0 0 1 .85-12.27z" fill="#fdc9a6"/><path d="m209.19 425.32v16a8 8 0 0 1 -1.29 4.36l-2.56 3.95a41.3 41.3 0 0 0 -4.56 35.83 8.033 8.033 0 0 1 .41 2.54h-16.37a57.194 57.194 0 0 1 7.1-47.09l1.27-1.96v-13.63a8 8 0 0 1 16 0z" fill="#c34a56"/><path d="m359.92 457.39-.62 30.61h-31.3l-8-46.68h39.15a89.443 89.443 0 0 1 .77 16.07z" fill="#fdc9a6"/><path d="m334.81 488h-16.38a8.048 8.048 0 0 1 .42-2.54 41.366 41.366 0 0 0 -4.56-35.83l-2.57-3.95a8 8 0 0 1 -1.29-4.36v-16a8 8 0 0 1 16 0v13.63l1.28 1.96a57.251 57.251 0 0 1 7.1 47.09z" fill="#c34a56"/></g></svg>