<svg height="512" viewBox="0 0 512 512" width="512" xmlns="http://www.w3.org/2000/svg"><g id="flat"><path d="m176.9 392a88.661 88.661 0 0 0 -24.888 63.067c.013.773 46.026 32.933 46.026 32.933h117.162s44.792-32.865 44.8-33.989a88.659 88.659 0 0 0 -24.9-62.011z" fill="#dcdbd6"/><path d="m304 64 29.444-25.238a52.678 52.678 0 0 1 57.84-7.12 52.677 52.677 0 0 1 28.816 52.728l-16.225 151.465a204.676 204.676 0 0 0 4.947 71.451l7.178 28.714a113.918 113.918 0 0 1 -83.472-57.45l-12.528-22.55z" fill="#6a6c65"/><path d="m367.76 214.3-38.68 58.04-9.08-16.34-16-192 3.85-3.3a103.564 103.564 0 0 1 75.3 87.2 96.684 96.684 0 0 1 -15.39 66.4z" fill="#4a4b46"/><circle cx="360" cy="96" fill="#92d1f7" r="16"/><circle cx="344" cy="80" fill="#5ebef7" r="16"/><circle cx="320" cy="64" fill="#92d1f7" r="16"/><path d="m301.267 368a51.781 51.781 0 0 1 -18.9-40v-16h-52.736v16a51.77 51.77 0 0 1 -13.631 35.012l8 20.988h64z" fill="#fdc9a6"/><path d="m285.63 346.09c-.02.01-.05.02-.07.03a77.236 77.236 0 0 1 -59.19-.03 51.769 51.769 0 0 0 3.26-18.09v-16h52.74v16a51.769 51.769 0 0 0 3.26 18.09z" fill="#f6bb92"/><path d="m360.017 454.184-40.528.275a52.134 52.134 0 0 1 -4.489 33.541h44.3z" fill="#fdc9a6"/><path d="m268.415 57h-24.83a103.548 103.548 0 0 0 -102.772 90.9 96.681 96.681 0 0 0 15.387 66.4l43.8 65.7h112l43.8-65.7a96.681 96.681 0 0 0 15.389-66.4 103.548 103.548 0 0 0 -102.774-90.9z" fill="#6a6c65"/><path d="m256 208a77.254 77.254 0 0 1 -54.627-22.627l-9.373-9.373-16 32v55.656a78.084 78.084 0 0 0 22.87 55.214l2.5 2.5a77.254 77.254 0 0 0 54.63 22.63 77.254 77.254 0 0 0 54.627-22.627l2.5-2.5a78.084 78.084 0 0 0 22.873-55.217v-55.656l-24-32v32a64 64 0 0 1 -51.2-25.6l-4.8-6.4z" fill="#fdc9a6"/><path d="m317.66 221.66a8.015 8.015 0 0 1 -11.32 0 19.185 19.185 0 0 0 -13.65-5.66h-4.69a7.995 7.995 0 0 1 -4.42-14.66 63.879 63.879 0 0 0 28.42 6.66v-2.26a34.744 34.744 0 0 1 5.66 4.6 8.015 8.015 0 0 1 0 11.32z" fill="#fdc9a6"/><g fill="#4a4b46"><circle cx="291.42" cy="243" r="13"/><path d="m256 280.384a7.976 7.976 0 0 1 -5.657-2.343l-8-8a8 8 0 0 1 0-11.314 19.2 19.2 0 0 0 4.043-5.928 8 8 0 1 1 14.663 6.4 35.362 35.362 0 0 1 -2.383 4.535l2.991 2.991a8 8 0 0 1 -5.657 13.659z"/><path d="m317.66 221.66a8.015 8.015 0 0 1 -11.32 0 19.185 19.185 0 0 0 -13.65-5.66h-4.69a7.995 7.995 0 0 1 -4.42-14.66 63.879 63.879 0 0 0 28.42 6.66v-2.26a34.744 34.744 0 0 1 5.66 4.6 8.015 8.015 0 0 1 0 11.32z"/><circle cx="220.58" cy="243" r="13"/><path d="m200 224a8 8 0 0 1 -5.657-13.657 35.085 35.085 0 0 1 24.97-10.343h4.687a8 8 0 0 1 0 16h-4.687a19.187 19.187 0 0 0 -13.656 5.657 7.976 7.976 0 0 1 -5.657 2.343z"/><path d="m249.373 304h-1.373a8 8 0 0 1 0-16h1.373a46.321 46.321 0 0 0 32.97-13.656 8 8 0 1 1 11.314 11.312 62.214 62.214 0 0 1 -44.284 18.344z"/></g><path d="m336 208h8a24 24 0 0 1 24 24 24 24 0 0 1 -24 24h-8a0 0 0 0 1 0 0v-48a0 0 0 0 1 0 0z" fill="#f6bb92"/><path d="m144 208h8a24 24 0 0 1 24 24 24 24 0 0 1 -24 24h-8a0 0 0 0 1 0 0v-48a0 0 0 0 1 0 0z" fill="#f6bb92" transform="matrix(-1 0 0 -1 320 464)"/><path d="m272.4 416 15.6 40a23.428 23.428 0 0 1 -30.136-16.543l-1.864-7.457z" fill="#cb2527"/><path d="m288 384h-64l32 48z" fill="#005dbb"/><path d="m198.26 488a52.135 52.135 0 0 1 -4.492-33.541l-41.768.541.705 33z" fill="#fdc9a6"/><path d="m239.6 416-15.6 40a23.428 23.428 0 0 0 30.136-16.543l1.864-7.457z" fill="#cb2527"/><path d="m336 392a96.57 96.57 0 0 1 -63.6 37.657l-16.4 2.343 40-72 .073.08a165.123 165.123 0 0 0 39.927 31.92z" fill="#0a71cd"/><path d="m321.13 382.41a7.518 7.518 0 0 1 -.5.75l-32.43 42.86a96.4 96.4 0 0 1 -15.8 3.64l-7.88 1.12 43.35-57.28a6.963 6.963 0 0 1 .89-.98q5.94 5.25 12.37 9.89z" fill="#eae9e4"/><path d="m176 392a95.146 95.146 0 0 0 47.755 34.012c7.585 2.349 3.183-1.417 15.677 1.864l8.035 2.905 8.533 1.219-40-72-.073.08a165.123 165.123 0 0 1 -39.927 31.92z" fill="#0a71cd"/><path d="m190.87 382.41a7.518 7.518 0 0 0 .5.75l32.43 42.86a96.4 96.4 0 0 0 15.8 3.64l7.88 1.12-43.35-57.28a6.963 6.963 0 0 0 -.89-.98q-5.94 5.25-12.37 9.89z" fill="#eae9e4"/></g></svg>