<svg height="512" viewBox="0 0 512 512" width="512" xmlns="http://www.w3.org/2000/svg"><g id="flat"><path d="m256 48a78.5 78.5 0 0 1 93.147 24.292 166.793 166.793 0 0 1 32.913 125.285l-6.06 42.423-6.083 42.584a52.9 52.9 0 0 1 -10.048 24.257 52.9 52.9 0 0 1 -42.317 21.159h-13.552l-96-8-3.1 6.2a108.629 108.629 0 0 1 -36.9 41.8h-32v-54.061a181.134 181.134 0 0 0 -3.518-35.529l-14.19-70.952a165.366 165.366 0 0 1 28.8-130.223l2.592-3.533a84.8 84.8 0 0 1 106.316-25.702z" fill="#a3612d"/><path d="m334.6 207.92h10a24 24 0 0 1 24 24 24 24 0 0 1 -24 24h-10a0 0 0 0 1 0 0v-48a0 0 0 0 1 0 0z" fill="#f6bb92"/><path d="m256 416a38.832 38.832 0 0 0 34.733-21.466l12.693-25.387a51.775 51.775 0 0 1 -20.461-41.227v-16h-52.738v16a51.779 51.779 0 0 1 -21.327 41.873l12.371 24.741a38.832 38.832 0 0 0 34.729 21.466z" fill="#fdc9a6"/><path d="m286.25 346.08c-.03.01-.06.03-.09.04a77.251 77.251 0 0 1 -59.22-.04 51.723 51.723 0 0 0 3.29-18.16v-16h52.73v16a51.723 51.723 0 0 0 3.29 18.16z" fill="#f6bb92"/><path d="m176.6 263.576a78.084 78.084 0 0 0 22.87 55.215l2.5 2.5a77.255 77.255 0 0 0 54.63 22.629 77.254 77.254 0 0 0 54.627-22.627l2.5-2.5a78.085 78.085 0 0 0 22.873-55.217v-89.176a58 58 0 0 0 -35.357-53.4l-.134-.057a34 34 0 0 0 -37.315 7.26l-7.794 7.797-10.343-10.343a8 8 0 0 0 -13.657 5.657v77.28a54.983 54.983 0 0 1 -55.4 54.982z" fill="#fdc9a6"/><path d="m234.18 242.92a13 13 0 0 1 -22.77 8.57 55.093 55.093 0 0 0 15.68-20.15 12.994 12.994 0 0 1 7.09 11.58z" fill="#fdc9a6"/><g fill="#5b3719"><circle cx="292.016" cy="242.92" r="13"/><path d="m312.6 223.92a7.978 7.978 0 0 1 -5.658-2.343 19.183 19.183 0 0 0 -13.656-5.657h-4.686a8 8 0 0 1 0-16h4.686a35.082 35.082 0 0 1 24.971 10.343 8 8 0 0 1 -5.657 13.657z"/><path d="m234.18 242.92a13 13 0 0 1 -22.77 8.57 55.093 55.093 0 0 0 15.68-20.15 12.994 12.994 0 0 1 7.09 11.58z"/><path d="m256.6 280.3a7.982 7.982 0 0 1 -5.658-2.343l-8-8a8 8 0 0 1 0-11.315l.074-.073a14.232 14.232 0 0 0 3.88-8.531l1.153-10.885a8 8 0 1 1 15.91 1.686l-1.159 10.888a31.044 31.044 0 0 1 -3.694 11.775l3.145 3.144a8 8 0 0 1 -5.651 13.654z"/><path d="m256 303.976a43.812 43.812 0 0 1 -19.578-4.6 8 8 0 0 1 7.156-14.311 27.91 27.91 0 0 0 24.844 0 8 8 0 0 1 7.156 14.311 43.812 43.812 0 0 1 -19.578 4.6z"/></g><g fill="#f7a014"><path d="m311.586 374.231a51.775 51.775 0 0 1 -8.16-5.084l-12.693 25.387a38.833 38.833 0 0 1 -69.466 0l-12.367-24.741a51.782 51.782 0 0 1 -7.291 4.438 88.656 88.656 0 0 0 -48.928 83.08l.623 30.609h206.587l.623-30.609a88.656 88.656 0 0 0 -48.928-83.08z"/><path d="m215.89 487.92h-16.3l-7.44-38.4a8 8 0 0 1 15.7-3.04z"/><path d="m319.85 449.53-7.49 38.39h-16.3l8.09-41.45a8 8 0 0 1 15.7 3.06z"/></g><path d="m319.85 449.53-7.49 38.39h-16.3l8.09-41.45a8 8 0 0 1 15.7 3.06z" fill="#ffc864"/><path d="m215.89 487.92h-16.3l-7.44-38.4a8 8 0 0 1 15.7-3.04z" fill="#ffc864"/><path d="m136 368-2.853 17.119a399 399 0 0 1 -15.047 60.581l-14.1 42.3 49.3-.08 4.55-19.784a399.005 399.005 0 0 0 10.15-89.425v-10.711z" fill="#a3612d"/><path d="m168 376h-3.155a102.942 102.942 0 0 1 -57.283-17.344 8 8 0 1 1 8.876-13.312 86.994 86.994 0 0 0 48.407 14.656h3.155a8 8 0 0 1 0 16z" fill="#91a666"/></g></svg>