<svg width="286" height="213" viewBox="0 0 286 213" fill="none" xmlns="http://www.w3.org/2000/svg">
<path d="M285.183 186.738H0V186.881H285.183V186.738Z" fill="#719DE9"/>
<path d="M247.083 195.681H221.497V195.824H247.083V195.681Z" fill="#719DE9"/>
<path d="M217.743 195.681H212.787V195.824H217.743V195.681Z" fill="#719DE9"/>
<path d="M170.722 193.714H159.68V193.856H170.722V193.714Z" fill="#719DE9"/>
<path d="M70.7943 193.639H46.1602V193.782H70.7943V193.639Z" fill="#719DE9"/>
<path d="M41.0836 193.639H37.4731V193.782H41.0836V193.639Z" fill="#719DE9"/>
<path d="M161.403 190.263H107.971V190.406H161.403V190.263Z" fill="#719DE9"/>
<path d="M135.177 161.3H25.045C24.1823 161.298 23.3554 160.954 22.7458 160.344C22.1363 159.733 21.7939 158.906 21.7939 158.043V3.22828C21.8015 2.37046 22.1471 1.55024 22.7558 0.945792C23.3646 0.341341 24.1872 0.00146949 25.045 0H135.177C136.041 0 136.869 0.343126 137.48 0.953893C138.091 1.56466 138.434 2.39304 138.434 3.25679V158.043C138.434 158.907 138.091 159.735 137.48 160.346C136.869 160.957 136.041 161.3 135.177 161.3ZM25.045 0.114074C24.2201 0.115585 23.4294 0.444353 22.8466 1.02822C22.2639 1.61208 21.9365 2.40332 21.9365 3.22828V158.043C21.9365 158.868 22.2639 159.659 22.8466 160.243C23.4294 160.827 24.2201 161.156 25.045 161.157H135.177C136.003 161.156 136.794 160.827 137.378 160.243C137.961 159.66 138.29 158.868 138.291 158.043V3.22828C138.29 2.4028 137.961 1.61157 137.378 1.02787C136.794 0.444168 136.003 0.115581 135.177 0.114074H25.045Z" fill="#719DE9"/>
<path d="M258.553 161.3H148.415C147.552 161.298 146.724 160.955 146.114 160.344C145.503 159.734 145.16 158.906 145.158 158.043V3.22828C145.167 2.36994 145.514 1.54973 146.124 0.945436C146.733 0.341141 147.557 0.00145346 148.415 0H258.553C259.41 0.00296847 260.231 0.343503 260.838 0.947794C261.446 1.55209 261.791 2.37144 261.798 3.22828V158.043C261.798 158.905 261.457 159.731 260.848 160.342C260.24 160.952 259.415 161.297 258.553 161.3ZM148.415 0.114074C147.59 0.115581 146.798 0.444168 146.215 1.02787C145.631 1.61157 145.302 2.4028 145.301 3.22828V158.043C145.302 158.868 145.631 159.66 146.215 160.243C146.798 160.827 147.59 161.156 148.415 161.157H258.553C259.378 161.156 260.17 160.827 260.753 160.243C261.337 159.66 261.666 158.868 261.667 158.043V3.22828C261.666 2.4028 261.337 1.61157 260.753 1.02787C260.17 0.444168 259.378 0.115581 258.553 0.114074H148.415Z" fill="#719DE9"/>
<path d="M134.065 35.9957H65.8716V186.806H134.065V35.9957Z" fill="#E6E6E6"/>
<path d="M134.065 35.9957H69.106V186.806H134.065V35.9957Z" fill="#C3D6F6"/>
<path d="M130.643 183.384V39.4181L72.5279 39.4181V183.384H130.643Z" fill="#EBEBEB"/>
<path d="M130.643 183.39V39.4238H129.753V183.39H130.643Z" fill="#E6E6E6"/>
<path d="M122.88 108.085C124.49 108.085 125.794 106.78 125.794 105.17C125.794 103.56 124.49 102.255 122.88 102.255C121.27 102.255 119.965 103.56 119.965 105.17C119.965 106.78 121.27 108.085 122.88 108.085Z" fill="#E6E6E6"/>
<path d="M124.021 107.48C125.63 107.48 126.935 106.175 126.935 104.565C126.935 102.956 125.63 101.651 124.021 101.651C122.411 101.651 121.106 102.956 121.106 104.565C121.106 106.175 122.411 107.48 124.021 107.48Z" fill="#FAFAFA"/>
<path d="M241.413 17.4304H164.015V133.272H241.413V17.4304Z" fill="#719DE9"/>
<path d="M243.13 17.4304H165.731V133.272H243.13V17.4304Z" fill="#C3D6F6"/>
<path d="M240.045 129.804V20.8983L168.823 20.8983V129.804H240.045Z" fill="#FAFAFA"/>
<path d="M240.045 129.804V20.8983H238.744V129.804H240.045Z" fill="#719DE9"/>
<path d="M241.853 54.8522H167.009V59.5064H241.853V54.8522Z" fill="#C3D6F6"/>
<path d="M246.496 11.6925H160.65C160.524 11.6925 160.404 11.7424 160.315 11.8312C160.226 11.9199 160.176 12.0404 160.176 12.1659C160.176 12.292 160.226 12.413 160.315 12.5027C160.403 12.5924 160.524 12.6435 160.65 12.645H246.496C246.622 12.6435 246.743 12.5926 246.833 12.5031C246.922 12.4135 246.973 12.2925 246.975 12.1659C246.973 12.0398 246.922 11.9194 246.832 11.8308C246.743 11.7422 246.622 11.6925 246.496 11.6925Z" fill="#719DE9"/>
<path d="M249.347 12.1658C249.348 12.6365 249.21 13.0969 248.949 13.4888C248.688 13.8806 248.317 14.1864 247.883 14.3673C247.448 14.5482 246.97 14.5961 246.508 14.5049C246.047 14.4138 245.622 14.1877 245.289 13.8553C244.956 13.5229 244.729 13.0992 244.636 12.6376C244.544 12.1761 244.591 11.6976 244.771 11.2627C244.951 10.8277 245.256 10.4559 245.647 10.1943C246.038 9.93273 246.498 9.79309 246.969 9.79309C247.599 9.79309 248.203 10.0429 248.649 10.4877C249.094 10.9325 249.346 11.536 249.347 12.1658Z" fill="#719DE9"/>
<path d="M164.653 14.8295C164.484 14.828 164.321 14.7594 164.201 14.6387C164.082 14.518 164.015 14.3549 164.015 14.185V12.8104C164.015 12.6405 164.082 12.4774 164.201 12.3567C164.321 12.236 164.484 12.1674 164.653 12.1659C164.824 12.1674 164.987 12.2358 165.108 12.3563C165.228 12.4769 165.296 12.6399 165.298 12.8104V14.185C165.296 14.3555 165.228 14.5185 165.108 14.6391C164.987 14.7596 164.824 14.828 164.653 14.8295Z" fill="#719DE9"/>
<path d="M239.332 14.8295C239.161 14.828 238.998 14.7596 238.877 14.6391C238.757 14.5185 238.689 14.3555 238.687 14.185V12.8104C238.689 12.6399 238.757 12.4769 238.877 12.3563C238.998 12.2358 239.161 12.1674 239.332 12.1659C239.501 12.1674 239.664 12.236 239.784 12.3567C239.903 12.4774 239.97 12.6405 239.97 12.8104V14.185C239.97 14.3549 239.903 14.518 239.784 14.6387C239.664 14.7594 239.501 14.828 239.332 14.8295Z" fill="#719DE9"/>
<path opacity="0.4" d="M246.347 12.1659H167.009V45.4354H246.347V12.1659Z" fill="#719DE9"/>
<path d="M174.675 12.1658C174.676 12.6365 174.538 13.0969 174.277 13.4888C174.017 13.8806 173.646 14.1864 173.211 14.3673C172.777 14.5482 172.298 14.5961 171.836 14.5049C171.375 14.4138 170.95 14.1877 170.617 13.8553C170.284 13.5229 170.057 13.0992 169.965 12.6376C169.872 12.1761 169.919 11.6976 170.099 11.2627C170.279 10.8277 170.584 10.4559 170.975 10.1943C171.366 9.93273 171.826 9.79309 172.297 9.79309C172.927 9.79309 173.531 10.0429 173.977 10.4877C174.423 10.9325 174.674 11.536 174.675 12.1658Z" fill="#719DE9"/>
<path d="M176.106 150.719H160.832V184.593H176.106V150.719Z" fill="#E6E6E6"/>
<path d="M239.109 184.594H163.77V186.738H239.109V184.594Z" fill="#E6E6E6"/>
<path d="M176.106 184.594H242.035V150.719H176.106V184.594Z" fill="#C3D6F6"/>
<path d="M182.113 166H236.029V154.889H182.113V166Z" fill="#E6E6E6"/>
<path d="M182.113 180.418H236.029V169.308H182.113V180.418Z" fill="#E6E6E6"/>
<path d="M215.946 159.68H202.206C201.835 159.68 201.533 159.981 201.533 160.353V160.53C201.533 160.901 201.835 161.203 202.206 161.203H215.946C216.318 161.203 216.619 160.901 216.619 160.53V160.353C216.619 159.981 216.318 159.68 215.946 159.68Z" fill="#C3D6F6"/>
<path d="M215.946 174.104H202.206C201.835 174.104 201.533 174.406 201.533 174.777V174.954C201.533 175.326 201.835 175.627 202.206 175.627H215.946C216.318 175.627 216.619 175.326 216.619 174.954V174.777C216.619 174.406 216.318 174.104 215.946 174.104Z" fill="#C3D6F6"/>
<path d="M195.134 145.723C196.992 145.723 198.499 144.216 198.499 142.358C198.499 140.499 196.992 138.993 195.134 138.993C193.275 138.993 191.769 140.499 191.769 142.358C191.769 144.216 193.275 145.723 195.134 145.723Z" fill="#C3D6F6"/>
<path d="M200.427 145.09C202.285 145.09 203.792 143.583 203.792 141.725C203.792 139.866 202.285 138.36 200.427 138.36C198.568 138.36 197.062 139.866 197.062 141.725C197.062 143.583 198.568 145.09 200.427 145.09Z" fill="#C3D6F6"/>
<path d="M220.076 143.282C220.076 143.947 219.879 144.598 219.509 145.151C219.139 145.705 218.614 146.136 217.999 146.391C217.384 146.646 216.707 146.712 216.054 146.582C215.402 146.453 214.802 146.132 214.331 145.661C213.861 145.191 213.54 144.591 213.41 143.938C213.281 143.286 213.347 142.609 213.602 141.994C213.857 141.379 214.288 140.854 214.841 140.484C215.395 140.114 216.045 139.917 216.711 139.917C217.603 139.917 218.459 140.271 219.09 140.902C219.721 141.533 220.076 142.389 220.076 143.282Z" fill="#C3D6F6"/>
<path d="M211.39 144.833C211.391 145.5 211.194 146.153 210.824 146.708C210.454 147.263 209.928 147.696 209.311 147.952C208.695 148.208 208.017 148.275 207.363 148.145C206.708 148.015 206.107 147.694 205.635 147.222C205.163 146.751 204.842 146.15 204.712 145.495C204.583 144.841 204.65 144.162 204.906 143.546C205.161 142.93 205.594 142.404 206.15 142.034C206.705 141.664 207.357 141.467 208.025 141.468C208.917 141.468 209.773 141.823 210.404 142.454C211.035 143.085 211.39 143.941 211.39 144.833Z" fill="#C3D6F6"/>
<path d="M185.369 142.974C185.369 142.974 185.94 150.719 206.815 150.719C227.69 150.719 228.261 142.974 228.261 142.974H185.369Z" fill="#E6E6E6"/>
<path d="M35.2489 138.787H24.8511V183.881H35.2489V138.787Z" fill="#E6E6E6"/>
<path d="M78.1231 183.881H26.8472V186.738H78.1231V183.881Z" fill="#E6E6E6"/>
<path d="M35.243 183.881H80.1138V138.787H35.243L35.243 183.881Z" fill="#C3D6F6"/>
<path d="M39.3381 159.132H76.0298V144.343H39.3381V159.132Z" fill="#E6E6E6"/>
<path d="M39.3381 178.331H76.0298V163.541H39.3381V178.331Z" fill="#E6E6E6"/>
<path d="M61.7989 152.75H53.5628C53.428 152.75 53.2946 152.723 53.1702 152.671C53.0459 152.619 52.9333 152.543 52.8388 152.446C52.7443 152.35 52.6698 152.236 52.6198 152.111C52.5698 151.986 52.5452 151.852 52.5475 151.718C52.5475 151.448 52.6545 151.19 52.8449 151C53.0353 150.809 53.2935 150.702 53.5628 150.702H61.7989C62.0681 150.702 62.3264 150.809 62.5168 151C62.7071 151.19 62.8141 151.448 62.8141 151.718C62.8164 151.852 62.7918 151.986 62.7418 152.111C62.6918 152.236 62.6174 152.35 62.5229 152.446C62.4284 152.543 62.3157 152.619 62.1914 152.671C62.0671 152.723 61.9336 152.75 61.7989 152.75Z" fill="#C3D6F6"/>
<path d="M61.7992 171.948H53.5631C53.2938 171.948 53.0356 171.841 52.8452 171.651C52.6548 171.461 52.5479 171.202 52.5479 170.933C52.5494 170.665 52.657 170.408 52.8472 170.219C53.0375 170.03 53.2948 169.924 53.5631 169.924H61.7992C62.0675 169.924 62.3249 170.03 62.5151 170.219C62.7053 170.408 62.8129 170.665 62.8145 170.933C62.8145 171.202 62.7075 171.461 62.5171 171.651C62.3267 171.841 62.0685 171.948 61.7992 171.948Z" fill="#C3D6F6"/>
<path d="M55.531 130.118C55.531 130.118 46.9755 115.34 58.8562 103.573C58.8562 103.573 61.959 105.592 61.9134 108.313C61.8678 111.033 58.5882 111.735 59.2897 114.016C59.9913 116.298 63.0884 118.516 61.0579 120.393C59.0273 122.269 61.383 123.941 61.2461 126.239C61.1092 128.538 55.531 130.118 55.531 130.118Z" fill="#C3D6F6"/>
<path d="M43.0454 127.762C43.0454 127.762 43.3306 138.787 54.2645 138.787C65.1985 138.787 65.4779 127.762 65.4779 127.762H43.0454Z" fill="#E6E6E6"/>
<path d="M56.1809 131.47C56.1809 131.47 59.6602 114.741 44.6595 107.326C44.6595 107.326 42.3781 110.223 43.2564 112.79C44.1348 115.357 47.4828 114.975 47.5342 117.353C47.5855 119.731 45.344 122.817 47.865 123.958C50.386 125.099 48.6749 127.431 49.5305 129.57C50.386 131.709 56.1809 131.47 56.1809 131.47Z" fill="#E6E6E6"/>
<path d="M51.0078 48.9888H33.8911V92.0458H51.0078V48.9888Z" fill="#719DE9"/>
<path d="M54.4704 48.9888H36.3042V92.0458H54.4704V48.9888Z" fill="#C3D6F6"/>
<path d="M51.7041 89.2796V51.7551H39.0705V89.2796H51.7041Z" fill="#FAFAFA"/>
<path d="M142.591 212.496C203.668 212.496 253.18 209.605 253.18 206.039C253.18 202.473 203.668 199.583 142.591 199.583C81.5151 199.583 32.0029 202.473 32.0029 206.039C32.0029 209.605 81.5151 212.496 142.591 212.496Z" fill="#F5F5F5"/>
<path d="M209.13 80.0739C209.039 81.6766 208.845 83.1482 208.628 84.6768C208.412 86.2053 208.098 87.6883 207.767 89.1827C207.088 92.2315 206.08 95.1977 204.761 98.029C204.296 98.9194 203.656 99.7069 202.879 100.345C202.242 100.887 201.563 101.379 200.849 101.816C199.516 102.632 198.127 103.351 196.691 103.967C193.903 105.161 191.028 106.14 188.09 106.893L187.382 104.776C188.694 104.206 190.04 103.573 191.341 102.928C192.641 102.284 193.942 101.634 195.185 100.927C196.414 100.253 197.601 99.5042 198.738 98.685C199.262 98.3092 199.758 97.8955 200.221 97.4473C200.576 97.1229 200.868 96.7362 201.083 96.3065C201.604 95.0309 202.051 93.7264 202.423 92.3995C202.788 91.0363 203.124 89.6618 203.41 88.2644C203.695 86.867 203.923 85.4525 204.128 84.0322C204.334 82.612 204.499 81.1804 204.625 79.8115L209.13 80.0739Z" fill="#E58A7B"/>
<path d="M206.056 74.7181C204.237 75.1801 202.965 82.669 202.965 82.669L207.978 86.0912C207.978 86.0912 212.787 78.5396 211.401 76.5433C209.929 74.4158 208.714 74.0166 206.056 74.7181Z" fill="#1A61DB"/>
<path opacity="0.5" d="M206.056 74.7181C204.237 75.1801 202.965 82.669 202.965 82.669L207.978 86.0912C207.978 86.0912 212.787 78.5396 211.401 76.5433C209.929 74.4158 208.714 74.0166 206.056 74.7181Z" fill="black"/>
<path d="M206.222 76.3665L204.824 83.9124L207.642 85.8231L206.222 76.3665Z" fill="#1A61DB"/>
<path opacity="0.7" d="M206.222 76.3665L204.824 83.9124L207.642 85.8231L206.222 76.3665Z" fill="black"/>
<path d="M188.415 104.662L185.283 101.491L184.873 105.963C184.873 105.963 187.217 107.548 188.865 106.699L188.415 104.662Z" fill="#E58A7B"/>
<path d="M181.599 101.018L181.457 104.776L184.873 105.963L185.284 101.491L181.599 101.018Z" fill="#E58A7B"/>
<path d="M215.901 200.701H211.487L211.19 190.48H215.605L215.901 200.701Z" fill="#E58A7B"/>
<path d="M254.851 180.202L251.486 183.059L243.786 176.186L247.151 173.329L254.851 180.202Z" fill="#E58A7B"/>
<path d="M250.568 182.717L253.813 178.981C253.867 178.915 253.944 178.871 254.028 178.858C254.112 178.846 254.198 178.865 254.269 178.913L257.595 181.069C257.677 181.126 257.745 181.199 257.797 181.285C257.848 181.371 257.881 181.466 257.893 181.565C257.905 181.664 257.895 181.765 257.866 181.86C257.836 181.955 257.786 182.043 257.72 182.118C256.579 183.401 255.935 183.96 254.503 185.603C253.619 186.613 252.433 188.181 251.218 189.596C250.003 191.01 248.554 189.858 248.936 189.168C250.648 186.076 250.237 184.987 250.265 183.464C250.272 183.187 250.379 182.921 250.568 182.717Z" fill="#263238"/>
<path d="M211.332 200.199H216.295C216.38 200.198 216.463 200.228 216.528 200.284C216.593 200.339 216.636 200.417 216.648 200.501L217.219 204.425C217.229 204.524 217.218 204.624 217.188 204.719C217.157 204.813 217.106 204.9 217.04 204.974C216.973 205.048 216.891 205.107 216.8 205.147C216.709 205.187 216.611 205.207 216.511 205.207C214.8 205.207 213.945 205.076 211.766 205.076C210.425 205.076 207.648 205.218 205.8 205.218C203.952 205.218 203.843 203.382 204.619 203.216C208.076 202.475 209.439 201.448 210.602 200.467C210.808 200.298 211.066 200.203 211.332 200.199Z" fill="#263238"/>
<path d="M211.19 190.485L211.344 195.756H215.759L215.61 190.485H211.19Z" fill="#CF6F64"/>
<path d="M247.157 173.329L243.792 176.186L247.761 179.728L251.126 176.871L247.157 173.329Z" fill="#CF6F64"/>
<path d="M206.057 74.718C206.057 74.718 203.958 75.4595 208.167 101.36H226.094C225.791 94.0649 225.786 89.5647 229.27 74.5869C226.762 74.0657 224.219 73.7283 221.662 73.5773C218.95 73.3803 216.228 73.3803 213.517 73.5773C210.021 73.8853 206.057 74.718 206.057 74.718Z" fill="#1A61DB"/>
<path opacity="0.5" d="M206.057 74.718C206.057 74.718 203.958 75.4595 208.167 101.36H226.094C225.791 94.0649 225.786 89.5647 229.27 74.5869C226.762 74.0657 224.219 73.7283 221.662 73.5773C218.95 73.3803 216.228 73.3803 213.517 73.5773C210.021 73.8853 206.057 74.718 206.057 74.718Z" fill="black"/>
<path d="M216.169 75.4368L217.789 78.7449C217.789 78.7449 224.582 76.6688 223.692 73.6801L221.411 73.4177L216.169 75.4368Z" fill="#1A61DB"/>
<path opacity="0.6" d="M216.169 75.4368L217.789 78.7449C217.789 78.7449 224.582 76.6688 223.692 73.6801L221.411 73.4177L216.169 75.4368Z" fill="#FAFAFA"/>
<path d="M216.043 75.1288L213.762 78.5054C213.762 78.5054 208.925 76.4064 212.262 73.5831L213.682 73.4177L216.043 75.1288Z" fill="#1A61DB"/>
<path opacity="0.6" d="M216.043 75.1288L213.762 78.5054C213.762 78.5054 208.925 76.4064 212.262 73.5831L213.682 73.4177L216.043 75.1288Z" fill="#FAFAFA"/>
<path d="M223.327 50.7627C225.42 48.7494 223.413 39.287 228.922 42.4183C235.927 46.4108 240.45 41.1863 238.111 39.2014C243.028 39.5493 242.549 45.1446 240.501 48.1505C235.305 55.7991 224.822 48.5269 224.759 52.4111C224.696 56.2953 223.327 50.7627 223.327 50.7627Z" fill="#263238"/>
<path d="M220.304 49.3996C222.705 47.5003 230.907 49.0802 225.283 56.7289L220.304 49.3996Z" fill="#1A61DB"/>
<path opacity="0.3" d="M220.304 49.3996C222.705 47.5003 230.907 49.0802 225.283 56.7289L220.304 49.3996Z" fill="black"/>
<path d="M221.57 52.953C228.563 53.9968 229.053 65.3585 218.199 67.1209L221.57 52.953Z" fill="#263238"/>
<path d="M220.851 64.4001C220.338 67.0181 219.825 71.8149 221.661 73.5659C221.661 73.5659 220.942 76.2181 216.077 76.2181C210.727 76.2181 213.516 73.5659 213.516 73.5659C216.437 72.8644 216.368 70.7141 215.855 68.6665L220.851 64.4001Z" fill="#E58A7B"/>
<path d="M218.816 66.1626L215.855 68.6836C215.986 69.1573 216.07 69.6425 216.106 70.1324C217.247 69.9669 218.759 68.7407 218.878 67.5771C218.944 67.1057 218.923 66.6263 218.816 66.1626Z" fill="#CF6F64"/>
<path d="M209.815 61.3659C207.402 58.2574 204.26 50.238 213.665 49.468L209.815 61.3659Z" fill="#263238"/>
<path d="M220.675 57.7155C221.246 62.0617 221.588 63.8869 219.854 66.5106C217.247 70.4632 211.783 70.2294 209.924 66.1455C208.241 62.4724 207.58 55.9873 211.441 53.4549C212.291 52.8922 213.27 52.5561 214.286 52.4784C215.302 52.4006 216.321 52.5839 217.246 53.0108C218.171 53.4377 218.972 54.094 219.572 54.9174C220.172 55.7409 220.552 56.704 220.675 57.7155Z" fill="#E58A7B"/>
<path d="M208.184 101.337C208.184 101.337 204.705 135.337 204.99 148.797C205.292 162.8 210.425 194.735 210.425 194.735H216.391C216.391 194.735 215.445 163.616 215.975 149.87C216.545 134.875 221.314 101.337 221.314 101.337H208.184Z" fill="#1A61DB"/>
<path opacity="0.6" d="M208.184 101.337C208.184 101.337 204.705 135.337 204.99 148.797C205.292 162.8 210.425 194.735 210.425 194.735H216.391C216.391 194.735 215.445 163.616 215.975 149.87C216.545 134.875 221.314 101.337 221.314 101.337H208.184Z" fill="#FAFAFA"/>
<path d="M216.893 194.946H209.889L209.375 192.716L217.218 192.442L216.893 194.946Z" fill="#1A61DB"/>
<path opacity="0.4" d="M216.893 194.946H209.889L209.375 192.716L217.218 192.442L216.893 194.946Z" fill="#FAFAFA"/>
<path d="M215.901 109.796C211.498 118.653 215.017 134.812 216.574 140.824C217.373 131.795 218.719 120.758 219.768 112.653C219.101 108.067 217.932 105.712 215.901 109.796Z" fill="#1A61DB"/>
<path opacity="0.4" d="M215.901 109.796C211.498 118.653 215.017 134.812 216.574 140.824C217.373 131.795 218.719 120.758 219.768 112.653C219.101 108.067 217.932 105.712 215.901 109.796Z" fill="#FAFAFA"/>
<path d="M212.901 101.337C212.901 101.337 216.962 136.7 220.03 148.033C223.669 161.511 246.267 179.643 246.267 179.643L250.859 175.742C250.859 175.742 234.466 156.047 231.683 148.934C225.74 133.785 230.828 111.21 226.076 101.326L212.901 101.337Z" fill="#1A61DB"/>
<path opacity="0.6" d="M212.901 101.337C212.901 101.337 216.962 136.7 220.03 148.033C223.669 161.511 246.267 179.643 246.267 179.643L250.859 175.742C250.859 175.742 234.466 156.047 231.683 148.934C225.74 133.785 230.828 111.21 226.076 101.326L212.901 101.337Z" fill="#FAFAFA"/>
<path d="M251.606 175.536L245.913 180.367L243.792 179.095L250.225 173.106L251.606 175.536Z" fill="#1A61DB"/>
<path opacity="0.4" d="M251.606 175.536L245.913 180.367L243.792 179.095L250.225 173.106L251.606 175.536Z" fill="#FAFAFA"/>
<path d="M214.4 60.1966C214.469 60.5445 214.338 60.864 214.109 60.9096C213.881 60.9552 213.642 60.7042 213.573 60.3392C213.505 59.9742 213.636 59.6719 213.864 59.6263C214.092 59.5806 214.332 59.843 214.4 60.1966Z" fill="#263238"/>
<path d="M210.465 60.9723C210.534 61.3202 210.403 61.6396 210.174 61.6852C209.946 61.7308 209.707 61.4799 209.638 61.1148C209.57 60.7498 209.695 60.4475 209.923 60.4019C210.152 60.3563 210.385 60.6186 210.465 60.9723Z" fill="#263238"/>
<path d="M210.021 60.4191L209.131 60.3392C209.131 60.3392 209.69 60.9096 210.021 60.4191Z" fill="#263238"/>
<path d="M211.606 61.3658C211.452 62.2237 211.181 63.0565 210.802 63.8412C211.004 63.9344 211.224 63.9826 211.446 63.9826C211.669 63.9826 211.889 63.9344 212.091 63.8412L211.606 61.3658Z" fill="#DF5753"/>
<path d="M213.579 64.9649C213.552 64.9649 213.526 64.954 213.507 64.9348C213.487 64.9155 213.477 64.8894 213.477 64.8622C213.477 64.835 213.487 64.8089 213.507 64.7896C213.526 64.7704 213.552 64.7595 213.579 64.7595C214.016 64.6833 214.428 64.5051 214.783 64.2395C215.138 63.9739 215.425 63.6284 215.621 63.2309C215.626 63.2182 215.634 63.2066 215.644 63.1969C215.654 63.1871 215.665 63.1794 215.678 63.1741C215.69 63.1688 215.704 63.166 215.718 63.166C215.732 63.166 215.745 63.1687 215.758 63.1739C215.771 63.1792 215.782 63.1869 215.792 63.1966C215.802 63.2063 215.81 63.2178 215.815 63.2305C215.82 63.2433 215.823 63.2569 215.823 63.2707C215.823 63.2844 215.82 63.2981 215.815 63.3108C215.609 63.7424 215.301 64.118 214.919 64.4059C214.537 64.6938 214.091 64.8855 213.619 64.9649H213.579Z" fill="#263238"/>
<path d="M209.895 54.995C209.895 54.995 213.608 60.6245 220.453 61.366C220.453 61.366 227.519 54.9493 223.173 50.5005C216.135 43.3024 207.739 52.4739 209.895 54.995Z" fill="#263238"/>
<path d="M222.163 61.075C222.154 61.494 222.062 61.9069 221.891 62.2898C221.721 62.6726 221.476 63.0178 221.171 63.3051C220.35 64.0751 219.426 63.4648 219.22 62.4211C219.038 61.48 219.22 59.9514 220.275 59.5692C220.503 59.4927 220.746 59.4745 220.983 59.5162C221.219 59.5579 221.442 59.6583 221.629 59.808C221.817 59.9578 221.964 60.1522 222.058 60.3735C222.151 60.5948 222.187 60.836 222.163 61.075Z" fill="#E58A7B"/>
<path d="M215.302 58.6907C215.249 58.6913 215.199 58.6731 215.159 58.6394C214.968 58.4594 214.737 58.3268 214.486 58.2525C214.234 58.1782 213.968 58.1642 213.71 58.2116C213.684 58.2194 213.656 58.2216 213.628 58.2183C213.601 58.215 213.574 58.2061 213.55 58.1922C213.526 58.1784 213.505 58.1598 213.489 58.1377C213.472 58.1155 213.46 58.0902 213.454 58.0633C213.44 58.0097 213.447 57.9526 213.475 57.9046C213.503 57.8566 213.548 57.8214 213.602 57.8067C213.927 57.74 214.264 57.7523 214.583 57.8427C214.903 57.933 215.196 58.0986 215.438 58.3257C215.477 58.3652 215.499 58.4185 215.499 58.474C215.499 58.5295 215.477 58.5828 215.438 58.6223C215.403 58.6619 215.354 58.6864 215.302 58.6907Z" fill="#263238"/>
<path d="M208.264 59.5066C208.238 59.5125 208.21 59.5125 208.184 59.5066C208.158 59.4966 208.135 59.4814 208.115 59.4621C208.095 59.4428 208.079 59.4196 208.069 59.394C208.058 59.3684 208.053 59.341 208.053 59.3133C208.053 59.2855 208.059 59.2582 208.07 59.2328C208.19 58.9233 208.383 58.6472 208.632 58.4278C208.881 58.2085 209.179 58.0522 209.502 57.9723C209.528 57.9665 209.556 57.9663 209.583 57.9716C209.609 57.9769 209.635 57.9876 209.657 58.0031C209.68 58.0186 209.699 58.0386 209.713 58.0617C209.727 58.0848 209.737 58.1107 209.741 58.1377C209.747 58.1647 209.747 58.1926 209.742 58.2197C209.737 58.2468 209.726 58.2726 209.711 58.2955C209.695 58.3184 209.675 58.3379 209.652 58.353C209.629 58.368 209.603 58.3782 209.576 58.3829C209.319 58.4488 209.082 58.5747 208.884 58.7502C208.685 58.9257 208.532 59.1459 208.435 59.3925C208.419 59.4249 208.395 59.4525 208.365 59.4725C208.335 59.4925 208.3 59.5043 208.264 59.5066Z" fill="#263238"/>
<path d="M235.561 96.5804V96.0727C235.561 95.3883 235.464 94.7324 235.396 94.0707C235.051 91.5091 234.505 88.9785 233.765 86.502C233.049 84.0492 232.195 81.6384 231.209 79.2811L227.006 80.9922C227.856 83.1938 228.66 85.5152 229.396 87.7967C229.749 88.9374 230.086 90.0782 230.377 91.2189C230.668 92.3596 230.947 93.5004 231.147 94.6411L231.267 95.3997C230.873 95.2685 230.468 95.1259 230.057 94.9548C227.901 94.0764 225.7 92.9357 223.527 91.8406L222.266 93.6829C224.2 95.3624 226.285 96.8593 228.495 98.1546C229.088 98.4983 229.704 98.8032 230.337 99.0672C230.692 99.2212 231.058 99.3489 231.432 99.4493C231.655 99.5123 231.881 99.56 232.111 99.5919C232.416 99.6308 232.724 99.6308 233.029 99.5919C233.532 99.5476 234.013 99.3661 234.421 99.0672C234.927 98.6905 235.285 98.1472 235.43 97.5329C235.517 97.2227 235.561 96.9023 235.561 96.5804ZM232.493 95.7305H232.595C232.658 95.7248 232.578 95.7362 232.464 95.7305H232.493Z" fill="#E58A7B"/>
<path d="M229.287 74.5641C231.084 75.1345 233.24 81.2945 233.24 81.2945L226.276 86.2795C226.276 86.2795 223.732 81.1177 224.49 78.7963C225.255 76.3779 227.222 73.9424 229.287 74.5641Z" fill="#1A61DB"/>
<path opacity="0.5" d="M229.287 74.5641C231.084 75.1345 233.24 81.2945 233.24 81.2945L226.276 86.2795C226.276 86.2795 223.732 81.1177 224.49 78.7963C225.255 76.3779 227.222 73.9424 229.287 74.5641Z" fill="black"/>
<path d="M249.359 184.844C249.268 184.842 249.179 184.819 249.098 184.778C249.017 184.736 248.946 184.677 248.891 184.605C248.848 184.56 248.817 184.503 248.803 184.442C248.789 184.381 248.792 184.317 248.811 184.257C248.971 183.715 250.522 183.276 250.676 183.23C250.697 183.224 250.718 183.224 250.739 183.23C250.759 183.236 250.777 183.248 250.791 183.265C250.801 183.282 250.806 183.302 250.806 183.322C250.806 183.342 250.801 183.361 250.791 183.379C250.517 183.898 249.969 184.776 249.416 184.844H249.359ZM250.5 183.504C249.889 183.698 249.102 184.035 249.017 184.32C249.008 184.346 249.007 184.374 249.014 184.4C249.021 184.426 249.036 184.45 249.057 184.468C249.096 184.524 249.149 184.569 249.211 184.598C249.273 184.628 249.342 184.64 249.41 184.633C249.701 184.599 250.1 184.183 250.494 183.504H250.5Z" fill="#1A61DB"/>
<path d="M250.009 183.521C249.553 183.568 249.096 183.44 248.731 183.162C248.678 183.098 248.649 183.017 248.649 182.934C248.649 182.851 248.678 182.77 248.731 182.706C248.776 182.64 248.835 182.586 248.903 182.544C248.97 182.503 249.046 182.476 249.125 182.466C249.752 182.392 250.722 183.213 250.762 183.253C250.776 183.264 250.788 183.279 250.794 183.296C250.8 183.314 250.801 183.332 250.796 183.35C250.793 183.369 250.786 183.386 250.773 183.4C250.761 183.414 250.745 183.425 250.727 183.43C250.494 183.495 250.251 183.526 250.009 183.521ZM249.233 182.666H249.165C249.114 182.671 249.065 182.688 249.022 182.715C248.979 182.741 248.942 182.777 248.914 182.82C248.84 182.928 248.868 182.991 248.914 183.031C249.102 183.276 249.969 183.367 250.499 183.276C250.144 182.966 249.713 182.756 249.25 182.666H249.233Z" fill="#1A61DB"/>
<path d="M209.678 200.963C209.3 200.998 208.921 200.901 208.606 200.689C208.535 200.627 208.481 200.548 208.448 200.459C208.415 200.371 208.405 200.275 208.418 200.182C208.421 200.124 208.439 200.068 208.47 200.019C208.501 199.97 208.544 199.93 208.594 199.902C209.136 199.611 210.876 200.507 211.093 200.609C211.112 200.62 211.128 200.635 211.138 200.655C211.148 200.674 211.152 200.696 211.15 200.718C211.148 200.739 211.139 200.759 211.124 200.774C211.11 200.789 211.091 200.8 211.07 200.803C210.612 200.902 210.146 200.956 209.678 200.963ZM208.891 200.05C208.824 200.046 208.757 200.06 208.697 200.09C208.677 200.1 208.659 200.116 208.647 200.135C208.635 200.154 208.629 200.176 208.629 200.199C208.618 200.26 208.623 200.324 208.644 200.383C208.665 200.442 208.701 200.495 208.748 200.535C209.017 200.775 209.741 200.82 210.722 200.655C210.15 200.351 209.531 200.147 208.891 200.05Z" fill="#1A61DB"/>
<path d="M211.035 200.809H210.99C210.465 200.57 209.427 199.623 209.507 199.098C209.507 198.978 209.609 198.83 209.9 198.801C210.003 198.79 210.107 198.801 210.205 198.832C210.303 198.863 210.394 198.915 210.471 198.984C211.041 199.446 211.132 200.632 211.132 200.695C211.135 200.712 211.133 200.73 211.126 200.747C211.119 200.763 211.107 200.777 211.092 200.786C211.076 200.8 211.056 200.808 211.035 200.809ZM209.986 199.018H209.923C209.729 199.018 209.718 199.109 209.712 199.138C209.666 199.435 210.368 200.187 210.904 200.512C210.864 200.009 210.665 199.531 210.334 199.149C210.239 199.07 210.121 199.024 209.997 199.018H209.986Z" fill="#1A61DB"/>
<path d="M224.154 92.3483L222.671 87.8138L220.31 91.6296C220.31 91.6296 221.701 94.0993 223.538 94.0594L224.154 92.3483Z" fill="#E58A7B"/>
<path d="M219.574 85.749L217.772 89.0515L220.293 91.6295L222.654 87.8138L219.574 85.749Z" fill="#E58A7B"/>
<path d="M213.968 59.6433L213.083 59.5635C213.083 59.5635 213.642 60.1339 213.968 59.6433Z" fill="#263238"/>
<path d="M226.362 100.282L226.824 101.89C226.886 102.01 226.738 102.141 226.527 102.141H208.081C207.916 102.141 207.785 102.062 207.773 101.959L207.614 100.385C207.614 100.271 207.739 100.179 207.916 100.179H226.071C226.124 100.171 226.178 100.176 226.229 100.194C226.28 100.212 226.326 100.242 226.362 100.282Z" fill="#263238"/>
<path d="M223.926 102.312H224.411C224.508 102.312 224.582 102.261 224.576 102.204L224.348 100.117C224.348 100.054 224.257 100.008 224.16 100.008H223.675C223.578 100.008 223.504 100.054 223.51 100.117L223.738 102.204C223.743 102.261 223.829 102.312 223.926 102.312Z" fill="#1A61DB"/>
<path opacity="0.6" d="M223.926 102.312H224.411C224.508 102.312 224.582 102.261 224.576 102.204L224.348 100.117C224.348 100.054 224.257 100.008 224.16 100.008H223.675C223.578 100.008 223.504 100.054 223.51 100.117L223.738 102.204C223.743 102.261 223.829 102.312 223.926 102.312Z" fill="#FAFAFA"/>
<path d="M209.444 102.312H209.929C210.026 102.312 210.1 102.261 210.095 102.204L209.867 100.117C209.867 100.054 209.775 100.008 209.678 100.008H209.194C209.097 100.008 209.022 100.054 209.028 100.117L209.256 102.204C209.262 102.261 209.325 102.312 209.444 102.312Z" fill="#1A61DB"/>
<path opacity="0.6" d="M209.444 102.312H209.929C210.026 102.312 210.1 102.261 210.095 102.204L209.867 100.117C209.867 100.054 209.775 100.008 209.678 100.008H209.194C209.097 100.008 209.022 100.054 209.028 100.117L209.256 102.204C209.262 102.261 209.325 102.312 209.444 102.312Z" fill="#FAFAFA"/>
<path d="M216.682 102.312H217.173C217.27 102.312 217.344 102.261 217.333 102.204L217.104 100.117C217.104 100.054 217.013 100.008 216.916 100.008H216.431C216.334 100.008 216.26 100.054 216.266 100.117L216.494 102.204C216.51 102.24 216.536 102.27 216.57 102.289C216.604 102.309 216.643 102.317 216.682 102.312Z" fill="#1A61DB"/>
<path opacity="0.6" d="M216.682 102.312H217.173C217.27 102.312 217.344 102.261 217.333 102.204L217.104 100.117C217.104 100.054 217.013 100.008 216.916 100.008H216.431C216.334 100.008 216.26 100.054 216.266 100.117L216.494 102.204C216.51 102.24 216.536 102.27 216.57 102.289C216.604 102.309 216.643 102.317 216.682 102.312Z" fill="#FAFAFA"/>
<path d="M159.475 206.039H197.204C198.084 206.05 198.957 205.876 199.766 205.529C200.575 205.182 201.302 204.67 201.902 204.026C202.501 203.381 202.959 202.619 203.246 201.787C203.533 200.955 203.644 200.072 203.57 199.195L194.546 70.1553C194.39 68.3101 193.554 66.5886 192.201 65.3242C190.848 64.0598 189.074 63.3424 187.223 63.3109H149.493C148.613 63.3006 147.741 63.4744 146.932 63.8212C146.123 64.168 145.395 64.68 144.796 65.3245C144.197 65.969 143.739 66.7317 143.451 67.5636C143.164 68.3955 143.054 69.2783 143.128 70.1553L152.151 199.201C152.309 201.045 153.145 202.765 154.498 204.028C155.851 205.291 157.624 206.008 159.475 206.039Z" fill="#1A61DB"/>
<path opacity="0.2" d="M159.475 206.039H197.204C198.084 206.05 198.957 205.876 199.766 205.529C200.575 205.182 201.302 204.67 201.902 204.026C202.501 203.381 202.959 202.619 203.246 201.787C203.533 200.955 203.644 200.072 203.57 199.195L194.546 70.1553C194.39 68.3101 193.554 66.5886 192.201 65.3242C190.848 64.0598 189.074 63.3424 187.223 63.3109H149.493C148.613 63.3006 147.741 63.4744 146.932 63.8212C146.123 64.168 145.395 64.68 144.796 65.3245C144.197 65.969 143.739 66.7317 143.451 67.5636C143.164 68.3955 143.054 69.2783 143.128 70.1553L152.151 199.201C152.309 201.045 153.145 202.765 154.498 204.028C155.851 205.291 157.624 206.008 159.475 206.039Z" fill="black"/>
<path d="M139.544 109.945L138.975 109.985L139.604 118.975L140.173 118.935L139.544 109.945Z" fill="#1A61DB"/>
<path opacity="0.5" d="M139.544 109.945L138.975 109.985L139.604 118.975L140.173 118.935L139.544 109.945Z" fill="black"/>
<path d="M154.535 206.039H192.259C193.139 206.05 194.012 205.876 194.821 205.529C195.63 205.182 196.357 204.67 196.956 204.026C197.556 203.381 198.014 202.619 198.301 201.787C198.588 200.955 198.698 200.072 198.624 199.195L189.601 70.1553C189.445 68.3101 188.609 66.5886 187.256 65.3242C185.903 64.0598 184.129 63.3424 182.278 63.3109H144.554C143.674 63.3006 142.801 63.4744 141.992 63.8212C141.183 64.168 140.456 64.68 139.856 65.3245C139.257 65.969 138.799 66.7317 138.512 67.5636C138.225 68.3955 138.114 69.2783 138.188 70.1553L147.212 199.195C147.368 201.04 148.204 202.762 149.557 204.026C150.91 205.29 152.684 206.008 154.535 206.039Z" fill="#1A61DB"/>
<path opacity="0.5" d="M154.535 206.039H192.259C193.139 206.05 194.012 205.876 194.821 205.529C195.63 205.182 196.357 204.67 196.956 204.026C197.556 203.381 198.014 202.619 198.301 201.787C198.588 200.955 198.698 200.072 198.624 199.195L189.601 70.1553C189.445 68.3101 188.609 66.5886 187.256 65.3242C185.903 64.0598 184.129 63.3424 182.278 63.3109H144.554C143.674 63.3006 142.801 63.4744 141.992 63.8212C141.183 64.168 140.456 64.68 139.856 65.3245C139.257 65.969 138.799 66.7317 138.512 67.5636C138.225 68.3955 138.114 69.2783 138.188 70.1553L147.212 199.195C147.368 201.04 148.204 202.762 149.557 204.026C150.91 205.29 152.684 206.008 154.535 206.039Z" fill="black"/>
<path d="M161.54 104.411H168.521C168.685 104.418 168.849 104.389 169.001 104.327C169.153 104.264 169.29 104.17 169.402 104.05C169.514 103.929 169.599 103.786 169.651 103.63C169.702 103.474 169.72 103.309 169.701 103.145L168.03 79.2468C168.002 78.9048 167.847 78.5855 167.596 78.3514C167.345 78.1173 167.016 77.9851 166.673 77.9806H159.703C159.539 77.9747 159.376 78.0041 159.225 78.067C159.073 78.1298 158.937 78.2245 158.826 78.3447C158.714 78.4648 158.63 78.6076 158.578 78.7633C158.527 78.919 158.51 79.0839 158.528 79.2468L160.199 103.145C160.227 103.484 160.38 103.801 160.627 104.035C160.874 104.269 161.199 104.403 161.54 104.411Z" fill="#1A61DB"/>
<path opacity="0.2" d="M161.54 104.411H168.521C168.685 104.418 168.849 104.389 169.001 104.327C169.153 104.264 169.29 104.17 169.402 104.05C169.514 103.929 169.599 103.786 169.651 103.63C169.702 103.474 169.72 103.309 169.701 103.145L168.03 79.2468C168.002 78.9048 167.847 78.5855 167.596 78.3514C167.345 78.1173 167.016 77.9851 166.673 77.9806H159.703C159.539 77.9747 159.376 78.0041 159.225 78.067C159.073 78.1298 158.937 78.2245 158.826 78.3447C158.714 78.4648 158.63 78.6076 158.578 78.7633C158.527 78.919 158.51 79.0839 158.528 79.2468L160.199 103.145C160.227 103.484 160.38 103.801 160.627 104.035C160.874 104.269 161.199 104.403 161.54 104.411Z" fill="black"/>
<path d="M118.779 206.039H81.0493C80.1692 206.05 79.2967 205.876 78.4878 205.529C77.6789 205.182 76.9514 204.67 76.352 204.026C75.7527 203.381 75.2947 202.619 75.0074 201.787C74.7201 200.955 74.61 200.072 74.684 199.195L83.7072 70.1553C83.8649 68.3106 84.7009 66.5898 86.0536 65.3256C87.4063 64.0615 89.1795 63.3436 91.0307 63.3109H128.76C129.641 63.3006 130.513 63.4744 131.322 63.8212C132.131 64.168 132.858 64.68 133.458 65.3245C134.057 65.969 134.515 66.7317 134.802 67.5636C135.09 68.3955 135.2 69.2783 135.126 70.1553L126.103 199.195C125.946 201.04 125.11 202.762 123.757 204.026C122.405 205.29 120.631 206.008 118.779 206.039Z" fill="#1A61DB"/>
<path opacity="0.5" d="M118.779 206.039H81.0493C80.1692 206.05 79.2967 205.876 78.4878 205.529C77.6789 205.182 76.9514 204.67 76.352 204.026C75.7527 203.381 75.2947 202.619 75.0074 201.787C74.7201 200.955 74.61 200.072 74.684 199.195L83.7072 70.1553C83.8649 68.3106 84.7009 66.5898 86.0536 65.3256C87.4063 64.0615 89.1795 63.3436 91.0307 63.3109H128.76C129.641 63.3006 130.513 63.4744 131.322 63.8212C132.131 64.168 132.858 64.68 133.458 65.3245C134.057 65.969 134.515 66.7317 134.802 67.5636C135.09 68.3955 135.2 69.2783 135.126 70.1553L126.103 199.195C125.946 201.04 125.11 202.762 123.757 204.026C122.405 205.29 120.631 206.008 118.779 206.039Z" fill="black"/>
<path d="M102.911 61.3087H100.784V61.8791H102.911V61.3087Z" fill="#1A61DB"/>
<path opacity="0.3" d="M102.911 61.3087H100.784V61.8791H102.911V61.3087Z" fill="black"/>
<path d="M96.9682 61.3087H90.2778V61.8791H96.9682V61.3087Z" fill="#1A61DB"/>
<path opacity="0.3" d="M96.9682 61.3087H90.2778V61.8791H96.9682V61.3087Z" fill="black"/>
<path d="M113.834 206.039H76.1098C75.2298 206.05 74.3573 205.876 73.5484 205.529C72.7394 205.182 72.012 204.67 71.4126 204.026C70.8132 203.381 70.3552 202.619 70.068 201.787C69.7807 200.955 69.6705 200.072 69.7445 199.195L78.7677 70.1553C78.9243 68.3101 79.7599 66.5886 81.1128 65.3242C82.4657 64.0598 84.2397 63.3424 86.0912 63.3109H123.815C124.695 63.3006 125.568 63.4744 126.377 63.8212C127.186 64.168 127.913 64.68 128.513 65.3245C129.112 65.969 129.57 66.7317 129.857 67.5636C130.144 68.3955 130.255 69.2783 130.181 70.1553L121.157 199.195C121.001 201.04 120.165 202.762 118.812 204.026C117.459 205.29 115.685 206.008 113.834 206.039Z" fill="#1A61DB"/>
<path opacity="0.3" d="M113.834 206.039H76.1098C75.2298 206.05 74.3573 205.876 73.5484 205.529C72.7394 205.182 72.012 204.67 71.4126 204.026C70.8132 203.381 70.3552 202.619 70.068 201.787C69.7807 200.955 69.6705 200.072 69.7445 199.195L78.7677 70.1553C78.9243 68.3101 79.7599 66.5886 81.1128 65.3242C82.4657 64.0598 84.2397 63.3424 86.0912 63.3109H123.815C124.695 63.3006 125.568 63.4744 126.377 63.8212C127.186 64.168 127.913 64.68 128.513 65.3245C129.112 65.969 129.57 66.7317 129.857 67.5636C130.144 68.3955 130.255 69.2783 130.181 70.1553L121.157 199.195C121.001 201.04 120.165 202.762 118.812 204.026C117.459 205.29 115.685 206.008 113.834 206.039Z" fill="black"/>
<path d="M119.492 198.613H69.8185C69.6995 198.613 69.5817 198.588 69.4726 198.54C69.3635 198.492 69.2654 198.423 69.1841 198.336C69.1029 198.249 69.0404 198.146 69.0004 198.034C68.9604 197.921 68.9438 197.802 68.9516 197.683L77.7409 71.9803C77.7568 71.7599 77.8557 71.5538 78.0177 71.4034C78.1797 71.2531 78.3926 71.1698 78.6136 71.1704H128.281C128.401 71.1702 128.519 71.1945 128.629 71.2418C128.739 71.2892 128.837 71.3587 128.919 71.4458C129.001 71.533 129.064 71.6361 129.104 71.7486C129.145 71.8612 129.162 71.9808 129.154 72.1001L120.347 197.803C120.333 198.021 120.237 198.226 120.078 198.376C119.92 198.526 119.71 198.611 119.492 198.613Z" fill="#1A61DB"/>
<path opacity="0.9" d="M119.492 198.613H69.8185C69.6995 198.613 69.5817 198.588 69.4726 198.54C69.3635 198.492 69.2654 198.423 69.1841 198.336C69.1029 198.249 69.0404 198.146 69.0004 198.034C68.9604 197.921 68.9438 197.802 68.9516 197.683L77.7409 71.9803C77.7568 71.7599 77.8557 71.5538 78.0177 71.4034C78.1797 71.2531 78.3926 71.1698 78.6136 71.1704H128.281C128.401 71.1702 128.519 71.1945 128.629 71.2418C128.739 71.2892 128.837 71.3587 128.919 71.4458C129.001 71.533 129.064 71.6361 129.104 71.7486C129.145 71.8612 129.162 71.9808 129.154 72.1001L120.347 197.803C120.333 198.021 120.237 198.226 120.078 198.376C119.92 198.526 119.71 198.611 119.492 198.613Z" fill="#FAFAFA"/>
<path d="M118.283 84.0379H86.04C85.1636 84.0531 84.3239 84.3927 83.6833 84.9911C83.0428 85.5895 82.6469 86.4042 82.5722 87.2776L79.2127 135.302C79.1777 135.718 79.23 136.136 79.3662 136.53C79.5024 136.924 79.7196 137.285 80.0038 137.591C80.2879 137.896 80.6328 138.138 81.0162 138.302C81.3996 138.466 81.813 138.548 82.23 138.542H84.4658L83.3251 142.061C85.9631 141.824 88.4024 140.56 90.1181 138.542H114.473C115.349 138.527 116.189 138.187 116.83 137.589C117.47 136.991 117.866 136.176 117.941 135.302L121.3 87.2776C121.334 86.8623 121.281 86.4445 121.145 86.0508C121.008 85.6571 120.791 85.2963 120.507 84.9913C120.223 84.6864 119.879 84.4441 119.496 84.2799C119.113 84.1158 118.7 84.0333 118.283 84.0379Z" fill="#1A61DB"/>
<path opacity="0.6" d="M118.283 84.0379H86.04C85.1636 84.0531 84.3239 84.3927 83.6833 84.9911C83.0428 85.5895 82.6469 86.4042 82.5722 87.2776L79.2127 135.302C79.1777 135.718 79.23 136.136 79.3662 136.53C79.5024 136.924 79.7196 137.285 80.0038 137.591C80.2879 137.896 80.6328 138.138 81.0162 138.302C81.3996 138.466 81.813 138.548 82.23 138.542H84.4658L83.3251 142.061C85.9631 141.824 88.4024 140.56 90.1181 138.542H114.473C115.349 138.527 116.189 138.187 116.83 137.589C117.47 136.991 117.866 136.176 117.941 135.302L121.3 87.2776C121.334 86.8623 121.281 86.4445 121.145 86.0508C121.008 85.6571 120.791 85.2963 120.507 84.9913C120.223 84.6864 119.879 84.4441 119.496 84.2799C119.113 84.1158 118.7 84.0333 118.283 84.0379Z" fill="#FAFAFA"/>
<path d="M81.5627 148.21H113.806C114.222 148.204 114.636 148.286 115.019 148.45C115.403 148.614 115.748 148.856 116.032 149.161C116.316 149.466 116.533 149.828 116.669 150.222C116.806 150.616 116.858 151.034 116.823 151.45L115.38 172.08C115.305 172.953 114.909 173.768 114.269 174.366C113.628 174.965 112.788 175.304 111.912 175.319H109.67L110.298 178.839C109.061 178.735 107.861 178.368 106.779 177.76C105.696 177.153 104.757 176.321 104.024 175.319H79.6577C79.2408 175.325 78.8273 175.243 78.4439 175.079C78.0605 174.915 77.7157 174.673 77.4315 174.368C77.1473 174.063 76.9302 173.702 76.7939 173.307C76.6577 172.913 76.6054 172.495 76.6405 172.08L78.0835 151.45C78.1584 150.574 78.5559 149.758 79.1989 149.159C79.8418 148.561 80.6843 148.222 81.5627 148.21Z" fill="#1A61DB"/>
<path opacity="0.6" d="M81.5627 148.21H113.806C114.222 148.204 114.636 148.286 115.019 148.45C115.403 148.614 115.748 148.856 116.032 149.161C116.316 149.466 116.533 149.828 116.669 150.222C116.806 150.616 116.858 151.034 116.823 151.45L115.38 172.08C115.305 172.953 114.909 173.768 114.269 174.366C113.628 174.965 112.788 175.304 111.912 175.319H109.67L110.298 178.839C109.061 178.735 107.861 178.368 106.779 177.76C105.696 177.153 104.757 176.321 104.024 175.319H79.6577C79.2408 175.325 78.8273 175.243 78.4439 175.079C78.0605 174.915 77.7157 174.673 77.4315 174.368C77.1473 174.063 76.9302 173.702 76.7939 173.307C76.6577 172.913 76.6054 172.495 76.6405 172.08L78.0835 151.45C78.1584 150.574 78.5559 149.758 79.1989 149.159C79.8418 148.561 80.6843 148.222 81.5627 148.21Z" fill="#FAFAFA"/>
<path d="M110.68 66.9211C110.657 67.2103 110.528 67.4807 110.317 67.68C110.106 67.8792 109.829 67.9929 109.539 67.9991C109.4 68.0012 109.262 67.9742 109.135 67.9198C109.007 67.8653 108.892 67.7847 108.797 67.6831C108.703 67.5815 108.631 67.4612 108.585 67.33C108.54 67.1987 108.523 67.0594 108.535 66.9211C108.56 66.6329 108.69 66.3639 108.9 66.1651C109.111 65.9664 109.386 65.8518 109.676 65.8431C109.814 65.841 109.952 65.868 110.08 65.9225C110.208 65.9769 110.322 66.0575 110.417 66.1591C110.512 66.2607 110.584 66.381 110.629 66.5123C110.674 66.6435 110.692 66.7828 110.68 66.9211Z" fill="#1A61DB"/>
<path opacity="0.5" d="M110.68 66.9211C110.657 67.2103 110.528 67.4807 110.317 67.68C110.106 67.8792 109.829 67.9929 109.539 67.9991C109.4 68.0012 109.262 67.9742 109.135 67.9198C109.007 67.8653 108.892 67.7847 108.797 67.6831C108.703 67.5815 108.631 67.4612 108.585 67.33C108.54 67.1987 108.523 67.0594 108.535 66.9211C108.56 66.6329 108.69 66.3639 108.9 66.1651C109.111 65.9664 109.386 65.8518 109.676 65.8431C109.814 65.841 109.952 65.868 110.08 65.9225C110.208 65.9769 110.322 66.0575 110.417 66.1591C110.512 66.2607 110.584 66.381 110.629 66.5123C110.674 66.6435 110.692 66.7828 110.68 66.9211Z" fill="black"/>
<path d="M105.124 67.9992H97.6013C97.4627 68.0004 97.3254 67.9728 97.1981 67.9181C97.0708 67.8633 96.9563 67.7827 96.8619 67.6813C96.7675 67.5799 96.6952 67.4599 96.6497 67.3291C96.6041 67.1982 96.5864 67.0593 96.5974 66.9212C96.6213 66.6325 96.7509 66.3627 96.9614 66.1638C97.172 65.9648 97.4486 65.8506 97.7382 65.8432H105.261C105.4 65.8419 105.537 65.8696 105.664 65.9243C105.792 65.979 105.906 66.0597 106.001 66.1611C106.095 66.2625 106.167 66.3824 106.213 66.5133C106.258 66.6441 106.276 66.7831 106.265 66.9212C106.241 67.2099 106.112 67.4796 105.901 67.6786C105.691 67.8775 105.414 67.9917 105.124 67.9992Z" fill="#1A61DB"/>
<path opacity="0.5" d="M105.124 67.9992H97.6013C97.4627 68.0004 97.3254 67.9728 97.1981 67.9181C97.0708 67.8633 96.9563 67.7827 96.8619 67.6813C96.7675 67.5799 96.6952 67.4599 96.6497 67.3291C96.6041 67.1982 96.5864 67.0593 96.5974 66.9212C96.6213 66.6325 96.7509 66.3627 96.9614 66.1638C97.172 65.9648 97.4486 65.8506 97.7382 65.8432H105.261C105.4 65.8419 105.537 65.8696 105.664 65.9243C105.792 65.979 105.906 66.0597 106.001 66.1611C106.095 66.2625 106.167 66.3824 106.213 66.5133C106.258 66.6441 106.276 66.7831 106.265 66.9212C106.241 67.2099 106.112 67.4796 105.901 67.6786C105.691 67.8775 105.414 67.9917 105.124 67.9992Z" fill="black"/>
<path d="M64.9588 92.7816L65.8543 94.5326C66.168 95.103 66.4874 95.7247 66.8182 96.3122C67.4798 97.4928 68.1528 98.6621 68.8601 99.7971C70.21 102.033 71.7561 104.144 73.4801 106.105C73.9078 106.533 74.3698 107.046 74.6664 107.28C75.0809 107.615 75.5236 107.912 75.9897 108.17C77.1004 108.756 78.2562 109.252 79.4461 109.653C82.0101 110.504 84.621 111.207 87.2658 111.758L87.0833 114.9C84.113 115.075 81.1325 114.9 78.2027 114.381C76.6418 114.111 75.1128 113.681 73.6398 113.098C72.8201 112.771 72.0365 112.36 71.3013 111.872C70.9207 111.618 70.5586 111.338 70.2176 111.033L69.3164 110.241C67.14 108.129 65.2076 105.779 63.5557 103.236C62.7287 101.999 61.9473 100.744 61.2343 99.4549C60.875 98.8104 60.5213 98.1602 60.1848 97.5043C59.8483 96.8483 59.5289 96.2095 59.1924 95.468L64.9588 92.7816Z" fill="#E58A7B"/>
<path d="M86.1254 111.758L88.6635 109.967L90.0039 115.146C90.0039 115.146 87.768 115.933 86.0854 114.798L86.1254 111.758Z" fill="#E58A7B"/>
<path d="M92.1655 108.792L93.0666 113.127L89.9981 115.146L88.6577 109.967L92.1655 108.792Z" fill="#E58A7B"/>
<path d="M108.29 104.2L107.6 104.075C106.879 103.95 106.139 103.995 105.438 104.206L103.448 104.811C104.464 102.711 104.844 100.359 104.543 98.0461C104.303 96.3007 102.991 96.7 102.991 96.7C102.991 96.7 101.069 103.955 97.0766 106.738L95.8218 107.611L97.6127 120.393L99.09 120.256C99.6603 120.256 102.906 120.256 104.999 120.256C105.614 120.23 106.215 120.065 106.758 119.775C107.301 119.485 107.772 119.076 108.136 118.579C109.203 117.168 109.813 115.465 109.887 113.697L110.263 107.748C110.355 105.991 109.511 104.411 108.29 104.2Z" fill="#1A61DB"/>
<path opacity="0.9" d="M108.29 104.2L107.6 104.075C106.879 103.95 106.139 103.995 105.438 104.206L103.448 104.811C104.464 102.711 104.844 100.359 104.543 98.0461C104.303 96.3007 102.991 96.7 102.991 96.7C102.991 96.7 101.069 103.955 97.0766 106.738L95.8218 107.611L97.6127 120.393L99.09 120.256C99.6603 120.256 102.906 120.256 104.999 120.256C105.614 120.23 106.215 120.065 106.758 119.775C107.301 119.485 107.772 119.076 108.136 118.579C109.203 117.168 109.813 115.465 109.887 113.697L110.263 107.748C110.355 105.991 109.511 104.411 108.29 104.2Z" fill="#FAFAFA"/>
<path d="M92.0689 123.359L97.6928 122.133C98.1319 122.041 98.4399 121.437 98.3715 120.792L96.9057 106.151C96.8372 105.506 96.4265 105.062 95.9874 105.153L90.3635 106.379C89.9244 106.47 89.6164 107.075 89.6848 107.72L91.1507 122.361C91.2191 123.005 91.6298 123.45 92.0689 123.359Z" fill="#1A61DB"/>
<path d="M81.2317 75.0946C81.1632 75.4254 81.283 75.7277 81.4997 75.7733C81.7165 75.8189 81.9503 75.5908 82.0188 75.26C82.0872 74.9291 81.9674 74.6211 81.7507 74.5755C81.534 74.5299 81.3001 74.7637 81.2317 75.0946Z" fill="#263238"/>
<path d="M81.2547 75.7219C81.4383 76.8152 81.7702 77.8783 82.2414 78.8818C81.9829 78.9969 81.7021 79.0536 81.4191 79.0477C81.1362 79.0417 80.858 78.9734 80.6045 78.8475L81.2547 75.7219Z" fill="#DF5753"/>
<path d="M82.1329 73.0697C82.0942 73.069 82.0565 73.0572 82.0245 73.0355C81.8056 72.917 81.5617 72.8521 81.3128 72.8462C81.0639 72.8402 80.8172 72.8934 80.5929 73.0013C80.5451 73.0227 80.4909 73.0246 80.4419 73.0064C80.3928 72.9883 80.3528 72.9516 80.3305 72.9043C80.3193 72.8804 80.313 72.8545 80.3121 72.8282C80.3112 72.8018 80.3157 72.7756 80.3253 72.751C80.335 72.7265 80.3495 72.7041 80.368 72.6854C80.3865 72.6666 80.4087 72.6518 80.4332 72.6419C80.7175 72.5065 81.0302 72.4416 81.3449 72.4525C81.6596 72.4634 81.967 72.5499 82.2412 72.7047C82.2634 72.7185 82.2824 72.7367 82.2974 72.7582C82.3123 72.7796 82.3227 72.8038 82.328 72.8294C82.3334 72.855 82.3335 72.8814 82.3284 72.907C82.3232 72.9326 82.313 72.9569 82.2983 72.9784C82.2808 73.0065 82.2564 73.0296 82.2274 73.0456C82.1985 73.0616 82.1659 73.0699 82.1329 73.0697Z" fill="#263238"/>
<path d="M69.4937 76.1554C70.064 79.2183 70.6915 84.8364 68.5469 86.8783C68.5469 86.8783 69.3853 89.9925 75.0833 89.9925C81.3573 89.9925 78.072 86.8783 78.072 86.8783C74.6498 86.0627 74.7468 83.5302 75.3399 81.1746L69.4937 76.1554Z" fill="#E58A7B"/>
<path d="M67.68 87.7567C67.2693 86.7529 67.3378 84.9049 67.6401 84.8764C68.8264 84.7965 75.1575 84.7794 77.2508 85.5836C77.5276 85.6709 77.7843 85.8124 78.006 85.9998C78.2277 86.1872 78.4099 86.4169 78.542 86.6753C78.6742 86.9338 78.7536 87.2159 78.7758 87.5054C78.7979 87.7948 78.7623 88.0858 78.671 88.3613L67.68 87.7567Z" fill="#1A61DB"/>
<path d="M53.6888 202.48C53.3206 202.478 52.9536 202.438 52.5937 202.36C52.5752 202.357 52.5582 202.348 52.5449 202.335C52.5317 202.322 52.5228 202.305 52.5196 202.286C52.517 202.267 52.5193 202.248 52.5263 202.23C52.5333 202.212 52.5447 202.196 52.5595 202.184C52.6108 202.149 53.7687 201.362 54.379 201.499C54.4449 201.513 54.507 201.542 54.5611 201.582C54.6152 201.622 54.6601 201.674 54.6927 201.733C54.7423 201.802 54.769 201.885 54.769 201.97C54.769 202.055 54.7423 202.137 54.6927 202.206C54.552 202.317 54.3908 202.398 54.2184 202.445C54.046 202.492 53.8659 202.504 53.6888 202.48ZM52.8732 202.218C53.5006 202.32 54.3561 202.32 54.5387 202.081C54.5387 202.081 54.6071 201.99 54.5387 201.83C54.5202 201.795 54.4942 201.765 54.4627 201.741C54.4311 201.717 54.3948 201.701 54.3561 201.693C53.8194 201.72 53.3029 201.906 52.8732 202.229V202.218Z" fill="#1A61DB"/>
<path d="M52.6168 202.378H52.5654C52.5496 202.369 52.5368 202.355 52.5287 202.339C52.5205 202.323 52.5175 202.304 52.5198 202.286C52.5198 202.235 52.6225 201.026 53.0902 200.627C53.1494 200.578 53.2178 200.542 53.2913 200.52C53.3648 200.499 53.4419 200.492 53.5179 200.501C53.5924 200.502 53.6641 200.529 53.7212 200.577C53.7783 200.624 53.8173 200.69 53.8316 200.763C53.9172 201.231 53.0788 202.144 52.651 202.383L52.6168 202.378ZM53.4609 200.666C53.3789 200.667 53.3 200.698 53.2385 200.752C52.9421 201.128 52.7688 201.586 52.7423 202.064C53.17 201.739 53.7062 201.049 53.6548 200.769C53.6548 200.769 53.6548 200.684 53.5065 200.666H53.4609Z" fill="#1A61DB"/>
<path d="M47.7798 202.275H51.972L55.8334 192.573H51.6469L47.7798 202.275Z" fill="#E58A7B"/>
<path d="M52.3028 201.79H47.5973C47.5133 201.791 47.432 201.82 47.3667 201.873C47.3014 201.926 47.256 201.999 47.2379 202.081L46.4109 205.806C46.392 205.896 46.3938 205.99 46.4162 206.08C46.4386 206.17 46.4809 206.254 46.5401 206.325C46.5993 206.396 46.6738 206.453 46.7581 206.492C46.8424 206.53 46.9343 206.549 47.0269 206.547C48.6695 206.519 49.4681 206.422 51.5385 206.422C52.8104 206.422 55.4341 206.558 57.1965 206.558C58.959 206.558 59.1814 204.847 58.4627 204.659C55.2345 203.952 54.0196 202.977 52.9872 202.053C52.7997 201.883 52.5556 201.789 52.3028 201.79Z" fill="#263238"/>
<path d="M86.4164 90.9564C87.6655 93.2379 88.8975 95.5764 90.1124 97.8921L93.7513 104.845L94.6639 106.556C94.8569 106.971 95.086 107.368 95.3484 107.742C95.9855 108.51 96.759 109.154 97.6298 109.642C99.7378 110.844 101.977 111.801 104.303 112.493L103.95 115.619C103.234 115.634 102.518 115.611 101.805 115.551C101.096 115.506 100.389 115.424 99.6889 115.305C98.2387 115.082 96.8175 114.699 95.451 114.165C93.8948 113.58 92.4713 112.69 91.2645 111.547C90.6641 110.925 90.1378 110.236 89.696 109.493L88.6238 107.782C87.2206 105.501 85.8689 103.208 84.5684 100.904C83.2737 98.5822 82.0189 96.2551 80.8154 93.8767L86.4164 90.9564Z" fill="#E58A7B"/>
<path d="M57.915 90.3519C56.2039 94.0079 61.6737 105.552 61.6737 105.552L71.0163 101.217C69.9968 97.942 68.7268 94.75 67.2177 91.6694C64.7765 86.827 59.6489 86.616 57.915 90.3519Z" fill="#1A61DB"/>
<path opacity="0.8" d="M57.915 90.3519C56.2039 94.0079 61.6737 105.552 61.6737 105.552L71.0163 101.217C69.9968 97.942 68.7268 94.75 67.2177 91.6694C64.7765 86.827 59.6489 86.616 57.915 90.3519Z" fill="#FAFAFA"/>
<path d="M62.9282 91.099L60.8179 103.619C61.3198 104.799 61.6734 105.552 61.6734 105.552L71.016 101.217C71.016 101.217 66.7953 93.9223 62.9282 91.099Z" fill="#1A61DB"/>
<path opacity="0.7" d="M62.9282 91.099L60.8179 103.619C61.3198 104.799 61.6734 105.552 61.6734 105.552L71.016 101.217C71.016 101.217 66.7953 93.9223 62.9282 91.099Z" fill="#FAFAFA"/>
<path d="M84.517 88.0419C84.517 88.0419 88.9772 93.0839 84.7679 124.26H62.3582C62.1985 120.838 64.3602 104.041 61.0464 87.8251C63.5235 87.3481 66.0288 87.0319 68.5467 86.8783C71.7191 86.6957 74.8994 86.6957 78.0718 86.8783C80.2468 87.1007 82.4015 87.4897 84.517 88.0419Z" fill="#1A61DB"/>
<path opacity="0.8" d="M84.517 88.0419C84.517 88.0419 88.9772 93.0839 84.7679 124.26H62.3582C62.1985 120.838 64.3602 104.041 61.0464 87.8251C63.5235 87.3481 66.0288 87.0319 68.5467 86.8783C71.7191 86.6957 74.8994 86.6957 78.0718 86.8783C80.2468 87.1007 82.4015 87.4897 84.517 88.0419Z" fill="#FAFAFA"/>
<path d="M86.3249 95.4623L82.8628 104.018L86.3249 109.054C86.6671 104.53 86.6671 99.9864 86.3249 95.4623Z" fill="#1A61DB"/>
<path opacity="0.7" d="M86.3249 95.4623L82.8628 104.018L86.3249 109.054C86.6671 104.53 86.6671 99.9864 86.3249 95.4623Z" fill="#FAFAFA"/>
<path d="M79.0645 90.8081C77.6842 94.5725 83.2282 105.991 83.2282 105.991L93.2666 100.932C91.9807 97.5094 90.3325 94.2339 88.3501 91.1617C85.3442 86.7699 80.5817 86.6957 79.0645 90.8081Z" fill="#1A61DB"/>
<path opacity="0.8" d="M79.0645 90.8081C77.6842 94.5725 83.2282 105.991 83.2282 105.991L93.2666 100.932C91.9807 97.5094 90.3325 94.2339 88.3501 91.1617C85.3442 86.7699 80.5817 86.6957 79.0645 90.8081Z" fill="#FAFAFA"/>
<path d="M103.47 112.642L107.577 110.999L108.717 115.95C108.717 115.95 105.455 117.13 103.082 115.414L103.47 112.642Z" fill="#E58A7B"/>
<path d="M112.105 111.05L111.472 115.476L108.712 115.95L107.577 110.999L112.105 111.05Z" fill="#E58A7B"/>
<path d="M51.6407 192.579H55.8329L53.0552 199.548L49.1768 198.761L51.6407 192.579Z" fill="#CF6F64"/>
<path d="M70.3432 72.0945C69.7728 76.2068 69.2025 78.5853 70.8052 81.1006C73.2407 84.8821 78.642 84.0665 80.4558 80.2108C82.0928 76.743 82.7943 70.5944 79.1554 68.1476C78.3529 67.6124 77.4278 67.2895 76.4666 67.209C75.5055 67.1285 74.5396 67.2931 73.6593 67.6874C72.779 68.0816 72.0131 68.6927 71.4331 69.4635C70.8532 70.2342 70.4782 71.1394 70.3432 72.0945Z" fill="#E58A7B"/>
<path d="M86.1542 65.1816C82.6065 61.902 85.4127 61.0693 85.4127 61.0693C85.4127 61.0693 81.5228 59.4608 83.0628 62.9058C85.2131 67.7083 79.19 66.2311 76.304 62.9058C74.5244 60.8525 69.8417 62.9572 70.0699 64.9592C70.298 66.9611 62.9403 65.4097 66.2712 69.7787C66.334 74.3417 68.1078 78.7791 70.4634 79.9826C74.5016 82.0416 77.5303 76.2809 78.6596 71.6667C84.7511 74.5926 89.8274 68.5753 86.1542 65.1816Z" fill="#263238"/>
<path d="M75.5791 74.4158C75.602 75.4538 75.9647 76.4556 76.6115 77.2676C77.4728 78.3171 78.4538 77.741 78.6819 76.5262C78.8873 75.4311 78.6819 73.566 77.5982 72.9557C76.5145 72.3454 75.5734 73.1724 75.5791 74.4158Z" fill="#E58A7B"/>
<path d="M66.311 65.5066C68.1415 65.4371 69.937 66.0214 71.3759 67.155C71.3759 67.155 70.3435 62.7404 66.311 65.5066Z" fill="#263238"/>
<path d="M74.9521 124.26C74.9521 124.26 75.7905 141.234 78.8876 156.201C79.8743 160.94 79.2298 166.017 76.4521 169.981C68.2902 181.622 55.3486 197.124 55.3486 197.124L48.5669 196.366C48.5669 196.366 59.5465 176.01 65.1703 165.897C66.4479 163.615 67.5772 161.528 66.6133 159.053C57.2992 135.411 62.3355 124.26 62.3355 124.26H74.9521Z" fill="#1A61DB"/>
<path opacity="0.3" d="M74.9521 124.26C74.9521 124.26 75.7905 141.234 78.8876 156.201C79.8743 160.94 79.2298 166.017 76.4521 169.981C68.2902 181.622 55.3486 197.124 55.3486 197.124L48.5669 196.366C48.5669 196.366 59.5465 176.01 65.1703 165.897C66.4479 163.615 67.5772 161.528 66.6133 159.053C57.2992 135.411 62.3355 124.26 62.3355 124.26H74.9521Z" fill="black"/>
<path d="M76.2128 138.93L69.722 131.184C69.4767 134.658 71.5757 147.651 78.7737 155.636C77.6273 150.007 76.8002 144.069 76.2128 138.93Z" fill="#1A61DB"/>
<path opacity="0.4" d="M76.2128 138.93L69.722 131.184C69.4767 134.658 71.5757 147.651 78.7737 155.636C77.6273 150.007 76.8002 144.069 76.2128 138.93Z" fill="black"/>
<path d="M57.2591 196.092L55.9302 198.841L47.7568 196.742L48.4071 194.193L57.2591 196.092Z" fill="#1A61DB"/>
<path opacity="0.1" d="M57.2591 196.092L55.9302 198.841L47.7568 196.742L48.4071 194.193L57.2591 196.092Z" fill="black"/>
<path d="M81.6138 202.275H85.8003L87.0266 192.573H82.8401L81.6138 202.275Z" fill="#E58A7B"/>
<path d="M87.6369 202.48C87.2044 202.48 86.7729 202.44 86.3478 202.36C86.3279 202.357 86.3094 202.348 86.2951 202.333C86.2808 202.319 86.2713 202.301 86.268 202.281C86.2645 202.26 86.2676 202.239 86.2768 202.221C86.2861 202.202 86.301 202.187 86.3193 202.178C86.3821 202.144 87.8422 201.311 88.5438 201.499C88.6093 201.515 88.671 201.543 88.7249 201.584C88.7789 201.624 88.824 201.675 88.8575 201.733C88.9021 201.797 88.9261 201.872 88.9261 201.95C88.9261 202.027 88.9021 202.103 88.8575 202.167C88.6921 202.418 88.173 202.48 87.6369 202.48ZM86.6673 202.218C87.4544 202.326 88.5152 202.309 88.7035 202.047C88.7035 202.013 88.7548 201.956 88.7035 201.83C88.6826 201.795 88.6545 201.764 88.6211 201.741C88.5877 201.717 88.5497 201.701 88.5095 201.693C88.0589 201.585 87.1806 201.967 86.6958 202.229L86.6673 202.218Z" fill="#1A61DB"/>
<path d="M86.3646 202.378C86.346 202.383 86.3263 202.383 86.3076 202.378C86.2945 202.366 86.2841 202.352 86.2771 202.337C86.2702 202.321 86.267 202.304 86.2677 202.286C86.2677 202.235 86.3874 201.106 86.9179 200.672C86.995 200.604 87.0859 200.554 87.1843 200.524C87.2828 200.495 87.3865 200.487 87.4883 200.501C87.762 200.53 87.8362 200.666 87.8533 200.781C87.9331 201.254 86.9293 202.161 86.4274 202.383L86.3646 202.378ZM87.3913 200.666C87.2631 200.666 87.1392 200.712 87.0434 200.798C86.7258 201.159 86.5267 201.609 86.473 202.087C86.992 201.779 87.6708 201.066 87.6137 200.781C87.6137 200.781 87.6137 200.689 87.4198 200.666H87.3913Z" fill="#1A61DB"/>
<path d="M85.9198 201.79H81.3569C81.2733 201.79 81.1923 201.819 81.1277 201.872C81.0632 201.925 81.0192 201.999 81.0033 202.081L80.1705 205.806C80.1507 205.895 80.1515 205.989 80.1728 206.078C80.1941 206.168 80.2354 206.251 80.2936 206.322C80.3517 206.394 80.4252 206.451 80.5086 206.49C80.592 206.529 80.6831 206.548 80.7751 206.547C82.4292 206.519 84.8133 206.422 86.8837 206.422C89.3135 206.422 91.4068 206.558 94.2529 206.558C95.964 206.558 96.4488 204.847 95.7301 204.659C92.4505 203.94 89.7755 203.866 86.9408 202.121C86.6393 201.915 86.2849 201.8 85.9198 201.79Z" fill="#263238"/>
<path d="M82.8405 192.579H87.0327L86.1315 199.645L82.0249 199.012L82.8405 192.579Z" fill="#CF6F64"/>
<path d="M84.7679 124.26C84.7679 124.26 88.2757 135.987 94.0706 151.067C95.9585 155.973 96.6886 160.695 95.3767 164.847C91.31 177.738 87.7965 197.124 87.7965 197.124L80.8096 196.366C80.8096 196.366 80.5415 176.591 83.0169 166.399C84.2888 161.169 83.8553 159.264 82.5492 157.535C64.7537 133.859 69.5334 124.277 69.5334 124.277L84.7679 124.26Z" fill="#1A61DB"/>
<path opacity="0.3" d="M84.7679 124.26C84.7679 124.26 88.2757 135.987 94.0706 151.067C95.9585 155.973 96.6886 160.695 95.3767 164.847C91.31 177.738 87.7965 197.124 87.7965 197.124L80.8096 196.366C80.8096 196.366 80.5415 176.591 83.0169 166.399C84.2888 161.169 83.8553 159.264 82.5492 157.535C64.7537 133.859 69.5334 124.277 69.5334 124.277L84.7679 124.26Z" fill="black"/>
<path d="M89.0057 195.938L88.6407 198.722L80.3932 197.324L80.1479 194.78L89.0057 195.938Z" fill="#1A61DB"/>
<path opacity="0.1" d="M89.0057 195.938L88.6407 198.722L80.3932 197.324L80.1479 194.78L89.0057 195.938Z" fill="black"/>
<path d="M149.625 53.4661H142.495V54.0364H149.625V53.4661Z" fill="#1A61DB"/>
<path opacity="0.2" d="M149.625 53.4661H142.495V54.0364H149.625V53.4661Z" fill="black"/>
<path d="M128.812 29.9329H167.443C168.473 29.9344 169.46 30.3441 170.188 31.0722C170.916 31.8003 171.326 32.7874 171.327 33.8171V48.1561C171.326 49.1858 170.916 50.1728 170.188 50.901C169.46 51.6291 168.473 52.0388 167.443 52.0403H164.762L165.806 56.2553C164.291 56.1175 162.82 55.6727 161.482 54.948C160.145 54.2234 158.969 53.234 158.026 52.0403H128.812C127.783 52.0373 126.796 51.6271 126.069 50.8993C125.341 50.1715 124.931 49.1853 124.928 48.1561V33.8171C124.931 32.7878 125.341 31.8016 126.069 31.0738C126.796 30.3461 127.783 29.9359 128.812 29.9329Z" fill="#1A61DB"/>
<path opacity="0.2" d="M128.812 29.9329H167.443C168.473 29.9344 169.46 30.3441 170.188 31.0722C170.916 31.8003 171.326 32.7874 171.327 33.8171V48.1561C171.326 49.1858 170.916 50.1728 170.188 50.901C169.46 51.6291 168.473 52.0388 167.443 52.0403H164.762L165.806 56.2553C164.291 56.1175 162.82 55.6727 161.482 54.948C160.145 54.2234 158.969 53.234 158.026 52.0403H128.812C127.783 52.0373 126.796 51.6271 126.069 50.8993C125.341 50.1715 124.931 49.1853 124.928 48.1561V33.8171C124.931 32.7878 125.341 31.8016 126.069 31.0738C126.796 30.3461 127.783 29.9359 128.812 29.9329Z" fill="black"/>
<path d="M150.127 9.79309H149.557V14.5442H150.127V9.79309Z" fill="#1A61DB"/>
<path opacity="0.1" d="M150.127 9.79309H149.557V14.5442H150.127V9.79309Z" fill="#FAFAFA"/>
<path d="M144.246 3.54187H105.615C104.587 3.54337 103.602 3.95151 102.874 4.67715C102.147 5.40279 101.735 6.38695 101.731 7.41466V21.7651C101.732 22.7948 102.142 23.7819 102.87 24.51C103.598 25.2381 104.585 25.6478 105.615 25.6493H108.296L107.229 29.8643C108.747 29.7316 110.221 29.2909 111.563 28.5691C112.905 27.8473 114.085 26.8597 115.032 25.6664H144.246C145.275 25.6634 146.262 25.2532 146.989 24.5254C147.717 23.7976 148.127 22.8114 148.13 21.7822V7.41466C148.124 6.38741 147.713 5.40412 146.985 4.6788C146.258 3.95349 145.273 3.54486 144.246 3.54187Z" fill="#1A61DB"/>
<path opacity="0.1" d="M144.246 3.54187H105.615C104.587 3.54337 103.602 3.95151 102.874 4.67715C102.147 5.40279 101.735 6.38695 101.731 7.41466V21.7651C101.732 22.7948 102.142 23.7819 102.87 24.51C103.598 25.2381 104.585 25.6478 105.615 25.6493H108.296L107.229 29.8643C108.747 29.7316 110.221 29.2909 111.563 28.5691C112.905 27.8473 114.085 26.8597 115.032 25.6664H144.246C145.275 25.6634 146.262 25.2532 146.989 24.5254C147.717 23.7976 148.127 22.8114 148.13 21.7822V7.41466C148.124 6.38741 147.713 5.40412 146.985 4.6788C146.258 3.95349 145.273 3.54486 144.246 3.54187Z" fill="#FAFAFA"/>
</svg>
