<svg width="268" height="278" viewBox="0 0 268 278" fill="none" xmlns="http://www.w3.org/2000/svg">
<path d="M182.257 35.7649H83.2398C78.2787 35.7649 74.2568 39.7867 74.2568 44.7479V255.069C74.2568 260.03 78.2787 264.052 83.2398 264.052H182.257C187.218 264.052 191.24 260.03 191.24 255.069V44.7479C191.24 39.7867 187.218 35.7649 182.257 35.7649Z" fill="#263238"/>
<path opacity="0.2" d="M84.3349 35.7649C83.0109 35.7649 81.6999 36.0258 80.4767 36.5326C79.2536 37.0395 78.1424 37.7824 77.2064 38.7189C76.2705 39.6554 75.5283 40.7671 75.0222 41.9905C74.5161 43.214 74.256 44.5251 74.2568 45.8491V253.968C74.2548 255.443 74.5775 256.9 75.2019 258.237C75.8263 259.573 76.7371 260.756 77.8698 261.701L146.121 35.7649H84.3349Z" fill="white"/>
<path d="M136.717 257.451C136.717 256.664 136.484 255.894 136.046 255.24C135.609 254.586 134.987 254.076 134.26 253.775C133.533 253.474 132.733 253.396 131.961 253.55C131.189 253.704 130.48 254.083 129.924 254.64C129.368 255.197 128.99 255.906 128.837 256.678C128.684 257.45 128.764 258.25 129.066 258.977C129.368 259.704 129.879 260.325 130.534 260.761C131.189 261.198 131.958 261.43 132.745 261.429C133.268 261.429 133.785 261.327 134.268 261.127C134.75 260.928 135.189 260.635 135.558 260.265C135.927 259.895 136.219 259.456 136.418 258.973C136.617 258.491 136.719 257.973 136.717 257.451V257.451Z" stroke="white" stroke-linecap="round" stroke-linejoin="round"/>
<path d="M182.257 35.7649H83.2398C78.2787 35.7649 74.2568 39.7867 74.2568 44.7479V255.069C74.2568 260.03 78.2787 264.052 83.2398 264.052H182.257C187.218 264.052 191.24 260.03 191.24 255.069V44.7479C191.24 39.7867 187.218 35.7649 182.257 35.7649Z" stroke="#263238" stroke-linecap="round" stroke-linejoin="round"/>
<path d="M186.031 51.2686H79.4536V250.503H186.031V51.2686Z" fill="white" stroke="#263238" stroke-linecap="round" stroke-linejoin="round"/>
<path d="M182.405 53.335H173.571V58.1791H182.405V53.335Z" stroke="#263238" stroke-width="0.821067" stroke-linecap="round" stroke-linejoin="round"/>
<path d="M180.463 53.335H173.571V58.1791H180.463V53.335Z" fill="#263238" stroke="#263238" stroke-width="0.725073" stroke-linecap="round" stroke-linejoin="round"/>
<path d="M183.63 54.6898H182.387V56.8242H183.63V54.6898Z" fill="#263238" stroke="#263238" stroke-width="0.725073" stroke-linecap="round" stroke-linejoin="round"/>
<path d="M83.4749 54.8383H81.854V57.6161H83.4749V54.8383Z" fill="#263238" stroke="#263238" stroke-width="0.883086" stroke-linecap="round" stroke-linejoin="round"/>
<path d="M86.0237 53.8608H84.4028V57.6161H86.0237V53.8608Z" fill="#263238" stroke="#263238" stroke-width="0.883086" stroke-linecap="round" stroke-linejoin="round"/>
<path d="M88.5667 52.7101H86.9458V57.6161H88.5667V52.7101Z" fill="#263238" stroke="#263238" stroke-width="0.883086" stroke-linecap="round" stroke-linejoin="round"/>
<path d="M183.513 60.8765H81.1733V68.5726H183.513V60.8765Z" fill="#8CB0ED"/>
<path d="M177.388 170.411H145.935C144.905 170.411 143.917 170.82 143.188 171.549C142.46 172.277 142.05 173.266 142.05 174.296V178.156L134.28 181.652L142.05 183.737V186.15C142.05 187.18 142.46 188.168 143.188 188.897C143.917 189.625 144.905 190.035 145.935 190.035H177.419C178.45 190.035 179.438 189.625 180.166 188.897C180.895 188.168 181.304 187.18 181.304 186.15V174.302C181.305 173.789 181.204 173.28 181.008 172.806C180.811 172.332 180.522 171.902 180.158 171.54C179.794 171.178 179.361 170.892 178.886 170.698C178.411 170.504 177.902 170.407 177.388 170.411Z" fill="white" stroke="#263238" stroke-miterlimit="10"/>
<path d="M156.156 180.538C156.156 180.863 156.06 181.18 155.879 181.45C155.699 181.72 155.442 181.93 155.142 182.054C154.842 182.178 154.512 182.21 154.194 182.146C153.876 182.082 153.584 181.925 153.355 181.695C153.126 181.466 152.97 181.173 152.908 180.854C152.845 180.536 152.878 180.206 153.004 179.907C153.129 179.607 153.34 179.352 153.61 179.172C153.881 178.993 154.198 178.898 154.523 178.899C154.738 178.899 154.95 178.941 155.149 179.024C155.348 179.106 155.528 179.227 155.68 179.379C155.831 179.532 155.952 179.713 156.033 179.911C156.115 180.11 156.157 180.323 156.156 180.538Z" fill="#263238"/>
<path d="M163.308 180.538C163.306 180.861 163.21 181.176 163.029 181.444C162.849 181.712 162.594 181.92 162.295 182.043C161.996 182.166 161.668 182.197 161.352 182.133C161.035 182.07 160.745 181.914 160.517 181.685C160.289 181.456 160.134 181.165 160.072 180.849C160.009 180.532 160.042 180.204 160.166 179.906C160.29 179.608 160.499 179.353 160.768 179.174C161.036 178.995 161.352 178.899 161.674 178.899C161.889 178.899 162.102 178.941 162.301 179.024C162.499 179.106 162.68 179.227 162.831 179.379C162.983 179.532 163.103 179.713 163.185 179.911C163.267 180.11 163.308 180.323 163.308 180.538Z" fill="#263238"/>
<path d="M170.465 180.538C170.465 180.863 170.369 181.18 170.189 181.449C170.009 181.719 169.753 181.929 169.453 182.053C169.154 182.177 168.824 182.21 168.506 182.146C168.188 182.083 167.896 181.927 167.667 181.698C167.437 181.468 167.281 181.176 167.218 180.858C167.155 180.54 167.187 180.211 167.311 179.911C167.435 179.611 167.646 179.355 167.915 179.175C168.185 178.995 168.502 178.899 168.826 178.899C169.261 178.899 169.678 179.072 169.985 179.379C170.293 179.687 170.465 180.104 170.465 180.538Z" fill="#263238"/>
<path d="M177.388 77.6113H145.935C144.906 77.6113 143.919 78.0198 143.19 78.7471C142.462 79.4744 142.052 80.461 142.05 81.4903V85.357L134.28 88.8524L142.05 90.9373V93.3501C142.05 94.3805 142.46 95.3688 143.188 96.0974C143.917 96.826 144.905 97.2353 145.935 97.2353H177.419C178.45 97.2353 179.438 96.826 180.166 96.0974C180.895 95.3688 181.304 94.3805 181.304 93.3501V81.5027C181.305 80.9894 181.204 80.4809 181.008 80.0068C180.811 79.5327 180.522 79.1023 180.158 78.7405C179.794 78.3786 179.361 78.0925 178.886 77.8987C178.411 77.7049 177.902 77.6072 177.388 77.6113Z" fill="white" stroke="#263238" stroke-miterlimit="10"/>
<path d="M156.156 87.7388C156.156 88.0634 156.06 88.3806 155.879 88.6503C155.699 88.9201 155.442 89.1302 155.142 89.2541C154.842 89.378 154.512 89.4101 154.194 89.3463C153.876 89.2826 153.584 89.1258 153.355 88.8959C153.126 88.666 152.97 88.3733 152.908 88.0549C152.845 87.7364 152.878 87.4066 153.004 87.1072C153.129 86.8077 153.34 86.5521 153.61 86.3727C153.881 86.1933 154.198 86.0982 154.523 86.0994C154.738 86.0994 154.95 86.1418 155.149 86.2243C155.348 86.3068 155.528 86.4276 155.68 86.5799C155.831 86.7323 155.952 86.913 156.033 87.1119C156.115 87.3108 156.157 87.5238 156.156 87.7388Z" fill="#263238"/>
<path d="M163.308 87.7388C163.306 88.0616 163.21 88.3768 163.029 88.6445C162.849 88.9123 162.594 89.1207 162.295 89.2434C161.996 89.366 161.668 89.3975 161.352 89.3338C161.035 89.2701 160.745 89.114 160.517 88.8854C160.289 88.6567 160.134 88.3657 160.072 88.049C160.009 87.7324 160.042 87.4043 160.166 87.1062C160.29 86.8081 160.499 86.5534 160.768 86.3742C161.036 86.195 161.352 86.0994 161.674 86.0994C161.889 86.0994 162.102 86.1418 162.301 86.2243C162.499 86.3068 162.68 86.4276 162.831 86.5799C162.983 86.7322 163.103 86.913 163.185 87.1119C163.267 87.3108 163.308 87.5238 163.308 87.7388Z" fill="#263238"/>
<path d="M170.465 87.7388C170.465 88.0631 170.369 88.3801 170.189 88.6497C170.009 88.9193 169.753 89.1294 169.453 89.2535C169.154 89.3776 168.824 89.41 168.506 89.3468C168.188 89.2835 167.896 89.1274 167.667 88.8981C167.437 88.6688 167.281 88.3767 167.218 88.0587C167.155 87.7406 167.187 87.411 167.311 87.1114C167.435 86.8119 167.646 86.5558 167.915 86.3757C168.185 86.1955 168.502 86.0994 168.826 86.0994C169.261 86.0994 169.678 86.2721 169.985 86.5796C170.293 86.887 170.465 87.304 170.465 87.7388Z" fill="#263238"/>
<path d="M88.6411 220.702H120.125C121.155 220.702 122.144 221.111 122.872 221.84C123.601 222.569 124.01 223.557 124.01 224.587V228.448L131.781 231.943L124.01 234.028V236.441C124.01 237.471 123.601 238.46 122.872 239.188C122.144 239.917 121.155 240.326 120.125 240.326H88.6411C87.6107 240.326 86.6225 239.917 85.8939 239.188C85.1653 238.46 84.7559 237.471 84.7559 236.441V224.612C84.7527 224.1 84.8508 223.592 85.0445 223.118C85.2383 222.643 85.524 222.212 85.8851 221.849C86.2462 221.485 86.6756 221.197 87.1486 221C87.6216 220.803 88.1288 220.702 88.6411 220.702Z" fill="white" stroke="#263238" stroke-miterlimit="10"/>
<path d="M109.874 230.854C109.872 231.179 109.968 231.497 110.147 231.767C110.327 232.038 110.583 232.249 110.883 232.374C111.183 232.499 111.513 232.532 111.831 232.469C112.15 232.406 112.443 232.249 112.672 232.02C112.902 231.79 113.058 231.497 113.121 231.179C113.184 230.86 113.151 230.53 113.026 230.23C112.902 229.93 112.691 229.674 112.42 229.495C112.149 229.315 111.832 229.22 111.507 229.221C111.074 229.221 110.658 229.393 110.352 229.699C110.046 230.006 109.874 230.421 109.874 230.854Z" fill="#263238"/>
<path d="M102.722 230.854C102.722 231.178 102.818 231.493 102.997 231.762C103.177 232.03 103.432 232.24 103.73 232.363C104.029 232.487 104.357 232.519 104.674 232.456C104.991 232.393 105.282 232.238 105.51 232.009C105.739 231.781 105.894 231.49 105.957 231.173C106.02 230.856 105.988 230.528 105.864 230.229C105.741 229.931 105.531 229.676 105.263 229.496C104.994 229.317 104.678 229.221 104.355 229.221C103.922 229.221 103.507 229.393 103.201 229.7C102.894 230.006 102.722 230.421 102.722 230.854Z" fill="#263238"/>
<path d="M95.564 230.854C95.5628 231.179 95.6579 231.497 95.8373 231.767C96.0167 232.037 96.2723 232.248 96.5717 232.374C96.8712 232.499 97.201 232.532 97.5195 232.469C97.8379 232.407 98.1306 232.251 98.3605 232.022C98.5904 231.793 98.7472 231.501 98.8109 231.183C98.8747 230.865 98.8426 230.535 98.7187 230.235C98.5948 229.935 98.3846 229.678 98.1149 229.498C97.8452 229.318 97.5279 229.221 97.2034 229.221C96.7697 229.221 96.3536 229.393 96.0463 229.699C95.7391 230.005 95.5656 230.421 95.564 230.854Z" fill="#263238"/>
<path d="M88.6411 126.665H120.125C121.155 126.665 122.144 127.074 122.872 127.803C123.601 128.532 124.01 129.52 124.01 130.55V134.411L131.78 137.906L124.01 139.991V142.404C124.01 143.434 123.601 144.423 122.872 145.151C122.144 145.88 121.155 146.289 120.125 146.289H88.6411C87.6106 146.289 86.6224 145.88 85.8938 145.151C85.1652 144.423 84.7559 143.434 84.7559 142.404V130.544C84.7575 129.515 85.1676 128.528 85.896 127.801C86.6244 127.074 87.6117 126.665 88.6411 126.665Z" fill="white" stroke="#263238" stroke-miterlimit="10"/>
<path d="M109.874 136.787C109.874 137.111 109.97 137.428 110.15 137.698C110.331 137.968 110.587 138.178 110.887 138.302C111.187 138.426 111.517 138.458 111.835 138.394C112.153 138.33 112.445 138.174 112.674 137.944C112.903 137.714 113.059 137.421 113.122 137.103C113.184 136.784 113.151 136.454 113.026 136.155C112.901 135.855 112.69 135.6 112.419 135.42C112.149 135.241 111.831 135.146 111.507 135.147C111.292 135.147 111.079 135.19 110.88 135.272C110.682 135.354 110.501 135.475 110.35 135.628C110.198 135.78 110.078 135.961 109.996 136.16C109.914 136.359 109.873 136.572 109.874 136.787Z" fill="#263238"/>
<path d="M102.722 136.787C102.723 137.109 102.82 137.424 103 137.692C103.18 137.96 103.436 138.168 103.734 138.291C104.033 138.414 104.361 138.445 104.677 138.381C104.994 138.318 105.284 138.162 105.512 137.933C105.74 137.704 105.895 137.413 105.957 137.097C106.02 136.78 105.987 136.452 105.863 136.154C105.74 135.856 105.53 135.601 105.262 135.422C104.993 135.243 104.678 135.147 104.355 135.147C104.14 135.147 103.927 135.19 103.729 135.272C103.53 135.354 103.35 135.475 103.198 135.628C103.046 135.78 102.926 135.961 102.844 136.16C102.763 136.358 102.721 136.572 102.722 136.787Z" fill="#263238"/>
<path d="M95.564 136.787C95.564 137.111 95.6601 137.428 95.8403 137.697C96.0204 137.967 96.2765 138.177 96.576 138.301C96.8756 138.425 97.2052 138.458 97.5233 138.395C97.8413 138.331 98.1334 138.175 98.3627 137.946C98.592 137.717 98.7481 137.424 98.8114 137.106C98.8746 136.788 98.8422 136.459 98.7181 136.159C98.594 135.86 98.3839 135.604 98.1143 135.423C97.8446 135.243 97.5277 135.147 97.2034 135.147C96.7686 135.147 96.3516 135.32 96.0442 135.627C95.7367 135.935 95.564 136.352 95.564 136.787Z" fill="#263238"/>
<path d="M134.465 124.123C133.735 120.899 130.914 108.786 129.151 106.41C127.116 103.663 115.336 97.2849 113.653 96.1342C111.971 94.9834 109.403 94.0988 108.605 94.0988C108.605 94.0988 102.14 96.3136 95.7678 97.9963C89.3956 99.6791 85.8692 100.83 85.1392 102.946C84.5205 104.802 81.6932 120.404 81.0312 124.11L134.465 124.123Z" fill="#A0FADD" stroke="#263238" stroke-linecap="round" stroke-linejoin="round"/>
<path d="M95.8233 123.015C95.5552 118.392 95.2933 113.772 95.0376 109.157" stroke="#263238" stroke-linecap="round" stroke-linejoin="round"/>
<path d="M113.387 108.266C116.4 107.827 118.083 102.333 118.528 100.032C118.59 99.6977 118.652 99.4131 118.708 99.1347C116.307 97.7179 114.278 96.5672 113.653 96.1342C111.97 94.9834 109.403 94.0988 108.605 94.0988C108.605 94.0988 106.248 94.9092 102.975 95.9176C103.414 96.9199 104.534 99.3945 106.217 102.692C108.432 107.029 110.381 108.724 113.387 108.266Z" fill="white" stroke="#263238" stroke-linecap="round" stroke-linejoin="round"/>
<path d="M106.656 86.0375C106.656 86.0375 105.772 95.1628 105.685 95.6949C105.598 96.2269 106.836 99.7657 108.964 103.045C111.092 106.324 113.913 106.057 115.336 103.218C116.4 100.846 117.259 98.3867 117.904 95.8681C116.527 95.5724 115.233 94.9752 114.115 94.1193C112.997 93.2635 112.083 92.1704 111.439 90.9188C109.316 86.6624 107.541 84.8002 106.656 86.0375Z" fill="#B2B2B2" stroke="#263238" stroke-linecap="round" stroke-linejoin="round"/>
<path d="M112.768 64.341C112.768 64.341 107.102 66.0238 105.066 70.4534C103.408 74.054 104.355 79.6653 105.066 81.5213C105.778 83.3773 106.037 87.0151 107.368 90.294C108.698 93.5729 112.236 97.7179 115.249 98.3366C118.262 98.9553 124.195 94.173 125.767 91.9644C127.338 89.7557 126.831 85.9386 127.004 85.3199C127.177 84.7013 129.479 80.2716 129.219 74.8026C128.959 69.3336 121.362 62.8377 112.768 64.341Z" fill="#B2B2B2" stroke="#263238" stroke-linecap="round" stroke-linejoin="round"/>
<path d="M123.664 84.7136C123.664 84.7136 124.462 89.8485 123.218 90.3806C121.975 90.9126 119.587 90.1146 119.234 89.4031" stroke="#263238" stroke-linecap="round" stroke-linejoin="round"/>
<path d="M118.529 92.1499C117.157 91.5094 115.968 90.5352 115.07 89.3164C115.07 89.3164 113.121 92.2365 115.25 93.0284C115.816 93.2683 116.446 93.3122 117.04 93.153C117.634 92.9939 118.158 92.6408 118.529 92.1499Z" fill="#263238" stroke="#263238" stroke-linecap="round" stroke-linejoin="round"/>
<path d="M119.561 84.5527C119.345 85.2518 118.887 85.7343 118.535 85.6291C118.182 85.524 118.077 84.8682 118.287 84.1629C118.497 83.4576 118.961 82.9813 119.308 83.0864C119.654 83.1916 119.772 83.8474 119.561 84.5527Z" fill="#263238"/>
<path d="M125.761 85.5241C125.544 86.2293 125.086 86.7119 124.734 86.6005C124.381 86.4892 124.276 85.8396 124.486 85.1405C124.697 84.4414 125.161 83.9527 125.513 84.0578C125.866 84.163 125.971 84.825 125.761 85.5241Z" fill="#263238"/>
<path d="M121.362 81.3975C121.215 81.399 121.073 81.3436 120.966 81.2428C119.314 79.659 117.464 81.1191 117.384 81.181C117.326 81.2281 117.259 81.2633 117.187 81.2846C117.116 81.3059 117.04 81.3129 116.966 81.3051C116.892 81.2974 116.82 81.275 116.754 81.2394C116.688 81.2038 116.63 81.1555 116.583 81.0974C116.536 81.0393 116.5 80.9725 116.479 80.9008C116.458 80.8291 116.451 80.754 116.459 80.6796C116.466 80.6052 116.489 80.533 116.524 80.4673C116.56 80.4015 116.608 80.3434 116.666 80.2963C117.381 79.6857 118.295 79.3601 119.235 79.3818C120.174 79.4034 121.073 79.7709 121.758 80.4138C121.865 80.5216 121.925 80.6672 121.925 80.819C121.925 80.9708 121.865 81.1165 121.758 81.2243C121.707 81.2778 121.645 81.3207 121.577 81.3504C121.509 81.3801 121.436 81.3961 121.362 81.3975Z" fill="#263238"/>
<path d="M127.914 83.3587C127.818 83.3584 127.724 83.3345 127.64 83.2892C127.556 83.2439 127.484 83.1785 127.431 83.0989C127.318 82.8737 127.157 82.676 126.959 82.52C126.761 82.3639 126.532 82.2532 126.286 82.1956C125.857 82.1776 125.436 82.3186 125.105 82.5916C125.049 82.6415 124.984 82.68 124.914 82.7049C124.843 82.7298 124.768 82.7405 124.694 82.7365C124.619 82.7325 124.546 82.7138 124.478 82.6815C124.411 82.6492 124.35 82.6039 124.301 82.5483C124.251 82.4926 124.212 82.4277 124.187 82.3571C124.162 82.2866 124.152 82.2118 124.156 82.1372C124.16 82.0625 124.178 81.9893 124.211 81.9219C124.243 81.8544 124.288 81.794 124.344 81.744C124.63 81.4956 124.963 81.3073 125.323 81.1903C125.684 81.0734 126.064 81.0303 126.441 81.0635C126.853 81.1373 127.242 81.303 127.581 81.5483C127.919 81.7936 128.198 82.1122 128.396 82.4802C128.452 82.5665 128.483 82.6663 128.487 82.769C128.491 82.8717 128.467 82.9735 128.417 83.0636C128.368 83.1537 128.295 83.2287 128.206 83.2806C128.117 83.3326 128.016 83.3596 127.914 83.3587Z" fill="#263238"/>
<path d="M105.215 81.9729C105.252 82.0842 105.283 82.1956 105.314 82.3131V82.3874C105.351 82.5111 105.382 82.641 105.413 82.771V82.8081C105.413 82.9566 105.481 83.105 105.512 83.2597L108.308 82.641C108.308 82.641 110.876 83.1731 111.234 82.2884C111.593 81.4037 109.904 80.0736 111.142 78.7496C112.379 77.4257 115.837 78.3042 116.19 76.6214C116.543 74.9387 117.427 68.9191 124.604 70.7751C126.067 71.2516 127.47 71.8951 128.786 72.6929C127.041 67.7931 120.261 62.9923 112.738 64.31C112.738 64.31 107.071 65.9928 105.035 70.4224C103.377 74.023 104.324 79.6343 105.035 81.4903C105.079 81.6079 105.122 81.7378 105.165 81.8677L105.215 81.9729Z" fill="#263238" stroke="#263238" stroke-linecap="round" stroke-linejoin="round"/>
<path d="M109.583 84.1816C109.583 84.1816 108.785 80.7294 106.656 80.3706C104.528 80.0118 103.736 82.5854 104.182 84.8869C104.627 87.1883 106.922 89.3165 108.964 88.6978" fill="#B2B2B2"/>
<path d="M109.583 84.1816C109.583 84.1816 108.785 80.7294 106.656 80.3706C104.528 80.0118 103.736 82.5854 104.182 84.8869C104.627 87.1883 106.922 89.3165 108.964 88.6978" stroke="#263238" stroke-linecap="round" stroke-linejoin="round"/>
<path d="M116.598 124.123C118.213 122.365 121.968 118.289 122.247 118.01C122.525 117.732 123.131 117.657 125.167 117.125C127.202 116.593 130.568 115.443 131.1 114.997C131.898 114.488 132.615 113.862 133.228 113.141C133.66 112.429 134.045 111.689 134.379 110.926C134.645 110.481 136.767 109.51 137.299 109.07C137.831 108.631 138.363 107.746 138.183 107.301C138.004 106.856 134.911 107.746 132.077 108.365C130.561 108.715 129.02 108.951 127.468 109.07C127.468 109.07 129.064 106.769 130.036 105.705C131.007 104.641 130.654 102.339 129.949 103.23C129.244 104.121 124.727 108.724 123.762 109.077C122.797 109.429 120.576 112.708 119.067 114.218C117.829 115.455 107.77 121.97 104.404 124.116L116.598 124.123Z" fill="#B2B2B2" stroke="#263238" stroke-linecap="round" stroke-linejoin="round"/>
<path d="M134.379 110.926L131.366 111.99" stroke="#263238" stroke-linecap="round" stroke-linejoin="round"/>
<path d="M184.255 124.122H82.7759" stroke="#263238" stroke-linecap="round" stroke-linejoin="round"/>
<path d="M184.014 169.211C183.705 166.853 182.387 157.617 180.444 153.373C179.511 151.308 178.15 149.465 176.451 147.965C174.752 146.466 172.754 145.344 170.589 144.674C167.032 143.598 162.392 142.688 160.072 143.016C160.072 143.016 152.369 145.67 149.06 146.413C145.75 147.155 142.316 149.475 140.906 151.467C139.668 153.237 133.185 166.346 131.78 169.211H184.014Z" fill="white" stroke="#263238" stroke-linecap="round" stroke-linejoin="round"/>
<path d="M184.014 169.211C183.705 166.853 182.387 157.617 180.444 153.373C179.511 151.308 178.15 149.465 176.451 147.965C174.752 146.466 172.754 145.344 170.589 144.674C167.032 143.598 162.392 142.688 160.072 143.016C160.072 143.016 154.795 144.835 151.095 145.881C149.938 147.687 147.34 151.696 144.908 155.111C141.815 159.442 140.578 165.703 142.254 169.211H184.014Z" fill="#FB9DDF" stroke="#263238" stroke-linecap="round" stroke-linejoin="round"/>
<path d="M155.104 138.216C155.861 141.106 156.141 144.1 155.933 147.081C155.599 152.136 152.951 155.365 153.947 157.932C154.943 160.5 158.896 161.49 162.392 158.761C165.887 156.033 166.53 149.321 166.617 146.339C166.704 143.357 168.108 134.089 168.108 134.089C168.108 134.089 164.396 138.475 160.065 138.642C155.735 138.81 155.104 138.216 155.104 138.216Z" fill="white" stroke="#263238" stroke-linecap="round" stroke-linejoin="round"/>
<path d="M156.014 114.533C156.014 114.533 150.446 115.523 147.903 120.411C145.428 125.094 146.604 132.969 149.047 137.634C152.141 143.524 151.955 145.541 151.986 150.744C152.016 151.095 151.973 151.449 151.86 151.783C151.747 152.117 151.567 152.425 151.33 152.686C150.056 153.924 149.889 152.068 149.555 153.119C149.221 154.171 152.648 156.497 156.181 153.422C158.47 151.424 158.995 145.838 157.919 142.602C156.843 139.366 151.46 132.666 152.623 127.451C153.786 122.236 157.839 117.93 158.191 115.938C158.544 113.945 156.014 114.533 156.014 114.533Z" fill="#263238"/>
<path d="M156.248 117.565C156.248 117.565 146.622 123.337 148.125 132.27C149.629 141.204 159.261 143.814 158.352 153.02" stroke="#636363" stroke-linecap="round" stroke-linejoin="round"/>
<path d="M156.014 114.533C156.014 114.533 150.446 115.523 147.903 120.411C145.428 125.094 146.604 132.969 149.047 137.634C152.141 143.524 151.955 145.541 151.986 150.744C152.016 151.095 151.973 151.449 151.86 151.783C151.747 152.117 151.567 152.425 151.33 152.686C150.056 153.924 149.889 152.068 149.555 153.119C149.221 154.171 152.648 156.497 156.181 153.422C158.47 151.424 158.995 145.838 157.919 142.602C156.843 139.366 151.46 132.666 152.623 127.451C153.786 122.236 157.839 117.93 158.191 115.938C158.544 113.945 156.014 114.533 156.014 114.533Z" stroke="#263238" stroke-linecap="round" stroke-linejoin="round"/>
<path d="M171.431 169.211H184.014V169.093V169V168.864V168.734V168.679V168.555V168.518V168.357V168.19V168.147V167.998V167.93C184.017 167.874 184.017 167.819 184.014 167.763V167.72C184.014 167.658 184.014 167.596 184.014 167.534V167.491C184.014 167.429 184.014 167.373 184.014 167.317V167.237C184.014 167.181 184.014 167.126 184.014 167.064V167.002L183.977 166.779L183.94 166.557V166.507L183.903 166.266C183.903 166.173 183.872 166.08 183.859 165.987C183.816 165.703 183.767 165.406 183.717 165.103C183.717 165.01 183.717 164.917 183.668 164.824V164.793C183.668 164.701 183.637 164.608 183.618 164.515V164.472C183.618 164.385 183.587 164.298 183.569 164.206V164.138C183.569 164.057 183.569 163.977 183.525 163.896V163.797L183.488 163.581V163.469L183.451 163.259V163.154C183.451 163.08 183.42 163.005 183.408 162.931V162.826C183.408 162.752 183.377 162.678 183.365 162.603V162.492C183.365 162.418 183.365 162.35 183.321 162.275V162.164C183.321 162.09 183.321 162.016 183.278 161.941V161.824C183.278 161.756 183.247 161.681 183.235 161.607V161.49C183.235 161.415 183.204 161.347 183.185 161.273V161.156C183.185 161.081 183.185 161.007 183.136 160.933C183.139 160.896 183.139 160.859 183.136 160.822C183.136 160.747 183.105 160.667 183.092 160.593V160.481L182.437 160.073V159.98C182.437 159.894 182.399 159.801 182.375 159.708V159.646L182.3 159.324C182.251 159.102 182.195 158.879 182.14 158.656V158.607C182.14 158.514 182.096 158.421 182.078 158.328V158.229L182.022 158.007C182.01 157.968 181.999 157.929 181.991 157.889L181.935 157.679C181.935 157.642 181.935 157.598 181.905 157.561C181.874 157.524 181.874 157.431 181.855 157.363L181.818 157.233C181.818 157.171 181.787 157.11 181.768 157.048L181.731 156.918L181.682 156.738L181.645 156.602C181.645 156.547 181.614 156.491 181.595 156.429L181.558 156.299C181.539 156.244 181.522 156.189 181.509 156.132C181.509 156.083 181.478 156.039 181.465 155.996C181.453 155.953 181.465 155.885 181.416 155.835C181.366 155.786 181.416 155.748 181.372 155.699C181.359 155.647 181.342 155.595 181.323 155.544C181.311 155.5 181.297 155.457 181.28 155.414C181.266 155.36 181.249 155.306 181.23 155.254C181.23 155.216 181.23 155.173 181.187 155.13C181.144 155.087 181.156 155.025 181.137 154.975C181.119 154.926 181.106 154.895 181.094 154.851L181.038 154.703C181.027 154.663 181.012 154.624 180.995 154.585C180.981 154.535 180.965 154.485 180.946 154.437C180.928 154.401 180.914 154.364 180.902 154.326L180.847 154.177C180.847 154.14 180.847 154.103 180.803 154.072L180.741 153.923L180.704 153.824C180.704 153.769 180.661 153.719 180.636 153.67C180.623 153.642 180.613 153.613 180.605 153.583L180.5 153.36C179.608 151.408 178.335 149.654 176.755 148.202C175.175 146.75 173.321 145.628 171.301 144.903C170.75 146.827 169.364 152.21 169.698 156.658C169.995 160.89 170.973 166.656 171.431 169.211Z" fill="white" stroke="#263238" stroke-linecap="round" stroke-linejoin="round"/>
<path d="M156.762 114.861C156.762 114.861 153.613 117.262 152.623 119.916C151.633 122.57 150.798 129.27 150.965 131.924C151.132 134.578 154.523 139.212 155.915 140.369C157.307 141.525 163.339 140.202 166.184 137.554C168.152 135.698 169.828 129.356 168.504 123.145C167.18 116.934 160.821 113.37 156.762 114.861Z" fill="white" stroke="#263238" stroke-linecap="round" stroke-linejoin="round"/>
<path d="M159.497 126.956C159.497 126.956 161.315 125.051 164.378 126.622" stroke="#263238" stroke-linecap="round" stroke-linejoin="round"/>
<path d="M155.023 125.879C154.882 125.29 154.584 124.749 154.162 124.314C153.74 123.878 153.208 123.564 152.623 123.405" stroke="#263238" stroke-linecap="round" stroke-linejoin="round"/>
<path d="M156.514 125.05C156.514 125.05 156.347 126.622 155.766 127.203C155.184 127.785 153.947 128.36 154.442 129.523C154.937 130.686 156.428 130.928 157.09 130.266" stroke="#263238" stroke-linecap="round" stroke-linejoin="round"/>
<path d="M152.784 121.821C152.784 121.821 154.194 120.083 156.496 121.821" stroke="#263238" stroke-linecap="round" stroke-linejoin="round"/>
<path d="M159.082 122.65C159.082 122.65 161.81 120.992 163.963 124.054" stroke="#263238" stroke-linecap="round" stroke-linejoin="round"/>
<path d="M154.275 132.171C154.275 132.171 155.438 133.743 158.606 133.328C161.773 132.914 162.497 131.59 162.497 131.59" stroke="#263238" stroke-linecap="round" stroke-linejoin="round"/>
<path d="M161.81 126.913C161.81 127.068 161.764 127.22 161.678 127.349C161.591 127.478 161.469 127.579 161.325 127.639C161.182 127.698 161.024 127.714 160.871 127.683C160.719 127.653 160.579 127.578 160.469 127.468C160.359 127.358 160.284 127.218 160.254 127.066C160.224 126.914 160.239 126.756 160.299 126.612C160.358 126.468 160.459 126.346 160.588 126.259C160.717 126.173 160.869 126.127 161.024 126.127C161.233 126.127 161.433 126.21 161.58 126.357C161.727 126.504 161.81 126.704 161.81 126.913Z" fill="#263238"/>
<path d="M154.522 125.088C154.522 125.243 154.476 125.395 154.39 125.524C154.303 125.653 154.181 125.754 154.037 125.813C153.893 125.873 153.736 125.889 153.583 125.858C153.431 125.828 153.291 125.753 153.181 125.643C153.071 125.533 152.996 125.393 152.966 125.241C152.935 125.088 152.951 124.93 153.01 124.787C153.07 124.643 153.171 124.521 153.3 124.434C153.429 124.348 153.581 124.302 153.736 124.302C153.945 124.302 154.145 124.385 154.292 124.532C154.439 124.679 154.522 124.879 154.522 125.088Z" fill="#263238"/>
<path d="M156.1 133.248C156.1 133.248 157.424 135.982 159.744 135.722C162.064 135.463 161.897 132.233 161.897 132.233C160.149 133.255 158.092 133.616 156.1 133.248Z" fill="#263238" stroke="#263238" stroke-linecap="round" stroke-linejoin="round"/>
<path d="M163.629 107.746H163.443C160.474 108.087 156.576 108.712 154.194 110.623C151.293 112.937 152.289 113.519 154.937 114.843C157.585 116.166 165.454 120.559 166.203 126.851C166.951 133.143 164.378 142.998 163.14 147.471C161.903 151.944 163.549 155.006 165.955 157.159C166.497 157.663 167.141 158.044 167.844 158.276C168.546 158.509 169.29 158.588 170.026 158.508C171.375 158.372 173.07 158.013 174.14 157.134C174.258 157.042 175.613 155.612 175.377 155.421C174.19 154.412 172.761 155.86 172.037 154.474C170.558 151.628 172.853 148.219 174.406 145.881C175.674 143.969 177.784 142.788 179.071 140.932C180.323 138.929 181.082 136.658 181.286 134.306C181.873 129.27 180.927 123.931 179.158 119.21C176.862 113.086 172.111 107.641 165.114 107.66C164.631 107.666 164.124 107.691 163.629 107.746Z" fill="#263238"/>
<path d="M150.52 110.345C150.52 110.345 159.181 111.279 164.699 118.771C170.218 126.263 171.789 131.348 171.653 138.302C171.517 145.256 177.141 148.473 181.286 146.462" stroke="#636363" stroke-linecap="round" stroke-linejoin="round"/>
<path d="M158.142 108.204C158.142 108.204 169.383 110.345 172.99 121.58C176.596 132.815 175.136 139.657 179.962 140.579" stroke="#636363" stroke-linecap="round" stroke-linejoin="round"/>
<path d="M163.759 129.208C163.759 129.208 167.91 139.243 166.852 148.739C165.794 158.236 169.945 159.98 176.621 158.236" stroke="#636363" stroke-linecap="round" stroke-linejoin="round"/>
<path d="M163.629 107.746H163.443C160.474 108.087 156.576 108.712 154.194 110.623C151.293 112.937 152.289 113.519 154.937 114.843C157.585 116.166 165.454 120.559 166.203 126.851C166.951 133.143 164.378 142.998 163.14 147.471C161.903 151.944 163.549 155.006 165.955 157.159C166.497 157.663 167.141 158.044 167.844 158.276C168.546 158.509 169.29 158.588 170.026 158.508C171.375 158.372 173.07 158.013 174.14 157.134C174.258 157.042 175.613 155.612 175.377 155.421C174.19 154.412 172.761 155.86 172.037 154.474C170.558 151.628 172.853 148.219 174.406 145.881C175.674 143.969 177.784 142.788 179.071 140.932C180.323 138.929 181.082 136.658 181.286 134.306C181.873 129.27 180.927 123.931 179.158 119.21C176.862 113.086 172.111 107.641 165.114 107.66C164.631 107.666 164.124 107.691 163.629 107.746Z" stroke="#263238" stroke-linecap="round" stroke-linejoin="round"/>
<path d="M123.304 154.035C123.972 154.64 124.764 155.092 125.624 155.359C125.624 155.359 126.948 159.417 126.862 162.647C126.854 164.843 127.008 167.037 127.32 169.211H137.466C135.606 166.005 134.025 162.646 132.739 159.17C131.168 154.449 131.83 151.795 130.753 148.733C129.677 145.67 129.176 144.179 127.357 141.779C125.538 139.379 123.88 140.121 123.88 140.95C123.88 141.779 124.87 142.107 125.618 143.27C126.13 144.131 126.545 145.046 126.856 145.998C126.856 145.998 123.372 147.576 122.383 149.314C121.393 151.053 122.228 153.039 123.304 154.035Z" fill="white" stroke="#263238" stroke-linecap="round" stroke-linejoin="round"/>
<path d="M120.904 147.99C120.904 147.99 119.58 149.228 119.58 150.465C119.58 151.702 120.57 153.447 121.071 153.447C121.572 153.447 121.813 152.538 121.566 151.628C121.319 150.719 120.904 147.99 120.904 147.99Z" fill="white" stroke="#263238" stroke-linecap="round" stroke-linejoin="round"/>
<path d="M122.476 146.246C122.476 146.246 120.904 147.242 120.49 148.485C120.352 149.026 120.34 149.591 120.455 150.137C120.57 150.683 120.808 151.195 121.152 151.634C121.647 152.377 123.138 152.544 123.552 152.129C123.967 151.715 123.633 150.805 123.552 150.273C123.472 149.741 122.643 148.12 122.723 147.378C122.772 146.992 122.801 146.604 122.81 146.215L122.476 146.246Z" fill="white" stroke="#263238" stroke-linecap="round" stroke-linejoin="round"/>
<path d="M126.868 145.998C126.868 145.998 124.709 144.674 123.057 145.584C121.405 146.493 121.48 148.318 122.061 149.642C122.643 150.966 124.134 151.715 124.796 151.133C125.458 150.552 124.709 149.642 124.876 148.405C125.043 147.168 126.868 145.998 126.868 145.998Z" fill="white" stroke="#263238" stroke-linecap="round" stroke-linejoin="round"/>
<path d="M129.021 148.318C129.021 148.318 127.276 145.998 125.705 146.165C124.133 146.332 121.566 149.259 122.061 149.976C122.556 150.694 125.519 149.556 125.519 149.556C125.519 149.556 124.69 152.29 126.757 152.865" fill="white"/>
<path d="M129.021 148.318C129.021 148.318 127.276 145.998 125.705 146.165C124.133 146.332 121.566 149.259 122.061 149.976C122.556 150.694 125.519 149.556 125.519 149.556C125.519 149.556 124.69 152.29 126.757 152.865" stroke="#263238" stroke-linecap="round" stroke-linejoin="round"/>
<path d="M184.255 169.211H82.7759" stroke="#263238" stroke-linecap="round" stroke-linejoin="round"/>
<path d="M184.255 218.141H82.7759" stroke="#263238" stroke-linecap="round" stroke-linejoin="round"/>
<path d="M137.354 217.943C137.354 217.943 138.258 209.937 135.152 207.834C132.046 205.73 118.547 196.03 113.344 194.842C108.141 193.654 104.943 192.54 102.827 193.741C100.711 194.941 92.0374 202.761 88.4368 205.235C84.8361 207.71 83.0358 210.339 82.5347 212.239C82.2239 213.921 82.1221 215.635 82.2316 217.343V218.141C82.2316 218.141 137.559 217.739 137.354 217.943Z" fill="#1A61DB" stroke="#263238" stroke-linecap="round" stroke-linejoin="round"/>
<path d="M102.839 193.728C102.011 194.265 101.215 194.852 100.458 195.485C100.48 197.542 100.9 199.576 101.695 201.474C104.281 207.759 110.102 211.323 114.687 209.436C118.597 207.827 120.372 202.804 119.24 197.477C117.389 196.355 115.407 195.466 113.338 194.829C108.141 193.629 104.943 192.528 102.839 193.728Z" fill="white" stroke="#263238" stroke-linecap="round" stroke-linejoin="round"/>
<path d="M104.04 184.324C104.04 184.324 103.842 190.431 103.34 193.029C102.839 195.627 102.839 199.135 105.345 203.546C107.851 207.957 113.944 207.747 115.862 206.021C117.78 204.295 117.359 199.519 117.359 197.719C117.359 195.918 118.417 191.687 118.417 191.687C118.417 191.687 112.559 189.416 109.558 187.418C106.558 185.419 105.042 183.724 104.04 184.324Z" fill="white" stroke="#263238" stroke-linecap="round" stroke-linejoin="round"/>
<path d="M119.951 168.023C119.951 168.023 122.352 172.125 122.952 173.325C123.188 173.854 123.283 174.436 123.23 175.013C123.177 175.59 122.977 176.144 122.649 176.622C122.104 177.383 126.979 179.759 126.893 181.009C126.806 182.258 126.367 182.945 125.383 184.362C124.307 185.908 124.709 188.501 124.233 190.319C123.83 191.866 123.336 192.25 121.758 192.831C118.751 193.932 113.152 193.53 110.35 192.132C107.547 190.734 106.551 188.228 105.549 186.428C104.547 184.628 104.448 181.324 105.048 177.822C105.648 174.321 110.35 169.619 113.35 168.32C116.351 167.021 119.951 168.023 119.951 168.023Z" fill="white" stroke="#263238" stroke-linecap="round" stroke-linejoin="round"/>
<path d="M122.847 186.527C122.025 186.745 121.167 186.796 120.326 186.676C119.484 186.556 118.675 186.267 117.947 185.828C117.947 185.828 117.947 188.828 119.45 188.921C120.953 189.014 122.847 186.527 122.847 186.527Z" fill="#263238"/>
<path d="M119.952 178.429C120.106 179.103 119.952 179.716 119.593 179.796C119.234 179.876 118.838 179.394 118.683 178.72C118.529 178.045 118.683 177.433 119.042 177.352C119.401 177.272 119.778 177.754 119.952 178.429Z" fill="#263238"/>
<path d="M116.048 176.424C116.393 175.906 116.874 175.491 117.438 175.226C118.001 174.961 118.627 174.856 119.246 174.921" stroke="#263238" stroke-linecap="round" stroke-linejoin="round"/>
<path d="M125.65 183.421C125.65 183.421 124.103 185.092 123.144 185.216C122.185 185.339 121.115 184.021 121.591 183.186" stroke="#263238" stroke-linecap="round" stroke-linejoin="round"/>
<path d="M107.943 184.325C108.42 184.17 110.746 184.529 110.418 183.223C110.09 181.918 109.422 181.726 109.917 180.749C110.412 179.771 115.522 177.346 114.421 175.348C113.688 174.056 112.817 172.849 111.822 171.747C111.822 171.747 120.224 170.145 122.024 167.645C123.824 165.146 121.826 161.242 119.723 161.242C117.619 161.242 118.621 161.941 113.022 163.717C107.424 165.492 104.615 163.321 100.414 167.72C96.2134 172.118 97.5126 180.712 99.1149 183.427C100.717 186.143 103.916 188.327 105.518 187.727C107.12 187.127 106.743 184.727 107.943 184.325Z" fill="#263238" stroke="#263238" stroke-linecap="round" stroke-linejoin="round"/>
<path d="M109.434 185.228C109.434 185.228 105.722 180.526 103.247 182.023C100.773 183.52 104.448 188.03 106.05 188.531C107.652 189.033 109.552 187.826 109.552 187.826" fill="white"/>
<path d="M109.434 185.228C109.434 185.228 105.722 180.526 103.247 182.023C100.773 183.52 104.448 188.03 106.05 188.531C107.652 189.033 109.552 187.826 109.552 187.826" stroke="#263238" stroke-linecap="round" stroke-linejoin="round"/>
<path d="M183.587 246.643H82.0088" stroke="#263238" stroke-linecap="round" stroke-linejoin="round"/>
<path d="M130.308 243.983C130.308 243.983 130.215 238.476 131.038 237.647C131.861 236.818 152.147 225.72 157.838 225.806C163.53 225.893 171.307 233.645 175.458 235.705C182.065 239.008 182.065 240.84 182.616 242.677C183.166 244.515 183.624 246.624 183.624 246.624H130.308V243.983Z" fill="white"/>
<path d="M183.365 245.517C181.83 245.412 180.178 245.319 178.415 245.244L179.121 240.827L182.028 240.951C181.66 240.172 181.133 239.479 180.482 238.916L179.43 238.872L179.547 238.155C179.405 238.049 179.257 237.938 179.096 237.833L178.935 238.854L177.988 238.817L178.236 237.27C177.704 236.942 177.097 236.596 176.411 236.231L176.337 236.67C174.313 236.558 172.278 236.478 170.249 236.416L170.589 233.323L171.826 233.354C170.632 232.488 169.352 231.498 167.997 230.557L167.886 231.312C165.652 231.281 163.425 231.269 161.235 231.263L161.649 226.746L161.173 226.548L160.74 231.263H159.738L160.115 226.177C159.483 225.984 158.832 225.862 158.173 225.812L157.764 231.269C156.583 231.269 155.413 231.269 154.256 231.269L154.628 226.32L154.12 226.474L153.761 231.25H152.097L152.227 227.099C151.609 227.328 150.922 227.588 150.241 227.86L150.136 231.275C148.416 231.275 146.752 231.331 145.156 231.368L145.218 230.056L144.717 230.291L144.661 231.38H143.38V230.891C141.574 231.764 139.811 232.648 138.202 233.49L141.295 233.397L141.172 236.552L137.893 236.787L138.004 233.694L137.503 233.954L137.404 236.8L136.538 236.843L136.668 234.368C135.938 234.758 135.257 235.123 134.639 235.463L134.564 236.93L131.793 237.097C131.539 237.24 131.296 237.403 131.069 237.585L131.026 237.641L134.54 237.425L134.459 238.94L130.58 239.089C130.487 239.707 130.432 240.388 130.395 241.062C131.521 241.019 132.869 240.963 134.354 240.914L134.137 245.003L130.339 245.077V245.566L134.113 245.492L134.057 246.581H136.024L136.08 245.455H137.101L137.058 246.593H137.552L137.59 245.442L140.912 245.393L140.862 246.593H142.83L142.879 245.356H144.055L143.999 246.593H144.494L144.55 245.356L149.74 245.313L149.703 246.599H151.664L151.708 245.306H152.741L152.648 246.606H153.137L153.236 245.306H156.737L156.638 246.612H158.606L158.705 245.313H159.478L159.36 246.606H159.855L159.973 245.313C161.946 245.313 163.92 245.313 165.869 245.362L165.689 246.599H167.669L167.848 245.362H168.801L168.671 246.556H169.166L169.296 245.368C171.226 245.405 173.113 245.455 174.938 245.517L174.771 246.556H176.757L176.912 245.585L177.883 245.622L177.735 246.556H178.23L178.372 245.647C180.191 245.727 181.904 245.82 183.494 245.925C183.451 245.869 183.408 245.702 183.365 245.517ZM137.089 245.009H136.074L136.29 240.889L137.231 240.858L137.089 245.009ZM137.299 238.909L136.396 238.94L136.482 237.375L137.355 237.332L137.299 238.909ZM140.899 244.954L137.577 245.003L137.72 240.858L141.067 240.765L140.899 244.954ZM141.141 238.798L137.788 238.891L137.843 237.307C138.895 237.251 140.021 237.202 141.209 237.152L141.141 238.798ZM144.048 244.917H142.867L143.034 240.697H144.271L144.048 244.917ZM144.339 238.73L143.102 238.761L143.17 237.084L144.407 237.035L144.339 238.73ZM144.438 236.546L143.201 236.589L143.325 233.465H144.593L144.438 236.546ZM149.728 244.879L144.543 244.923L144.735 240.685L149.858 240.586L149.728 244.879ZM149.92 238.625C148.163 238.625 146.461 238.68 144.828 238.718L144.908 237.016C146.517 236.961 148.212 236.911 149.975 236.874L149.92 238.625ZM149.988 236.379C148.231 236.422 146.542 236.472 144.933 236.527L145.075 233.434C146.684 233.397 148.361 233.366 150.087 233.341L149.988 236.379ZM152.048 233.286H153.632L153.403 236.311H151.955L152.048 233.286ZM152.741 244.83H151.689L151.825 240.499H153.062L152.741 244.83ZM151.862 238.557L151.918 236.794H153.341L153.211 238.569L151.862 238.557ZM156.762 244.83H153.26L153.582 240.499H157.09L156.762 244.83ZM157.232 238.52H153.731L153.86 236.744C155.011 236.744 156.18 236.732 157.368 236.707L157.232 238.52ZM157.405 236.243L153.898 236.274L154.12 233.255H157.628L157.405 236.243ZM159.602 233.224H160.573L160.301 236.237H159.373L159.602 233.224ZM159.509 244.83H158.729L159.057 240.468H159.911L159.509 244.83ZM159.206 238.501L159.336 236.719H160.251L160.09 238.501H159.206ZM165.924 244.886C163.969 244.886 161.99 244.842 160.004 244.836L160.406 240.468C162.435 240.468 164.489 240.468 166.562 240.499L165.924 244.886ZM166.846 238.538C164.743 238.538 162.645 238.501 160.585 238.501L160.746 236.719C162.831 236.719 164.959 236.75 167.1 236.794L166.846 238.538ZM167.174 236.305C165.021 236.261 162.887 236.237 160.79 236.231L161.068 233.218C163.227 233.218 165.399 233.218 167.613 233.267L167.174 236.305ZM169.599 233.298H170.125L169.785 236.391H169.166L169.599 233.298ZM169.08 236.843H169.735L169.544 238.557H168.832L169.08 236.843ZM168.826 244.96H167.886L168.504 240.567H169.284L168.826 244.96ZM175.013 245.115C173.157 245.053 171.301 245.003 169.352 244.966L169.834 240.567C171.802 240.598 173.769 240.648 175.73 240.703L175.013 245.115ZM176.046 238.749C174.054 238.687 172.049 238.643 170.051 238.606L170.236 236.905C172.26 236.967 174.283 237.047 176.306 237.159L176.046 238.749ZM177.957 245.226L176.992 245.183L177.71 240.772L178.663 240.802L177.957 245.226Z" fill="#C3D6F6"/>
<path d="M130.308 243.983C130.308 243.983 130.215 238.476 131.038 237.647C131.861 236.818 152.147 225.72 157.838 225.806C163.53 225.893 171.307 233.645 175.458 235.705C182.065 239.008 182.065 240.84 182.616 242.677C183.166 244.515 183.624 246.624 183.624 246.624H130.308V243.983Z" stroke="#263238" stroke-linecap="round" stroke-linejoin="round"/>
<path d="M154.807 223.604C154.807 223.604 152.054 223.789 151.324 225.169C150.594 226.548 150.953 227.371 149.468 231.498C147.983 235.624 147.172 236.824 148.001 236.824C148.83 236.824 151.095 234.436 151.942 234.071C152.79 233.706 154.702 236.911 154.702 236.911C154.702 236.911 158.37 234.987 159.564 234.894C160.758 234.801 163.326 239.757 163.784 238.934C164.241 238.111 165.435 235.08 166.722 232.327C168.009 229.574 168.281 227.278 167.18 225.441C166.079 223.604 155.729 223.053 154.807 223.604Z" fill="#263238" stroke="#263238" stroke-linecap="round" stroke-linejoin="round"/>
<path d="M153.155 222.688C152.732 225.516 152.701 228.389 153.062 231.226C153.681 235.352 154.627 237.74 155.357 237.189C156.087 236.639 160.591 233.886 162.887 231.04C165.182 228.194 165.547 227.829 166.19 226.27C166.834 224.711 167.564 222.966 167.564 222.966C167.564 222.966 159.032 226.177 153.155 222.688Z" fill="white" stroke="#263238" stroke-linecap="round" stroke-linejoin="round"/>
<path d="M153.248 207.543C153.248 207.543 151.596 204.976 150.68 208.007C149.765 211.039 151.961 212.684 152.239 212.499C152.518 212.313 153.248 207.543 153.248 207.543Z" fill="white" stroke="#263238" stroke-linecap="round" stroke-linejoin="round"/>
<path d="M154.077 201.121C154.077 201.121 151.046 214.243 150.402 218.011C149.759 221.779 153.892 225.255 158.482 225.899C163.073 226.542 167.471 224.34 168.665 222.045C169.859 219.749 173.615 205.068 174.171 204.06C174.728 203.052 176.646 198.647 175.186 197.174C173.726 195.702 171.332 196.809 171.332 196.809C171.332 196.809 169.674 192.584 166.834 192.479C163.994 192.373 163.617 193.666 163.617 193.666C163.617 193.666 161.142 190.641 158.847 191.285C156.552 191.928 156.552 193.394 156.552 193.394C156.552 193.394 152.333 192.386 150.774 195.411C149.214 198.436 153.527 199.358 153.527 199.358C153.527 199.358 152.605 200.664 154.077 201.121Z" fill="white" stroke="#263238" stroke-linecap="round" stroke-linejoin="round"/>
<path d="M170.867 211.861C171.146 211.769 172.983 208.83 174.722 210.005C176.46 211.181 174.449 215.697 172.983 216.427C172.733 216.562 172.457 216.643 172.173 216.665C171.89 216.687 171.604 216.65 171.336 216.555C171.068 216.46 170.823 216.309 170.616 216.114C170.41 215.918 170.247 215.681 170.137 215.419" fill="white"/>
<path d="M170.867 211.861C171.146 211.769 172.983 208.83 174.722 210.005C176.46 211.181 174.449 215.697 172.983 216.427C172.733 216.562 172.457 216.643 172.173 216.665C171.89 216.687 171.604 216.65 171.336 216.555C171.068 216.46 170.823 216.309 170.616 216.114C170.41 215.918 170.247 215.681 170.137 215.419" stroke="#263238" stroke-linecap="round" stroke-linejoin="round"/>
<path d="M175.185 197.193C173.713 195.727 171.331 196.828 171.331 196.828C171.331 196.828 169.673 192.602 166.834 192.497C163.994 192.392 163.616 193.685 163.616 193.685C163.616 193.685 161.142 190.66 158.847 191.303C156.551 191.947 156.551 193.413 156.551 193.413C156.551 193.413 152.332 192.404 150.773 195.43C149.214 198.455 153.526 199.377 153.526 199.377C153.526 199.377 152.604 200.664 154.077 201.121C154.627 200.571 155.729 198.096 161.327 198.028C166.926 197.96 171.418 201.975 171.418 201.975C171.418 201.975 169.401 204.357 170.044 205.365C170.688 206.374 171.418 206.287 171.331 207.11C171.245 207.933 169.475 215.462 168.758 216.656C168.362 217.235 167.798 217.679 167.141 217.926C166.485 218.173 165.768 218.211 165.089 218.036C163.802 217.664 163.066 216.749 160.758 215.561C158.451 214.373 156.533 213.909 154.881 214.553C153.229 215.196 153.136 215.747 152.221 216.019C151.429 216.26 151.181 215.74 150.952 215.128C150.705 216.322 150.507 217.343 150.383 218.042C149.765 221.803 153.873 225.286 158.463 225.93C163.053 226.573 167.452 224.371 168.646 222.076C169.84 219.78 173.596 205.099 174.152 204.091C174.709 203.083 176.652 198.647 175.185 197.193Z" fill="#00B87C" stroke="#263238" stroke-linecap="round" stroke-linejoin="round"/>
<path d="M155.271 216.266C155.271 216.266 158.661 218.376 160.957 217.089C160.957 217.089 158.661 219.842 157.473 219.842C156.286 219.842 155.271 216.266 155.271 216.266Z" fill="#263238" stroke="#263238" stroke-linecap="round" stroke-linejoin="round"/>
<path d="M157.838 208.508C157.838 209.12 157.657 209.718 157.317 210.227C156.977 210.735 156.494 211.132 155.929 211.366C155.364 211.6 154.742 211.661 154.142 211.542C153.542 211.423 152.99 211.128 152.558 210.695C152.125 210.263 151.831 209.712 151.711 209.112C151.592 208.512 151.653 207.89 151.887 207.324C152.121 206.759 152.518 206.276 153.027 205.936C153.535 205.596 154.133 205.415 154.745 205.415C155.566 205.415 156.352 205.741 156.932 206.321C157.513 206.901 157.838 207.688 157.838 208.508Z" stroke="#263238" stroke-linecap="round" stroke-linejoin="round"/>
<path d="M166.741 210.067C166.741 210.679 166.559 211.277 166.22 211.786C165.88 212.294 165.397 212.691 164.831 212.925C164.266 213.159 163.644 213.22 163.044 213.101C162.444 212.982 161.893 212.687 161.46 212.254C161.028 211.822 160.733 211.271 160.614 210.671C160.494 210.071 160.556 209.449 160.79 208.883C161.024 208.318 161.42 207.835 161.929 207.495C162.438 207.155 163.036 206.974 163.648 206.974C164.468 206.974 165.255 207.3 165.835 207.88C166.415 208.46 166.741 209.247 166.741 210.067Z" stroke="#263238" stroke-linecap="round" stroke-linejoin="round"/>
<path d="M157.931 208.186C157.931 208.186 159.212 207.568 160.777 208.805" stroke="#263238" stroke-linecap="round" stroke-linejoin="round"/>
<path d="M166.741 210.067L172.705 210.296" stroke="#263238" stroke-linecap="round" stroke-linejoin="round"/>
<path d="M158.389 208.558C157.633 209.986 156.96 211.457 156.372 212.963C156.187 213.785 157.195 214.243 158.482 214.243C159.769 214.243 160.338 213.693 160.338 213.142" stroke="#263238" stroke-linecap="round" stroke-linejoin="round"/>
<path d="M158.11 205.069C157.985 205.067 157.862 205.035 157.752 204.976C157.271 204.661 156.713 204.483 156.139 204.461C155.564 204.439 154.995 204.574 154.491 204.852C154.41 204.906 154.319 204.944 154.223 204.964C154.127 204.983 154.028 204.983 153.932 204.964C153.739 204.926 153.568 204.812 153.458 204.648C153.348 204.484 153.308 204.283 153.346 204.089C153.384 203.895 153.498 203.725 153.662 203.615C154.393 203.183 155.228 202.96 156.077 202.97C156.925 202.979 157.755 203.222 158.475 203.67C158.618 203.75 158.731 203.875 158.795 204.025C158.859 204.176 158.871 204.344 158.829 204.502C158.788 204.66 158.694 204.8 158.564 204.899C158.434 204.999 158.274 205.052 158.11 205.05V205.069Z" fill="#00B87C"/>
<path d="M167.106 208.1C166.986 208.102 166.866 208.075 166.759 208.022C166.651 207.968 166.558 207.888 166.487 207.79C166.055 207.121 165.424 206.602 164.684 206.307C163.944 206.011 163.13 205.952 162.355 206.139C162.171 206.189 161.975 206.166 161.807 206.074C161.64 205.983 161.515 205.83 161.458 205.648C161.401 205.466 161.417 205.269 161.502 205.099C161.588 204.928 161.736 204.798 161.916 204.734C162.987 204.452 164.12 204.513 165.156 204.908C166.191 205.303 167.076 206.012 167.688 206.937C167.767 207.048 167.814 207.179 167.823 207.316C167.832 207.453 167.802 207.589 167.738 207.71C167.674 207.83 167.577 207.931 167.459 208C167.341 208.069 167.206 208.103 167.069 208.1H167.106Z" fill="#00B87C"/>
<path d="M155.129 209.746C155.457 209.746 155.723 209.253 155.723 208.644C155.723 208.036 155.457 207.543 155.129 207.543C154.801 207.543 154.535 208.036 154.535 208.644C154.535 209.253 154.801 209.746 155.129 209.746Z" fill="#263238" stroke="#263238" stroke-linecap="round" stroke-linejoin="round"/>
<path d="M163.802 210.024C163.802 210.642 163.536 211.125 163.184 211.125C162.831 211.125 162.565 210.63 162.565 210.024C162.565 209.418 162.831 208.923 163.184 208.923C163.536 208.923 163.802 209.418 163.802 210.024Z" fill="#263238" stroke="#263238" stroke-linecap="round" stroke-linejoin="round"/>
<path d="M49.0733 125.344C54.9662 117.842 53.6617 106.983 46.1598 101.09C38.6578 95.1974 27.7992 96.5018 21.9063 104.004C16.0134 111.506 17.3179 122.364 24.8198 128.257C32.3218 134.15 43.1804 132.846 49.0733 125.344Z" stroke="#263238" stroke-miterlimit="10"/>
<path d="M28.8594 119.241C28.8594 119.241 40.5212 119.86 44.5363 109.145" stroke="#263238" stroke-width="2" stroke-linecap="round" stroke-linejoin="round"/>
<path d="M38.2879 106.212C38.9066 107.085 39.0489 108.031 38.6282 108.328C38.2075 108.625 37.3908 108.155 36.7722 107.282C36.1535 106.41 36.0112 105.47 36.4319 105.173C36.8526 104.876 37.6692 105.346 38.2879 106.212Z" fill="#263238"/>
<path d="M30.7278 111.05C31.3465 111.916 31.495 112.863 31.0681 113.16C30.6412 113.457 29.8308 112.993 29.2121 112.12C28.5934 111.248 28.4512 110.302 28.8718 110.011C29.2925 109.72 30.1154 110.178 30.7278 111.05Z" fill="#263238"/>
<path d="M232.288 109.701C232.391 112.116 233.207 114.447 234.633 116.398C236.06 118.35 238.033 119.834 240.303 120.665C242.573 121.495 245.038 121.634 247.387 121.063C249.736 120.493 251.863 119.239 253.5 117.46C255.136 115.681 256.208 113.457 256.581 111.068C256.953 108.68 256.61 106.235 255.593 104.042C254.576 101.849 252.932 100.007 250.869 98.7477C248.805 97.4888 246.415 96.87 244 96.9693C242.394 97.0354 240.818 97.4172 239.36 98.093C237.903 98.7688 236.592 99.7253 235.505 100.908C234.417 102.09 233.573 103.476 233.021 104.984C232.469 106.493 232.22 108.096 232.288 109.701V109.701Z" stroke="#263238" stroke-miterlimit="10"/>
<path d="M250.199 109.138C250.199 109.138 243.691 114.236 237.003 109.664" stroke="#263238" stroke-width="2" stroke-linecap="round" stroke-linejoin="round"/>
<path d="M240.115 106.788C240.48 106.788 240.777 106.178 240.777 105.426C240.777 104.675 240.48 104.065 240.115 104.065C239.749 104.065 239.453 104.675 239.453 105.426C239.453 106.178 239.749 106.788 240.115 106.788Z" fill="#263238"/>
<path d="M245.788 105.16C245.788 105.915 246.085 106.521 246.45 106.521C246.815 106.521 247.112 105.903 247.112 105.16C247.112 104.418 246.815 103.799 246.45 103.799C246.085 103.799 245.788 104.393 245.788 105.16Z" fill="#263238"/>
<path d="M58.0192 252.796C64.3126 246.324 64.1681 235.976 57.6964 229.683C51.2248 223.389 40.8766 223.534 34.5832 230.006C28.2898 236.477 28.4343 246.825 34.906 253.119C41.3776 259.412 51.7257 259.268 58.0192 252.796Z" stroke="#263238" stroke-miterlimit="10"/>
<path d="M37.0938 246.729C37.0938 246.729 47.611 240.734 57.7386 239.305C57.7386 239.305 60.6463 248.882 50.9333 252.594C42.5689 255.78 37.0938 246.729 37.0938 246.729Z" stroke="#263238" stroke-miterlimit="10"/>
<path d="M39.1665 242.114C38.9905 242.113 38.818 242.064 38.6677 241.972C38.5173 241.881 38.3946 241.75 38.3127 241.594L35.9309 236.985C35.8311 236.762 35.8206 236.508 35.9017 236.277C35.9827 236.046 36.149 235.855 36.3666 235.742C36.5842 235.63 36.8365 235.605 37.0719 235.673C37.3072 235.741 37.5077 235.896 37.6322 236.107L40.0141 240.716C40.1314 240.941 40.1542 241.204 40.0777 241.447C40.0011 241.689 39.8313 241.891 39.6058 242.009C39.469 242.076 39.3189 242.112 39.1665 242.114Z" fill="#263238"/>
<path d="M51.8985 237.505C51.6785 237.504 51.4653 237.428 51.2943 237.29C51.1233 237.152 51.0047 236.959 50.9581 236.744L49.8507 231.504C49.8338 231.273 49.9007 231.045 50.0391 230.859C50.1775 230.674 50.3781 230.546 50.604 230.497C50.8299 230.448 51.0658 230.482 51.2685 230.593C51.4711 230.704 51.6267 230.885 51.7067 231.102L52.8141 236.348C52.8674 236.597 52.8197 236.856 52.6817 237.07C52.5436 237.283 52.3264 237.433 52.0779 237.486L51.8985 237.505Z" fill="#263238"/>
<path d="M53.7545 251.153C52.8698 248.981 49.795 248.097 46.7883 249.179C45.2654 249.694 43.9686 250.722 43.1196 252.087" stroke="#263238" stroke-miterlimit="10"/>
<path d="M236.26 168.846C235.62 170.619 235.52 172.543 235.973 174.373C236.426 176.203 237.411 177.858 238.804 179.129C240.198 180.399 241.937 181.228 243.801 181.51C245.665 181.792 247.571 181.515 249.278 180.714C250.985 179.913 252.416 178.623 253.39 177.009C254.364 175.395 254.838 173.528 254.751 171.644C254.664 169.761 254.021 167.945 252.902 166.428C251.784 164.91 250.24 163.758 248.467 163.117C247.289 162.692 246.039 162.502 244.788 162.56C243.538 162.618 242.31 162.921 241.177 163.453C240.043 163.985 239.026 164.735 238.182 165.66C237.339 166.586 236.686 167.668 236.26 168.846V168.846Z" stroke="#263238" stroke-miterlimit="10"/>
<path d="M250.607 175.206C250.607 175.206 244.476 171.704 238.568 170.875C238.568 170.875 236.873 176.443 242.521 178.627C247.396 180.489 250.607 175.206 250.607 175.206Z" stroke="#263238" stroke-miterlimit="10"/>
<path d="M249.395 172.508C249.498 172.51 249.599 172.483 249.687 172.43C249.776 172.378 249.848 172.302 249.896 172.211L251.282 169.52C251.35 169.388 251.363 169.236 251.319 169.094C251.275 168.953 251.177 168.835 251.047 168.765C250.914 168.699 250.761 168.688 250.62 168.733C250.479 168.778 250.362 168.876 250.292 169.006L248.9 171.698C248.833 171.829 248.82 171.981 248.866 172.122C248.911 172.262 249.01 172.379 249.141 172.446C249.219 172.488 249.306 172.509 249.395 172.508Z" fill="#263238"/>
<path d="M241.983 169.823C242.111 169.823 242.235 169.779 242.334 169.697C242.433 169.616 242.502 169.503 242.527 169.378L243.177 166.322C243.195 166.249 243.199 166.173 243.187 166.099C243.176 166.025 243.149 165.954 243.11 165.89C243.07 165.826 243.018 165.771 242.956 165.728C242.895 165.685 242.825 165.655 242.752 165.64C242.678 165.624 242.602 165.624 242.529 165.639C242.455 165.653 242.385 165.682 242.323 165.725C242.261 165.767 242.208 165.822 242.168 165.885C242.128 165.948 242.1 166.019 242.088 166.093L241.438 169.149C241.423 169.22 241.422 169.294 241.435 169.366C241.448 169.438 241.475 169.507 241.515 169.568C241.554 169.63 241.606 169.683 241.666 169.725C241.726 169.766 241.794 169.795 241.865 169.811L241.983 169.823Z" fill="#263238"/>
<path d="M240.875 177.779C241.389 176.542 243.189 175.997 244.94 176.635C245.829 176.93 246.585 177.531 247.075 178.33" stroke="#263238" stroke-miterlimit="10"/>
<path d="M225.573 163.476C227.774 155.478 223.075 147.209 215.076 145.007C207.078 142.806 198.809 147.505 196.608 155.503C194.406 163.502 199.105 171.771 207.104 173.972C215.102 176.174 223.371 171.475 225.573 163.476Z" stroke="#263238" stroke-miterlimit="10"/>
<path d="M199.462 156.936C199.326 156.97 199.182 156.953 199.057 156.889C198.932 156.825 198.834 156.718 198.782 156.587C198.73 156.457 198.727 156.312 198.774 156.179C198.82 156.047 198.913 155.935 199.035 155.866L202.778 153.849L200.273 153.763C200.118 153.757 199.973 153.69 199.868 153.577C199.763 153.464 199.707 153.314 199.713 153.159C199.719 153.005 199.785 152.86 199.898 152.755C200.012 152.65 200.162 152.594 200.316 152.6L204.962 152.76C205.088 152.771 205.208 152.82 205.305 152.901C205.403 152.981 205.473 153.09 205.507 153.212C205.524 153.332 205.506 153.455 205.454 153.565C205.403 153.675 205.32 153.768 205.216 153.831L199.586 156.862L199.462 156.936Z" fill="#263238"/>
<path d="M219.489 151.412C219.443 151.418 219.398 151.418 219.353 151.412L213.24 151.61C213.112 151.615 212.985 151.577 212.88 151.503C212.775 151.428 212.698 151.321 212.66 151.198C212.623 151.075 212.627 150.943 212.673 150.823C212.718 150.702 212.803 150.601 212.912 150.533L217.039 147.96C217.172 147.886 217.328 147.864 217.476 147.899C217.625 147.933 217.755 148.021 217.843 148.145C217.924 148.276 217.949 148.433 217.915 148.582C217.88 148.732 217.787 148.862 217.657 148.943L215.356 150.379L219.315 150.255C219.455 150.254 219.591 150.303 219.698 150.394C219.804 150.484 219.875 150.61 219.896 150.749C219.917 150.887 219.887 151.029 219.812 151.147C219.738 151.265 219.623 151.353 219.489 151.393V151.412Z" fill="#263238"/>
<path d="M199.215 159.547C202.401 165.418 208.056 168.765 213.259 167.33C218.461 165.895 221.61 160.135 221.344 153.459L219.334 153.67C212.903 154.33 206.628 156.068 200.774 158.811L199.215 159.547Z" stroke="#263238" stroke-miterlimit="10"/>
<path d="M206.162 166.538C206.113 166.246 206.088 165.95 206.088 165.653C206.088 162.251 209.107 159.467 212.831 159.467C214.065 159.442 215.281 159.753 216.351 160.367C217.421 160.98 218.305 161.873 218.907 162.95" stroke="#263238" stroke-miterlimit="10"/>
<path d="M60.5243 170.385C66.2782 168.232 69.1978 161.823 67.0453 156.069C64.8929 150.315 58.4835 147.395 52.7295 149.548C46.9755 151.7 44.056 158.11 46.2084 163.864C48.3609 169.618 54.7703 172.537 60.5243 170.385Z" stroke="#263238" stroke-miterlimit="10"/>
<path d="M65.2557 158.068C65.349 158.094 65.4481 158.087 65.5369 158.049C65.6257 158.011 65.6989 157.943 65.7445 157.858C65.7724 157.809 65.7901 157.754 65.7966 157.698C65.803 157.642 65.7979 157.585 65.7817 157.53C65.7656 157.476 65.7386 157.426 65.7024 157.382C65.6662 157.338 65.6216 157.303 65.5712 157.277L62.7996 155.779L64.6556 155.718C64.7689 155.711 64.8752 155.661 64.9525 155.578C65.0297 155.495 65.0719 155.385 65.0701 155.272C65.0685 155.215 65.0557 155.16 65.0324 155.108C65.009 155.057 64.9757 155.01 64.9342 154.972C64.8928 154.933 64.844 154.903 64.7909 154.883C64.7378 154.864 64.6813 154.855 64.6247 154.858L61.1849 154.975C61.0914 154.981 61.0022 155.016 60.9307 155.077C60.8591 155.137 60.8092 155.219 60.7883 155.311C60.7674 155.402 60.7766 155.498 60.8147 155.583C60.8527 155.669 60.9175 155.74 60.9993 155.786L65.1629 158.031L65.2557 158.068Z" fill="#263238"/>
<path d="M50.4324 153.992H50.5314L55.0538 154.134C55.1487 154.138 55.2425 154.111 55.3202 154.057C55.398 154.002 55.4552 153.923 55.4829 153.832C55.5106 153.741 55.5072 153.643 55.4732 153.555C55.4391 153.466 55.3765 153.391 55.2951 153.342L52.2389 151.436C52.1903 151.402 52.135 151.378 52.0765 151.366C52.018 151.354 51.9576 151.354 51.8993 151.367C51.841 151.38 51.7861 151.405 51.738 151.44C51.6899 151.476 51.6498 151.521 51.6202 151.573C51.5856 151.621 51.5615 151.677 51.5495 151.735C51.5376 151.794 51.5381 151.854 51.5509 151.912C51.5637 151.97 51.5886 152.025 51.624 152.073C51.6594 152.122 51.7045 152.162 51.7563 152.191L53.4577 153.249L50.5252 153.156C50.4691 153.155 50.4133 153.164 50.3609 153.184C50.3084 153.204 50.2605 153.234 50.2197 153.273C50.1789 153.311 50.1461 153.357 50.1231 153.408C50.1002 153.46 50.0875 153.515 50.0859 153.571C50.0868 153.67 50.1216 153.766 50.1847 153.843C50.2478 153.919 50.3352 153.972 50.4324 153.992Z" fill="#263238"/>
<path d="M65.4411 160.005C63.084 164.336 58.8956 166.81 55.0414 165.765C51.1871 164.719 48.8547 160.438 49.0527 155.495L50.5437 155.65C55.3005 156.14 59.9412 157.426 64.2718 159.454L65.4411 160.005Z" stroke="#263238" stroke-miterlimit="10"/>
<path d="M60.3002 165.177C60.3323 164.96 60.3488 164.741 60.3497 164.521C60.3497 162.003 58.1163 159.962 55.3571 159.962C54.445 159.946 53.5455 160.176 52.7538 160.629C51.9621 161.082 51.3075 161.741 50.8594 162.535" stroke="#263238" stroke-miterlimit="10"/>
<path d="M238.351 53.0203C239.629 43.5666 233.002 34.8668 223.548 33.5886C214.095 32.3104 205.395 38.9379 204.117 48.3916C202.838 57.8452 209.466 66.5451 218.92 67.8233C228.373 69.1015 237.073 62.4739 238.351 53.0203Z" stroke="#263238" stroke-miterlimit="10"/>
<path d="M214.118 45.379C214.118 46.4431 214.533 47.3092 215.052 47.3092C215.572 47.3092 215.98 46.4431 215.98 45.379C215.98 44.3149 215.566 43.455 215.052 43.455C214.539 43.455 214.118 44.3149 214.118 45.379Z" fill="#263238"/>
<path d="M223.064 45.0016C223.064 46.0657 223.479 46.9256 223.992 46.9256C224.506 46.9256 224.927 46.0657 224.927 45.0016C224.927 43.9375 224.506 43.0775 223.992 43.0775C223.479 43.0775 223.064 43.9436 223.064 45.0016Z" fill="#263238"/>
<path d="M213.234 39.9099L217.459 44.4818" stroke="#263238" stroke-width="2" stroke-linecap="round" stroke-linejoin="round"/>
<path d="M224.537 39.5697L220.658 44.3643" stroke="#263238" stroke-width="2" stroke-linecap="round" stroke-linejoin="round"/>
<path d="M212.894 54.7579C212.894 54.7579 218.462 48.1321 226.139 53.5206" stroke="#263238" stroke-width="2" stroke-linecap="round" stroke-linejoin="round"/>
<path d="M21.004 199.616C27.7077 199.549 33.0878 194.061 33.0208 187.357C32.9538 180.653 27.465 175.273 20.7612 175.34C14.0575 175.407 8.67739 180.896 8.74443 187.6C8.81147 194.303 14.3003 199.683 21.004 199.616Z" stroke="#263238" stroke-miterlimit="10"/>
<path d="M21.0089 181.522C21.5224 182.073 21.7204 182.716 21.4543 182.964C21.1883 183.211 20.5635 182.964 20.05 182.413C19.5365 181.862 19.3447 181.225 19.6107 180.978C19.8767 180.73 20.5016 180.978 21.0089 181.522Z" fill="#263238"/>
<path d="M16.2262 185.612C16.7397 186.162 16.9377 186.806 16.6716 187.053C16.4056 187.3 15.7807 187.053 15.2673 186.509C14.7538 185.964 14.562 185.315 14.828 185.067C15.094 184.82 15.7189 185.067 16.2262 185.612Z" fill="#263238"/>
<path d="M18.8496 178.286L18.8558 182.66" stroke="#263238" stroke-width="2" stroke-linecap="round" stroke-linejoin="round"/>
<path d="M12.8672 183.52L17.1607 184.133" stroke="#263238" stroke-width="2" stroke-linecap="round" stroke-linejoin="round"/>
<path d="M26.131 185.76C26.131 185.76 20.0805 185.03 18.707 191.458" stroke="#263238" stroke-width="2" stroke-linecap="round" stroke-linejoin="round"/>
<path d="M69.7101 16.7039C71.9214 18.4958 73.6265 20.8342 74.6565 23.4875C75.6865 26.1408 76.0059 29.0171 75.5829 31.8317C75.16 34.6463 74.0094 37.3017 72.245 39.5351C70.4806 41.7685 68.1636 43.5024 65.5233 44.5653C62.883 45.6282 60.0109 45.9832 57.1912 45.5953C54.3715 45.2073 51.7021 44.0897 49.447 42.3532C47.1919 40.6167 45.4293 38.3214 44.3337 35.6945C43.2381 33.0675 42.8474 30.2001 43.2004 27.3758" stroke="#263238" stroke-miterlimit="10"/>
<path d="M54.1318 13.9508C54.9393 13.6804 55.7667 13.4735 56.6065 13.3322" stroke="#263238" stroke-miterlimit="10"/>
<path d="M50.2158 34.7688C50.2158 34.7688 60.7331 28.7678 70.8544 27.3448C70.8544 27.3448 73.7622 36.928 64.0801 40.6337C55.6848 43.8137 50.2158 34.7688 50.2158 34.7688Z" stroke="#263238" stroke-miterlimit="10"/>
<path d="M66.8948 39.1862C66.0163 37.0147 62.9353 36.13 59.9286 37.2126C58.407 37.7302 57.1124 38.7602 56.2661 40.1265" stroke="#263238" stroke-miterlimit="10"/>
<path d="M55.3755 15.479C54.8234 14.5623 53.989 13.8492 52.9974 13.4467C52.0058 13.0442 50.9105 12.9739 49.8756 13.2464C48.8408 13.5189 47.9221 14.1194 47.2573 14.9581C46.5925 15.7967 46.2175 16.8282 46.1884 17.898C45.2319 17.4188 44.1459 17.2625 43.0931 17.4525C42.0403 17.6424 41.0774 18.1683 40.3486 18.9514C39.6198 19.7346 39.1644 20.7328 39.0506 21.7965C38.9367 22.8602 39.1706 23.9321 39.7171 24.8517C42.0371 28.7246 53.0184 29.3927 53.0184 29.3927C53.0184 29.3927 58.3389 20.4221 55.3755 15.479Z" stroke="#263238" stroke-miterlimit="10"/>
<path d="M71.2132 13.6044C71.308 12.7444 71.1211 11.8769 70.6807 11.1323C70.2403 10.3876 69.5702 9.80591 68.7709 9.47465C67.9717 9.14338 67.0866 9.0804 66.2485 9.29518C65.4104 9.50996 64.6647 9.99089 64.1233 10.6657C63.7467 9.88559 63.1264 9.24921 62.3562 8.8527C61.586 8.45619 60.7077 8.32109 59.8539 8.46781C59.0002 8.61453 58.2173 9.03509 57.6237 9.66598C57.03 10.2969 56.6578 11.1038 56.5632 11.9649C56.1611 15.5841 62.886 21.3872 62.886 21.3872C62.886 21.3872 70.6935 18.232 71.2132 13.6044Z" stroke="#263238" stroke-miterlimit="10"/>
<path d="M208.649 218.76C206.962 220.124 205.661 221.905 204.874 223.927C204.087 225.949 203.842 228.141 204.164 230.287C204.485 232.433 205.361 234.457 206.705 236.16C208.05 237.863 209.815 239.185 211.828 239.995C213.841 240.806 216.03 241.077 218.179 240.781C220.329 240.485 222.363 239.632 224.082 238.308C225.8 236.984 227.143 235.233 227.977 233.23C228.811 231.227 229.107 229.041 228.836 226.889" stroke="#263238" stroke-miterlimit="10"/>
<path d="M220.509 216.662C219.892 216.449 219.259 216.286 218.616 216.173" stroke="#263238" stroke-miterlimit="10"/>
<path d="M223.497 232.519C223.497 232.519 215.492 227.947 207.771 226.845C207.771 226.845 205.556 234.14 212.937 236.961C219.328 239.411 223.497 232.519 223.497 232.519Z" stroke="#263238" stroke-miterlimit="10"/>
<path d="M210.79 235.884C211.458 234.232 213.803 233.558 216.092 234.381C217.253 234.772 218.242 235.555 218.888 236.596" stroke="#263238" stroke-miterlimit="10"/>
<path d="M219.556 217.825C219.977 217.125 220.613 216.58 221.37 216.273C222.127 215.966 222.963 215.913 223.753 216.123C224.542 216.332 225.242 216.792 225.747 217.434C226.252 218.076 226.535 218.865 226.553 219.681C227.282 219.307 228.114 219.18 228.921 219.32C229.729 219.461 230.469 219.861 231.028 220.46C231.588 221.059 231.937 221.824 232.023 222.639C232.108 223.454 231.926 224.275 231.503 224.977C229.733 227.928 221.369 228.435 221.369 228.435C221.369 228.435 217.31 221.593 219.556 217.825Z" stroke="#263238" stroke-miterlimit="10"/>
<path d="M207.505 216.402C207.429 215.747 207.569 215.084 207.903 214.515C208.238 213.946 208.748 213.502 209.358 213.249C209.967 212.995 210.643 212.948 211.282 213.113C211.921 213.278 212.489 213.646 212.9 214.163C213.188 213.571 213.662 213.089 214.248 212.788C214.834 212.488 215.502 212.386 216.151 212.498C216.8 212.609 217.395 212.928 217.848 213.407C218.3 213.886 218.585 214.498 218.659 215.153C218.969 217.912 213.84 222.329 213.84 222.329C213.84 222.329 207.895 219.923 207.505 216.402Z" stroke="#263238" stroke-miterlimit="10"/>
</svg>
