<svg width="22" height="18" viewBox="0 0 22 18" fill="none" xmlns="http://www.w3.org/2000/svg">
<path d="M21 9H15L13 12H9L7 9H1M21 9V15C21 15.5304 20.7893 16.0391 20.4142 16.4142C20.0391 16.7893 19.5304 17 19 17H3C2.46957 17 1.96086 16.7893 1.58579 16.4142C1.21071 16.0391 1 15.5304 1 15V9M21 9L17.55 2.11C17.3844 1.77679 17.1292 1.49637 16.813 1.30028C16.4967 1.10419 16.1321 1.0002 15.76 1H6.24C5.86792 1.0002 5.50326 1.10419 5.18704 1.30028C4.87083 1.49637 4.61558 1.77679 4.45 2.11L1 9" stroke="#454545" stroke-linecap="round" stroke-linejoin="round"/>
</svg>
