<svg height="512" viewBox="0 0 512 512" width="512" xmlns="http://www.w3.org/2000/svg"><g id="flat"><path d="m256 416 16-32 55 .483a88.682 88.682 0 0 0 -16.011-10.292 51.775 51.775 0 0 1 -28.622-46.311v-16h-52.736v16a51.775 51.775 0 0 1 -28.622 46.311 88.659 88.659 0 0 0 -15.394 9.809h54.385z" fill="#fdc9a6"/><path d="m285.6 345.88c-.18.08-.37.16-.56.24a77.268 77.268 0 0 1 -58.79.14 51.617 51.617 0 0 0 3.38-18.38v-16h52.74v16a51.789 51.789 0 0 0 3.23 18z" fill="#f6bb92"/><path d="m327 384.483-55-.483-16 32-16-32h-54.385a88.657 88.657 0 0 0 -33.534 73.271l.624 30.609h206.595l.624-30.609a88.666 88.666 0 0 0 -32.924-72.788z" fill="#768753"/><path d="m215.52 487.88h-16.32l-7.64-38.36a8 8 0 0 1 15.69-3.12z" fill="#667447"/><path d="m319.24 449.58-7.89 38.3h-16.33l8.55-41.53a8 8 0 0 1 15.67 3.23z" fill="#667447"/><path d="m254.877 47.96 1.726-.742a75.973 75.973 0 0 1 90.222 23.476l1.012 1.316a143.89 143.89 0 0 1 25.38 124.015c-5.117 19.685-9.34 35.975-9.34 35.975h-40l-24 40-48 32-45 15.96-27 32-7.859 15.725c-12.817 25.647-49.7 24.813-61.343-1.388a33.919 33.919 0 0 1 -2.918-13.187l-2.467-141.771a217.41 217.41 0 0 1 41.964-135.894l1.1-1.5a84.876 84.876 0 0 1 106.5-25.991z" fill="#ee9d0d"/><path d="m175.472 263.537a78.085 78.085 0 0 0 22.871 55.214l2.5 2.5a77.255 77.255 0 0 0 54.627 22.628 77.259 77.259 0 0 0 54.63-22.626l2.5-2.5a78.088 78.088 0 0 0 22.87-55.214v-89.175a58 58 0 0 0 -35.356-53.4l-.134-.057a34 34 0 0 0 -37.316 7.261l-7.789 7.789-1.552-1.063a21.365 21.365 0 0 0 -33.448 17.621v48.438a66.3 66.3 0 0 1 -44.403 62.584z" fill="#fdc9a6"/><g fill="#d78e0c"><path d="m234.73 207.88a8 8 0 0 1 -8 8 19.074 19.074 0 0 0 -9.12 2.29 66.01 66.01 0 0 0 2.27-17.21v-.42a35.43 35.43 0 0 1 6.85-.66 8 8 0 0 1 8 8z"/><circle cx="220" cy="242.881" r="13"/><circle cx="290.892" cy="242.881" r="13"/><path d="m303.472 223.881a7.975 7.975 0 0 1 -5.658-2.344 19.186 19.186 0 0 0 -13.656-5.656h-4.686a8 8 0 0 1 0-16h4.686a35.08 35.08 0 0 1 24.971 10.344 8 8 0 0 1 -5.657 13.656z"/></g><path d="m335.472 207.881h8a24 24 0 0 1 24 24 24 24 0 0 1 -24 24h-8a0 0 0 0 1 0 0v-48a0 0 0 0 1 0 0z" fill="#f6bb92"/><path d="m255.472 280.264a7.982 7.982 0 0 1 -5.658-2.343l-8-8a8 8 0 0 1 0-11.315l.074-.073a14.239 14.239 0 0 0 3.881-8.533l1.153-10.883a8 8 0 1 1 15.91 1.686l-1.153 10.884a31.057 31.057 0 0 1 -3.695 11.775l3.145 3.143a8 8 0 0 1 -5.657 13.658z" fill="#d78e0c"/><path d="m254.877 303.937a43.812 43.812 0 0 1 -19.578-4.6 8 8 0 0 1 7.156-14.311 27.91 27.91 0 0 0 24.844 0 8 8 0 0 1 7.156 14.311 43.812 43.812 0 0 1 -19.578 4.6z" fill="#d78e0c"/><g fill="#ee9d0d"><path d="m155.877 383a82.392 82.392 0 0 0 40-70.648v-24.352h-40z"/><path d="m155.877 335a25.77 25.77 0 0 0 15.665-5.2 82.394 82.394 0 0 0 32.335-65.443v-25.357h-48z"/><path d="m132.667 384a81.163 81.163 0 0 0 -24.71 58.5l.105 45.5h63.815v-46.38a81.167 81.167 0 0 0 -23.777-57.393l-.226-.227z"/></g><path d="m104 404.217a8 8 0 0 1 -5.673-13.641 50.128 50.128 0 0 1 37.012-14.715l13.513.426a8 8 0 1 1 -.5 15.992l-13.513-.425a34.064 34.064 0 0 0 -25.162 10 7.974 7.974 0 0 1 -5.677 2.363z" fill="#8f5528"/></g></svg>