<svg height="512" viewBox="0 0 512 512" width="512" xmlns="http://www.w3.org/2000/svg"><g id="flat"><path d="m350.919 434.005 11.971-12.595a89.367 89.367 0 0 0 21.147-92.791 72.236 72.236 0 0 1 -4.073-23.321l-1.233-148.817a119.1 119.1 0 0 0 -17.766-61.6l-8.7-14.091a119.1 119.1 0 0 0 -96.265-56.406h-.385a119.1 119.1 0 0 0 -96.262 56.406l-8.7 14.091a119.1 119.1 0 0 0 -17.766 61.6l-1.236 148.819a72.262 72.262 0 0 1 -4.072 23.321 89.365 89.365 0 0 0 21.146 92.791l11.644 12.952z" fill="#6a6c65"/><path d="m299.875 366.254a51.782 51.782 0 0 1 -17.414-38.733v-22l-52.738 1v21a51.784 51.784 0 0 1 -18.3 39.5l12.577 47.512 31.985-6.517 40.015 6.984z" fill="#fdc9a6"/><path d="m282.46 305.52v16.82c-.65.31-1.31.59-1.97.86a64.094 64.094 0 0 1 -48.77-.04c-.67-.28-1.34-.57-2-.87v-15.77z" fill="#f6bb92"/><path d="m211.419 367.026a51.8 51.8 0 0 1 -10.318 6.806 88.657 88.657 0 0 0 -48.928 83.08l.624 30.609h206.59l.624-30.609a88.658 88.658 0 0 0 -48.929-83.08 51.721 51.721 0 0 1 -11.207-7.578l-3.875 42.371-40-.625h-32z" fill="#029532"/><path d="m206.35 487.52h-16.79a60.461 60.461 0 0 1 -3.54-35.11 8 8 0 1 1 15.68 3.14 44.355 44.355 0 0 0 3.81 28.39 8.063 8.063 0 0 1 .84 3.58z" fill="#0a71cd"/><path d="m323.88 487.52h-16.79a8.063 8.063 0 0 1 .84-3.58 44.355 44.355 0 0 0 3.81-28.39 8 8 0 1 1 15.69-3.14 60.382 60.382 0 0 1 -3.55 35.11z" fill="#0a71cd"/><path d="m351.716 153.621-40.14-.469-11.793-49.8-8.054 50.854-25.954.526-10.744-49.323-9.1 49.85h-21.376l-10.687-50.381-9.16 50.381h-42.748l15.14 81.976a121.468 121.468 0 0 0 33.871 64.147 64.126 64.126 0 0 0 45.177 18.618 64.124 64.124 0 0 0 45.041-18.482l.1-.1a121.471 121.471 0 0 0 33.9-63.182z" fill="#fdc9a6"/><path d="m206.35 487.52h-16.79a60.461 60.461 0 0 1 -3.54-35.11 8 8 0 1 1 15.68 3.14 44.355 44.355 0 0 0 3.81 28.39 8.063 8.063 0 0 1 .84 3.58z" fill="#027e2a"/><path d="m323.88 487.52h-16.79a8.063 8.063 0 0 1 .84-3.58 44.355 44.355 0 0 0 3.81-28.39 8 8 0 1 1 15.69-3.14 60.382 60.382 0 0 1 -3.55 35.11z" fill="#027e2a"/><g fill="#585953"><circle cx="291.5" cy="200.521" r="13"/><circle cx="213.382" cy="200.521" r="13"/><path d="m280.091 179.523a8 8 0 0 1 -2.529-15.59l13.266-4.424a26.164 26.164 0 0 1 26.921 6.356 8 8 0 1 1 -11.314 11.313 10.249 10.249 0 0 0 -10.547-2.49l-13.266 4.423a7.986 7.986 0 0 1 -2.531.412z"/><path d="m224.093 179.523a7.982 7.982 0 0 1 -2.531-.412l-13.268-4.423a10.242 10.242 0 0 0 -10.545 2.49 8 8 0 1 1 -11.314-11.313 26.162 26.162 0 0 1 26.919-6.356l13.268 4.423a8 8 0 0 1 -2.529 15.591z"/><path d="m260.1 240a8.021 8.021 0 0 1 -1.947-.241 23.006 23.006 0 0 1 -16.114-29.975l.511-1.449a8 8 0 0 1 15.088 5.326l-.511 1.448a7.006 7.006 0 0 0 4.907 9.128 8 8 0 0 1 -1.934 15.763z"/><path d="m167.28 155.25 8.83-52.572a8 8 0 0 1 15.78 2.644l-8.361 49.884z"/><path d="m334.629 153.421-15.237-46.949a8 8 0 1 1 15.216-4.944l17.105 52.092z"/></g><path d="m216.5 362.5 2.238 13.936a37.775 37.775 0 0 0 37.262 31.564l-18.6 18.7a26.075 26.075 0 0 1 -30.144 4.931l-.4-.2a26.8 26.8 0 0 1 -14.876-24.021c.02-13.171.02-29.41.02-29.41a115.3 115.3 0 0 0 20.393-12.382z" fill="#eae9e4"/><path d="m296.316 362.456-3.055 13.979a37.775 37.775 0 0 1 -37.261 31.565l18.38 18.38a26.724 26.724 0 0 0 30.848 5.006 26.724 26.724 0 0 0 14.772-23.902v-28.484l-1.575-1q-7.99-5.053-15.584-10.7z" fill="#eae9e4"/><path d="m254.305 263.988a75.442 75.442 0 0 1 -23.714-3.774 8 8 0 1 1 5-15.2c13.107 4.313 26.845 3.986 42-1a8 8 0 1 1 5 15.2 90.329 90.329 0 0 1 -28.286 4.774z" fill="#585953"/></g></svg>