<svg height="512" viewBox="0 0 512 512" width="512" xmlns="http://www.w3.org/2000/svg"><g id="flat"><path d="m290.15 376.152 8.15-11.352a51.775 51.775 0 0 1 -15.362-36.8v-16h-52.738v16a51.772 51.772 0 0 1 -15.72 37.154l7.317 11a42 42 0 0 0 68.353-.002z" fill="#fdc9a6"/><path d="m286.2 346.08a77.725 77.725 0 0 1 -29.79 5.92h-.8a74.947 74.947 0 0 1 -28.75-5.73 51.428 51.428 0 0 0 3.34-18.27v-16h52.74v16a51.755 51.755 0 0 0 3.26 18.08z" fill="#f6bb92"/><path d="m311.56 374.311a51.738 51.738 0 0 1 -13.26-9.511l-8.145 11.35a42 42 0 0 1 -68.353 0l-7.317-11a51.759 51.759 0 0 1 -12.9 9.157 88.658 88.658 0 0 0 -48.929 83.08l.618 30.613h206.59l.624-30.609a88.657 88.657 0 0 0 -48.928-83.08z" fill="#b5cf7f"/><path d="m328 488h-144l8-32v-76.13a90.581 90.581 0 0 1 9.58-5.56 51.731 51.731 0 0 0 12.9-9.16l1.52 2.28v16.57a40 40 0 0 0 80 0v-16l2.3-3.2a51.725 51.725 0 0 0 13.26 9.51 87.31 87.31 0 0 1 8.44 4.82v76.87z" fill="#b5cf7f"/><path d="m176.569 132v131.656a78.127 78.127 0 0 0 22.862 55.223l3.139 3.141a74.981 74.981 0 0 0 53.038 21.98h.8a77.361 77.361 0 0 0 54.794-22.637l2.493-2.493a78.084 78.084 0 0 0 22.87-55.214l-.205-132.521z" fill="#fdc9a6"/><g fill="#5b3719"><circle cx="221.149" cy="240" r="13"/><path d="m200.569 224a8 8 0 0 1 -5.657-13.657 35.082 35.082 0 0 1 24.971-10.343h4.686a8 8 0 0 1 0 16h-4.686a19.183 19.183 0 0 0 -13.656 5.657 7.978 7.978 0 0 1 -5.658 2.343z"/><path d="m259.877 276.038a8.012 8.012 0 0 1 -2.093-.279l-12.342-3.336a8 8 0 0 1 -5.9-8.1l1.112-23.348a8 8 0 1 1 15.983.761l-.807 16.923 6.133 1.658a8 8 0 0 1 -2.083 15.725z"/><path d="m254.749 298.537a46.043 46.043 0 0 1 -19.5-4.351 8 8 0 0 1 6.768-14.5 29.93 29.93 0 0 0 26.177-.354l1.327-.664a8 8 0 1 1 7.157 14.31l-1.328.665a46.021 46.021 0 0 1 -20.601 4.894z"/><circle cx="292" cy="240" r="13"/><path d="m312.58 224a7.972 7.972 0 0 1 -5.656-2.343 19.192 19.192 0 0 0 -13.657-5.657h-4.687a8 8 0 0 1 0-16h4.687a35.083 35.083 0 0 1 24.969 10.343 8 8 0 0 1 -5.656 13.657z"/></g><path d="m328 488h-144l8-32v-76.13a90.581 90.581 0 0 1 9.58-5.56 51.731 51.731 0 0 0 12.9-9.16l1.52 2.28v16.57a40 40 0 0 0 80 0v-16l2.3-3.2a51.725 51.725 0 0 0 13.26 9.51 87.31 87.31 0 0 1 8.44 4.82v76.87z" fill="#6699ce"/><path d="m228.281 488a31.849 31.849 0 0 1 -4.281-16v-16h64v16a31.849 31.849 0 0 1 -4.281 16z" fill="#5b89b9"/><path d="m392.451 112.223a114.65 114.65 0 0 0 -49.4-45.666 141.13 141.13 0 0 1 -27.663-17.517l-7.688-6.223a86.148 86.148 0 0 0 -51.7-19.165v-.008h-.082-.079-.022v.009a89.489 89.489 0 0 0 -53.785 19.908l-6.763 5.478a141.2 141.2 0 0 1 -27.661 17.518 114.642 114.642 0 0 0 -49.4 45.666 114.645 114.645 0 0 0 -12.092 85.59l2.344 9.329a114.642 114.642 0 0 0 63.692 76.4l8.047 3.622-2.2-14.433a49.143 49.143 0 0 1 20.425-48.516l18.231-12.732a92.074 92.074 0 0 0 39.345-75.483 88.009 88.009 0 0 1 19.4 55.124v8.2l8.275-3.485a36.118 36.118 0 0 0 22.1-33.289c21.188 18.162 32.01 44.766 30.72 72.643l-.693 32.8a80.642 80.642 0 0 1 -2.364 17.513l5.063-1.956a114.643 114.643 0 0 0 63.691-76.4l2.345-9.329a114.645 114.645 0 0 0 -12.086-85.598z" fill="#8f5528"/><rect fill="#ffda4c" height="32" rx="16" width="80" x="96" y="120"/></g></svg>