<svg height="512" viewBox="0 0 512 512" width="512" xmlns="http://www.w3.org/2000/svg"><g id="flat"><path d="m315.993 390.311a51.713 51.713 0 0 1 -18.437-15.486l-1.556 1.175a77.748 77.748 0 0 1 -80 0l-2.4-1.735a51.713 51.713 0 0 1 -18.852 16.046 88.658 88.658 0 0 0 -48.929 83.079l.624 14.61h217.857l.624-14.61a88.657 88.657 0 0 0 -48.931-83.079z" fill="#007af6"/><path d="m296 376 1.556-1.175a51.746 51.746 0 0 1 -10.185-30.825v-16h-64v16a51.743 51.743 0 0 1 -9.769 30.265l2.398 1.735a77.748 77.748 0 0 0 80 0z" fill="#2c91ff"/><path d="m232 488v-88a8 8 0 0 1 2.343-5.657l13.657-13.657v-60.686a8 8 0 0 1 16 0v64a8 8 0 0 1 -2.343 5.657l-13.657 13.657v84.686z" fill="#005dbb"/><path d="m173.142 192h-17.955a27.187 27.187 0 0 0 -27.187 27.3 27.187 27.187 0 0 0 22.743 26.708l20.509 2.486z" fill="#f6bb92"/><path d="m347.625 192h3.955a27.187 27.187 0 0 1 27.187 27.3 27.187 27.187 0 0 1 -22.744 26.708l-19.23 3.741z" fill="#f6bb92"/><path d="m246.354 82.851-6.729 1.122a96 96 0 0 0 -80.217 94.694l14.41 103.066a41.994 41.994 0 0 0 14.1 25.929l31.657 27.425a42 42 0 0 0 27.5 10.255h16.925a42 42 0 0 0 27.177-9.977l32.442-27.534a42 42 0 0 0 14.473-26.613l11.735-90.373c4.636-35.7-10.722-71.386-40.5-91.619a95.735 95.735 0 0 0 -38.137-15.253l-6.729-1.122a55.073 55.073 0 0 0 -18.107 0z" fill="#fdc9a6"/><path d="m168 488v-32a8 8 0 0 1 16 0v32z" fill="#005dbb"/><path d="m328 488v-32a8 8 0 0 1 16 0v32z" fill="#005dbb"/><path d="m312 184a7.976 7.976 0 0 1 -5.657-2.343 19.187 19.187 0 0 0 -13.656-5.657h-12.687a8 8 0 0 1 0-16h12.687a35.082 35.082 0 0 1 24.97 10.343 8 8 0 0 1 -5.657 13.657z" fill="#5b3719"/><path d="m346.5 90.5a44.842 44.842 0 0 0 -31.8-13.147l-5.7-2.85a172.728 172.728 0 0 0 -111.12-14.88 73.72 73.72 0 0 0 -37.67 20.16 90.059 90.059 0 0 0 -7.407 118.973l7.197 9.244a161 161 0 0 1 72-72l-20.686 42.667 3.574-1.809a245.47 245.47 0 0 0 79.891-64.539 141.189 141.189 0 0 0 33.549 53.61v-32l23.672 42.071 2.213-23.447a175.006 175.006 0 0 1 4.007-19.046 44.906 44.906 0 0 0 -11.72-43.007z" fill="#7a4922"/><path d="m280 296a42.105 42.105 0 0 1 -18.733-4.422l-5.267-2.634-5.267 2.634a42.105 42.105 0 0 1 -18.733 4.422 8 8 0 0 1 0-16 26.025 26.025 0 0 0 11.578-2.733l8.844-4.422a8 8 0 0 1 7.156 0l8.844 4.422a26.025 26.025 0 0 0 11.578 2.733 8 8 0 0 1 0 16z" fill="#5b3719"/><path d="m251.8 264h-8.926a18.863 18.863 0 0 1 -18.089-24.216l3.146-17.222a8 8 0 1 1 15.739 2.876l-3.233 17.7a8.062 8.062 0 0 1 -.281 1.092 2.864 2.864 0 0 0 2.718 3.77h8.926a8 8 0 0 1 0 16z" fill="#5b3719"/><path d="m267.769 201.814h58.1v33.749h-58.1z" fill="#a6deff"/><g fill="#5b3719"><circle cx="298" cy="216" r="10"/><path d="m220.36 160.01-7.76 15.99h-5.29a19.15 19.15 0 0 0 -13.65 5.66 8.015 8.015 0 0 1 -11.32 0 7.909 7.909 0 0 1 -2.24-4.45q4.77-5.76 10.06-11.05c1.18-1.18 2.37-2.34 3.59-3.47a35.123 35.123 0 0 1 13.56-2.69h12.69c.12 0 .24 0 .36.01z"/><path d="m227.79 169.83a8 8 0 0 1 -7.79 6.17h-3.43q5.7-2.94 11.22-6.17z"/></g><path d="m172.075 204.377h58.1v33.749h-58.1z" fill="#a6deff"/><circle cx="202" cy="216" fill="#5b3719" r="10"/><path d="m272 456h40v32h-40z" fill="#005dbb"/><path d="m347 200h-13.6a16.988 16.988 0 0 0 -14.4-8h-46a17.019 17.019 0 0 0 -17 17v3.989a44.171 44.171 0 0 0 -16 0v-3.989a17.019 17.019 0 0 0 -17-17h-46a17.019 17.019 0 0 0 -17 17v22a17.019 17.019 0 0 0 17 17h46a17.019 17.019 0 0 0 17-17v-1.592a28 28 0 0 1 16 0v1.592a17.019 17.019 0 0 0 17 17h46a17.019 17.019 0 0 0 17-17v-15h11a8 8 0 0 0 0-16zm-123 31a1 1 0 0 1 -1 1h-46a1 1 0 0 1 -1-1v-22a1 1 0 0 1 1-1h46a1 1 0 0 1 1 1zm96 0a1 1 0 0 1 -1 1h-46a1 1 0 0 1 -1-1v-22a1 1 0 0 1 1-1h46a1 1 0 0 1 1 1z" fill="#5b89b9"/></g></svg>