<svg height="512" viewBox="0 0 512 512" width="512" xmlns="http://www.w3.org/2000/svg"><g id="flat"><path d="m316.645 393.187a59 59 0 0 1 -28.645-50.587v-30.6h-64v30.6a59 59 0 0 1 -28.645 50.592 105.777 105.777 0 0 0 -51.355 90.698v4.11h224v-4.11a105.777 105.777 0 0 0 -51.355-90.703z" fill="#fdc9a6"/><path d="m319.08 482.5.92 5.5h-128l.92-5.5a153.937 153.937 0 0 0 -8.61-81.7 105.437 105.437 0 0 1 11.05-7.61 58.488 58.488 0 0 0 13.08-10.68 48 48 0 0 0 95.12 0 58.488 58.488 0 0 0 13.08 10.68 105.437 105.437 0 0 1 11.05 7.61 153.937 153.937 0 0 0 -8.61 81.7z" fill="#da7e21"/><path d="m288 312v24.23c-.25.14-.5.26-.75.39a69.853 69.853 0 0 1 -62.5 0c-.25-.13-.5-.25-.75-.39v-24.23z" fill="#fdc9a6"/><path d="m288 312v24.23c-.25.14-.5.26-.75.39a69.853 69.853 0 0 1 -62.5 0c-.25-.13-.5-.25-.75-.39v-24.23z" fill="#f6bb92"/><path d="m320 304a63.074 63.074 0 0 0 74.032-27.386l4.928-8.214a63.075 63.075 0 0 0 3.335-58.551l-14.145-31.119a106.659 106.659 0 0 1 -8.908-55.912 56.616 56.616 0 0 0 -35.242-58.818l-1.876-1.876a65.765 65.765 0 0 0 -82.984-8.217l-3.14 2.093-3.14-2.093a65.765 65.765 0 0 0 -82.984 8.217l-1.876 1.876a56.616 56.616 0 0 0 -35.242 58.818 106.659 106.659 0 0 1 -8.908 55.912l-14.145 31.119a63.075 63.075 0 0 0 3.335 58.551l4.928 8.214a63.074 63.074 0 0 0 74.032 27.386z" fill="#a3612d"/><path d="m248.543 134.136 7.457 1.864 7.457-1.864a86.868 86.868 0 0 1 48.543 1.864l2.207 1.1.679-2.942a26.539 26.539 0 0 0 -16-30.608 26.539 26.539 0 0 0 -31.087 8.718l-11.799 15.732-11.8-15.729a26.538 26.538 0 0 0 -31.086-8.718 26.539 26.539 0 0 0 -16 30.608l.679 2.942 2.207-1.103a86.867 86.867 0 0 1 48.543-1.864z" fill="#7a4922"/><path d="m307.518 166.087 6.689-28.984-2.207-1.103a86.868 86.868 0 0 0 -48.543-1.864l-7.457 1.864-7.457-1.864a86.867 86.867 0 0 0 -48.543 1.864l-2.207 1.1 6.689 28.984a105.836 105.836 0 0 1 -20.482 89.916l2.822 19.754a69.881 69.881 0 0 0 37.927 52.62 69.876 69.876 0 0 0 62.5 0 69.881 69.881 0 0 0 37.927-52.62l2.824-19.754a105.836 105.836 0 0 1 -20.482-89.913z" fill="#fdc9a6"/><g fill="#7a4922"><path d="m239.67 306.28-7.25 24.38a6.5 6.5 0 0 1 -.33.87 69.331 69.331 0 0 1 -14.46-7.27l6.7-22.54a8 8 0 1 1 15.34 4.56z"/><path d="m264 312v23.29a69.8 69.8 0 0 1 -16 0v-23.29a8 8 0 0 1 16 0z"/><path d="m295 323.84a69.073 69.073 0 0 1 -14.45 7.45c-.08-.21-.16-.42-.22-.63l-7.25-24.38a8 8 0 1 1 15.34-4.56z"/><circle cx="219" cy="211" r="13"/><circle cx="293" cy="211" r="13"/><path d="m247.99 292.42a8 8 0 0 1 -.973-15.941 59.036 59.036 0 0 0 31.976-14.414l.115-.1a8 8 0 0 1 10.592 11.992l-.113.1a74.976 74.976 0 0 1 -40.6 18.3 8.145 8.145 0 0 1 -.997.063z"/><path d="m256 266.927h-.227l-7.734-.215a16.87 16.87 0 0 1 -14.238-25.125 36.57 36.57 0 0 0 4.354-12.917 8 8 0 0 1 15.847 2.208 52.486 52.486 0 0 1 -6.252 18.545.87.87 0 0 0 .734 1.3l7.735.215a8 8 0 0 1 -.219 16z"/></g></g></svg>