<svg width="149" height="14" viewBox="0 0 149 14" fill="none" xmlns="http://www.w3.org/2000/svg">
<path d="M5.86621 5.94141C5.86621 6.66406 5.61882 7.2207 5.12402 7.61133C4.63249 7.9987 3.92773 8.19238 3.00977 8.19238H2.16992V11H1.33984V3.86133H3.19043C4.97428 3.86133 5.86621 4.55469 5.86621 5.94141ZM2.16992 7.47949H2.91699C3.65267 7.47949 4.1849 7.36068 4.51367 7.12305C4.84245 6.88542 5.00684 6.50456 5.00684 5.98047C5.00684 5.50846 4.85221 5.1569 4.54297 4.92578C4.23372 4.69466 3.75195 4.5791 3.09766 4.5791H2.16992V7.47949ZM11.8623 8.31934C11.8623 9.19173 11.6426 9.8737 11.2031 10.3652C10.7637 10.8535 10.1566 11.0977 9.38184 11.0977C8.90332 11.0977 8.47852 10.9854 8.10742 10.7607C7.73633 10.5361 7.44987 10.2139 7.24805 9.79395C7.04622 9.37402 6.94531 8.88249 6.94531 8.31934C6.94531 7.44694 7.16341 6.76823 7.59961 6.2832C8.03581 5.79492 8.64128 5.55078 9.41602 5.55078C10.1647 5.55078 10.7588 5.7998 11.1982 6.29785C11.641 6.7959 11.8623 7.46973 11.8623 8.31934ZM7.78516 8.31934C7.78516 9.00293 7.92188 9.52376 8.19531 9.88184C8.46875 10.2399 8.87077 10.4189 9.40137 10.4189C9.93197 10.4189 10.334 10.2415 10.6074 9.88672C10.8841 9.52865 11.0225 9.00618 11.0225 8.31934C11.0225 7.639 10.8841 7.12305 10.6074 6.77148C10.334 6.41667 9.92871 6.23926 9.3916 6.23926C8.861 6.23926 8.46061 6.41341 8.19043 6.76172C7.92025 7.11003 7.78516 7.62923 7.78516 8.31934ZM17.6582 11L16.6768 7.86035C16.6149 7.66829 16.4993 7.2321 16.3301 6.55176H16.291C16.1608 7.12142 16.0469 7.56087 15.9492 7.87012L14.9385 11H14.001L12.541 5.64844H13.3906C13.7357 6.99284 13.9977 8.0166 14.1768 8.71973C14.359 9.42285 14.4632 9.89648 14.4893 10.1406H14.5283C14.5641 9.95508 14.6211 9.71582 14.6992 9.42285C14.7806 9.12663 14.8506 8.89225 14.9092 8.71973L15.8906 5.64844H16.7695L17.7266 8.71973C17.9089 9.27962 18.0326 9.75 18.0977 10.1309H18.1367C18.1497 10.0137 18.1839 9.83301 18.2393 9.58887C18.2979 9.34473 18.638 8.03125 19.2598 5.64844H20.0996L18.6201 11H17.6582ZM23.332 11.0977C22.541 11.0977 21.916 10.8568 21.457 10.375C21.0013 9.89323 20.7734 9.22428 20.7734 8.36816C20.7734 7.50553 20.985 6.82031 21.4082 6.3125C21.8346 5.80469 22.4059 5.55078 23.1221 5.55078C23.7926 5.55078 24.3232 5.77214 24.7139 6.21484C25.1045 6.6543 25.2998 7.23535 25.2998 7.95801V8.4707H21.6133C21.6296 9.09896 21.7874 9.57585 22.0869 9.90137C22.3896 10.2269 22.8145 10.3896 23.3613 10.3896C23.9375 10.3896 24.5072 10.2692 25.0703 10.0283V10.751C24.7839 10.8747 24.512 10.9626 24.2549 11.0146C24.001 11.07 23.6934 11.0977 23.332 11.0977ZM23.1123 6.22949C22.6826 6.22949 22.3392 6.36947 22.082 6.64941C21.8281 6.92936 21.6784 7.31673 21.6328 7.81152H24.4307C24.4307 7.30046 24.3167 6.90983 24.0889 6.63965C23.861 6.36621 23.5355 6.22949 23.1123 6.22949ZM29.1279 5.55078C29.3656 5.55078 29.5788 5.57031 29.7676 5.60938L29.6553 6.36133C29.4339 6.3125 29.2386 6.28809 29.0693 6.28809C28.6364 6.28809 28.2653 6.46387 27.9561 6.81543C27.6501 7.16699 27.4971 7.60482 27.4971 8.12891V11H26.6865V5.64844H27.3555L27.4482 6.63965H27.4873C27.6859 6.29134 27.9251 6.02279 28.2051 5.83398C28.485 5.64518 28.7926 5.55078 29.1279 5.55078ZM33.0293 11.0977C32.2383 11.0977 31.6133 10.8568 31.1543 10.375C30.6986 9.89323 30.4707 9.22428 30.4707 8.36816C30.4707 7.50553 30.6823 6.82031 31.1055 6.3125C31.5319 5.80469 32.1032 5.55078 32.8193 5.55078C33.4899 5.55078 34.0205 5.77214 34.4111 6.21484C34.8018 6.6543 34.9971 7.23535 34.9971 7.95801V8.4707H31.3105C31.3268 9.09896 31.4847 9.57585 31.7842 9.90137C32.0869 10.2269 32.5117 10.3896 33.0586 10.3896C33.6348 10.3896 34.2044 10.2692 34.7676 10.0283V10.751C34.4811 10.8747 34.2093 10.9626 33.9521 11.0146C33.6982 11.07 33.3906 11.0977 33.0293 11.0977ZM32.8096 6.22949C32.3799 6.22949 32.0365 6.36947 31.7793 6.64941C31.5254 6.92936 31.3757 7.31673 31.3301 7.81152H34.1279C34.1279 7.30046 34.014 6.90983 33.7861 6.63965C33.5583 6.36621 33.2327 6.22949 32.8096 6.22949ZM40.0264 10.2822H39.9824C39.6081 10.8258 39.0482 11.0977 38.3027 11.0977C37.6029 11.0977 37.0576 10.8584 36.667 10.3799C36.2796 9.90137 36.0859 9.22103 36.0859 8.33887C36.0859 7.45671 36.2812 6.77148 36.6719 6.2832C37.0625 5.79492 37.6061 5.55078 38.3027 5.55078C39.0286 5.55078 39.5853 5.81445 39.9727 6.3418H40.0361L40.002 5.95605L39.9824 5.58008V3.40234H40.793V11H40.1338L40.0264 10.2822ZM38.4053 10.4189C38.9587 10.4189 39.359 10.2692 39.6064 9.96973C39.8571 9.66699 39.9824 9.18034 39.9824 8.50977V8.33887C39.9824 7.5804 39.8555 7.04004 39.6016 6.71777C39.3509 6.39225 38.9489 6.22949 38.3955 6.22949C37.9202 6.22949 37.5557 6.41504 37.3018 6.78613C37.0511 7.15397 36.9258 7.6748 36.9258 8.34863C36.9258 9.03223 37.0511 9.54818 37.3018 9.89648C37.5524 10.2448 37.9202 10.4189 38.4053 10.4189ZM47.6045 5.56055C48.3076 5.56055 48.8529 5.80143 49.2402 6.2832C49.6309 6.76172 49.8262 7.44043 49.8262 8.31934C49.8262 9.19824 49.6292 9.88184 49.2354 10.3701C48.8447 10.8551 48.3011 11.0977 47.6045 11.0977C47.2562 11.0977 46.9372 11.0342 46.6475 10.9072C46.361 10.777 46.1201 10.5785 45.9248 10.3115H45.8662L45.6953 11H45.1143V3.40234H45.9248V5.24805C45.9248 5.66146 45.9118 6.03255 45.8857 6.36133H45.9248C46.3024 5.82747 46.8623 5.56055 47.6045 5.56055ZM47.4873 6.23926C46.9339 6.23926 46.5352 6.39876 46.291 6.71777C46.0469 7.03353 45.9248 7.56738 45.9248 8.31934C45.9248 9.07129 46.0501 9.61003 46.3008 9.93555C46.5514 10.2578 46.9535 10.4189 47.5068 10.4189C48.0049 10.4189 48.376 10.2383 48.6201 9.87695C48.8643 9.51237 48.9863 8.98991 48.9863 8.30957C48.9863 7.61296 48.8643 7.09375 48.6201 6.75195C48.376 6.41016 47.9984 6.23926 47.4873 6.23926ZM50.3975 5.64844H51.2666L52.4385 8.7002C52.6956 9.39681 52.8551 9.89974 52.917 10.209H52.9561C52.9984 10.043 53.0863 9.75977 53.2197 9.35938C53.3564 8.95573 53.7992 7.71875 54.5479 5.64844H55.417L53.1172 11.7422C52.8893 12.3444 52.6224 12.7708 52.3164 13.0215C52.0137 13.2754 51.641 13.4023 51.1982 13.4023C50.9508 13.4023 50.7067 13.3747 50.4658 13.3193V12.6699C50.6449 12.709 50.8451 12.7285 51.0664 12.7285C51.623 12.7285 52.0202 12.416 52.2578 11.791L52.5557 11.0293L50.3975 5.64844ZM63.332 11H58.4248V10.3506L62.2139 4.6084H58.542V3.86133H63.2246V4.51074L59.4355 10.248H63.332V11ZM65.3584 5.64844V9.12012C65.3584 9.55632 65.4577 9.88184 65.6562 10.0967C65.8548 10.3115 66.1657 10.4189 66.5889 10.4189C67.1488 10.4189 67.5573 10.266 67.8145 9.95996C68.0749 9.65397 68.2051 9.1543 68.2051 8.46094V5.64844H69.0156V11H68.3467L68.2295 10.2822H68.1855C68.0195 10.5459 67.7884 10.7477 67.4922 10.8877C67.1992 11.0277 66.8639 11.0977 66.4863 11.0977C65.8353 11.0977 65.347 10.943 65.0215 10.6338C64.6992 10.3245 64.5381 9.82975 64.5381 9.14941V5.64844H65.3584ZM73.1807 5.55078C73.4183 5.55078 73.6315 5.57031 73.8203 5.60938L73.708 6.36133C73.4867 6.3125 73.2913 6.28809 73.1221 6.28809C72.6891 6.28809 72.318 6.46387 72.0088 6.81543C71.7028 7.16699 71.5498 7.60482 71.5498 8.12891V11H70.7393V5.64844H71.4082L71.501 6.63965H71.54C71.7386 6.29134 71.9779 6.02279 72.2578 5.83398C72.5378 5.64518 72.8454 5.55078 73.1807 5.55078ZM75.6318 11H74.8213V5.64844H75.6318V11ZM74.7529 4.19824C74.7529 4.0127 74.7985 3.8776 74.8896 3.79297C74.9808 3.70508 75.0947 3.66113 75.2314 3.66113C75.3617 3.66113 75.474 3.70508 75.5684 3.79297C75.6628 3.88086 75.71 4.01595 75.71 4.19824C75.71 4.38053 75.6628 4.51725 75.5684 4.6084C75.474 4.69629 75.3617 4.74023 75.2314 4.74023C75.0947 4.74023 74.9808 4.69629 74.8896 4.6084C74.7985 4.51725 74.7529 4.38053 74.7529 4.19824ZM83.127 4.50098C82.3424 4.50098 81.7223 4.76302 81.2666 5.28711C80.8141 5.80794 80.5879 6.52246 80.5879 7.43066C80.5879 8.36491 80.806 9.08757 81.2422 9.59863C81.6816 10.1064 82.3066 10.3604 83.1172 10.3604C83.6152 10.3604 84.1833 10.2708 84.8213 10.0918V10.8193C84.3265 11.0049 83.7161 11.0977 82.9902 11.0977C81.9388 11.0977 81.1266 10.7786 80.5537 10.1406C79.984 9.5026 79.6992 8.59603 79.6992 7.4209C79.6992 6.68522 79.8359 6.04069 80.1094 5.4873C80.3861 4.93392 80.7832 4.50749 81.3008 4.20801C81.8216 3.90853 82.4336 3.75879 83.1367 3.75879C83.8854 3.75879 84.5397 3.89551 85.0996 4.16895L84.748 4.88184C84.2077 4.62793 83.6673 4.50098 83.127 4.50098ZM89.9189 11V7.53809C89.9189 7.10189 89.8197 6.77637 89.6211 6.56152C89.4225 6.34668 89.1117 6.23926 88.6885 6.23926C88.1253 6.23926 87.7135 6.39225 87.4531 6.69824C87.196 7.00423 87.0674 7.50553 87.0674 8.20215V11H86.2568V3.40234H87.0674V5.70215C87.0674 5.97884 87.0544 6.20833 87.0283 6.39062H87.0771C87.2367 6.13346 87.4629 5.93164 87.7559 5.78516C88.0521 5.63542 88.389 5.56055 88.7666 5.56055C89.4209 5.56055 89.9108 5.7168 90.2363 6.0293C90.5651 6.33854 90.7295 6.83171 90.7295 7.50879V11H89.9189ZM95.6904 11L95.5293 10.2383H95.4902C95.2233 10.5736 94.9564 10.8014 94.6895 10.9219C94.4258 11.0391 94.0954 11.0977 93.6982 11.0977C93.1676 11.0977 92.751 10.9609 92.4482 10.6875C92.1488 10.4141 91.999 10.0251 91.999 9.52051C91.999 8.43978 92.8633 7.87337 94.5918 7.82129L95.5 7.79199V7.45996C95.5 7.04004 95.4089 6.73079 95.2266 6.53223C95.0475 6.3304 94.7594 6.22949 94.3623 6.22949C93.9163 6.22949 93.4118 6.36621 92.8486 6.63965L92.5996 6.01953C92.8633 5.8763 93.1514 5.764 93.4639 5.68262C93.7796 5.60124 94.0954 5.56055 94.4111 5.56055C95.0492 5.56055 95.5212 5.70215 95.8271 5.98535C96.1364 6.26855 96.291 6.72266 96.291 7.34766V11H95.6904ZM93.8594 10.4287C94.3639 10.4287 94.7594 10.2904 95.0459 10.0137C95.3356 9.73698 95.4805 9.34961 95.4805 8.85156V8.36816L94.6699 8.40234C94.0254 8.42513 93.5599 8.52604 93.2734 8.70508C92.9902 8.88086 92.8486 9.15592 92.8486 9.53027C92.8486 9.82324 92.9365 10.0462 93.1123 10.1992C93.2913 10.3522 93.5404 10.4287 93.8594 10.4287ZM99.6943 10.4287C99.8376 10.4287 99.9759 10.4189 100.109 10.3994C100.243 10.3766 100.349 10.3538 100.427 10.3311V10.9512C100.339 10.9935 100.209 11.0277 100.036 11.0537C99.8669 11.083 99.7139 11.0977 99.5771 11.0977C98.542 11.0977 98.0244 10.5524 98.0244 9.46191V6.27832H97.2578V5.8877L98.0244 5.55078L98.3662 4.4082H98.835V5.64844H100.388V6.27832H98.835V9.42773C98.835 9.75 98.9115 9.9974 99.0645 10.1699C99.2174 10.3424 99.4274 10.4287 99.6943 10.4287Z" fill="#4F5B69"/>
<path d="M124.055 3.715V4.325C124.055 4.41167 124.04 4.49667 124.01 4.58C123.983 4.66333 123.945 4.74167 123.895 4.815L120.475 9.7H123.945V11H118.325V10.35C118.325 10.2733 118.338 10.1983 118.365 10.125C118.392 10.0483 118.428 9.97833 118.475 9.915L121.905 5.015H118.605V3.715H124.055ZM129.792 9.665C130.019 9.665 130.22 9.62833 130.397 9.555C130.577 9.47833 130.729 9.37 130.852 9.23C130.975 9.09 131.069 8.92 131.132 8.72C131.199 8.51667 131.232 8.28667 131.232 8.03V3.715H132.922V8.03C132.922 8.47667 132.849 8.88667 132.702 9.26C132.559 9.63333 132.352 9.955 132.082 10.225C131.812 10.495 131.484 10.705 131.097 10.855C130.71 11.005 130.275 11.08 129.792 11.08C129.305 11.08 128.869 11.005 128.482 10.855C128.095 10.705 127.767 10.495 127.497 10.225C127.227 9.955 127.02 9.63333 126.877 9.26C126.734 8.88667 126.662 8.47667 126.662 8.03V3.715H128.352V8.025C128.352 8.28167 128.384 8.51167 128.447 8.715C128.514 8.915 128.609 9.08667 128.732 9.23C128.855 9.37 129.005 9.47833 129.182 9.555C129.362 9.62833 129.565 9.665 129.792 9.665ZM137.642 8.305V11H135.952V3.715H138.322C138.848 3.715 139.297 3.77 139.667 3.88C140.04 3.98667 140.343 4.13667 140.577 4.33C140.813 4.52333 140.985 4.75167 141.092 5.015C141.198 5.27833 141.252 5.565 141.252 5.875C141.252 6.11167 141.22 6.335 141.157 6.545C141.093 6.755 140.998 6.95 140.872 7.13C140.748 7.30667 140.595 7.465 140.412 7.605C140.232 7.745 140.023 7.86 139.787 7.95C139.9 8.00667 140.005 8.07667 140.102 8.16C140.202 8.24333 140.288 8.345 140.362 8.465L141.912 11H140.382C140.098 11 139.895 10.8933 139.772 10.68L138.562 8.565C138.508 8.47167 138.445 8.405 138.372 8.365C138.302 8.325 138.202 8.305 138.072 8.305H137.642ZM137.642 7.14H138.322C138.552 7.14 138.747 7.11167 138.907 7.055C139.07 6.995 139.203 6.91333 139.307 6.81C139.41 6.70667 139.485 6.58667 139.532 6.45C139.578 6.31 139.602 6.16 139.602 6C139.602 5.68 139.497 5.43 139.287 5.25C139.08 5.07 138.758 4.98 138.322 4.98H137.642V7.14ZM146.386 11H144.686V3.715H146.386V11Z" fill="#393939"/>
<rect x="107.273" y="1" width="3.81818" height="3.81818" rx="1.0991" fill="#00B87C"/>
<rect x="106" y="5.36328" width="3.81818" height="3.81818" rx="1.0991" fill="#FEA162"/>
<rect x="111.636" y="2.81812" width="3.81818" height="3.81818" rx="1.0991" fill="#1A61DB"/>
<rect x="110.363" y="7.1814" width="3.81818" height="3.81818" rx="1.0991" fill="#DC1AA3"/>
</svg>
